solid OpenSCAD_Model
  facet normal -0.980798 0 -0.195028
    outer loop
      vertex -51.6593 -1.2 -23.5882
      vertex -51.9144 1.2 -22.3053
      vertex -51.6593 1.2 -23.5882
    endloop
  endfacet
  facet normal -0.980798 -0 -0.195028
    outer loop
      vertex -51.9144 1.2 -22.3053
      vertex -51.6593 -1.2 -23.5882
      vertex -51.9144 -1.2 -22.3053
    endloop
  endfacet
  facet normal 0.321475 0 -0.946918
    outer loop
      vertex 44.5882 -1.2 -30.6593
      vertex 45.8268 1.2 -30.2388
      vertex 45.8268 -1.2 -30.2388
    endloop
  endfacet
  facet normal 0.321475 0 -0.946918
    outer loop
      vertex 45.8268 1.2 -30.2388
      vertex 44.5882 -1.2 -30.6593
      vertex 44.5882 1.2 -30.6593
    endloop
  endfacet
  facet normal -0.0654382 0 -0.997857
    outer loop
      vertex -43.3053 -1.2 -30.9144
      vertex -42 1.2 -31
      vertex -42 -1.2 -31
    endloop
  endfacet
  facet normal -0.0654382 0 -0.997857
    outer loop
      vertex -42 1.2 -31
      vertex -43.3053 -1.2 -30.9144
      vertex -43.3053 1.2 -30.9144
    endloop
  endfacet
  facet normal -0.997857 0 0.0654382
    outer loop
      vertex -52 -1.2 21
      vertex -51.9144 1.2 22.3053
      vertex -52 1.2 21
    endloop
  endfacet
  facet normal -0.997857 0 0.0654382
    outer loop
      vertex -51.9144 1.2 22.3053
      vertex -52 -1.2 21
      vertex -51.9144 -1.2 22.3053
    endloop
  endfacet
  facet normal -0.555564 0 -0.831474
    outer loop
      vertex -48.0876 -1.2 -28.9335
      vertex -47 1.2 -29.6602
      vertex -47 -1.2 -29.6602
    endloop
  endfacet
  facet normal -0.555564 0 -0.831474
    outer loop
      vertex -47 1.2 -29.6602
      vertex -48.0876 -1.2 -28.9335
      vertex -48.0876 1.2 -28.9335
    endloop
  endfacet
  facet normal -0.997857 0 -0.0654382
    outer loop
      vertex -51.9144 -1.2 -22.3053
      vertex -52 1.2 -21
      vertex -51.9144 1.2 -22.3053
    endloop
  endfacet
  facet normal -0.997857 -0 -0.0654382
    outer loop
      vertex -52 1.2 -21
      vertex -51.9144 -1.2 -22.3053
      vertex -52 -1.2 -21
    endloop
  endfacet
  facet normal -0.89686 0 -0.442314
    outer loop
      vertex -50.6602 -1.2 -26
      vertex -51.2388 1.2 -24.8268
      vertex -50.6602 1.2 -26
    endloop
  endfacet
  facet normal -0.89686 -0 -0.442314
    outer loop
      vertex -51.2388 1.2 -24.8268
      vertex -50.6602 -1.2 -26
      vertex -51.2388 -1.2 -24.8268
    endloop
  endfacet
  facet normal -0 0 1
    outer loop
      vertex -42 1.2 31
      vertex 42 -1.2 31
      vertex 42 1.2 31
    endloop
  endfacet
  facet normal 0 0 1
    outer loop
      vertex 42 -1.2 31
      vertex -42 1.2 31
      vertex -42 -1.2 31
    endloop
  endfacet
  facet normal -0.321475 0 0.946918
    outer loop
      vertex -45.8268 1.2 30.2388
      vertex -44.5882 -1.2 30.6593
      vertex -44.5882 1.2 30.6593
    endloop
  endfacet
  facet normal -0.321475 0 0.946918
    outer loop
      vertex -44.5882 -1.2 30.6593
      vertex -45.8268 1.2 30.2388
      vertex -45.8268 -1.2 30.2388
    endloop
  endfacet
  facet normal 0.980798 0 -0.195028
    outer loop
      vertex 51.9144 -1.2 -22.3053
      vertex 51.6593 1.2 -23.5882
      vertex 51.9144 1.2 -22.3053
    endloop
  endfacet
  facet normal 0.980798 0 -0.195028
    outer loop
      vertex 51.6593 1.2 -23.5882
      vertex 51.9144 -1.2 -22.3053
      vertex 51.6593 -1.2 -23.5882
    endloop
  endfacet
  facet normal 0.997857 0 -0.0654382
    outer loop
      vertex 52 -1.2 -21
      vertex 51.9144 1.2 -22.3053
      vertex 52 1.2 -21
    endloop
  endfacet
  facet normal 0.997857 0 -0.0654382
    outer loop
      vertex 51.9144 1.2 -22.3053
      vertex 52 -1.2 -21
      vertex 51.9144 -1.2 -22.3053
    endloop
  endfacet
  facet normal 0.0654382 0 -0.997857
    outer loop
      vertex 42 -1.2 -31
      vertex 43.3053 1.2 -30.9144
      vertex 43.3053 -1.2 -30.9144
    endloop
  endfacet
  facet normal 0.0654382 0 -0.997857
    outer loop
      vertex 43.3053 1.2 -30.9144
      vertex 42 -1.2 -31
      vertex 42 1.2 -31
    endloop
  endfacet
  facet normal -0.946918 0 -0.321475
    outer loop
      vertex -51.2388 -1.2 -24.8268
      vertex -51.6593 1.2 -23.5882
      vertex -51.2388 1.2 -24.8268
    endloop
  endfacet
  facet normal -0.946918 -0 -0.321475
    outer loop
      vertex -51.6593 1.2 -23.5882
      vertex -51.2388 -1.2 -24.8268
      vertex -51.6593 -1.2 -23.5882
    endloop
  endfacet
  facet normal -1 0 0
    outer loop
      vertex -52 -1.2 -21
      vertex -52 1.2 21
      vertex -52 1.2 -21
    endloop
  endfacet
  facet normal -1 -0 0
    outer loop
      vertex -52 1.2 21
      vertex -52 -1.2 -21
      vertex -52 -1.2 21
    endloop
  endfacet
  facet normal 0 1 0
    outer loop
      vertex 52 1.2 21
      vertex 42 1.2 31
      vertex 43.3053 1.2 30.9144
    endloop
  endfacet
  facet normal 0 1 0
    outer loop
      vertex 42 1.2 31
      vertex 42 1.2 -31
      vertex -42 1.2 31
    endloop
  endfacet
  facet normal 0 1 0
    outer loop
      vertex 52 1.2 21
      vertex 43.3053 1.2 30.9144
      vertex 44.5882 1.2 30.6593
    endloop
  endfacet
  facet normal 0 1 0
    outer loop
      vertex -42 1.2 -31
      vertex -42 1.2 31
      vertex 42 1.2 -31
    endloop
  endfacet
  facet normal 0 1 0
    outer loop
      vertex 52 1.2 21
      vertex 44.5882 1.2 30.6593
      vertex 45.8268 1.2 30.2388
    endloop
  endfacet
  facet normal -0 1 0
    outer loop
      vertex -52 1.2 21
      vertex -42 1.2 31
      vertex -42 1.2 -31
    endloop
  endfacet
  facet normal 0 1 0
    outer loop
      vertex 52 1.2 21
      vertex 45.8268 1.2 30.2388
      vertex 47 1.2 29.6602
    endloop
  endfacet
  facet normal 0 1 0
    outer loop
      vertex -42 1.2 31
      vertex -52 1.2 21
      vertex -43.3053 1.2 30.9144
    endloop
  endfacet
  facet normal 0 1 0
    outer loop
      vertex 52 1.2 21
      vertex 47 1.2 29.6602
      vertex 48.0876 1.2 28.9335
    endloop
  endfacet
  facet normal 0 1 0
    outer loop
      vertex -43.3053 1.2 30.9144
      vertex -52 1.2 21
      vertex -44.5882 1.2 30.6593
    endloop
  endfacet
  facet normal 0 1 0
    outer loop
      vertex 52 1.2 21
      vertex 48.0876 1.2 28.9335
      vertex 49.0711 1.2 28.0711
    endloop
  endfacet
  facet normal 0 1 0
    outer loop
      vertex 42 1.2 31
      vertex 52 1.2 21
      vertex 42 1.2 -31
    endloop
  endfacet
  facet normal 0 1 0
    outer loop
      vertex 52 1.2 21
      vertex 49.0711 1.2 28.0711
      vertex 49.9335 1.2 27.0876
    endloop
  endfacet
  facet normal 0 1 0
    outer loop
      vertex -44.5882 1.2 30.6593
      vertex -52 1.2 21
      vertex -45.8268 1.2 30.2388
    endloop
  endfacet
  facet normal 0 1 0
    outer loop
      vertex 52 1.2 21
      vertex 49.9335 1.2 27.0876
      vertex 50.6602 1.2 26
    endloop
  endfacet
  facet normal 0 1 0
    outer loop
      vertex -48.0876 1.2 28.9335
      vertex -52 1.2 21
      vertex -49.0711 1.2 28.0711
    endloop
  endfacet
  facet normal 0 1 0
    outer loop
      vertex 52 1.2 21
      vertex 50.6602 1.2 26
      vertex 51.2388 1.2 24.8268
    endloop
  endfacet
  facet normal 0 1 0
    outer loop
      vertex -49.0711 1.2 28.0711
      vertex -52 1.2 21
      vertex -49.9335 1.2 27.0876
    endloop
  endfacet
  facet normal 0 1 0
    outer loop
      vertex 52 1.2 21
      vertex 51.2388 1.2 24.8268
      vertex 51.6593 1.2 23.5882
    endloop
  endfacet
  facet normal 0 1 0
    outer loop
      vertex -49.9335 1.2 27.0876
      vertex -52 1.2 21
      vertex -50.6602 1.2 26
    endloop
  endfacet
  facet normal 0 1 0
    outer loop
      vertex 52 1.2 21
      vertex 51.6593 1.2 23.5882
      vertex 51.9144 1.2 22.3053
    endloop
  endfacet
  facet normal 0 1 0
    outer loop
      vertex -50.6602 1.2 26
      vertex -52 1.2 21
      vertex -51.2388 1.2 24.8268
    endloop
  endfacet
  facet normal 0 1 0
    outer loop
      vertex -51.2388 1.2 24.8268
      vertex -52 1.2 21
      vertex -51.6593 1.2 23.5882
    endloop
  endfacet
  facet normal 0 1 0
    outer loop
      vertex -51.6593 1.2 23.5882
      vertex -52 1.2 21
      vertex -51.9144 1.2 22.3053
    endloop
  endfacet
  facet normal 0 1 0
    outer loop
      vertex 42 1.2 -31
      vertex 52 1.2 21
      vertex 52 1.2 -21
    endloop
  endfacet
  facet normal 0 1 0
    outer loop
      vertex -45.8268 1.2 30.2388
      vertex -52 1.2 21
      vertex -47 1.2 29.6602
    endloop
  endfacet
  facet normal 0 1 0
    outer loop
      vertex 42 1.2 -31
      vertex 52 1.2 -21
      vertex 51.9144 1.2 -22.3053
    endloop
  endfacet
  facet normal 0 1 0
    outer loop
      vertex -47 1.2 29.6602
      vertex -52 1.2 21
      vertex -48.0876 1.2 28.9335
    endloop
  endfacet
  facet normal 0 1 0
    outer loop
      vertex 42 1.2 -31
      vertex 51.9144 1.2 -22.3053
      vertex 51.6593 1.2 -23.5882
    endloop
  endfacet
  facet normal 0 1 0
    outer loop
      vertex -52 1.2 21
      vertex -42 1.2 -31
      vertex -52 1.2 -21
    endloop
  endfacet
  facet normal 0 1 0
    outer loop
      vertex 42 1.2 -31
      vertex 51.6593 1.2 -23.5882
      vertex 51.2388 1.2 -24.8268
    endloop
  endfacet
  facet normal 0 1 0
    outer loop
      vertex -52 1.2 -21
      vertex -42 1.2 -31
      vertex -51.9144 1.2 -22.3053
    endloop
  endfacet
  facet normal 0 1 0
    outer loop
      vertex 42 1.2 -31
      vertex 51.2388 1.2 -24.8268
      vertex 50.6602 1.2 -26
    endloop
  endfacet
  facet normal 0 1 0
    outer loop
      vertex -51.9144 1.2 -22.3053
      vertex -42 1.2 -31
      vertex -51.6593 1.2 -23.5882
    endloop
  endfacet
  facet normal 0 1 0
    outer loop
      vertex 42 1.2 -31
      vertex 50.6602 1.2 -26
      vertex 49.9335 1.2 -27.0876
    endloop
  endfacet
  facet normal 0 1 0
    outer loop
      vertex -51.6593 1.2 -23.5882
      vertex -42 1.2 -31
      vertex -51.2388 1.2 -24.8268
    endloop
  endfacet
  facet normal 0 1 0
    outer loop
      vertex 42 1.2 -31
      vertex 49.9335 1.2 -27.0876
      vertex 49.0711 1.2 -28.0711
    endloop
  endfacet
  facet normal 0 1 0
    outer loop
      vertex -51.2388 1.2 -24.8268
      vertex -42 1.2 -31
      vertex -50.6602 1.2 -26
    endloop
  endfacet
  facet normal 0 1 0
    outer loop
      vertex 42 1.2 -31
      vertex 49.0711 1.2 -28.0711
      vertex 48.0876 1.2 -28.9335
    endloop
  endfacet
  facet normal 0 1 0
    outer loop
      vertex -50.6602 1.2 -26
      vertex -42 1.2 -31
      vertex -49.9335 1.2 -27.0876
    endloop
  endfacet
  facet normal 0 1 0
    outer loop
      vertex 42 1.2 -31
      vertex 48.0876 1.2 -28.9335
      vertex 47 1.2 -29.6602
    endloop
  endfacet
  facet normal 0 1 0
    outer loop
      vertex -49.9335 1.2 -27.0876
      vertex -42 1.2 -31
      vertex -49.0711 1.2 -28.0711
    endloop
  endfacet
  facet normal 0 1 0
    outer loop
      vertex 42 1.2 -31
      vertex 47 1.2 -29.6602
      vertex 45.8268 1.2 -30.2388
    endloop
  endfacet
  facet normal 0 1 0
    outer loop
      vertex -49.0711 1.2 -28.0711
      vertex -42 1.2 -31
      vertex -48.0876 1.2 -28.9335
    endloop
  endfacet
  facet normal 0 1 0
    outer loop
      vertex 42 1.2 -31
      vertex 45.8268 1.2 -30.2388
      vertex 44.5882 1.2 -30.6593
    endloop
  endfacet
  facet normal 0 1 0
    outer loop
      vertex -48.0876 1.2 -28.9335
      vertex -42 1.2 -31
      vertex -47 1.2 -29.6602
    endloop
  endfacet
  facet normal 0 1 0
    outer loop
      vertex 42 1.2 -31
      vertex 44.5882 1.2 -30.6593
      vertex 43.3053 1.2 -30.9144
    endloop
  endfacet
  facet normal 0 1 0
    outer loop
      vertex -47 1.2 -29.6602
      vertex -42 1.2 -31
      vertex -45.8268 1.2 -30.2388
    endloop
  endfacet
  facet normal 0 1 0
    outer loop
      vertex -45.8268 1.2 -30.2388
      vertex -42 1.2 -31
      vertex -44.5882 1.2 -30.6593
    endloop
  endfacet
  facet normal 0 1 0
    outer loop
      vertex -44.5882 1.2 -30.6593
      vertex -42 1.2 -31
      vertex -43.3053 1.2 -30.9144
    endloop
  endfacet
  facet normal 0 -1 0
    outer loop
      vertex -42.0442 -1.2 27.9315
      vertex -42 -1.2 31
      vertex -43.3053 -1.2 30.9144
    endloop
  endfacet
  facet normal 0 -1 0
    outer loop
      vertex -42 -1.2 31
      vertex -41 -1.2 28
      vertex 42 -1.2 31
    endloop
  endfacet
  facet normal 0 -1 0
    outer loop
      vertex -43.0705 -1.2 27.7274
      vertex -43.3053 -1.2 30.9144
      vertex -44.5882 -1.2 30.6593
    endloop
  endfacet
  facet normal 0 -1 0
    outer loop
      vertex 41 -1.2 28
      vertex 42 -1.2 31
      vertex -41 -1.2 28
    endloop
  endfacet
  facet normal 0 -1 0
    outer loop
      vertex -44.0615 -1.2 27.391
      vertex -44.5882 -1.2 30.6593
      vertex -45.8268 -1.2 30.2388
    endloop
  endfacet
  facet normal 0 -1 0
    outer loop
      vertex 42.0442 -1.2 27.9315
      vertex 42 -1.2 31
      vertex 41 -1.2 28
    endloop
  endfacet
  facet normal 0 -1 0
    outer loop
      vertex -45 -1.2 26.9282
      vertex -45.8268 -1.2 30.2388
      vertex -47 -1.2 29.6602
    endloop
  endfacet
  facet normal 0 -1 0
    outer loop
      vertex 42 -1.2 31
      vertex 42.0442 -1.2 27.9315
      vertex 43.3053 -1.2 30.9144
    endloop
  endfacet
  facet normal 0 -1 0
    outer loop
      vertex -45.8701 -1.2 26.3468
      vertex -47 -1.2 29.6602
      vertex -48.0876 -1.2 28.9335
    endloop
  endfacet
  facet normal 0 -1 0
    outer loop
      vertex 43.0705 -1.2 27.7274
      vertex 43.3053 -1.2 30.9144
      vertex 42.0442 -1.2 27.9315
    endloop
  endfacet
  facet normal 0 -1 0
    outer loop
      vertex -46.6568 -1.2 25.6568
      vertex -48.0876 -1.2 28.9335
      vertex -49.0711 -1.2 28.0711
    endloop
  endfacet
  facet normal 0 -1 -0
    outer loop
      vertex 43.3053 -1.2 30.9144
      vertex 43.0705 -1.2 27.7274
      vertex 44.5882 -1.2 30.6593
    endloop
  endfacet
  facet normal 0 -1 0
    outer loop
      vertex 44.0615 -1.2 27.391
      vertex 44.5882 -1.2 30.6593
      vertex 43.0705 -1.2 27.7274
    endloop
  endfacet
  facet normal 0 -1 -0
    outer loop
      vertex -42 -1.2 31
      vertex -42.0442 -1.2 27.9315
      vertex -41 -1.2 28
    endloop
  endfacet
  facet normal 0 -1 0
    outer loop
      vertex -43.3053 -1.2 30.9144
      vertex -43.0705 -1.2 27.7274
      vertex -42.0442 -1.2 27.9315
    endloop
  endfacet
  facet normal 0 -1 0
    outer loop
      vertex -44.5882 -1.2 30.6593
      vertex -44.0615 -1.2 27.391
      vertex -43.0705 -1.2 27.7274
    endloop
  endfacet
  facet normal 0 -1 0
    outer loop
      vertex -46.6568 -1.2 25.6568
      vertex -49.0711 -1.2 28.0711
      vertex -49.9335 -1.2 27.0876
    endloop
  endfacet
  facet normal 0 -1 0
    outer loop
      vertex -45.8268 -1.2 30.2388
      vertex -45 -1.2 26.9282
      vertex -44.0615 -1.2 27.391
    endloop
  endfacet
  facet normal 0 -1 0
    outer loop
      vertex -47 -1.2 29.6602
      vertex -45.8701 -1.2 26.3468
      vertex -45 -1.2 26.9282
    endloop
  endfacet
  facet normal 0 -1 0
    outer loop
      vertex -47.3468 -1.2 24.8701
      vertex -49.9335 -1.2 27.0876
      vertex -50.6602 -1.2 26
    endloop
  endfacet
  facet normal 0 -1 0
    outer loop
      vertex -48.0876 -1.2 28.9335
      vertex -46.6568 -1.2 25.6568
      vertex -45.8701 -1.2 26.3468
    endloop
  endfacet
  facet normal 0 -1 0
    outer loop
      vertex -49.9335 -1.2 27.0876
      vertex -47.3468 -1.2 24.8701
      vertex -46.6568 -1.2 25.6568
    endloop
  endfacet
  facet normal 0 -1 0
    outer loop
      vertex -47.9282 -1.2 24
      vertex -50.6602 -1.2 26
      vertex -51.2388 -1.2 24.8268
    endloop
  endfacet
  facet normal 0 -1 0
    outer loop
      vertex -50.6602 -1.2 26
      vertex -47.9282 -1.2 24
      vertex -47.3468 -1.2 24.8701
    endloop
  endfacet
  facet normal 0 -1 0
    outer loop
      vertex -48.391 -1.2 23.0615
      vertex -51.2388 -1.2 24.8268
      vertex -51.6593 -1.2 23.5882
    endloop
  endfacet
  facet normal 0 -1 0
    outer loop
      vertex -51.2388 -1.2 24.8268
      vertex -48.391 -1.2 23.0615
      vertex -47.9282 -1.2 24
    endloop
  endfacet
  facet normal 0 -1 0
    outer loop
      vertex -48.7274 -1.2 22.0705
      vertex -51.6593 -1.2 23.5882
      vertex -51.9144 -1.2 22.3053
    endloop
  endfacet
  facet normal 0 -1 0
    outer loop
      vertex -51.6593 -1.2 23.5882
      vertex -48.7274 -1.2 22.0705
      vertex -48.391 -1.2 23.0615
    endloop
  endfacet
  facet normal 0 -1 0
    outer loop
      vertex -51.9144 -1.2 22.3053
      vertex -48.9315 -1.2 21.0442
      vertex -48.7274 -1.2 22.0705
    endloop
  endfacet
  facet normal 0 -1 0
    outer loop
      vertex -52 -1.2 21
      vertex -48.9315 -1.2 21.0442
      vertex -51.9144 -1.2 22.3053
    endloop
  endfacet
  facet normal 0 -1 0
    outer loop
      vertex -52 -1.2 21
      vertex -49 -1.2 20
      vertex -48.9315 -1.2 21.0442
    endloop
  endfacet
  facet normal 0 -1 0
    outer loop
      vertex -52 -1.2 21
      vertex -49 -1.2 -20
      vertex -49 -1.2 20
    endloop
  endfacet
  facet normal 0 -1 0
    outer loop
      vertex -52 -1.2 -21
      vertex -49 -1.2 -20
      vertex -52 -1.2 21
    endloop
  endfacet
  facet normal 0 -1 0
    outer loop
      vertex -52 -1.2 -21
      vertex -48.9315 -1.2 -21.0442
      vertex -49 -1.2 -20
    endloop
  endfacet
  facet normal 0 -1 0
    outer loop
      vertex -51.9144 -1.2 -22.3053
      vertex -48.9315 -1.2 -21.0442
      vertex -52 -1.2 -21
    endloop
  endfacet
  facet normal 0 -1 -0
    outer loop
      vertex -48.9315 -1.2 -21.0442
      vertex -51.9144 -1.2 -22.3053
      vertex -48.7274 -1.2 -22.0705
    endloop
  endfacet
  facet normal 0 -1 0
    outer loop
      vertex -51.6593 -1.2 -23.5882
      vertex -48.7274 -1.2 -22.0705
      vertex -51.9144 -1.2 -22.3053
    endloop
  endfacet
  facet normal 0 -1 -0
    outer loop
      vertex -48.7274 -1.2 -22.0705
      vertex -51.6593 -1.2 -23.5882
      vertex -48.391 -1.2 -23.0615
    endloop
  endfacet
  facet normal 0 -1 0
    outer loop
      vertex -51.2388 -1.2 -24.8268
      vertex -48.391 -1.2 -23.0615
      vertex -51.6593 -1.2 -23.5882
    endloop
  endfacet
  facet normal 0 -1 -0
    outer loop
      vertex -48.391 -1.2 -23.0615
      vertex -51.2388 -1.2 -24.8268
      vertex -47.9282 -1.2 -24
    endloop
  endfacet
  facet normal 0 -1 0
    outer loop
      vertex -50.6602 -1.2 -26
      vertex -47.9282 -1.2 -24
      vertex -51.2388 -1.2 -24.8268
    endloop
  endfacet
  facet normal 0 -1 -0
    outer loop
      vertex -47.9282 -1.2 -24
      vertex -50.6602 -1.2 -26
      vertex -47.3468 -1.2 -24.8701
    endloop
  endfacet
  facet normal 0 -1 0
    outer loop
      vertex -49.9335 -1.2 -27.0876
      vertex -47.3468 -1.2 -24.8701
      vertex -50.6602 -1.2 -26
    endloop
  endfacet
  facet normal 0 -1 -0
    outer loop
      vertex -47.3468 -1.2 -24.8701
      vertex -49.9335 -1.2 -27.0876
      vertex -46.6568 -1.2 -25.6568
    endloop
  endfacet
  facet normal 0 -1 0
    outer loop
      vertex -49.0711 -1.2 -28.0711
      vertex -46.6568 -1.2 -25.6568
      vertex -49.9335 -1.2 -27.0876
    endloop
  endfacet
  facet normal 0 -1 0
    outer loop
      vertex -48.0876 -1.2 -28.9335
      vertex -46.6568 -1.2 -25.6568
      vertex -49.0711 -1.2 -28.0711
    endloop
  endfacet
  facet normal 0 -1 -0
    outer loop
      vertex -46.6568 -1.2 -25.6568
      vertex -48.0876 -1.2 -28.9335
      vertex -45.8701 -1.2 -26.3468
    endloop
  endfacet
  facet normal 0 -1 0
    outer loop
      vertex -47 -1.2 -29.6602
      vertex -45.8701 -1.2 -26.3468
      vertex -48.0876 -1.2 -28.9335
    endloop
  endfacet
  facet normal 0 -1 -0
    outer loop
      vertex -45.8701 -1.2 -26.3468
      vertex -47 -1.2 -29.6602
      vertex -45 -1.2 -26.9282
    endloop
  endfacet
  facet normal 0 -1 0
    outer loop
      vertex -44.5882 -1.2 -30.6593
      vertex -44.0615 -1.2 -27.391
      vertex -45.8268 -1.2 -30.2388
    endloop
  endfacet
  facet normal 0 -1 -0
    outer loop
      vertex -45 -1.2 -26.9282
      vertex -45.8268 -1.2 -30.2388
      vertex -44.0615 -1.2 -27.391
    endloop
  endfacet
  facet normal 0 -1 0
    outer loop
      vertex -45.8268 -1.2 -30.2388
      vertex -45 -1.2 -26.9282
      vertex -47 -1.2 -29.6602
    endloop
  endfacet
  facet normal 0 -1 -0
    outer loop
      vertex 44.5882 -1.2 30.6593
      vertex 44.0615 -1.2 27.391
      vertex 45.8268 -1.2 30.2388
    endloop
  endfacet
  facet normal 0 -1 0
    outer loop
      vertex 45 -1.2 26.9282
      vertex 45.8268 -1.2 30.2388
      vertex 44.0615 -1.2 27.391
    endloop
  endfacet
  facet normal 0 -1 -0
    outer loop
      vertex 45.8268 -1.2 30.2388
      vertex 45 -1.2 26.9282
      vertex 47 -1.2 29.6602
    endloop
  endfacet
  facet normal 0 -1 0
    outer loop
      vertex 45.8701 -1.2 26.3468
      vertex 47 -1.2 29.6602
      vertex 45 -1.2 26.9282
    endloop
  endfacet
  facet normal 0 -1 -0
    outer loop
      vertex 47 -1.2 29.6602
      vertex 45.8701 -1.2 26.3468
      vertex 48.0876 -1.2 28.9335
    endloop
  endfacet
  facet normal 0 -1 0
    outer loop
      vertex 46.6568 -1.2 25.6568
      vertex 48.0876 -1.2 28.9335
      vertex 45.8701 -1.2 26.3468
    endloop
  endfacet
  facet normal 0 -1 -0
    outer loop
      vertex 48.0876 -1.2 28.9335
      vertex 46.6568 -1.2 25.6568
      vertex 49.0711 -1.2 28.0711
    endloop
  endfacet
  facet normal 0 -1 -0
    outer loop
      vertex 49.0711 -1.2 28.0711
      vertex 46.6568 -1.2 25.6568
      vertex 49.9335 -1.2 27.0876
    endloop
  endfacet
  facet normal 0 -1 0
    outer loop
      vertex 47.3468 -1.2 24.8701
      vertex 49.9335 -1.2 27.0876
      vertex 46.6568 -1.2 25.6568
    endloop
  endfacet
  facet normal 0 -1 -0
    outer loop
      vertex 49.9335 -1.2 27.0876
      vertex 47.3468 -1.2 24.8701
      vertex 50.6602 -1.2 26
    endloop
  endfacet
  facet normal 0 -1 0
    outer loop
      vertex 47.9282 -1.2 24
      vertex 50.6602 -1.2 26
      vertex 47.3468 -1.2 24.8701
    endloop
  endfacet
  facet normal 0 -1 -0
    outer loop
      vertex 50.6602 -1.2 26
      vertex 47.9282 -1.2 24
      vertex 51.2388 -1.2 24.8268
    endloop
  endfacet
  facet normal 0 -1 0
    outer loop
      vertex 48.391 -1.2 23.0615
      vertex 51.2388 -1.2 24.8268
      vertex 47.9282 -1.2 24
    endloop
  endfacet
  facet normal 0 -1 -0
    outer loop
      vertex 51.2388 -1.2 24.8268
      vertex 48.391 -1.2 23.0615
      vertex 51.6593 -1.2 23.5882
    endloop
  endfacet
  facet normal 0 -1 0
    outer loop
      vertex 48.7274 -1.2 22.0705
      vertex 51.6593 -1.2 23.5882
      vertex 48.391 -1.2 23.0615
    endloop
  endfacet
  facet normal 0 -1 -0
    outer loop
      vertex 51.6593 -1.2 23.5882
      vertex 48.7274 -1.2 22.0705
      vertex 51.9144 -1.2 22.3053
    endloop
  endfacet
  facet normal 0 -1 0
    outer loop
      vertex 48.9315 -1.2 21.0442
      vertex 51.9144 -1.2 22.3053
      vertex 48.7274 -1.2 22.0705
    endloop
  endfacet
  facet normal 0 -1 0
    outer loop
      vertex 48.9315 -1.2 21.0442
      vertex 52 -1.2 21
      vertex 51.9144 -1.2 22.3053
    endloop
  endfacet
  facet normal 0 -1 0
    outer loop
      vertex 49 -1.2 20
      vertex 52 -1.2 21
      vertex 48.9315 -1.2 21.0442
    endloop
  endfacet
  facet normal 0 -1 0
    outer loop
      vertex 49 -1.2 -20
      vertex 52 -1.2 21
      vertex 49 -1.2 20
    endloop
  endfacet
  facet normal 0 -1 0
    outer loop
      vertex 49 -1.2 -20
      vertex 52 -1.2 -21
      vertex 52 -1.2 21
    endloop
  endfacet
  facet normal 0 -1 0
    outer loop
      vertex 48.9315 -1.2 -21.0442
      vertex 52 -1.2 -21
      vertex 49 -1.2 -20
    endloop
  endfacet
  facet normal 0 -1 0
    outer loop
      vertex 51.9144 -1.2 -22.3053
      vertex 48.9315 -1.2 -21.0442
      vertex 48.7274 -1.2 -22.0705
    endloop
  endfacet
  facet normal 0 -1 0
    outer loop
      vertex 48.9315 -1.2 -21.0442
      vertex 51.9144 -1.2 -22.3053
      vertex 52 -1.2 -21
    endloop
  endfacet
  facet normal 0 -1 0
    outer loop
      vertex 51.6593 -1.2 -23.5882
      vertex 48.7274 -1.2 -22.0705
      vertex 48.391 -1.2 -23.0615
    endloop
  endfacet
  facet normal 0 -1 0
    outer loop
      vertex 48.7274 -1.2 -22.0705
      vertex 51.6593 -1.2 -23.5882
      vertex 51.9144 -1.2 -22.3053
    endloop
  endfacet
  facet normal 0 -1 0
    outer loop
      vertex 51.2388 -1.2 -24.8268
      vertex 48.391 -1.2 -23.0615
      vertex 47.9282 -1.2 -24
    endloop
  endfacet
  facet normal 0 -1 0
    outer loop
      vertex 48.391 -1.2 -23.0615
      vertex 51.2388 -1.2 -24.8268
      vertex 51.6593 -1.2 -23.5882
    endloop
  endfacet
  facet normal 0 -1 0
    outer loop
      vertex 50.6602 -1.2 -26
      vertex 47.9282 -1.2 -24
      vertex 47.3468 -1.2 -24.8701
    endloop
  endfacet
  facet normal 0 -1 0
    outer loop
      vertex 49.9335 -1.2 -27.0876
      vertex 47.3468 -1.2 -24.8701
      vertex 46.6568 -1.2 -25.6568
    endloop
  endfacet
  facet normal 0 -1 0
    outer loop
      vertex 47.9282 -1.2 -24
      vertex 50.6602 -1.2 -26
      vertex 51.2388 -1.2 -24.8268
    endloop
  endfacet
  facet normal 0 -1 0
    outer loop
      vertex 48.0876 -1.2 -28.9335
      vertex 46.6568 -1.2 -25.6568
      vertex 45.8701 -1.2 -26.3468
    endloop
  endfacet
  facet normal 0 -1 0
    outer loop
      vertex 47 -1.2 -29.6602
      vertex 45.8701 -1.2 -26.3468
      vertex 45 -1.2 -26.9282
    endloop
  endfacet
  facet normal 0 -1 0
    outer loop
      vertex 47.3468 -1.2 -24.8701
      vertex 49.9335 -1.2 -27.0876
      vertex 50.6602 -1.2 -26
    endloop
  endfacet
  facet normal 0 -1 0
    outer loop
      vertex 45.8268 -1.2 -30.2388
      vertex 45 -1.2 -26.9282
      vertex 44.0615 -1.2 -27.391
    endloop
  endfacet
  facet normal 0 -1 0
    outer loop
      vertex 44.5882 -1.2 -30.6593
      vertex 44.0615 -1.2 -27.391
      vertex 43.0705 -1.2 -27.7274
    endloop
  endfacet
  facet normal 0 -1 0
    outer loop
      vertex 43.3053 -1.2 -30.9144
      vertex 43.0705 -1.2 -27.7274
      vertex 42.0442 -1.2 -27.9315
    endloop
  endfacet
  facet normal 0 -1 0
    outer loop
      vertex 46.6568 -1.2 -25.6568
      vertex 49.0711 -1.2 -28.0711
      vertex 49.9335 -1.2 -27.0876
    endloop
  endfacet
  facet normal 0 -1 0
    outer loop
      vertex 42 -1.2 -31
      vertex 42.0442 -1.2 -27.9315
      vertex 41 -1.2 -28
    endloop
  endfacet
  facet normal 0 -1 -0
    outer loop
      vertex -41 -1.2 -28
      vertex -42 -1.2 -31
      vertex 41 -1.2 -28
    endloop
  endfacet
  facet normal 0 -1 -0
    outer loop
      vertex -44.0615 -1.2 -27.391
      vertex -44.5882 -1.2 -30.6593
      vertex -43.0705 -1.2 -27.7274
    endloop
  endfacet
  facet normal 0 -1 0
    outer loop
      vertex 42 -1.2 -31
      vertex 41 -1.2 -28
      vertex -42 -1.2 -31
    endloop
  endfacet
  facet normal 0 -1 0
    outer loop
      vertex -43.3053 -1.2 -30.9144
      vertex -43.0705 -1.2 -27.7274
      vertex -44.5882 -1.2 -30.6593
    endloop
  endfacet
  facet normal 0 -1 -0
    outer loop
      vertex 42.0442 -1.2 -27.9315
      vertex 42 -1.2 -31
      vertex 43.3053 -1.2 -30.9144
    endloop
  endfacet
  facet normal 0 -1 -0
    outer loop
      vertex -43.0705 -1.2 -27.7274
      vertex -43.3053 -1.2 -30.9144
      vertex -42.0442 -1.2 -27.9315
    endloop
  endfacet
  facet normal 0 -1 0
    outer loop
      vertex 46.6568 -1.2 -25.6568
      vertex 48.0876 -1.2 -28.9335
      vertex 49.0711 -1.2 -28.0711
    endloop
  endfacet
  facet normal 0 -1 0
    outer loop
      vertex -42 -1.2 -31
      vertex -42.0442 -1.2 -27.9315
      vertex -43.3053 -1.2 -30.9144
    endloop
  endfacet
  facet normal 0 -1 0
    outer loop
      vertex 45.8701 -1.2 -26.3468
      vertex 47 -1.2 -29.6602
      vertex 48.0876 -1.2 -28.9335
    endloop
  endfacet
  facet normal 0 -1 0
    outer loop
      vertex -42.0442 -1.2 -27.9315
      vertex -42 -1.2 -31
      vertex -41 -1.2 -28
    endloop
  endfacet
  facet normal 0 -1 0
    outer loop
      vertex 45 -1.2 -26.9282
      vertex 45.8268 -1.2 -30.2388
      vertex 47 -1.2 -29.6602
    endloop
  endfacet
  facet normal 0 -1 0
    outer loop
      vertex 44.0615 -1.2 -27.391
      vertex 44.5882 -1.2 -30.6593
      vertex 45.8268 -1.2 -30.2388
    endloop
  endfacet
  facet normal 0 -1 0
    outer loop
      vertex 43.0705 -1.2 -27.7274
      vertex 43.3053 -1.2 -30.9144
      vertex 44.5882 -1.2 -30.6593
    endloop
  endfacet
  facet normal -0.75188 0 0.6593
    outer loop
      vertex -49.9335 -1.2 27.0876
      vertex -49.0711 1.2 28.0711
      vertex -49.9335 1.2 27.0876
    endloop
  endfacet
  facet normal -0.75188 0 0.6593
    outer loop
      vertex -49.0711 1.2 28.0711
      vertex -49.9335 -1.2 27.0876
      vertex -49.0711 -1.2 28.0711
    endloop
  endfacet
  facet normal -0.555564 0 0.831474
    outer loop
      vertex -48.0876 1.2 28.9335
      vertex -47 -1.2 29.6602
      vertex -47 1.2 29.6602
    endloop
  endfacet
  facet normal -0.555564 0 0.831474
    outer loop
      vertex -47 -1.2 29.6602
      vertex -48.0876 1.2 28.9335
      vertex -48.0876 -1.2 28.9335
    endloop
  endfacet
  facet normal -0.89686 0 0.442314
    outer loop
      vertex -51.2388 -1.2 24.8268
      vertex -50.6602 1.2 26
      vertex -51.2388 1.2 24.8268
    endloop
  endfacet
  facet normal -0.89686 0 0.442314
    outer loop
      vertex -50.6602 1.2 26
      vertex -51.2388 -1.2 24.8268
      vertex -50.6602 -1.2 26
    endloop
  endfacet
  facet normal -0.980798 0 0.195028
    outer loop
      vertex -51.9144 -1.2 22.3053
      vertex -51.6593 1.2 23.5882
      vertex -51.9144 1.2 22.3053
    endloop
  endfacet
  facet normal -0.980798 0 0.195028
    outer loop
      vertex -51.6593 1.2 23.5882
      vertex -51.9144 -1.2 22.3053
      vertex -51.6593 -1.2 23.5882
    endloop
  endfacet
  facet normal 0.831474 -0 0.555564
    outer loop
      vertex 49.9335 -1.2 27.0876
      vertex 50.6602 1.2 26
      vertex 49.9335 1.2 27.0876
    endloop
  endfacet
  facet normal 0.831474 0 0.555564
    outer loop
      vertex 50.6602 1.2 26
      vertex 49.9335 -1.2 27.0876
      vertex 50.6602 -1.2 26
    endloop
  endfacet
  facet normal 0.195028 0 0.980798
    outer loop
      vertex 43.3053 1.2 30.9144
      vertex 44.5882 -1.2 30.6593
      vertex 44.5882 1.2 30.6593
    endloop
  endfacet
  facet normal 0.195028 0 0.980798
    outer loop
      vertex 44.5882 -1.2 30.6593
      vertex 43.3053 1.2 30.9144
      vertex 43.3053 -1.2 30.9144
    endloop
  endfacet
  facet normal 0.442314 0 0.89686
    outer loop
      vertex 45.8268 1.2 30.2388
      vertex 47 -1.2 29.6602
      vertex 47 1.2 29.6602
    endloop
  endfacet
  facet normal 0.442314 0 0.89686
    outer loop
      vertex 47 -1.2 29.6602
      vertex 45.8268 1.2 30.2388
      vertex 45.8268 -1.2 30.2388
    endloop
  endfacet
  facet normal 0.6593 0 0.75188
    outer loop
      vertex 48.0876 1.2 28.9335
      vertex 49.0711 -1.2 28.0711
      vertex 49.0711 1.2 28.0711
    endloop
  endfacet
  facet normal 0.6593 0 0.75188
    outer loop
      vertex 49.0711 -1.2 28.0711
      vertex 48.0876 1.2 28.9335
      vertex 48.0876 -1.2 28.9335
    endloop
  endfacet
  facet normal 0.89686 -0 0.442314
    outer loop
      vertex 50.6602 -1.2 26
      vertex 51.2388 1.2 24.8268
      vertex 50.6602 1.2 26
    endloop
  endfacet
  facet normal 0.89686 0 0.442314
    outer loop
      vertex 51.2388 1.2 24.8268
      vertex 50.6602 -1.2 26
      vertex 51.2388 -1.2 24.8268
    endloop
  endfacet
  facet normal 0.0654382 0 0.997857
    outer loop
      vertex 42 1.2 31
      vertex 43.3053 -1.2 30.9144
      vertex 43.3053 1.2 30.9144
    endloop
  endfacet
  facet normal 0.0654382 0 0.997857
    outer loop
      vertex 43.3053 -1.2 30.9144
      vertex 42 1.2 31
      vertex 42 -1.2 31
    endloop
  endfacet
  facet normal -0.195028 0 0.980798
    outer loop
      vertex -44.5882 1.2 30.6593
      vertex -43.3053 -1.2 30.9144
      vertex -43.3053 1.2 30.9144
    endloop
  endfacet
  facet normal -0.195028 0 0.980798
    outer loop
      vertex -43.3053 -1.2 30.9144
      vertex -44.5882 1.2 30.6593
      vertex -44.5882 -1.2 30.6593
    endloop
  endfacet
  facet normal 1 -0 0
    outer loop
      vertex 52 -1.2 21
      vertex 52 1.2 -21
      vertex 52 1.2 21
    endloop
  endfacet
  facet normal 1 0 0
    outer loop
      vertex 52 1.2 -21
      vertex 52 -1.2 21
      vertex 52 -1.2 -21
    endloop
  endfacet
  facet normal 0.997857 -0 0.0654382
    outer loop
      vertex 51.9144 -1.2 22.3053
      vertex 52 1.2 21
      vertex 51.9144 1.2 22.3053
    endloop
  endfacet
  facet normal 0.997857 0 0.0654382
    outer loop
      vertex 52 1.2 21
      vertex 51.9144 -1.2 22.3053
      vertex 52 -1.2 21
    endloop
  endfacet
  facet normal 0.980798 -0 0.195028
    outer loop
      vertex 51.6593 -1.2 23.5882
      vertex 51.9144 1.2 22.3053
      vertex 51.6593 1.2 23.5882
    endloop
  endfacet
  facet normal 0.980798 0 0.195028
    outer loop
      vertex 51.9144 1.2 22.3053
      vertex 51.6593 -1.2 23.5882
      vertex 51.9144 -1.2 22.3053
    endloop
  endfacet
  facet normal 0 0 -1
    outer loop
      vertex -42 -1.2 -31
      vertex 42 1.2 -31
      vertex 42 -1.2 -31
    endloop
  endfacet
  facet normal -0 0 -1
    outer loop
      vertex 42 1.2 -31
      vertex -42 -1.2 -31
      vertex -42 1.2 -31
    endloop
  endfacet
  facet normal -0.75188 0 -0.6593
    outer loop
      vertex -49.0711 -1.2 -28.0711
      vertex -49.9335 1.2 -27.0876
      vertex -49.0711 1.2 -28.0711
    endloop
  endfacet
  facet normal -0.75188 -0 -0.6593
    outer loop
      vertex -49.9335 1.2 -27.0876
      vertex -49.0711 -1.2 -28.0711
      vertex -49.9335 -1.2 -27.0876
    endloop
  endfacet
  facet normal -0.6593 0 0.75188
    outer loop
      vertex -49.0711 1.2 28.0711
      vertex -48.0876 -1.2 28.9335
      vertex -48.0876 1.2 28.9335
    endloop
  endfacet
  facet normal -0.6593 0 0.75188
    outer loop
      vertex -48.0876 -1.2 28.9335
      vertex -49.0711 1.2 28.0711
      vertex -49.0711 -1.2 28.0711
    endloop
  endfacet
  facet normal -0.442314 0 0.89686
    outer loop
      vertex -47 1.2 29.6602
      vertex -45.8268 -1.2 30.2388
      vertex -45.8268 1.2 30.2388
    endloop
  endfacet
  facet normal -0.442314 0 0.89686
    outer loop
      vertex -45.8268 -1.2 30.2388
      vertex -47 1.2 29.6602
      vertex -47 -1.2 29.6602
    endloop
  endfacet
  facet normal -0.831474 0 0.555564
    outer loop
      vertex -50.6602 -1.2 26
      vertex -49.9335 1.2 27.0876
      vertex -50.6602 1.2 26
    endloop
  endfacet
  facet normal -0.831474 0 0.555564
    outer loop
      vertex -49.9335 1.2 27.0876
      vertex -50.6602 -1.2 26
      vertex -49.9335 -1.2 27.0876
    endloop
  endfacet
  facet normal -0.946918 0 0.321475
    outer loop
      vertex -51.6593 -1.2 23.5882
      vertex -51.2388 1.2 24.8268
      vertex -51.6593 1.2 23.5882
    endloop
  endfacet
  facet normal -0.946918 0 0.321475
    outer loop
      vertex -51.2388 1.2 24.8268
      vertex -51.6593 -1.2 23.5882
      vertex -51.2388 -1.2 24.8268
    endloop
  endfacet
  facet normal 0.321475 0 0.946918
    outer loop
      vertex 44.5882 1.2 30.6593
      vertex 45.8268 -1.2 30.2388
      vertex 45.8268 1.2 30.2388
    endloop
  endfacet
  facet normal 0.321475 0 0.946918
    outer loop
      vertex 45.8268 -1.2 30.2388
      vertex 44.5882 1.2 30.6593
      vertex 44.5882 -1.2 30.6593
    endloop
  endfacet
  facet normal 0.555564 0 0.831474
    outer loop
      vertex 47 1.2 29.6602
      vertex 48.0876 -1.2 28.9335
      vertex 48.0876 1.2 28.9335
    endloop
  endfacet
  facet normal 0.555564 0 0.831474
    outer loop
      vertex 48.0876 -1.2 28.9335
      vertex 47 1.2 29.6602
      vertex 47 -1.2 29.6602
    endloop
  endfacet
  facet normal 0.75188 -0 0.6593
    outer loop
      vertex 49.0711 -1.2 28.0711
      vertex 49.9335 1.2 27.0876
      vertex 49.0711 1.2 28.0711
    endloop
  endfacet
  facet normal 0.75188 0 0.6593
    outer loop
      vertex 49.9335 1.2 27.0876
      vertex 49.0711 -1.2 28.0711
      vertex 49.9335 -1.2 27.0876
    endloop
  endfacet
  facet normal 0.946918 -0 0.321475
    outer loop
      vertex 51.2388 -1.2 24.8268
      vertex 51.6593 1.2 23.5882
      vertex 51.2388 1.2 24.8268
    endloop
  endfacet
  facet normal 0.946918 0 0.321475
    outer loop
      vertex 51.6593 1.2 23.5882
      vertex 51.2388 -1.2 24.8268
      vertex 51.6593 -1.2 23.5882
    endloop
  endfacet
  facet normal -0.0654382 0 0.997857
    outer loop
      vertex -43.3053 1.2 30.9144
      vertex -42 -1.2 31
      vertex -42 1.2 31
    endloop
  endfacet
  facet normal -0.0654382 0 0.997857
    outer loop
      vertex -42 -1.2 31
      vertex -43.3053 1.2 30.9144
      vertex -43.3053 -1.2 30.9144
    endloop
  endfacet
  facet normal 0.946918 0 -0.321475
    outer loop
      vertex 51.6593 -1.2 -23.5882
      vertex 51.2388 1.2 -24.8268
      vertex 51.6593 1.2 -23.5882
    endloop
  endfacet
  facet normal 0.946918 0 -0.321475
    outer loop
      vertex 51.2388 1.2 -24.8268
      vertex 51.6593 -1.2 -23.5882
      vertex 51.2388 -1.2 -24.8268
    endloop
  endfacet
  facet normal -0.321475 0 -0.946918
    outer loop
      vertex -45.8268 -1.2 -30.2388
      vertex -44.5882 1.2 -30.6593
      vertex -44.5882 -1.2 -30.6593
    endloop
  endfacet
  facet normal -0.321475 0 -0.946918
    outer loop
      vertex -44.5882 1.2 -30.6593
      vertex -45.8268 -1.2 -30.2388
      vertex -45.8268 1.2 -30.2388
    endloop
  endfacet
  facet normal -0.195028 0 -0.980798
    outer loop
      vertex -44.5882 -1.2 -30.6593
      vertex -43.3053 1.2 -30.9144
      vertex -43.3053 -1.2 -30.9144
    endloop
  endfacet
  facet normal -0.195028 0 -0.980798
    outer loop
      vertex -43.3053 1.2 -30.9144
      vertex -44.5882 -1.2 -30.6593
      vertex -44.5882 1.2 -30.6593
    endloop
  endfacet
  facet normal -0.6593 0 -0.75188
    outer loop
      vertex -49.0711 -1.2 -28.0711
      vertex -48.0876 1.2 -28.9335
      vertex -48.0876 -1.2 -28.9335
    endloop
  endfacet
  facet normal -0.6593 0 -0.75188
    outer loop
      vertex -48.0876 1.2 -28.9335
      vertex -49.0711 -1.2 -28.0711
      vertex -49.0711 1.2 -28.0711
    endloop
  endfacet
  facet normal 0.195028 0 -0.980798
    outer loop
      vertex 43.3053 -1.2 -30.9144
      vertex 44.5882 1.2 -30.6593
      vertex 44.5882 -1.2 -30.6593
    endloop
  endfacet
  facet normal 0.195028 0 -0.980798
    outer loop
      vertex 44.5882 1.2 -30.6593
      vertex 43.3053 -1.2 -30.9144
      vertex 43.3053 1.2 -30.9144
    endloop
  endfacet
  facet normal 0.442314 0 -0.89686
    outer loop
      vertex 45.8268 -1.2 -30.2388
      vertex 47 1.2 -29.6602
      vertex 47 -1.2 -29.6602
    endloop
  endfacet
  facet normal 0.442314 0 -0.89686
    outer loop
      vertex 47 1.2 -29.6602
      vertex 45.8268 -1.2 -30.2388
      vertex 45.8268 1.2 -30.2388
    endloop
  endfacet
  facet normal 0.89686 0 -0.442314
    outer loop
      vertex 51.2388 -1.2 -24.8268
      vertex 50.6602 1.2 -26
      vertex 51.2388 1.2 -24.8268
    endloop
  endfacet
  facet normal 0.89686 0 -0.442314
    outer loop
      vertex 50.6602 1.2 -26
      vertex 51.2388 -1.2 -24.8268
      vertex 50.6602 -1.2 -26
    endloop
  endfacet
  facet normal -0.442314 0 -0.89686
    outer loop
      vertex -47 -1.2 -29.6602
      vertex -45.8268 1.2 -30.2388
      vertex -45.8268 -1.2 -30.2388
    endloop
  endfacet
  facet normal -0.442314 0 -0.89686
    outer loop
      vertex -45.8268 1.2 -30.2388
      vertex -47 -1.2 -29.6602
      vertex -47 1.2 -29.6602
    endloop
  endfacet
  facet normal 0.555564 0 -0.831474
    outer loop
      vertex 47 -1.2 -29.6602
      vertex 48.0876 1.2 -28.9335
      vertex 48.0876 -1.2 -28.9335
    endloop
  endfacet
  facet normal 0.555564 0 -0.831474
    outer loop
      vertex 48.0876 1.2 -28.9335
      vertex 47 -1.2 -29.6602
      vertex 47 1.2 -29.6602
    endloop
  endfacet
  facet normal 0.6593 0 -0.75188
    outer loop
      vertex 48.0876 -1.2 -28.9335
      vertex 49.0711 1.2 -28.0711
      vertex 49.0711 -1.2 -28.0711
    endloop
  endfacet
  facet normal 0.6593 0 -0.75188
    outer loop
      vertex 49.0711 1.2 -28.0711
      vertex 48.0876 -1.2 -28.9335
      vertex 48.0876 1.2 -28.9335
    endloop
  endfacet
  facet normal 0.75188 0 -0.6593
    outer loop
      vertex 49.9335 -1.2 -27.0876
      vertex 49.0711 1.2 -28.0711
      vertex 49.9335 1.2 -27.0876
    endloop
  endfacet
  facet normal 0.75188 0 -0.6593
    outer loop
      vertex 49.0711 1.2 -28.0711
      vertex 49.9335 -1.2 -27.0876
      vertex 49.0711 -1.2 -28.0711
    endloop
  endfacet
  facet normal 0.831474 0 -0.555564
    outer loop
      vertex 50.6602 -1.2 -26
      vertex 49.9335 1.2 -27.0876
      vertex 50.6602 1.2 -26
    endloop
  endfacet
  facet normal 0.831474 0 -0.555564
    outer loop
      vertex 49.9335 1.2 -27.0876
      vertex 50.6602 -1.2 -26
      vertex 49.9335 -1.2 -27.0876
    endloop
  endfacet
  facet normal -0.831474 0 -0.555564
    outer loop
      vertex -49.9335 -1.2 -27.0876
      vertex -50.6602 1.2 -26
      vertex -49.9335 1.2 -27.0876
    endloop
  endfacet
  facet normal -0.831474 -0 -0.555564
    outer loop
      vertex -50.6602 1.2 -26
      vertex -49.9335 -1.2 -27.0876
      vertex -50.6602 -1.2 -26
    endloop
  endfacet
  facet normal 0.980793 -0 0.19505
    outer loop
      vertex -48.9315 -1.2 -21.0442
      vertex -48.7274 1 -22.0705
      vertex -48.9315 1 -21.0442
    endloop
  endfacet
  facet normal 0.980793 0 0.19505
    outer loop
      vertex -48.7274 1 -22.0705
      vertex -48.9315 -1.2 -21.0442
      vertex -48.7274 -1.2 -22.0705
    endloop
  endfacet
  facet normal -0.94693 0 -0.32144
    outer loop
      vertex 48.7274 -1.2 22.0705
      vertex 48.391 1 23.0615
      vertex 48.7274 1 22.0705
    endloop
  endfacet
  facet normal -0.94693 -0 -0.32144
    outer loop
      vertex 48.391 1 23.0615
      vertex 48.7274 -1.2 22.0705
      vertex 48.391 -1.2 23.0615
    endloop
  endfacet
  facet normal -0.32144 0 0.94693
    outer loop
      vertex 43.0705 1 -27.7274
      vertex 44.0615 -1.2 -27.391
      vertex 44.0615 1 -27.391
    endloop
  endfacet
  facet normal -0.32144 0 0.94693
    outer loop
      vertex 44.0615 -1.2 -27.391
      vertex 43.0705 1 -27.7274
      vertex 43.0705 -1.2 -27.7274
    endloop
  endfacet
  facet normal 0.442276 0 -0.896879
    outer loop
      vertex -45 -1.2 26.9282
      vertex -44.0615 1 27.391
      vertex -44.0615 -1.2 27.391
    endloop
  endfacet
  facet normal 0.442276 0 -0.896879
    outer loop
      vertex -44.0615 1 27.391
      vertex -45 -1.2 26.9282
      vertex -45 1 26.9282
    endloop
  endfacet
  facet normal 0.997855 0 -0.0654598
    outer loop
      vertex -48.9315 -1.2 21.0442
      vertex -49 1 20
      vertex -48.9315 1 21.0442
    endloop
  endfacet
  facet normal 0.997855 0 -0.0654598
    outer loop
      vertex -49 1 20
      vertex -48.9315 -1.2 21.0442
      vertex -49 -1.2 20
    endloop
  endfacet
  facet normal 0.555582 0 0.831462
    outer loop
      vertex -45.8701 1 -26.3468
      vertex -45 -1.2 -26.9282
      vertex -45 1 -26.9282
    endloop
  endfacet
  facet normal 0.555582 0 0.831462
    outer loop
      vertex -45 -1.2 -26.9282
      vertex -45.8701 1 -26.3468
      vertex -45.8701 -1.2 -26.3468
    endloop
  endfacet
  facet normal 0.0654598 0 -0.997855
    outer loop
      vertex -42.0442 -1.2 27.9315
      vertex -41 1 28
      vertex -41 -1.2 28
    endloop
  endfacet
  facet normal 0.0654598 0 -0.997855
    outer loop
      vertex -41 1 28
      vertex -42.0442 -1.2 27.9315
      vertex -42.0442 1 27.9315
    endloop
  endfacet
  facet normal 0.997855 -0 0.0654598
    outer loop
      vertex -49 -1.2 -20
      vertex -48.9315 1 -21.0442
      vertex -49 1 -20
    endloop
  endfacet
  facet normal 0.997855 0 0.0654598
    outer loop
      vertex -48.9315 1 -21.0442
      vertex -49 -1.2 -20
      vertex -48.9315 -1.2 -21.0442
    endloop
  endfacet
  facet normal -0 0 1
    outer loop
      vertex -41 1 -28
      vertex 41 -1.2 -28
      vertex 41 1 -28
    endloop
  endfacet
  facet normal 0 0 1
    outer loop
      vertex 41 -1.2 -28
      vertex -41 1 -28
      vertex -41 -1.2 -28
    endloop
  endfacet
  facet normal 0.896879 -0 0.442276
    outer loop
      vertex -48.391 -1.2 -23.0615
      vertex -47.9282 1 -24
      vertex -48.391 1 -23.0615
    endloop
  endfacet
  facet normal 0.896879 0 0.442276
    outer loop
      vertex -47.9282 1 -24
      vertex -48.391 -1.2 -23.0615
      vertex -47.9282 -1.2 -24
    endloop
  endfacet
  facet normal 0.831462 0 -0.555582
    outer loop
      vertex -47.3468 -1.2 24.8701
      vertex -47.9282 1 24
      vertex -47.3468 1 24.8701
    endloop
  endfacet
  facet normal 0.831462 0 -0.555582
    outer loop
      vertex -47.9282 1 24
      vertex -47.3468 -1.2 24.8701
      vertex -47.9282 -1.2 24
    endloop
  endfacet
  facet normal 0 0 -1
    outer loop
      vertex -41 -1.2 28
      vertex 41 1 28
      vertex 41 -1.2 28
    endloop
  endfacet
  facet normal -0 0 -1
    outer loop
      vertex 41 1 28
      vertex -41 -1.2 28
      vertex -41 1 28
    endloop
  endfacet
  facet normal 0.32144 0 -0.94693
    outer loop
      vertex -44.0615 -1.2 27.391
      vertex -43.0705 1 27.7274
      vertex -43.0705 -1.2 27.7274
    endloop
  endfacet
  facet normal 0.32144 0 -0.94693
    outer loop
      vertex -43.0705 1 27.7274
      vertex -44.0615 -1.2 27.391
      vertex -44.0615 1 27.391
    endloop
  endfacet
  facet normal -0.980793 0 -0.19505
    outer loop
      vertex 48.9315 -1.2 21.0442
      vertex 48.7274 1 22.0705
      vertex 48.9315 1 21.0442
    endloop
  endfacet
  facet normal -0.980793 -0 -0.19505
    outer loop
      vertex 48.7274 1 22.0705
      vertex 48.9315 -1.2 21.0442
      vertex 48.7274 -1.2 22.0705
    endloop
  endfacet
  facet normal -0.980793 0 0.19505
    outer loop
      vertex 48.7274 -1.2 -22.0705
      vertex 48.9315 1 -21.0442
      vertex 48.7274 1 -22.0705
    endloop
  endfacet
  facet normal -0.980793 0 0.19505
    outer loop
      vertex 48.9315 1 -21.0442
      vertex 48.7274 -1.2 -22.0705
      vertex 48.9315 -1.2 -21.0442
    endloop
  endfacet
  facet normal -0.997855 0 0.0654598
    outer loop
      vertex 48.9315 -1.2 -21.0442
      vertex 49 1 -20
      vertex 48.9315 1 -21.0442
    endloop
  endfacet
  facet normal -0.997855 0 0.0654598
    outer loop
      vertex 49 1 -20
      vertex 48.9315 -1.2 -21.0442
      vertex 49 -1.2 -20
    endloop
  endfacet
  facet normal -0.0654598 0 0.997855
    outer loop
      vertex 41 1 -28
      vertex 42.0442 -1.2 -27.9315
      vertex 42.0442 1 -27.9315
    endloop
  endfacet
  facet normal -0.0654598 0 0.997855
    outer loop
      vertex 42.0442 -1.2 -27.9315
      vertex 41 1 -28
      vertex 41 -1.2 -28
    endloop
  endfacet
  facet normal 0.751801 -0 0.65939
    outer loop
      vertex -47.3468 -1.2 -24.8701
      vertex -46.6568 1 -25.6568
      vertex -47.3468 1 -24.8701
    endloop
  endfacet
  facet normal 0.751801 0 0.65939
    outer loop
      vertex -46.6568 1 -25.6568
      vertex -47.3468 -1.2 -24.8701
      vertex -46.6568 -1.2 -25.6568
    endloop
  endfacet
  facet normal 0.94693 -0 0.32144
    outer loop
      vertex -48.7274 -1.2 -22.0705
      vertex -48.391 1 -23.0615
      vertex -48.7274 1 -22.0705
    endloop
  endfacet
  facet normal 0.94693 0 0.32144
    outer loop
      vertex -48.391 1 -23.0615
      vertex -48.7274 -1.2 -22.0705
      vertex -48.391 -1.2 -23.0615
    endloop
  endfacet
  facet normal 1 -0 0
    outer loop
      vertex -49 -1.2 20
      vertex -49 1 -20
      vertex -49 1 20
    endloop
  endfacet
  facet normal 1 0 0
    outer loop
      vertex -49 1 -20
      vertex -49 -1.2 20
      vertex -49 -1.2 -20
    endloop
  endfacet
  facet normal 0 -1 0
    outer loop
      vertex -49 1 20
      vertex -41 1 28
      vertex -42.0442 1 27.9315
    endloop
  endfacet
  facet normal 0 -1 0
    outer loop
      vertex -41 1 28
      vertex -41 1 -28
      vertex 41 1 28
    endloop
  endfacet
  facet normal 0 -1 0
    outer loop
      vertex -49 1 20
      vertex -42.0442 1 27.9315
      vertex -43.0705 1 27.7274
    endloop
  endfacet
  facet normal 0 -1 0
    outer loop
      vertex 41 1 -28
      vertex 41 1 28
      vertex -41 1 -28
    endloop
  endfacet
  facet normal 0 -1 0
    outer loop
      vertex -49 1 20
      vertex -43.0705 1 27.7274
      vertex -44.0615 1 27.391
    endloop
  endfacet
  facet normal -0 -1 0
    outer loop
      vertex 49 1 20
      vertex 41 1 28
      vertex 41 1 -28
    endloop
  endfacet
  facet normal 0 -1 0
    outer loop
      vertex -49 1 20
      vertex -44.0615 1 27.391
      vertex -45 1 26.9282
    endloop
  endfacet
  facet normal 0 -1 0
    outer loop
      vertex 41 1 28
      vertex 49 1 20
      vertex 42.0442 1 27.9315
    endloop
  endfacet
  facet normal 0 -1 0
    outer loop
      vertex -49 1 20
      vertex -45 1 26.9282
      vertex -45.8701 1 26.3468
    endloop
  endfacet
  facet normal 0 -1 0
    outer loop
      vertex 42.0442 1 27.9315
      vertex 49 1 20
      vertex 43.0705 1 27.7274
    endloop
  endfacet
  facet normal 0 -1 0
    outer loop
      vertex -49 1 20
      vertex -45.8701 1 26.3468
      vertex -46.6568 1 25.6568
    endloop
  endfacet
  facet normal 0 -1 -0
    outer loop
      vertex -41 1 28
      vertex -49 1 20
      vertex -41 1 -28
    endloop
  endfacet
  facet normal 0 -1 0
    outer loop
      vertex -49 1 20
      vertex -46.6568 1 25.6568
      vertex -47.3468 1 24.8701
    endloop
  endfacet
  facet normal 0 -1 0
    outer loop
      vertex 43.0705 1 27.7274
      vertex 49 1 20
      vertex 44.0615 1 27.391
    endloop
  endfacet
  facet normal 0 -1 0
    outer loop
      vertex -49 1 20
      vertex -47.3468 1 24.8701
      vertex -47.9282 1 24
    endloop
  endfacet
  facet normal 0 -1 0
    outer loop
      vertex 45.8701 1 26.3468
      vertex 49 1 20
      vertex 46.6568 1 25.6568
    endloop
  endfacet
  facet normal 0 -1 0
    outer loop
      vertex -49 1 20
      vertex -47.9282 1 24
      vertex -48.391 1 23.0615
    endloop
  endfacet
  facet normal 0 -1 0
    outer loop
      vertex 46.6568 1 25.6568
      vertex 49 1 20
      vertex 47.3468 1 24.8701
    endloop
  endfacet
  facet normal 0 -1 0
    outer loop
      vertex -49 1 20
      vertex -48.391 1 23.0615
      vertex -48.7274 1 22.0705
    endloop
  endfacet
  facet normal 0 -1 0
    outer loop
      vertex 47.3468 1 24.8701
      vertex 49 1 20
      vertex 47.9282 1 24
    endloop
  endfacet
  facet normal 0 -1 0
    outer loop
      vertex -49 1 20
      vertex -48.7274 1 22.0705
      vertex -48.9315 1 21.0442
    endloop
  endfacet
  facet normal 0 -1 0
    outer loop
      vertex 47.9282 1 24
      vertex 49 1 20
      vertex 48.391 1 23.0615
    endloop
  endfacet
  facet normal 0 -1 0
    outer loop
      vertex 48.391 1 23.0615
      vertex 49 1 20
      vertex 48.7274 1 22.0705
    endloop
  endfacet
  facet normal 0 -1 0
    outer loop
      vertex 48.7274 1 22.0705
      vertex 49 1 20
      vertex 48.9315 1 21.0442
    endloop
  endfacet
  facet normal 0 -1 0
    outer loop
      vertex -41 1 -28
      vertex -49 1 20
      vertex -49 1 -20
    endloop
  endfacet
  facet normal 0 -1 0
    outer loop
      vertex 44.0615 1 27.391
      vertex 49 1 20
      vertex 45 1 26.9282
    endloop
  endfacet
  facet normal 0 -1 0
    outer loop
      vertex -41 1 -28
      vertex -49 1 -20
      vertex -48.9315 1 -21.0442
    endloop
  endfacet
  facet normal 0 -1 0
    outer loop
      vertex 45 1 26.9282
      vertex 49 1 20
      vertex 45.8701 1 26.3468
    endloop
  endfacet
  facet normal 0 -1 0
    outer loop
      vertex -41 1 -28
      vertex -48.9315 1 -21.0442
      vertex -48.7274 1 -22.0705
    endloop
  endfacet
  facet normal 0 -1 -0
    outer loop
      vertex 49 1 20
      vertex 41 1 -28
      vertex 49 1 -20
    endloop
  endfacet
  facet normal 0 -1 0
    outer loop
      vertex -41 1 -28
      vertex -48.7274 1 -22.0705
      vertex -48.391 1 -23.0615
    endloop
  endfacet
  facet normal 0 -1 0
    outer loop
      vertex 49 1 -20
      vertex 41 1 -28
      vertex 48.9315 1 -21.0442
    endloop
  endfacet
  facet normal 0 -1 0
    outer loop
      vertex -41 1 -28
      vertex -48.391 1 -23.0615
      vertex -47.9282 1 -24
    endloop
  endfacet
  facet normal 0 -1 0
    outer loop
      vertex 48.9315 1 -21.0442
      vertex 41 1 -28
      vertex 48.7274 1 -22.0705
    endloop
  endfacet
  facet normal 0 -1 0
    outer loop
      vertex -41 1 -28
      vertex -47.9282 1 -24
      vertex -47.3468 1 -24.8701
    endloop
  endfacet
  facet normal 0 -1 0
    outer loop
      vertex 48.7274 1 -22.0705
      vertex 41 1 -28
      vertex 48.391 1 -23.0615
    endloop
  endfacet
  facet normal 0 -1 0
    outer loop
      vertex -41 1 -28
      vertex -47.3468 1 -24.8701
      vertex -46.6568 1 -25.6568
    endloop
  endfacet
  facet normal 0 -1 0
    outer loop
      vertex 48.391 1 -23.0615
      vertex 41 1 -28
      vertex 47.9282 1 -24
    endloop
  endfacet
  facet normal 0 -1 0
    outer loop
      vertex -41 1 -28
      vertex -46.6568 1 -25.6568
      vertex -45.8701 1 -26.3468
    endloop
  endfacet
  facet normal 0 -1 0
    outer loop
      vertex 47.9282 1 -24
      vertex 41 1 -28
      vertex 47.3468 1 -24.8701
    endloop
  endfacet
  facet normal 0 -1 0
    outer loop
      vertex -41 1 -28
      vertex -45.8701 1 -26.3468
      vertex -45 1 -26.9282
    endloop
  endfacet
  facet normal 0 -1 0
    outer loop
      vertex 47.3468 1 -24.8701
      vertex 41 1 -28
      vertex 46.6568 1 -25.6568
    endloop
  endfacet
  facet normal 0 -1 0
    outer loop
      vertex -41 1 -28
      vertex -45 1 -26.9282
      vertex -44.0615 1 -27.391
    endloop
  endfacet
  facet normal 0 -1 0
    outer loop
      vertex 46.6568 1 -25.6568
      vertex 41 1 -28
      vertex 45.8701 1 -26.3468
    endloop
  endfacet
  facet normal 0 -1 0
    outer loop
      vertex -41 1 -28
      vertex -44.0615 1 -27.391
      vertex -43.0705 1 -27.7274
    endloop
  endfacet
  facet normal 0 -1 0
    outer loop
      vertex 45.8701 1 -26.3468
      vertex 41 1 -28
      vertex 45 1 -26.9282
    endloop
  endfacet
  facet normal 0 -1 0
    outer loop
      vertex -41 1 -28
      vertex -43.0705 1 -27.7274
      vertex -42.0442 1 -27.9315
    endloop
  endfacet
  facet normal 0 -1 0
    outer loop
      vertex 45 1 -26.9282
      vertex 41 1 -28
      vertex 44.0615 1 -27.391
    endloop
  endfacet
  facet normal 0 -1 0
    outer loop
      vertex 44.0615 1 -27.391
      vertex 41 1 -28
      vertex 43.0705 1 -27.7274
    endloop
  endfacet
  facet normal 0 -1 0
    outer loop
      vertex 43.0705 1 -27.7274
      vertex 41 1 -28
      vertex 42.0442 1 -27.9315
    endloop
  endfacet
  facet normal 0.751801 0 -0.65939
    outer loop
      vertex -46.6568 -1.2 25.6568
      vertex -47.3468 1 24.8701
      vertex -46.6568 1 25.6568
    endloop
  endfacet
  facet normal 0.751801 0 -0.65939
    outer loop
      vertex -47.3468 1 24.8701
      vertex -46.6568 -1.2 25.6568
      vertex -47.3468 -1.2 24.8701
    endloop
  endfacet
  facet normal 0.555582 0 -0.831462
    outer loop
      vertex -45.8701 -1.2 26.3468
      vertex -45 1 26.9282
      vertex -45 -1.2 26.9282
    endloop
  endfacet
  facet normal 0.555582 0 -0.831462
    outer loop
      vertex -45 1 26.9282
      vertex -45.8701 -1.2 26.3468
      vertex -45.8701 1 26.3468
    endloop
  endfacet
  facet normal 0.896879 0 -0.442276
    outer loop
      vertex -47.9282 -1.2 24
      vertex -48.391 1 23.0615
      vertex -47.9282 1 24
    endloop
  endfacet
  facet normal 0.896879 0 -0.442276
    outer loop
      vertex -48.391 1 23.0615
      vertex -47.9282 -1.2 24
      vertex -48.391 -1.2 23.0615
    endloop
  endfacet
  facet normal 0.980793 0 -0.19505
    outer loop
      vertex -48.7274 -1.2 22.0705
      vertex -48.9315 1 21.0442
      vertex -48.7274 1 22.0705
    endloop
  endfacet
  facet normal 0.980793 0 -0.19505
    outer loop
      vertex -48.9315 1 21.0442
      vertex -48.7274 -1.2 22.0705
      vertex -48.9315 -1.2 21.0442
    endloop
  endfacet
  facet normal -0.0654598 0 -0.997855
    outer loop
      vertex 41 -1.2 28
      vertex 42.0442 1 27.9315
      vertex 42.0442 -1.2 27.9315
    endloop
  endfacet
  facet normal -0.0654598 0 -0.997855
    outer loop
      vertex 42.0442 1 27.9315
      vertex 41 -1.2 28
      vertex 41 1 28
    endloop
  endfacet
  facet normal -0.896879 0 -0.442276
    outer loop
      vertex 48.391 -1.2 23.0615
      vertex 47.9282 1 24
      vertex 48.391 1 23.0615
    endloop
  endfacet
  facet normal -0.896879 -0 -0.442276
    outer loop
      vertex 47.9282 1 24
      vertex 48.391 -1.2 23.0615
      vertex 47.9282 -1.2 24
    endloop
  endfacet
  facet normal 0.19505 0 -0.980793
    outer loop
      vertex -43.0705 -1.2 27.7274
      vertex -42.0442 1 27.9315
      vertex -42.0442 -1.2 27.9315
    endloop
  endfacet
  facet normal 0.19505 0 -0.980793
    outer loop
      vertex -42.0442 1 27.9315
      vertex -43.0705 -1.2 27.7274
      vertex -43.0705 1 27.7274
    endloop
  endfacet
  facet normal -0.831462 0 0.555582
    outer loop
      vertex 47.3468 -1.2 -24.8701
      vertex 47.9282 1 -24
      vertex 47.3468 1 -24.8701
    endloop
  endfacet
  facet normal -0.831462 0 0.555582
    outer loop
      vertex 47.9282 1 -24
      vertex 47.3468 -1.2 -24.8701
      vertex 47.9282 -1.2 -24
    endloop
  endfacet
  facet normal -1 0 0
    outer loop
      vertex 49 -1.2 -20
      vertex 49 1 20
      vertex 49 1 -20
    endloop
  endfacet
  facet normal -1 -0 0
    outer loop
      vertex 49 1 20
      vertex 49 -1.2 -20
      vertex 49 -1.2 20
    endloop
  endfacet
  facet normal -0.997855 0 -0.0654598
    outer loop
      vertex 49 -1.2 20
      vertex 48.9315 1 21.0442
      vertex 49 1 20
    endloop
  endfacet
  facet normal -0.997855 -0 -0.0654598
    outer loop
      vertex 48.9315 1 21.0442
      vertex 49 -1.2 20
      vertex 48.9315 -1.2 21.0442
    endloop
  endfacet
  facet normal 0.65939 0 -0.751801
    outer loop
      vertex -46.6568 -1.2 25.6568
      vertex -45.8701 1 26.3468
      vertex -45.8701 -1.2 26.3468
    endloop
  endfacet
  facet normal 0.65939 0 -0.751801
    outer loop
      vertex -45.8701 1 26.3468
      vertex -46.6568 -1.2 25.6568
      vertex -46.6568 1 25.6568
    endloop
  endfacet
  facet normal 0.94693 0 -0.32144
    outer loop
      vertex -48.391 -1.2 23.0615
      vertex -48.7274 1 22.0705
      vertex -48.391 1 23.0615
    endloop
  endfacet
  facet normal 0.94693 0 -0.32144
    outer loop
      vertex -48.7274 1 22.0705
      vertex -48.391 -1.2 23.0615
      vertex -48.7274 -1.2 22.0705
    endloop
  endfacet
  facet normal -0.19505 0 -0.980793
    outer loop
      vertex 42.0442 -1.2 27.9315
      vertex 43.0705 1 27.7274
      vertex 43.0705 -1.2 27.7274
    endloop
  endfacet
  facet normal -0.19505 0 -0.980793
    outer loop
      vertex 43.0705 1 27.7274
      vertex 42.0442 -1.2 27.9315
      vertex 42.0442 1 27.9315
    endloop
  endfacet
  facet normal -0.555582 0 -0.831462
    outer loop
      vertex 45 -1.2 26.9282
      vertex 45.8701 1 26.3468
      vertex 45.8701 -1.2 26.3468
    endloop
  endfacet
  facet normal -0.555582 0 -0.831462
    outer loop
      vertex 45.8701 1 26.3468
      vertex 45 -1.2 26.9282
      vertex 45 1 26.9282
    endloop
  endfacet
  facet normal -0.32144 0 -0.94693
    outer loop
      vertex 43.0705 -1.2 27.7274
      vertex 44.0615 1 27.391
      vertex 44.0615 -1.2 27.391
    endloop
  endfacet
  facet normal -0.32144 0 -0.94693
    outer loop
      vertex 44.0615 1 27.391
      vertex 43.0705 -1.2 27.7274
      vertex 43.0705 1 27.7274
    endloop
  endfacet
  facet normal -0.65939 0 -0.751801
    outer loop
      vertex 45.8701 -1.2 26.3468
      vertex 46.6568 1 25.6568
      vertex 46.6568 -1.2 25.6568
    endloop
  endfacet
  facet normal -0.65939 0 -0.751801
    outer loop
      vertex 46.6568 1 25.6568
      vertex 45.8701 -1.2 26.3468
      vertex 45.8701 1 26.3468
    endloop
  endfacet
  facet normal -0.831462 0 -0.555582
    outer loop
      vertex 47.9282 -1.2 24
      vertex 47.3468 1 24.8701
      vertex 47.9282 1 24
    endloop
  endfacet
  facet normal -0.831462 -0 -0.555582
    outer loop
      vertex 47.3468 1 24.8701
      vertex 47.9282 -1.2 24
      vertex 47.3468 -1.2 24.8701
    endloop
  endfacet
  facet normal -0.65939 0 0.751801
    outer loop
      vertex 45.8701 1 -26.3468
      vertex 46.6568 -1.2 -25.6568
      vertex 46.6568 1 -25.6568
    endloop
  endfacet
  facet normal -0.65939 0 0.751801
    outer loop
      vertex 46.6568 -1.2 -25.6568
      vertex 45.8701 1 -26.3468
      vertex 45.8701 -1.2 -26.3468
    endloop
  endfacet
  facet normal -0.94693 0 0.32144
    outer loop
      vertex 48.391 -1.2 -23.0615
      vertex 48.7274 1 -22.0705
      vertex 48.391 1 -23.0615
    endloop
  endfacet
  facet normal -0.94693 0 0.32144
    outer loop
      vertex 48.7274 1 -22.0705
      vertex 48.391 -1.2 -23.0615
      vertex 48.7274 -1.2 -22.0705
    endloop
  endfacet
  facet normal 0.19505 0 0.980793
    outer loop
      vertex -43.0705 1 -27.7274
      vertex -42.0442 -1.2 -27.9315
      vertex -42.0442 1 -27.9315
    endloop
  endfacet
  facet normal 0.19505 0 0.980793
    outer loop
      vertex -42.0442 -1.2 -27.9315
      vertex -43.0705 1 -27.7274
      vertex -43.0705 -1.2 -27.7274
    endloop
  endfacet
  facet normal 0.0654598 0 0.997855
    outer loop
      vertex -42.0442 1 -27.9315
      vertex -41 -1.2 -28
      vertex -41 1 -28
    endloop
  endfacet
  facet normal 0.0654598 0 0.997855
    outer loop
      vertex -41 -1.2 -28
      vertex -42.0442 1 -27.9315
      vertex -42.0442 -1.2 -27.9315
    endloop
  endfacet
  facet normal 0.65939 0 0.751801
    outer loop
      vertex -46.6568 1 -25.6568
      vertex -45.8701 -1.2 -26.3468
      vertex -45.8701 1 -26.3468
    endloop
  endfacet
  facet normal 0.65939 0 0.751801
    outer loop
      vertex -45.8701 -1.2 -26.3468
      vertex -46.6568 1 -25.6568
      vertex -46.6568 -1.2 -25.6568
    endloop
  endfacet
  facet normal -0.442276 0 -0.896879
    outer loop
      vertex 44.0615 -1.2 27.391
      vertex 45 1 26.9282
      vertex 45 -1.2 26.9282
    endloop
  endfacet
  facet normal -0.442276 0 -0.896879
    outer loop
      vertex 45 1 26.9282
      vertex 44.0615 -1.2 27.391
      vertex 44.0615 1 27.391
    endloop
  endfacet
  facet normal -0.751801 0 -0.65939
    outer loop
      vertex 47.3468 -1.2 24.8701
      vertex 46.6568 1 25.6568
      vertex 47.3468 1 24.8701
    endloop
  endfacet
  facet normal -0.751801 -0 -0.65939
    outer loop
      vertex 46.6568 1 25.6568
      vertex 47.3468 -1.2 24.8701
      vertex 46.6568 -1.2 25.6568
    endloop
  endfacet
  facet normal -0.19505 0 0.980793
    outer loop
      vertex 42.0442 1 -27.9315
      vertex 43.0705 -1.2 -27.7274
      vertex 43.0705 1 -27.7274
    endloop
  endfacet
  facet normal -0.19505 0 0.980793
    outer loop
      vertex 43.0705 -1.2 -27.7274
      vertex 42.0442 1 -27.9315
      vertex 42.0442 -1.2 -27.9315
    endloop
  endfacet
  facet normal -0.442276 0 0.896879
    outer loop
      vertex 44.0615 1 -27.391
      vertex 45 -1.2 -26.9282
      vertex 45 1 -26.9282
    endloop
  endfacet
  facet normal -0.442276 0 0.896879
    outer loop
      vertex 45 -1.2 -26.9282
      vertex 44.0615 1 -27.391
      vertex 44.0615 -1.2 -27.391
    endloop
  endfacet
  facet normal -0.896879 0 0.442276
    outer loop
      vertex 47.9282 -1.2 -24
      vertex 48.391 1 -23.0615
      vertex 47.9282 1 -24
    endloop
  endfacet
  facet normal -0.896879 0 0.442276
    outer loop
      vertex 48.391 1 -23.0615
      vertex 47.9282 -1.2 -24
      vertex 48.391 -1.2 -23.0615
    endloop
  endfacet
  facet normal 0.442276 0 0.896879
    outer loop
      vertex -45 1 -26.9282
      vertex -44.0615 -1.2 -27.391
      vertex -44.0615 1 -27.391
    endloop
  endfacet
  facet normal 0.442276 0 0.896879
    outer loop
      vertex -44.0615 -1.2 -27.391
      vertex -45 1 -26.9282
      vertex -45 -1.2 -26.9282
    endloop
  endfacet
  facet normal -0.555582 0 0.831462
    outer loop
      vertex 45 1 -26.9282
      vertex 45.8701 -1.2 -26.3468
      vertex 45.8701 1 -26.3468
    endloop
  endfacet
  facet normal -0.555582 0 0.831462
    outer loop
      vertex 45.8701 -1.2 -26.3468
      vertex 45 1 -26.9282
      vertex 45 -1.2 -26.9282
    endloop
  endfacet
  facet normal -0.751801 0 0.65939
    outer loop
      vertex 46.6568 -1.2 -25.6568
      vertex 47.3468 1 -24.8701
      vertex 46.6568 1 -25.6568
    endloop
  endfacet
  facet normal -0.751801 0 0.65939
    outer loop
      vertex 47.3468 1 -24.8701
      vertex 46.6568 -1.2 -25.6568
      vertex 47.3468 -1.2 -24.8701
    endloop
  endfacet
  facet normal 0.831462 -0 0.555582
    outer loop
      vertex -47.9282 -1.2 -24
      vertex -47.3468 1 -24.8701
      vertex -47.9282 1 -24
    endloop
  endfacet
  facet normal 0.831462 0 0.555582
    outer loop
      vertex -47.3468 1 -24.8701
      vertex -47.9282 -1.2 -24
      vertex -47.3468 -1.2 -24.8701
    endloop
  endfacet
  facet normal 0.32144 0 0.94693
    outer loop
      vertex -44.0615 1 -27.391
      vertex -43.0705 -1.2 -27.7274
      vertex -43.0705 1 -27.7274
    endloop
  endfacet
  facet normal 0.32144 0 0.94693
    outer loop
      vertex -43.0705 -1.2 -27.7274
      vertex -44.0615 1 -27.391
      vertex -44.0615 -1.2 -27.391
    endloop
  endfacet
endsolid OpenSCAD_Model
