solid OpenSCAD_Model
  facet normal 0 1 0
    outer loop
      vertex -6 1 -4
      vertex 0 1 6
      vertex 6 1 -4
    endloop
  endfacet
  facet normal 0 -1 0
    outer loop
      vertex 6 -1 -4
      vertex 0 -1 6
      vertex -6 -1 -4
    endloop
  endfacet
  facet normal -0.857493 0 0.514496
    outer loop
      vertex -6 1 -4
      vertex 0 -1 6
      vertex 0 1 6
    endloop
  endfacet
  facet normal -0.857493 0 0.514496
    outer loop
      vertex -6 1 -4
      vertex -6 -1 -4
      vertex 0 -1 6
    endloop
  endfacet
  facet normal -0 0 -1
    outer loop
      vertex 6 1 -4
      vertex -6 -1 -4
      vertex -6 1 -4
    endloop
  endfacet
  facet normal 0 -0 -1
    outer loop
      vertex 6 1 -4
      vertex 6 -1 -4
      vertex -6 -1 -4
    endloop
  endfacet
  facet normal 0.857493 0 0.514496
    outer loop
      vertex 0 1 6
      vertex 6 -1 -4
      vertex 6 1 -4
    endloop
  endfacet
  facet normal 0.857493 0 0.514496
    outer loop
      vertex 0 1 6
      vertex 0 -1 6
      vertex 6 -1 -4
    endloop
  endfacet
endsolid OpenSCAD_Model
