solid OpenSCAD_Model
  facet normal -0.980784 -0.195094 0
    outer loop
      vertex -94.3185 -60.1764 -43
      vertex -94.8289 -57.6105 43
      vertex -94.8289 -57.6105 -43
    endloop
  endfacet
  facet normal -0.980784 -0.195094 0
    outer loop
      vertex -94.8289 -57.6105 43
      vertex -94.3185 -60.1764 -43
      vertex -94.3185 -60.1764 43
    endloop
  endfacet
  facet normal -0.946934 -0.321429 0
    outer loop
      vertex -93.4776 -62.6537 -43
      vertex -94.3185 -60.1764 43
      vertex -94.3185 -60.1764 -43
    endloop
  endfacet
  facet normal -0.946934 -0.321429 0
    outer loop
      vertex -94.3185 -60.1764 43
      vertex -93.4776 -62.6537 -43
      vertex -93.4776 -62.6537 43
    endloop
  endfacet
  facet normal -0.997859 -0.0654027 0
    outer loop
      vertex -94.8289 -57.6105 -43
      vertex -95 -55 43
      vertex -95 -55 -43
    endloop
  endfacet
  facet normal -0.997859 -0.0654027 0
    outer loop
      vertex -95 -55 43
      vertex -94.8289 -57.6105 -43
      vertex -94.8289 -57.6105 43
    endloop
  endfacet
  facet normal -0.555564 -0.831474 0
    outer loop
      vertex -87.1752 -70.8671 -43
      vertex -85 -72.3205 43
      vertex -87.1752 -70.8671 43
    endloop
  endfacet
  facet normal -0.555564 -0.831474 -0
    outer loop
      vertex -85 -72.3205 43
      vertex -87.1752 -70.8671 -43
      vertex -85 -72.3205 -43
    endloop
  endfacet
  facet normal -0.896868 -0.442299 0
    outer loop
      vertex -92.3205 -65 -43
      vertex -93.4776 -62.6537 43
      vertex -93.4776 -62.6537 -43
    endloop
  endfacet
  facet normal -0.896868 -0.442299 0
    outer loop
      vertex -93.4776 -62.6537 43
      vertex -92.3205 -65 -43
      vertex -92.3205 -65 43
    endloop
  endfacet
  facet normal -0.997859 0.0654027 0
    outer loop
      vertex -95 55 -43
      vertex -94.8289 57.6105 43
      vertex -94.8289 57.6105 -43
    endloop
  endfacet
  facet normal -0.997859 0.0654027 0
    outer loop
      vertex -94.8289 57.6105 43
      vertex -95 55 -43
      vertex -95 55 43
    endloop
  endfacet
  facet normal 0.195094 0.980784 -0
    outer loop
      vertex 80.1764 74.3185 -43
      vertex 77.6105 74.8289 43
      vertex 80.1764 74.3185 43
    endloop
  endfacet
  facet normal 0.195094 0.980784 0
    outer loop
      vertex 77.6105 74.8289 43
      vertex 80.1764 74.3185 -43
      vertex 77.6105 74.8289 -43
    endloop
  endfacet
  facet normal 0.980784 0.195094 0
    outer loop
      vertex 94.8289 57.6105 43
      vertex 94.3185 60.1764 -43
      vertex 94.3185 60.1764 43
    endloop
  endfacet
  facet normal 0.980784 0.195094 0
    outer loop
      vertex 94.3185 60.1764 -43
      vertex 94.8289 57.6105 43
      vertex 94.8289 57.6105 -43
    endloop
  endfacet
  facet normal 0.997859 -0.0654027 0
    outer loop
      vertex 94.8289 -57.6105 43
      vertex 95 -55 -43
      vertex 95 -55 43
    endloop
  endfacet
  facet normal 0.997859 -0.0654027 0
    outer loop
      vertex 95 -55 -43
      vertex 94.8289 -57.6105 43
      vertex 94.8289 -57.6105 -43
    endloop
  endfacet
  facet normal 0.997859 0.0654027 0
    outer loop
      vertex 95 55 43
      vertex 94.8289 57.6105 -43
      vertex 94.8289 57.6105 43
    endloop
  endfacet
  facet normal 0.997859 0.0654027 0
    outer loop
      vertex 94.8289 57.6105 -43
      vertex 95 55 43
      vertex 95 55 -43
    endloop
  endfacet
  facet normal -0.195094 -0.980784 0
    outer loop
      vertex -80.1764 -74.3185 -43
      vertex -77.6105 -74.8289 43
      vertex -80.1764 -74.3185 43
    endloop
  endfacet
  facet normal -0.195094 -0.980784 -0
    outer loop
      vertex -77.6105 -74.8289 43
      vertex -80.1764 -74.3185 -43
      vertex -77.6105 -74.8289 -43
    endloop
  endfacet
  facet normal -1 0 0
    outer loop
      vertex -95 -55 -43
      vertex -95 55 43
      vertex -95 55 -43
    endloop
  endfacet
  facet normal -1 -0 0
    outer loop
      vertex -95 55 43
      vertex -95 -55 -43
      vertex -95 -55 43
    endloop
  endfacet
  facet normal 0 0 -1
    outer loop
      vertex 91.8 -55 -43
      vertex 95 -55 -43
      vertex 94.8289 -57.6105 -43
    endloop
  endfacet
  facet normal 0 0 -1
    outer loop
      vertex 95 -55 -43
      vertex 91.8 -55 -43
      vertex 95 55 -43
    endloop
  endfacet
  facet normal 0 0 -1
    outer loop
      vertex 91.6563 -57.1928 -43
      vertex 94.8289 -57.6105 -43
      vertex 94.3185 -60.1764 -43
    endloop
  endfacet
  facet normal 0 0 -1
    outer loop
      vertex 91.8 55 -43
      vertex 95 55 -43
      vertex 91.8 -55 -43
    endloop
  endfacet
  facet normal 0 0 -1
    outer loop
      vertex 91.2275 -59.3482 -43
      vertex 94.3185 -60.1764 -43
      vertex 93.4776 -62.6537 -43
    endloop
  endfacet
  facet normal 0 0 -1
    outer loop
      vertex 95 55 -43
      vertex 91.8 55 -43
      vertex 94.8289 57.6105 -43
    endloop
  endfacet
  facet normal 0 0 -1
    outer loop
      vertex 90.5212 -61.4291 -43
      vertex 93.4776 -62.6537 -43
      vertex 92.3205 -65 -43
    endloop
  endfacet
  facet normal 0 0 -1
    outer loop
      vertex 91.6563 57.1928 -43
      vertex 94.8289 57.6105 -43
      vertex 91.8 55 -43
    endloop
  endfacet
  facet normal -0 0 -1
    outer loop
      vertex 94.8289 57.6105 -43
      vertex 91.6563 57.1928 -43
      vertex 94.3185 60.1764 -43
    endloop
  endfacet
  facet normal 0 0 -1
    outer loop
      vertex 94.8289 -57.6105 -43
      vertex 91.6563 -57.1928 -43
      vertex 91.8 -55 -43
    endloop
  endfacet
  facet normal 0 0 -1
    outer loop
      vertex 94.3185 -60.1764 -43
      vertex 91.2275 -59.3482 -43
      vertex 91.6563 -57.1928 -43
    endloop
  endfacet
  facet normal 0 0 -1
    outer loop
      vertex 89.5492 -63.4 -43
      vertex 92.3205 -65 -43
      vertex 90.8671 -67.1752 -43
    endloop
  endfacet
  facet normal 0 0 -1
    outer loop
      vertex 93.4776 -62.6537 -43
      vertex 90.5212 -61.4291 -43
      vertex 91.2275 -59.3482 -43
    endloop
  endfacet
  facet normal 0 0 -1
    outer loop
      vertex 92.3205 -65 -43
      vertex 89.5492 -63.4 -43
      vertex 90.5212 -61.4291 -43
    endloop
  endfacet
  facet normal 0 0 -1
    outer loop
      vertex 88.3283 -65.2272 -43
      vertex 90.8671 -67.1752 -43
      vertex 89.1421 -69.1421 -43
    endloop
  endfacet
  facet normal 0 0 -1
    outer loop
      vertex 90.8671 -67.1752 -43
      vertex 88.3283 -65.2272 -43
      vertex 89.5492 -63.4 -43
    endloop
  endfacet
  facet normal 0 0 -1
    outer loop
      vertex 86.8794 -66.8794 -43
      vertex 89.1421 -69.1421 -43
      vertex 87.1752 -70.8671 -43
    endloop
  endfacet
  facet normal 0 0 -1
    outer loop
      vertex 89.1421 -69.1421 -43
      vertex 86.8794 -66.8794 -43
      vertex 88.3283 -65.2272 -43
    endloop
  endfacet
  facet normal 0 0 -1
    outer loop
      vertex 87.1752 -70.8671 -43
      vertex 85.2272 -68.3283 -43
      vertex 86.8794 -66.8794 -43
    endloop
  endfacet
  facet normal 0 0 -1
    outer loop
      vertex 85 -72.3205 -43
      vertex 85.2272 -68.3283 -43
      vertex 87.1752 -70.8671 -43
    endloop
  endfacet
  facet normal 0 0 -1
    outer loop
      vertex 85 -72.3205 -43
      vertex 83.4 -69.5492 -43
      vertex 85.2272 -68.3283 -43
    endloop
  endfacet
  facet normal 0 0 -1
    outer loop
      vertex 82.6537 -73.4776 -43
      vertex 83.4 -69.5492 -43
      vertex 85 -72.3205 -43
    endloop
  endfacet
  facet normal 0 0 -1
    outer loop
      vertex 82.6537 -73.4776 -43
      vertex 81.4291 -70.5212 -43
      vertex 83.4 -69.5492 -43
    endloop
  endfacet
  facet normal 0 0 -1
    outer loop
      vertex 80.1764 -74.3185 -43
      vertex 81.4291 -70.5212 -43
      vertex 82.6537 -73.4776 -43
    endloop
  endfacet
  facet normal 0 0 -1
    outer loop
      vertex 80.1764 -74.3185 -43
      vertex 79.3482 -71.2275 -43
      vertex 81.4291 -70.5212 -43
    endloop
  endfacet
  facet normal 0 0 -1
    outer loop
      vertex 77.6105 -74.8289 -43
      vertex 79.3482 -71.2275 -43
      vertex 80.1764 -74.3185 -43
    endloop
  endfacet
  facet normal 0 0 -1
    outer loop
      vertex 77.6105 -74.8289 -43
      vertex 77.1928 -71.6563 -43
      vertex 79.3482 -71.2275 -43
    endloop
  endfacet
  facet normal 0 0 -1
    outer loop
      vertex 75 -75 -43
      vertex 77.1928 -71.6563 -43
      vertex 77.6105 -74.8289 -43
    endloop
  endfacet
  facet normal 0 0 -1
    outer loop
      vertex 75 -75 -43
      vertex 75 -71.8 -43
      vertex 77.1928 -71.6563 -43
    endloop
  endfacet
  facet normal 0 0 -1
    outer loop
      vertex -75 -75 -43
      vertex 75 -71.8 -43
      vertex 75 -75 -43
    endloop
  endfacet
  facet normal 0 0 -1
    outer loop
      vertex -75 -75 -43
      vertex -75 -71.8 -43
      vertex 75 -71.8 -43
    endloop
  endfacet
  facet normal 0 0 -1
    outer loop
      vertex -75 -75 -43
      vertex -77.1928 -71.6563 -43
      vertex -75 -71.8 -43
    endloop
  endfacet
  facet normal 0 0 -1
    outer loop
      vertex -77.6105 -74.8289 -43
      vertex -77.1928 -71.6563 -43
      vertex -75 -75 -43
    endloop
  endfacet
  facet normal 0 0 -1
    outer loop
      vertex -77.6105 -74.8289 -43
      vertex -79.3482 -71.2275 -43
      vertex -77.1928 -71.6563 -43
    endloop
  endfacet
  facet normal 0 0 -1
    outer loop
      vertex -80.1764 -74.3185 -43
      vertex -79.3482 -71.2275 -43
      vertex -77.6105 -74.8289 -43
    endloop
  endfacet
  facet normal 0 0 -1
    outer loop
      vertex -80.1764 -74.3185 -43
      vertex -81.4291 -70.5212 -43
      vertex -79.3482 -71.2275 -43
    endloop
  endfacet
  facet normal 0 0 -1
    outer loop
      vertex -82.6537 -73.4776 -43
      vertex -81.4291 -70.5212 -43
      vertex -80.1764 -74.3185 -43
    endloop
  endfacet
  facet normal 0 0 -1
    outer loop
      vertex -82.6537 -73.4776 -43
      vertex -83.4 -69.5492 -43
      vertex -81.4291 -70.5212 -43
    endloop
  endfacet
  facet normal 0 0 -1
    outer loop
      vertex -85 -72.3205 -43
      vertex -83.4 -69.5492 -43
      vertex -82.6537 -73.4776 -43
    endloop
  endfacet
  facet normal 0 0 -1
    outer loop
      vertex -85 -72.3205 -43
      vertex -85.2272 -68.3283 -43
      vertex -83.4 -69.5492 -43
    endloop
  endfacet
  facet normal 0 0 -1
    outer loop
      vertex -87.1752 -70.8671 -43
      vertex -85.2272 -68.3283 -43
      vertex -85 -72.3205 -43
    endloop
  endfacet
  facet normal -0 0 -1
    outer loop
      vertex -85.2272 -68.3283 -43
      vertex -87.1752 -70.8671 -43
      vertex -86.8794 -66.8794 -43
    endloop
  endfacet
  facet normal 0 0 -1
    outer loop
      vertex -89.1421 -69.1421 -43
      vertex -86.8794 -66.8794 -43
      vertex -87.1752 -70.8671 -43
    endloop
  endfacet
  facet normal -0 0 -1
    outer loop
      vertex -86.8794 -66.8794 -43
      vertex -89.1421 -69.1421 -43
      vertex -88.3283 -65.2272 -43
    endloop
  endfacet
  facet normal 0 0 -1
    outer loop
      vertex -90.8671 -67.1752 -43
      vertex -88.3283 -65.2272 -43
      vertex -89.1421 -69.1421 -43
    endloop
  endfacet
  facet normal -0 0 -1
    outer loop
      vertex -88.3283 -65.2272 -43
      vertex -90.8671 -67.1752 -43
      vertex -89.5492 -63.4 -43
    endloop
  endfacet
  facet normal 0 0 -1
    outer loop
      vertex -92.3205 -65 -43
      vertex -89.5492 -63.4 -43
      vertex -90.8671 -67.1752 -43
    endloop
  endfacet
  facet normal -0 0 -1
    outer loop
      vertex -89.5492 -63.4 -43
      vertex -92.3205 -65 -43
      vertex -90.5212 -61.4291 -43
    endloop
  endfacet
  facet normal 0 0 -1
    outer loop
      vertex -93.4776 -62.6537 -43
      vertex -90.5212 -61.4291 -43
      vertex -92.3205 -65 -43
    endloop
  endfacet
  facet normal -0 0 -1
    outer loop
      vertex -91.2275 -59.3482 -43
      vertex -94.3185 -60.1764 -43
      vertex -91.6563 -57.1928 -43
    endloop
  endfacet
  facet normal 0 0 -1
    outer loop
      vertex -94.3185 -60.1764 -43
      vertex -91.2275 -59.3482 -43
      vertex -93.4776 -62.6537 -43
    endloop
  endfacet
  facet normal -0 0 -1
    outer loop
      vertex -90.5212 -61.4291 -43
      vertex -93.4776 -62.6537 -43
      vertex -91.2275 -59.3482 -43
    endloop
  endfacet
  facet normal 0 0 -1
    outer loop
      vertex 91.2275 59.3482 -43
      vertex 94.3185 60.1764 -43
      vertex 91.6563 57.1928 -43
    endloop
  endfacet
  facet normal -0 0 -1
    outer loop
      vertex 94.3185 60.1764 -43
      vertex 91.2275 59.3482 -43
      vertex 93.4776 62.6537 -43
    endloop
  endfacet
  facet normal 0 0 -1
    outer loop
      vertex 90.5212 61.4291 -43
      vertex 93.4776 62.6537 -43
      vertex 91.2275 59.3482 -43
    endloop
  endfacet
  facet normal -0 0 -1
    outer loop
      vertex 93.4776 62.6537 -43
      vertex 90.5212 61.4291 -43
      vertex 92.3205 65 -43
    endloop
  endfacet
  facet normal 0 0 -1
    outer loop
      vertex 89.5492 63.4 -43
      vertex 92.3205 65 -43
      vertex 90.5212 61.4291 -43
    endloop
  endfacet
  facet normal -0 0 -1
    outer loop
      vertex 92.3205 65 -43
      vertex 89.5492 63.4 -43
      vertex 90.8671 67.1752 -43
    endloop
  endfacet
  facet normal 0 0 -1
    outer loop
      vertex 88.3283 65.2272 -43
      vertex 90.8671 67.1752 -43
      vertex 89.5492 63.4 -43
    endloop
  endfacet
  facet normal -0 0 -1
    outer loop
      vertex 90.8671 67.1752 -43
      vertex 88.3283 65.2272 -43
      vertex 89.1421 69.1421 -43
    endloop
  endfacet
  facet normal 0 0 -1
    outer loop
      vertex 86.8794 66.8794 -43
      vertex 89.1421 69.1421 -43
      vertex 88.3283 65.2272 -43
    endloop
  endfacet
  facet normal -0 0 -1
    outer loop
      vertex 89.1421 69.1421 -43
      vertex 86.8794 66.8794 -43
      vertex 87.1752 70.8671 -43
    endloop
  endfacet
  facet normal 0 0 -1
    outer loop
      vertex 85.2272 68.3283 -43
      vertex 87.1752 70.8671 -43
      vertex 86.8794 66.8794 -43
    endloop
  endfacet
  facet normal 0 0 -1
    outer loop
      vertex 85.2272 68.3283 -43
      vertex 85 72.3205 -43
      vertex 87.1752 70.8671 -43
    endloop
  endfacet
  facet normal 0 0 -1
    outer loop
      vertex 83.4 69.5492 -43
      vertex 85 72.3205 -43
      vertex 85.2272 68.3283 -43
    endloop
  endfacet
  facet normal 0 0 -1
    outer loop
      vertex 83.4 69.5492 -43
      vertex 82.6537 73.4776 -43
      vertex 85 72.3205 -43
    endloop
  endfacet
  facet normal 0 0 -1
    outer loop
      vertex 81.4291 70.5212 -43
      vertex 82.6537 73.4776 -43
      vertex 83.4 69.5492 -43
    endloop
  endfacet
  facet normal 0 0 -1
    outer loop
      vertex 81.4291 70.5212 -43
      vertex 80.1764 74.3185 -43
      vertex 82.6537 73.4776 -43
    endloop
  endfacet
  facet normal 0 0 -1
    outer loop
      vertex 79.3482 71.2275 -43
      vertex 80.1764 74.3185 -43
      vertex 81.4291 70.5212 -43
    endloop
  endfacet
  facet normal 0 0 -1
    outer loop
      vertex 79.3482 71.2275 -43
      vertex 77.6105 74.8289 -43
      vertex 80.1764 74.3185 -43
    endloop
  endfacet
  facet normal 0 0 -1
    outer loop
      vertex 77.1928 71.6563 -43
      vertex 77.6105 74.8289 -43
      vertex 79.3482 71.2275 -43
    endloop
  endfacet
  facet normal 0 0 -1
    outer loop
      vertex 75 71.8 -43
      vertex 77.6105 74.8289 -43
      vertex 77.1928 71.6563 -43
    endloop
  endfacet
  facet normal 0 0 -1
    outer loop
      vertex 75 71.8 -43
      vertex 75 75 -43
      vertex 77.6105 74.8289 -43
    endloop
  endfacet
  facet normal 0 0 -1
    outer loop
      vertex -75 71.8 -43
      vertex 75 75 -43
      vertex 75 71.8 -43
    endloop
  endfacet
  facet normal 0 0 -1
    outer loop
      vertex -75 71.8 -43
      vertex -75 75 -43
      vertex 75 75 -43
    endloop
  endfacet
  facet normal 0 0 -1
    outer loop
      vertex -77.1928 71.6563 -43
      vertex -75 75 -43
      vertex -75 71.8 -43
    endloop
  endfacet
  facet normal 0 0 -1
    outer loop
      vertex -77.1928 71.6563 -43
      vertex -77.6105 74.8289 -43
      vertex -75 75 -43
    endloop
  endfacet
  facet normal 0 0 -1
    outer loop
      vertex -79.3482 71.2275 -43
      vertex -77.6105 74.8289 -43
      vertex -77.1928 71.6563 -43
    endloop
  endfacet
  facet normal 0 0 -1
    outer loop
      vertex -79.3482 71.2275 -43
      vertex -80.1764 74.3185 -43
      vertex -77.6105 74.8289 -43
    endloop
  endfacet
  facet normal 0 0 -1
    outer loop
      vertex -81.4291 70.5212 -43
      vertex -80.1764 74.3185 -43
      vertex -79.3482 71.2275 -43
    endloop
  endfacet
  facet normal 0 0 -1
    outer loop
      vertex -81.4291 70.5212 -43
      vertex -82.6537 73.4776 -43
      vertex -80.1764 74.3185 -43
    endloop
  endfacet
  facet normal 0 0 -1
    outer loop
      vertex -83.4 69.5492 -43
      vertex -82.6537 73.4776 -43
      vertex -81.4291 70.5212 -43
    endloop
  endfacet
  facet normal 0 0 -1
    outer loop
      vertex -83.4 69.5492 -43
      vertex -85 72.3205 -43
      vertex -82.6537 73.4776 -43
    endloop
  endfacet
  facet normal 0 0 -1
    outer loop
      vertex -85.2272 68.3283 -43
      vertex -85 72.3205 -43
      vertex -83.4 69.5492 -43
    endloop
  endfacet
  facet normal 0 0 -1
    outer loop
      vertex -87.1752 70.8671 -43
      vertex -85.2272 68.3283 -43
      vertex -86.8794 66.8794 -43
    endloop
  endfacet
  facet normal 0 0 -1
    outer loop
      vertex -85.2272 68.3283 -43
      vertex -87.1752 70.8671 -43
      vertex -85 72.3205 -43
    endloop
  endfacet
  facet normal 0 0 -1
    outer loop
      vertex -89.1421 69.1421 -43
      vertex -86.8794 66.8794 -43
      vertex -88.3283 65.2272 -43
    endloop
  endfacet
  facet normal 0 0 -1
    outer loop
      vertex -86.8794 66.8794 -43
      vertex -89.1421 69.1421 -43
      vertex -87.1752 70.8671 -43
    endloop
  endfacet
  facet normal 0 0 -1
    outer loop
      vertex -90.8671 67.1752 -43
      vertex -88.3283 65.2272 -43
      vertex -89.5492 63.4 -43
    endloop
  endfacet
  facet normal 0 0 -1
    outer loop
      vertex -92.3205 65 -43
      vertex -89.5492 63.4 -43
      vertex -90.5212 61.4291 -43
    endloop
  endfacet
  facet normal 0 0 -1
    outer loop
      vertex -88.3283 65.2272 -43
      vertex -90.8671 67.1752 -43
      vertex -89.1421 69.1421 -43
    endloop
  endfacet
  facet normal 0 0 -1
    outer loop
      vertex -93.4776 62.6537 -43
      vertex -90.5212 61.4291 -43
      vertex -91.2275 59.3482 -43
    endloop
  endfacet
  facet normal 0 0 -1
    outer loop
      vertex -94.3185 60.1764 -43
      vertex -91.2275 59.3482 -43
      vertex -91.6563 57.1928 -43
    endloop
  endfacet
  facet normal 0 0 -1
    outer loop
      vertex -89.5492 63.4 -43
      vertex -92.3205 65 -43
      vertex -90.8671 67.1752 -43
    endloop
  endfacet
  facet normal 0 0 -1
    outer loop
      vertex -94.8289 57.6105 -43
      vertex -91.6563 57.1928 -43
      vertex -91.8 55 -43
    endloop
  endfacet
  facet normal 0 0 -1
    outer loop
      vertex -91.8 -55 -43
      vertex -95 -55 -43
      vertex -91.8 55 -43
    endloop
  endfacet
  facet normal 0 0 -1
    outer loop
      vertex -94.8289 -57.6105 -43
      vertex -91.6563 -57.1928 -43
      vertex -94.3185 -60.1764 -43
    endloop
  endfacet
  facet normal 0 0 -1
    outer loop
      vertex -95 55 -43
      vertex -91.8 55 -43
      vertex -95 -55 -43
    endloop
  endfacet
  facet normal -0 0 -1
    outer loop
      vertex -91.6563 -57.1928 -43
      vertex -94.8289 -57.6105 -43
      vertex -91.8 -55 -43
    endloop
  endfacet
  facet normal 0 -0 -1
    outer loop
      vertex -94.8289 57.6105 -43
      vertex -91.8 55 -43
      vertex -95 55 -43
    endloop
  endfacet
  facet normal -0 0 -1
    outer loop
      vertex -91.8 -55 -43
      vertex -94.8289 -57.6105 -43
      vertex -95 -55 -43
    endloop
  endfacet
  facet normal 0 0 -1
    outer loop
      vertex -90.5212 61.4291 -43
      vertex -93.4776 62.6537 -43
      vertex -92.3205 65 -43
    endloop
  endfacet
  facet normal 0 0 -1
    outer loop
      vertex -91.2275 59.3482 -43
      vertex -94.3185 60.1764 -43
      vertex -93.4776 62.6537 -43
    endloop
  endfacet
  facet normal 0 0 -1
    outer loop
      vertex -91.6563 57.1928 -43
      vertex -94.8289 57.6105 -43
      vertex -94.3185 60.1764 -43
    endloop
  endfacet
  facet normal 0 0 1
    outer loop
      vertex 91.8 55 43
      vertex 95 55 43
      vertex 94.8289 57.6105 43
    endloop
  endfacet
  facet normal 0 0 1
    outer loop
      vertex 95 55 43
      vertex 91.8 55 43
      vertex 95 -55 43
    endloop
  endfacet
  facet normal 0 0 1
    outer loop
      vertex 91.6563 57.1928 43
      vertex 94.8289 57.6105 43
      vertex 94.3185 60.1764 43
    endloop
  endfacet
  facet normal 0 0 1
    outer loop
      vertex 91.8 -55 43
      vertex 95 -55 43
      vertex 91.8 55 43
    endloop
  endfacet
  facet normal 0 0 1
    outer loop
      vertex 91.2275 59.3482 43
      vertex 94.3185 60.1764 43
      vertex 93.4776 62.6537 43
    endloop
  endfacet
  facet normal 0 0 1
    outer loop
      vertex 95 -55 43
      vertex 91.8 -55 43
      vertex 94.8289 -57.6105 43
    endloop
  endfacet
  facet normal 0 0 1
    outer loop
      vertex 90.5212 61.4291 43
      vertex 93.4776 62.6537 43
      vertex 92.3205 65 43
    endloop
  endfacet
  facet normal -0 0 1
    outer loop
      vertex 91.6563 -57.1928 43
      vertex 94.8289 -57.6105 43
      vertex 91.8 -55 43
    endloop
  endfacet
  facet normal 0 0 1
    outer loop
      vertex 94.8289 -57.6105 43
      vertex 91.6563 -57.1928 43
      vertex 94.3185 -60.1764 43
    endloop
  endfacet
  facet normal 0 0 1
    outer loop
      vertex 94.8289 57.6105 43
      vertex 91.6563 57.1928 43
      vertex 91.8 55 43
    endloop
  endfacet
  facet normal 0 0 1
    outer loop
      vertex 94.3185 60.1764 43
      vertex 91.2275 59.3482 43
      vertex 91.6563 57.1928 43
    endloop
  endfacet
  facet normal 0 0 1
    outer loop
      vertex 89.5492 63.4 43
      vertex 92.3205 65 43
      vertex 90.8671 67.1752 43
    endloop
  endfacet
  facet normal 0 0 1
    outer loop
      vertex 93.4776 62.6537 43
      vertex 90.5212 61.4291 43
      vertex 91.2275 59.3482 43
    endloop
  endfacet
  facet normal 0 0 1
    outer loop
      vertex 92.3205 65 43
      vertex 89.5492 63.4 43
      vertex 90.5212 61.4291 43
    endloop
  endfacet
  facet normal 0 0 1
    outer loop
      vertex 88.3283 65.2272 43
      vertex 90.8671 67.1752 43
      vertex 89.1421 69.1421 43
    endloop
  endfacet
  facet normal 0 0 1
    outer loop
      vertex 90.8671 67.1752 43
      vertex 88.3283 65.2272 43
      vertex 89.5492 63.4 43
    endloop
  endfacet
  facet normal 0 0 1
    outer loop
      vertex 86.8794 66.8794 43
      vertex 89.1421 69.1421 43
      vertex 87.1752 70.8671 43
    endloop
  endfacet
  facet normal 0 0 1
    outer loop
      vertex 89.1421 69.1421 43
      vertex 86.8794 66.8794 43
      vertex 88.3283 65.2272 43
    endloop
  endfacet
  facet normal 0 0 1
    outer loop
      vertex 87.1752 70.8671 43
      vertex 85.2272 68.3283 43
      vertex 86.8794 66.8794 43
    endloop
  endfacet
  facet normal 0 0 1
    outer loop
      vertex 85 72.3205 43
      vertex 85.2272 68.3283 43
      vertex 87.1752 70.8671 43
    endloop
  endfacet
  facet normal 0 0 1
    outer loop
      vertex 85 72.3205 43
      vertex 83.4 69.5492 43
      vertex 85.2272 68.3283 43
    endloop
  endfacet
  facet normal 0 0 1
    outer loop
      vertex 82.6537 73.4776 43
      vertex 83.4 69.5492 43
      vertex 85 72.3205 43
    endloop
  endfacet
  facet normal 0 0 1
    outer loop
      vertex 82.6537 73.4776 43
      vertex 81.4291 70.5212 43
      vertex 83.4 69.5492 43
    endloop
  endfacet
  facet normal 0 0 1
    outer loop
      vertex 80.1764 74.3185 43
      vertex 81.4291 70.5212 43
      vertex 82.6537 73.4776 43
    endloop
  endfacet
  facet normal 0 0 1
    outer loop
      vertex 80.1764 74.3185 43
      vertex 79.3482 71.2275 43
      vertex 81.4291 70.5212 43
    endloop
  endfacet
  facet normal 0 0 1
    outer loop
      vertex 77.6105 74.8289 43
      vertex 79.3482 71.2275 43
      vertex 80.1764 74.3185 43
    endloop
  endfacet
  facet normal 0 0 1
    outer loop
      vertex 77.6105 74.8289 43
      vertex 77.1928 71.6563 43
      vertex 79.3482 71.2275 43
    endloop
  endfacet
  facet normal 0 0 1
    outer loop
      vertex 75 75 43
      vertex 77.1928 71.6563 43
      vertex 77.6105 74.8289 43
    endloop
  endfacet
  facet normal 0 0 1
    outer loop
      vertex 75 75 43
      vertex 75 71.8 43
      vertex 77.1928 71.6563 43
    endloop
  endfacet
  facet normal -0 0 1
    outer loop
      vertex -75 75 43
      vertex 75 71.8 43
      vertex 75 75 43
    endloop
  endfacet
  facet normal 0 0 1
    outer loop
      vertex -75 75 43
      vertex -75 71.8 43
      vertex 75 71.8 43
    endloop
  endfacet
  facet normal 0 0 1
    outer loop
      vertex -75 75 43
      vertex -77.1928 71.6563 43
      vertex -75 71.8 43
    endloop
  endfacet
  facet normal -0 0 1
    outer loop
      vertex -77.6105 74.8289 43
      vertex -77.1928 71.6563 43
      vertex -75 75 43
    endloop
  endfacet
  facet normal 0 0 1
    outer loop
      vertex -77.6105 74.8289 43
      vertex -79.3482 71.2275 43
      vertex -77.1928 71.6563 43
    endloop
  endfacet
  facet normal -0 0 1
    outer loop
      vertex -80.1764 74.3185 43
      vertex -79.3482 71.2275 43
      vertex -77.6105 74.8289 43
    endloop
  endfacet
  facet normal 0 0 1
    outer loop
      vertex -80.1764 74.3185 43
      vertex -81.4291 70.5212 43
      vertex -79.3482 71.2275 43
    endloop
  endfacet
  facet normal -0 0 1
    outer loop
      vertex -82.6537 73.4776 43
      vertex -81.4291 70.5212 43
      vertex -80.1764 74.3185 43
    endloop
  endfacet
  facet normal 0 0 1
    outer loop
      vertex -82.6537 73.4776 43
      vertex -83.4 69.5492 43
      vertex -81.4291 70.5212 43
    endloop
  endfacet
  facet normal -0 0 1
    outer loop
      vertex -85 72.3205 43
      vertex -83.4 69.5492 43
      vertex -82.6537 73.4776 43
    endloop
  endfacet
  facet normal 0 0 1
    outer loop
      vertex -85 72.3205 43
      vertex -85.2272 68.3283 43
      vertex -83.4 69.5492 43
    endloop
  endfacet
  facet normal -0 0 1
    outer loop
      vertex -87.1752 70.8671 43
      vertex -85.2272 68.3283 43
      vertex -85 72.3205 43
    endloop
  endfacet
  facet normal 0 0 1
    outer loop
      vertex -85.2272 68.3283 43
      vertex -87.1752 70.8671 43
      vertex -86.8794 66.8794 43
    endloop
  endfacet
  facet normal -0 0 1
    outer loop
      vertex -89.1421 69.1421 43
      vertex -86.8794 66.8794 43
      vertex -87.1752 70.8671 43
    endloop
  endfacet
  facet normal 0 0 1
    outer loop
      vertex -86.8794 66.8794 43
      vertex -89.1421 69.1421 43
      vertex -88.3283 65.2272 43
    endloop
  endfacet
  facet normal -0 0 1
    outer loop
      vertex -90.8671 67.1752 43
      vertex -88.3283 65.2272 43
      vertex -89.1421 69.1421 43
    endloop
  endfacet
  facet normal 0 0 1
    outer loop
      vertex -88.3283 65.2272 43
      vertex -90.8671 67.1752 43
      vertex -89.5492 63.4 43
    endloop
  endfacet
  facet normal -0 0 1
    outer loop
      vertex -92.3205 65 43
      vertex -89.5492 63.4 43
      vertex -90.8671 67.1752 43
    endloop
  endfacet
  facet normal 0 0 1
    outer loop
      vertex -89.5492 63.4 43
      vertex -92.3205 65 43
      vertex -90.5212 61.4291 43
    endloop
  endfacet
  facet normal -0 0 1
    outer loop
      vertex -93.4776 62.6537 43
      vertex -90.5212 61.4291 43
      vertex -92.3205 65 43
    endloop
  endfacet
  facet normal 0 0 1
    outer loop
      vertex -91.2275 59.3482 43
      vertex -94.3185 60.1764 43
      vertex -91.6563 57.1928 43
    endloop
  endfacet
  facet normal -0 0 1
    outer loop
      vertex -94.3185 60.1764 43
      vertex -91.2275 59.3482 43
      vertex -93.4776 62.6537 43
    endloop
  endfacet
  facet normal 0 0 1
    outer loop
      vertex -90.5212 61.4291 43
      vertex -93.4776 62.6537 43
      vertex -91.2275 59.3482 43
    endloop
  endfacet
  facet normal -0 0 1
    outer loop
      vertex 91.2275 -59.3482 43
      vertex 94.3185 -60.1764 43
      vertex 91.6563 -57.1928 43
    endloop
  endfacet
  facet normal 0 0 1
    outer loop
      vertex 94.3185 -60.1764 43
      vertex 91.2275 -59.3482 43
      vertex 93.4776 -62.6537 43
    endloop
  endfacet
  facet normal -0 0 1
    outer loop
      vertex 90.5212 -61.4291 43
      vertex 93.4776 -62.6537 43
      vertex 91.2275 -59.3482 43
    endloop
  endfacet
  facet normal 0 0 1
    outer loop
      vertex 93.4776 -62.6537 43
      vertex 90.5212 -61.4291 43
      vertex 92.3205 -65 43
    endloop
  endfacet
  facet normal -0 0 1
    outer loop
      vertex 89.5492 -63.4 43
      vertex 92.3205 -65 43
      vertex 90.5212 -61.4291 43
    endloop
  endfacet
  facet normal 0 0 1
    outer loop
      vertex 92.3205 -65 43
      vertex 89.5492 -63.4 43
      vertex 90.8671 -67.1752 43
    endloop
  endfacet
  facet normal -0 0 1
    outer loop
      vertex 88.3283 -65.2272 43
      vertex 90.8671 -67.1752 43
      vertex 89.5492 -63.4 43
    endloop
  endfacet
  facet normal 0 0 1
    outer loop
      vertex 90.8671 -67.1752 43
      vertex 88.3283 -65.2272 43
      vertex 89.1421 -69.1421 43
    endloop
  endfacet
  facet normal -0 0 1
    outer loop
      vertex 86.8794 -66.8794 43
      vertex 89.1421 -69.1421 43
      vertex 88.3283 -65.2272 43
    endloop
  endfacet
  facet normal 0 0 1
    outer loop
      vertex 89.1421 -69.1421 43
      vertex 86.8794 -66.8794 43
      vertex 87.1752 -70.8671 43
    endloop
  endfacet
  facet normal -0 0 1
    outer loop
      vertex 85.2272 -68.3283 43
      vertex 87.1752 -70.8671 43
      vertex 86.8794 -66.8794 43
    endloop
  endfacet
  facet normal 0 0 1
    outer loop
      vertex 85.2272 -68.3283 43
      vertex 85 -72.3205 43
      vertex 87.1752 -70.8671 43
    endloop
  endfacet
  facet normal -0 0 1
    outer loop
      vertex 83.4 -69.5492 43
      vertex 85 -72.3205 43
      vertex 85.2272 -68.3283 43
    endloop
  endfacet
  facet normal 0 0 1
    outer loop
      vertex 83.4 -69.5492 43
      vertex 82.6537 -73.4776 43
      vertex 85 -72.3205 43
    endloop
  endfacet
  facet normal -0 0 1
    outer loop
      vertex 81.4291 -70.5212 43
      vertex 82.6537 -73.4776 43
      vertex 83.4 -69.5492 43
    endloop
  endfacet
  facet normal 0 0 1
    outer loop
      vertex 81.4291 -70.5212 43
      vertex 80.1764 -74.3185 43
      vertex 82.6537 -73.4776 43
    endloop
  endfacet
  facet normal -0 0 1
    outer loop
      vertex 79.3482 -71.2275 43
      vertex 80.1764 -74.3185 43
      vertex 81.4291 -70.5212 43
    endloop
  endfacet
  facet normal 0 0 1
    outer loop
      vertex 79.3482 -71.2275 43
      vertex 77.6105 -74.8289 43
      vertex 80.1764 -74.3185 43
    endloop
  endfacet
  facet normal -0 0 1
    outer loop
      vertex 77.1928 -71.6563 43
      vertex 77.6105 -74.8289 43
      vertex 79.3482 -71.2275 43
    endloop
  endfacet
  facet normal -0 0 1
    outer loop
      vertex 75 -71.8 43
      vertex 77.6105 -74.8289 43
      vertex 77.1928 -71.6563 43
    endloop
  endfacet
  facet normal 0 0 1
    outer loop
      vertex 75 -71.8 43
      vertex 75 -75 43
      vertex 77.6105 -74.8289 43
    endloop
  endfacet
  facet normal -0 0 1
    outer loop
      vertex -75 -71.8 43
      vertex 75 -75 43
      vertex 75 -71.8 43
    endloop
  endfacet
  facet normal 0 0 1
    outer loop
      vertex -75 -71.8 43
      vertex -75 -75 43
      vertex 75 -75 43
    endloop
  endfacet
  facet normal 0 0 1
    outer loop
      vertex -77.1928 -71.6563 43
      vertex -75 -75 43
      vertex -75 -71.8 43
    endloop
  endfacet
  facet normal 0 0 1
    outer loop
      vertex -77.1928 -71.6563 43
      vertex -77.6105 -74.8289 43
      vertex -75 -75 43
    endloop
  endfacet
  facet normal 0 0 1
    outer loop
      vertex -79.3482 -71.2275 43
      vertex -77.6105 -74.8289 43
      vertex -77.1928 -71.6563 43
    endloop
  endfacet
  facet normal 0 0 1
    outer loop
      vertex -79.3482 -71.2275 43
      vertex -80.1764 -74.3185 43
      vertex -77.6105 -74.8289 43
    endloop
  endfacet
  facet normal 0 0 1
    outer loop
      vertex -81.4291 -70.5212 43
      vertex -80.1764 -74.3185 43
      vertex -79.3482 -71.2275 43
    endloop
  endfacet
  facet normal 0 0 1
    outer loop
      vertex -81.4291 -70.5212 43
      vertex -82.6537 -73.4776 43
      vertex -80.1764 -74.3185 43
    endloop
  endfacet
  facet normal 0 0 1
    outer loop
      vertex -83.4 -69.5492 43
      vertex -82.6537 -73.4776 43
      vertex -81.4291 -70.5212 43
    endloop
  endfacet
  facet normal 0 0 1
    outer loop
      vertex -83.4 -69.5492 43
      vertex -85 -72.3205 43
      vertex -82.6537 -73.4776 43
    endloop
  endfacet
  facet normal 0 0 1
    outer loop
      vertex -85.2272 -68.3283 43
      vertex -85 -72.3205 43
      vertex -83.4 -69.5492 43
    endloop
  endfacet
  facet normal 0 0 1
    outer loop
      vertex -87.1752 -70.8671 43
      vertex -85.2272 -68.3283 43
      vertex -86.8794 -66.8794 43
    endloop
  endfacet
  facet normal 0 0 1
    outer loop
      vertex -85.2272 -68.3283 43
      vertex -87.1752 -70.8671 43
      vertex -85 -72.3205 43
    endloop
  endfacet
  facet normal 0 0 1
    outer loop
      vertex -89.1421 -69.1421 43
      vertex -86.8794 -66.8794 43
      vertex -88.3283 -65.2272 43
    endloop
  endfacet
  facet normal 0 0 1
    outer loop
      vertex -86.8794 -66.8794 43
      vertex -89.1421 -69.1421 43
      vertex -87.1752 -70.8671 43
    endloop
  endfacet
  facet normal 0 0 1
    outer loop
      vertex -90.8671 -67.1752 43
      vertex -88.3283 -65.2272 43
      vertex -89.5492 -63.4 43
    endloop
  endfacet
  facet normal 0 0 1
    outer loop
      vertex -92.3205 -65 43
      vertex -89.5492 -63.4 43
      vertex -90.5212 -61.4291 43
    endloop
  endfacet
  facet normal 0 0 1
    outer loop
      vertex -88.3283 -65.2272 43
      vertex -90.8671 -67.1752 43
      vertex -89.1421 -69.1421 43
    endloop
  endfacet
  facet normal 0 0 1
    outer loop
      vertex -93.4776 -62.6537 43
      vertex -90.5212 -61.4291 43
      vertex -91.2275 -59.3482 43
    endloop
  endfacet
  facet normal 0 0 1
    outer loop
      vertex -94.3185 -60.1764 43
      vertex -91.2275 -59.3482 43
      vertex -91.6563 -57.1928 43
    endloop
  endfacet
  facet normal 0 0 1
    outer loop
      vertex -89.5492 -63.4 43
      vertex -92.3205 -65 43
      vertex -90.8671 -67.1752 43
    endloop
  endfacet
  facet normal 0 0 1
    outer loop
      vertex -94.8289 -57.6105 43
      vertex -91.6563 -57.1928 43
      vertex -91.8 -55 43
    endloop
  endfacet
  facet normal 0 0 1
    outer loop
      vertex -91.8 55 43
      vertex -95 55 43
      vertex -91.8 -55 43
    endloop
  endfacet
  facet normal -0 0 1
    outer loop
      vertex -94.8289 57.6105 43
      vertex -91.6563 57.1928 43
      vertex -94.3185 60.1764 43
    endloop
  endfacet
  facet normal 0 0 1
    outer loop
      vertex -95 -55 43
      vertex -91.8 -55 43
      vertex -95 55 43
    endloop
  endfacet
  facet normal 0 0 1
    outer loop
      vertex -91.6563 57.1928 43
      vertex -94.8289 57.6105 43
      vertex -91.8 55 43
    endloop
  endfacet
  facet normal 0 -0 1
    outer loop
      vertex -94.8289 -57.6105 43
      vertex -91.8 -55 43
      vertex -95 -55 43
    endloop
  endfacet
  facet normal 0 0 1
    outer loop
      vertex -91.8 55 43
      vertex -94.8289 57.6105 43
      vertex -95 55 43
    endloop
  endfacet
  facet normal 0 0 1
    outer loop
      vertex -90.5212 -61.4291 43
      vertex -93.4776 -62.6537 43
      vertex -92.3205 -65 43
    endloop
  endfacet
  facet normal 0 0 1
    outer loop
      vertex -91.2275 -59.3482 43
      vertex -94.3185 -60.1764 43
      vertex -93.4776 -62.6537 43
    endloop
  endfacet
  facet normal 0 0 1
    outer loop
      vertex -91.6563 -57.1928 43
      vertex -94.8289 -57.6105 43
      vertex -94.3185 -60.1764 43
    endloop
  endfacet
  facet normal -0.751826 0.659362 0
    outer loop
      vertex -90.8671 67.1752 -43
      vertex -89.1421 69.1421 43
      vertex -89.1421 69.1421 -43
    endloop
  endfacet
  facet normal -0.751826 0.659362 0
    outer loop
      vertex -89.1421 69.1421 43
      vertex -90.8671 67.1752 -43
      vertex -90.8671 67.1752 43
    endloop
  endfacet
  facet normal -0.980784 0.195094 0
    outer loop
      vertex -94.8289 57.6105 -43
      vertex -94.3185 60.1764 43
      vertex -94.3185 60.1764 -43
    endloop
  endfacet
  facet normal -0.980784 0.195094 0
    outer loop
      vertex -94.3185 60.1764 43
      vertex -94.8289 57.6105 -43
      vertex -94.8289 57.6105 43
    endloop
  endfacet
  facet normal 0.751826 0.659362 0
    outer loop
      vertex 90.8671 67.1752 43
      vertex 89.1421 69.1421 -43
      vertex 89.1421 69.1421 43
    endloop
  endfacet
  facet normal 0.751826 0.659362 0
    outer loop
      vertex 89.1421 69.1421 -43
      vertex 90.8671 67.1752 43
      vertex 90.8671 67.1752 -43
    endloop
  endfacet
  facet normal 0 1 -0
    outer loop
      vertex 75 75 -43
      vertex -75 75 43
      vertex 75 75 43
    endloop
  endfacet
  facet normal 0 1 0
    outer loop
      vertex -75 75 43
      vertex 75 75 -43
      vertex -75 75 -43
    endloop
  endfacet
  facet normal 0.0654027 0.997859 -0
    outer loop
      vertex 77.6105 74.8289 -43
      vertex 75 75 43
      vertex 77.6105 74.8289 43
    endloop
  endfacet
  facet normal 0.0654027 0.997859 0
    outer loop
      vertex 75 75 43
      vertex 77.6105 74.8289 -43
      vertex 75 75 -43
    endloop
  endfacet
  facet normal -0.442299 0.896868 0
    outer loop
      vertex -82.6537 73.4776 -43
      vertex -85 72.3205 43
      vertex -82.6537 73.4776 43
    endloop
  endfacet
  facet normal -0.442299 0.896868 0
    outer loop
      vertex -85 72.3205 43
      vertex -82.6537 73.4776 -43
      vertex -85 72.3205 -43
    endloop
  endfacet
  facet normal 0.555564 -0.831474 0
    outer loop
      vertex 85 -72.3205 -43
      vertex 87.1752 -70.8671 43
      vertex 85 -72.3205 43
    endloop
  endfacet
  facet normal 0.555564 -0.831474 0
    outer loop
      vertex 87.1752 -70.8671 43
      vertex 85 -72.3205 -43
      vertex 87.1752 -70.8671 -43
    endloop
  endfacet
  facet normal 0.980784 -0.195094 0
    outer loop
      vertex 94.3185 -60.1764 43
      vertex 94.8289 -57.6105 -43
      vertex 94.8289 -57.6105 43
    endloop
  endfacet
  facet normal 0.980784 -0.195094 0
    outer loop
      vertex 94.8289 -57.6105 -43
      vertex 94.3185 -60.1764 43
      vertex 94.3185 -60.1764 -43
    endloop
  endfacet
  facet normal 1 -0 0
    outer loop
      vertex 95 -55 43
      vertex 95 55 -43
      vertex 95 55 43
    endloop
  endfacet
  facet normal 1 0 0
    outer loop
      vertex 95 55 -43
      vertex 95 -55 43
      vertex 95 -55 -43
    endloop
  endfacet
  facet normal 0.321429 -0.946934 0
    outer loop
      vertex 80.1764 -74.3185 -43
      vertex 82.6537 -73.4776 43
      vertex 80.1764 -74.3185 43
    endloop
  endfacet
  facet normal 0.321429 -0.946934 0
    outer loop
      vertex 82.6537 -73.4776 43
      vertex 80.1764 -74.3185 -43
      vertex 82.6537 -73.4776 -43
    endloop
  endfacet
  facet normal 0 -1 0
    outer loop
      vertex -75 -75 -43
      vertex 75 -75 43
      vertex -75 -75 43
    endloop
  endfacet
  facet normal 0 -1 -0
    outer loop
      vertex 75 -75 43
      vertex -75 -75 -43
      vertex 75 -75 -43
    endloop
  endfacet
  facet normal -0.659362 0.751826 0
    outer loop
      vertex -87.1752 70.8671 -43
      vertex -89.1421 69.1421 43
      vertex -87.1752 70.8671 43
    endloop
  endfacet
  facet normal -0.659362 0.751826 0
    outer loop
      vertex -89.1421 69.1421 43
      vertex -87.1752 70.8671 -43
      vertex -89.1421 69.1421 -43
    endloop
  endfacet
  facet normal -0.555564 0.831474 0
    outer loop
      vertex -85 72.3205 -43
      vertex -87.1752 70.8671 43
      vertex -85 72.3205 43
    endloop
  endfacet
  facet normal -0.555564 0.831474 0
    outer loop
      vertex -87.1752 70.8671 43
      vertex -85 72.3205 -43
      vertex -87.1752 70.8671 -43
    endloop
  endfacet
  facet normal -0.896868 0.442299 0
    outer loop
      vertex -93.4776 62.6537 -43
      vertex -92.3205 65 43
      vertex -92.3205 65 -43
    endloop
  endfacet
  facet normal -0.896868 0.442299 0
    outer loop
      vertex -92.3205 65 43
      vertex -93.4776 62.6537 -43
      vertex -93.4776 62.6537 43
    endloop
  endfacet
  facet normal -0.831474 0.555564 0
    outer loop
      vertex -92.3205 65 -43
      vertex -90.8671 67.1752 43
      vertex -90.8671 67.1752 -43
    endloop
  endfacet
  facet normal -0.831474 0.555564 0
    outer loop
      vertex -90.8671 67.1752 43
      vertex -92.3205 65 -43
      vertex -92.3205 65 43
    endloop
  endfacet
  facet normal -0.946934 0.321429 0
    outer loop
      vertex -94.3185 60.1764 -43
      vertex -93.4776 62.6537 43
      vertex -93.4776 62.6537 -43
    endloop
  endfacet
  facet normal -0.946934 0.321429 0
    outer loop
      vertex -93.4776 62.6537 43
      vertex -94.3185 60.1764 -43
      vertex -94.3185 60.1764 43
    endloop
  endfacet
  facet normal 0.321429 0.946934 -0
    outer loop
      vertex 82.6537 73.4776 -43
      vertex 80.1764 74.3185 43
      vertex 82.6537 73.4776 43
    endloop
  endfacet
  facet normal 0.321429 0.946934 0
    outer loop
      vertex 80.1764 74.3185 43
      vertex 82.6537 73.4776 -43
      vertex 80.1764 74.3185 -43
    endloop
  endfacet
  facet normal 0.442299 0.896868 -0
    outer loop
      vertex 85 72.3205 -43
      vertex 82.6537 73.4776 43
      vertex 85 72.3205 43
    endloop
  endfacet
  facet normal 0.442299 0.896868 0
    outer loop
      vertex 82.6537 73.4776 43
      vertex 85 72.3205 -43
      vertex 82.6537 73.4776 -43
    endloop
  endfacet
  facet normal 0.831474 0.555564 0
    outer loop
      vertex 92.3205 65 43
      vertex 90.8671 67.1752 -43
      vertex 90.8671 67.1752 43
    endloop
  endfacet
  facet normal 0.831474 0.555564 0
    outer loop
      vertex 90.8671 67.1752 -43
      vertex 92.3205 65 43
      vertex 92.3205 65 -43
    endloop
  endfacet
  facet normal 0.896868 0.442299 0
    outer loop
      vertex 93.4776 62.6537 43
      vertex 92.3205 65 -43
      vertex 92.3205 65 43
    endloop
  endfacet
  facet normal 0.896868 0.442299 0
    outer loop
      vertex 92.3205 65 -43
      vertex 93.4776 62.6537 43
      vertex 93.4776 62.6537 -43
    endloop
  endfacet
  facet normal 0.946934 0.321429 0
    outer loop
      vertex 94.3185 60.1764 43
      vertex 93.4776 62.6537 -43
      vertex 93.4776 62.6537 43
    endloop
  endfacet
  facet normal 0.946934 0.321429 0
    outer loop
      vertex 93.4776 62.6537 -43
      vertex 94.3185 60.1764 43
      vertex 94.3185 60.1764 -43
    endloop
  endfacet
  facet normal -0.195094 0.980784 0
    outer loop
      vertex -77.6105 74.8289 -43
      vertex -80.1764 74.3185 43
      vertex -77.6105 74.8289 43
    endloop
  endfacet
  facet normal -0.195094 0.980784 0
    outer loop
      vertex -80.1764 74.3185 43
      vertex -77.6105 74.8289 -43
      vertex -80.1764 74.3185 -43
    endloop
  endfacet
  facet normal -0.0654027 0.997859 0
    outer loop
      vertex -75 75 -43
      vertex -77.6105 74.8289 43
      vertex -75 75 43
    endloop
  endfacet
  facet normal -0.0654027 0.997859 0
    outer loop
      vertex -77.6105 74.8289 43
      vertex -75 75 -43
      vertex -77.6105 74.8289 -43
    endloop
  endfacet
  facet normal -0.321429 0.946934 0
    outer loop
      vertex -80.1764 74.3185 -43
      vertex -82.6537 73.4776 43
      vertex -80.1764 74.3185 43
    endloop
  endfacet
  facet normal -0.321429 0.946934 0
    outer loop
      vertex -82.6537 73.4776 43
      vertex -80.1764 74.3185 -43
      vertex -82.6537 73.4776 -43
    endloop
  endfacet
  facet normal 0.751826 -0.659362 0
    outer loop
      vertex 89.1421 -69.1421 43
      vertex 90.8671 -67.1752 -43
      vertex 90.8671 -67.1752 43
    endloop
  endfacet
  facet normal 0.751826 -0.659362 0
    outer loop
      vertex 90.8671 -67.1752 -43
      vertex 89.1421 -69.1421 43
      vertex 89.1421 -69.1421 -43
    endloop
  endfacet
  facet normal -0.0654027 -0.997859 0
    outer loop
      vertex -77.6105 -74.8289 -43
      vertex -75 -75 43
      vertex -77.6105 -74.8289 43
    endloop
  endfacet
  facet normal -0.0654027 -0.997859 -0
    outer loop
      vertex -75 -75 43
      vertex -77.6105 -74.8289 -43
      vertex -75 -75 -43
    endloop
  endfacet
  facet normal -0.659362 -0.751826 0
    outer loop
      vertex -89.1421 -69.1421 -43
      vertex -87.1752 -70.8671 43
      vertex -89.1421 -69.1421 43
    endloop
  endfacet
  facet normal -0.659362 -0.751826 -0
    outer loop
      vertex -87.1752 -70.8671 43
      vertex -89.1421 -69.1421 -43
      vertex -87.1752 -70.8671 -43
    endloop
  endfacet
  facet normal 0.555564 0.831474 -0
    outer loop
      vertex 87.1752 70.8671 -43
      vertex 85 72.3205 43
      vertex 87.1752 70.8671 43
    endloop
  endfacet
  facet normal 0.555564 0.831474 0
    outer loop
      vertex 85 72.3205 43
      vertex 87.1752 70.8671 -43
      vertex 85 72.3205 -43
    endloop
  endfacet
  facet normal 0.659362 0.751826 -0
    outer loop
      vertex 89.1421 69.1421 -43
      vertex 87.1752 70.8671 43
      vertex 89.1421 69.1421 43
    endloop
  endfacet
  facet normal 0.659362 0.751826 0
    outer loop
      vertex 87.1752 70.8671 43
      vertex 89.1421 69.1421 -43
      vertex 87.1752 70.8671 -43
    endloop
  endfacet
  facet normal 0.442299 -0.896868 0
    outer loop
      vertex 82.6537 -73.4776 -43
      vertex 85 -72.3205 43
      vertex 82.6537 -73.4776 43
    endloop
  endfacet
  facet normal 0.442299 -0.896868 0
    outer loop
      vertex 85 -72.3205 43
      vertex 82.6537 -73.4776 -43
      vertex 85 -72.3205 -43
    endloop
  endfacet
  facet normal 0.659362 -0.751826 0
    outer loop
      vertex 87.1752 -70.8671 -43
      vertex 89.1421 -69.1421 43
      vertex 87.1752 -70.8671 43
    endloop
  endfacet
  facet normal 0.659362 -0.751826 0
    outer loop
      vertex 89.1421 -69.1421 43
      vertex 87.1752 -70.8671 -43
      vertex 89.1421 -69.1421 -43
    endloop
  endfacet
  facet normal 0.896868 -0.442299 0
    outer loop
      vertex 92.3205 -65 43
      vertex 93.4776 -62.6537 -43
      vertex 93.4776 -62.6537 43
    endloop
  endfacet
  facet normal 0.896868 -0.442299 0
    outer loop
      vertex 93.4776 -62.6537 -43
      vertex 92.3205 -65 43
      vertex 92.3205 -65 -43
    endloop
  endfacet
  facet normal 0.831474 -0.555564 0
    outer loop
      vertex 90.8671 -67.1752 43
      vertex 92.3205 -65 -43
      vertex 92.3205 -65 43
    endloop
  endfacet
  facet normal 0.831474 -0.555564 0
    outer loop
      vertex 92.3205 -65 -43
      vertex 90.8671 -67.1752 43
      vertex 90.8671 -67.1752 -43
    endloop
  endfacet
  facet normal -0.321429 -0.946934 0
    outer loop
      vertex -82.6537 -73.4776 -43
      vertex -80.1764 -74.3185 43
      vertex -82.6537 -73.4776 43
    endloop
  endfacet
  facet normal -0.321429 -0.946934 -0
    outer loop
      vertex -80.1764 -74.3185 43
      vertex -82.6537 -73.4776 -43
      vertex -80.1764 -74.3185 -43
    endloop
  endfacet
  facet normal -0.442299 -0.896868 0
    outer loop
      vertex -85 -72.3205 -43
      vertex -82.6537 -73.4776 43
      vertex -85 -72.3205 43
    endloop
  endfacet
  facet normal -0.442299 -0.896868 -0
    outer loop
      vertex -82.6537 -73.4776 43
      vertex -85 -72.3205 -43
      vertex -82.6537 -73.4776 -43
    endloop
  endfacet
  facet normal -0.751826 -0.659362 0
    outer loop
      vertex -89.1421 -69.1421 -43
      vertex -90.8671 -67.1752 43
      vertex -90.8671 -67.1752 -43
    endloop
  endfacet
  facet normal -0.751826 -0.659362 0
    outer loop
      vertex -90.8671 -67.1752 43
      vertex -89.1421 -69.1421 -43
      vertex -89.1421 -69.1421 43
    endloop
  endfacet
  facet normal 0.195094 -0.980784 0
    outer loop
      vertex 77.6105 -74.8289 -43
      vertex 80.1764 -74.3185 43
      vertex 77.6105 -74.8289 43
    endloop
  endfacet
  facet normal 0.195094 -0.980784 0
    outer loop
      vertex 80.1764 -74.3185 43
      vertex 77.6105 -74.8289 -43
      vertex 80.1764 -74.3185 -43
    endloop
  endfacet
  facet normal 0.0654027 -0.997859 0
    outer loop
      vertex 75 -75 -43
      vertex 77.6105 -74.8289 43
      vertex 75 -75 43
    endloop
  endfacet
  facet normal 0.0654027 -0.997859 0
    outer loop
      vertex 77.6105 -74.8289 43
      vertex 75 -75 -43
      vertex 77.6105 -74.8289 -43
    endloop
  endfacet
  facet normal 0.946934 -0.321429 0
    outer loop
      vertex 93.4776 -62.6537 43
      vertex 94.3185 -60.1764 -43
      vertex 94.3185 -60.1764 43
    endloop
  endfacet
  facet normal 0.946934 -0.321429 0
    outer loop
      vertex 94.3185 -60.1764 -43
      vertex 93.4776 -62.6537 43
      vertex 93.4776 -62.6537 -43
    endloop
  endfacet
  facet normal -0.831474 -0.555564 0
    outer loop
      vertex -90.8671 -67.1752 -43
      vertex -92.3205 -65 43
      vertex -92.3205 -65 -43
    endloop
  endfacet
  facet normal -0.831474 -0.555564 0
    outer loop
      vertex -92.3205 -65 43
      vertex -90.8671 -67.1752 -43
      vertex -90.8671 -67.1752 43
    endloop
  endfacet
  facet normal 0.98078 0.195118 0
    outer loop
      vertex -91.2275 -59.3482 43
      vertex -91.6563 -57.1928 -43
      vertex -91.6563 -57.1928 43
    endloop
  endfacet
  facet normal 0.98078 0.195118 0
    outer loop
      vertex -91.6563 -57.1928 -43
      vertex -91.2275 -59.3482 43
      vertex -91.2275 -59.3482 -43
    endloop
  endfacet
  facet normal 1 -0 0
    outer loop
      vertex -91.8 -55 43
      vertex -91.8 55 -43
      vertex -91.8 55 43
    endloop
  endfacet
  facet normal 1 0 0
    outer loop
      vertex -91.8 55 -43
      vertex -91.8 -55 43
      vertex -91.8 -55 -43
    endloop
  endfacet
  facet normal -0.99786 -0.0653924 0
    outer loop
      vertex 91.8 55 -43
      vertex 91.6563 57.1928 43
      vertex 91.6563 57.1928 -43
    endloop
  endfacet
  facet normal -0.99786 -0.0653924 0
    outer loop
      vertex 91.6563 57.1928 43
      vertex 91.8 55 -43
      vertex 91.8 55 43
    endloop
  endfacet
  facet normal 0.99786 0.0653924 0
    outer loop
      vertex -91.6563 -57.1928 43
      vertex -91.8 -55 -43
      vertex -91.8 -55 43
    endloop
  endfacet
  facet normal 0.99786 0.0653924 0
    outer loop
      vertex -91.8 -55 -43
      vertex -91.6563 -57.1928 43
      vertex -91.6563 -57.1928 -43
    endloop
  endfacet
  facet normal 0.442311 -0.896862 0
    outer loop
      vertex -83.4 69.5492 -43
      vertex -81.4291 70.5212 43
      vertex -83.4 69.5492 43
    endloop
  endfacet
  facet normal 0.442311 -0.896862 0
    outer loop
      vertex -81.4291 70.5212 43
      vertex -83.4 69.5492 -43
      vertex -81.4291 70.5212 -43
    endloop
  endfacet
  facet normal 0.98078 -0.195118 0
    outer loop
      vertex -91.6563 57.1928 43
      vertex -91.2275 59.3482 -43
      vertex -91.2275 59.3482 43
    endloop
  endfacet
  facet normal 0.98078 -0.195118 0
    outer loop
      vertex -91.2275 59.3482 -43
      vertex -91.6563 57.1928 43
      vertex -91.6563 57.1928 -43
    endloop
  endfacet
  facet normal -0.195118 -0.98078 0
    outer loop
      vertex 77.1928 71.6563 -43
      vertex 79.3482 71.2275 43
      vertex 77.1928 71.6563 43
    endloop
  endfacet
  facet normal -0.195118 -0.98078 -0
    outer loop
      vertex 79.3482 71.2275 43
      vertex 77.1928 71.6563 -43
      vertex 79.3482 71.2275 -43
    endloop
  endfacet
  facet normal 0.99786 -0.0653924 0
    outer loop
      vertex -91.8 55 43
      vertex -91.6563 57.1928 -43
      vertex -91.6563 57.1928 43
    endloop
  endfacet
  facet normal 0.99786 -0.0653924 0
    outer loop
      vertex -91.6563 57.1928 -43
      vertex -91.8 55 43
      vertex -91.8 55 -43
    endloop
  endfacet
  facet normal -1 0 0
    outer loop
      vertex 91.8 -55 -43
      vertex 91.8 55 43
      vertex 91.8 55 -43
    endloop
  endfacet
  facet normal -1 -0 0
    outer loop
      vertex 91.8 55 43
      vertex 91.8 -55 -43
      vertex 91.8 -55 43
    endloop
  endfacet
  facet normal 0 1 -0
    outer loop
      vertex 75 -71.8 -43
      vertex -75 -71.8 43
      vertex 75 -71.8 43
    endloop
  endfacet
  facet normal 0 1 0
    outer loop
      vertex -75 -71.8 43
      vertex 75 -71.8 -43
      vertex -75 -71.8 -43
    endloop
  endfacet
  facet normal 0.831469 0.555571 0
    outer loop
      vertex -88.3283 -65.2272 43
      vertex -89.5492 -63.4 -43
      vertex -89.5492 -63.4 43
    endloop
  endfacet
  facet normal 0.831469 0.555571 0
    outer loop
      vertex -89.5492 -63.4 -43
      vertex -88.3283 -65.2272 43
      vertex -88.3283 -65.2272 -43
    endloop
  endfacet
  facet normal -0.831469 -0.555571 0
    outer loop
      vertex 89.5492 63.4 -43
      vertex 88.3283 65.2272 43
      vertex 88.3283 65.2272 -43
    endloop
  endfacet
  facet normal -0.831469 -0.555571 0
    outer loop
      vertex 88.3283 65.2272 43
      vertex 89.5492 63.4 -43
      vertex 89.5492 63.4 43
    endloop
  endfacet
  facet normal 0 -1 0
    outer loop
      vertex -75 71.8 -43
      vertex 75 71.8 43
      vertex -75 71.8 43
    endloop
  endfacet
  facet normal 0 -1 -0
    outer loop
      vertex 75 71.8 43
      vertex -75 71.8 -43
      vertex 75 71.8 -43
    endloop
  endfacet
  facet normal -0.0653924 -0.99786 0
    outer loop
      vertex 75 71.8 -43
      vertex 77.1928 71.6563 43
      vertex 75 71.8 43
    endloop
  endfacet
  facet normal -0.0653924 -0.99786 -0
    outer loop
      vertex 77.1928 71.6563 43
      vertex 75 71.8 -43
      vertex 77.1928 71.6563 -43
    endloop
  endfacet
  facet normal 0.751849 -0.659335 0
    outer loop
      vertex -88.3283 65.2272 43
      vertex -86.8794 66.8794 -43
      vertex -86.8794 66.8794 43
    endloop
  endfacet
  facet normal 0.751849 -0.659335 0
    outer loop
      vertex -86.8794 66.8794 -43
      vertex -88.3283 65.2272 43
      vertex -88.3283 65.2272 -43
    endloop
  endfacet
  facet normal -0.751849 0.659335 0
    outer loop
      vertex 86.8794 -66.8794 -43
      vertex 88.3283 -65.2272 43
      vertex 88.3283 -65.2272 -43
    endloop
  endfacet
  facet normal -0.751849 0.659335 0
    outer loop
      vertex 88.3283 -65.2272 43
      vertex 86.8794 -66.8794 -43
      vertex 86.8794 -66.8794 43
    endloop
  endfacet
  facet normal -0.99786 0.0653924 0
    outer loop
      vertex 91.6563 -57.1928 -43
      vertex 91.8 -55 43
      vertex 91.8 -55 -43
    endloop
  endfacet
  facet normal -0.99786 0.0653924 0
    outer loop
      vertex 91.8 -55 43
      vertex 91.6563 -57.1928 -43
      vertex 91.6563 -57.1928 43
    endloop
  endfacet
  facet normal -0.442311 0.896862 0
    outer loop
      vertex 83.4 -69.5492 -43
      vertex 81.4291 -70.5212 43
      vertex 83.4 -69.5492 43
    endloop
  endfacet
  facet normal -0.442311 0.896862 0
    outer loop
      vertex 81.4291 -70.5212 43
      vertex 83.4 -69.5492 -43
      vertex 81.4291 -70.5212 -43
    endloop
  endfacet
  facet normal -0.98078 -0.195118 0
    outer loop
      vertex 91.6563 57.1928 -43
      vertex 91.2275 59.3482 43
      vertex 91.2275 59.3482 -43
    endloop
  endfacet
  facet normal -0.98078 -0.195118 0
    outer loop
      vertex 91.2275 59.3482 43
      vertex 91.6563 57.1928 -43
      vertex 91.6563 57.1928 43
    endloop
  endfacet
  facet normal -0.751849 -0.659335 0
    outer loop
      vertex 88.3283 65.2272 -43
      vertex 86.8794 66.8794 43
      vertex 86.8794 66.8794 -43
    endloop
  endfacet
  facet normal -0.751849 -0.659335 0
    outer loop
      vertex 86.8794 66.8794 43
      vertex 88.3283 65.2272 -43
      vertex 88.3283 65.2272 43
    endloop
  endfacet
  facet normal -0.659335 -0.751849 0
    outer loop
      vertex 85.2272 68.3283 -43
      vertex 86.8794 66.8794 43
      vertex 85.2272 68.3283 43
    endloop
  endfacet
  facet normal -0.659335 -0.751849 -0
    outer loop
      vertex 86.8794 66.8794 43
      vertex 85.2272 68.3283 -43
      vertex 86.8794 66.8794 -43
    endloop
  endfacet
  facet normal -0.321411 -0.94694 0
    outer loop
      vertex 79.3482 71.2275 -43
      vertex 81.4291 70.5212 43
      vertex 79.3482 71.2275 43
    endloop
  endfacet
  facet normal -0.321411 -0.94694 -0
    outer loop
      vertex 81.4291 70.5212 43
      vertex 79.3482 71.2275 -43
      vertex 81.4291 70.5212 -43
    endloop
  endfacet
  facet normal -0.555571 -0.831469 0
    outer loop
      vertex 83.4 69.5492 -43
      vertex 85.2272 68.3283 43
      vertex 83.4 69.5492 43
    endloop
  endfacet
  facet normal -0.555571 -0.831469 -0
    outer loop
      vertex 85.2272 68.3283 43
      vertex 83.4 69.5492 -43
      vertex 85.2272 68.3283 -43
    endloop
  endfacet
  facet normal 0.195118 -0.98078 0
    outer loop
      vertex -79.3482 71.2275 -43
      vertex -77.1928 71.6563 43
      vertex -79.3482 71.2275 43
    endloop
  endfacet
  facet normal 0.195118 -0.98078 0
    outer loop
      vertex -77.1928 71.6563 43
      vertex -79.3482 71.2275 -43
      vertex -77.1928 71.6563 -43
    endloop
  endfacet
  facet normal 0.321411 -0.94694 0
    outer loop
      vertex -81.4291 70.5212 -43
      vertex -79.3482 71.2275 43
      vertex -81.4291 70.5212 43
    endloop
  endfacet
  facet normal 0.321411 -0.94694 0
    outer loop
      vertex -79.3482 71.2275 43
      vertex -81.4291 70.5212 -43
      vertex -79.3482 71.2275 -43
    endloop
  endfacet
  facet normal 0.659335 -0.751849 0
    outer loop
      vertex -86.8794 66.8794 -43
      vertex -85.2272 68.3283 43
      vertex -86.8794 66.8794 43
    endloop
  endfacet
  facet normal 0.659335 -0.751849 0
    outer loop
      vertex -85.2272 68.3283 43
      vertex -86.8794 66.8794 -43
      vertex -85.2272 68.3283 -43
    endloop
  endfacet
  facet normal 0.555571 -0.831469 0
    outer loop
      vertex -85.2272 68.3283 -43
      vertex -83.4 69.5492 43
      vertex -85.2272 68.3283 43
    endloop
  endfacet
  facet normal 0.555571 -0.831469 0
    outer loop
      vertex -83.4 69.5492 43
      vertex -85.2272 68.3283 -43
      vertex -83.4 69.5492 -43
    endloop
  endfacet
  facet normal 0.831469 -0.555571 0
    outer loop
      vertex -89.5492 63.4 43
      vertex -88.3283 65.2272 -43
      vertex -88.3283 65.2272 43
    endloop
  endfacet
  facet normal 0.831469 -0.555571 0
    outer loop
      vertex -88.3283 65.2272 -43
      vertex -89.5492 63.4 43
      vertex -89.5492 63.4 -43
    endloop
  endfacet
  facet normal 0.896862 -0.442311 0
    outer loop
      vertex -90.5212 61.4291 43
      vertex -89.5492 63.4 -43
      vertex -89.5492 63.4 43
    endloop
  endfacet
  facet normal 0.896862 -0.442311 0
    outer loop
      vertex -89.5492 63.4 -43
      vertex -90.5212 61.4291 43
      vertex -90.5212 61.4291 -43
    endloop
  endfacet
  facet normal 0.94694 -0.321411 0
    outer loop
      vertex -91.2275 59.3482 43
      vertex -90.5212 61.4291 -43
      vertex -90.5212 61.4291 43
    endloop
  endfacet
  facet normal 0.94694 -0.321411 0
    outer loop
      vertex -90.5212 61.4291 -43
      vertex -91.2275 59.3482 43
      vertex -91.2275 59.3482 -43
    endloop
  endfacet
  facet normal -0.555571 0.831469 0
    outer loop
      vertex 85.2272 -68.3283 -43
      vertex 83.4 -69.5492 43
      vertex 85.2272 -68.3283 43
    endloop
  endfacet
  facet normal -0.555571 0.831469 0
    outer loop
      vertex 83.4 -69.5492 43
      vertex 85.2272 -68.3283 -43
      vertex 83.4 -69.5492 -43
    endloop
  endfacet
  facet normal -0.659335 0.751849 0
    outer loop
      vertex 86.8794 -66.8794 -43
      vertex 85.2272 -68.3283 43
      vertex 86.8794 -66.8794 43
    endloop
  endfacet
  facet normal -0.659335 0.751849 0
    outer loop
      vertex 85.2272 -68.3283 43
      vertex 86.8794 -66.8794 -43
      vertex 85.2272 -68.3283 -43
    endloop
  endfacet
  facet normal -0.896862 0.442311 0
    outer loop
      vertex 89.5492 -63.4 -43
      vertex 90.5212 -61.4291 43
      vertex 90.5212 -61.4291 -43
    endloop
  endfacet
  facet normal -0.896862 0.442311 0
    outer loop
      vertex 90.5212 -61.4291 43
      vertex 89.5492 -63.4 -43
      vertex 89.5492 -63.4 43
    endloop
  endfacet
  facet normal -0.98078 0.195118 0
    outer loop
      vertex 91.2275 -59.3482 -43
      vertex 91.6563 -57.1928 43
      vertex 91.6563 -57.1928 -43
    endloop
  endfacet
  facet normal -0.98078 0.195118 0
    outer loop
      vertex 91.6563 -57.1928 43
      vertex 91.2275 -59.3482 -43
      vertex 91.2275 -59.3482 43
    endloop
  endfacet
  facet normal -0.195118 0.98078 0
    outer loop
      vertex 79.3482 -71.2275 -43
      vertex 77.1928 -71.6563 43
      vertex 79.3482 -71.2275 43
    endloop
  endfacet
  facet normal -0.195118 0.98078 0
    outer loop
      vertex 77.1928 -71.6563 43
      vertex 79.3482 -71.2275 -43
      vertex 77.1928 -71.6563 -43
    endloop
  endfacet
  facet normal -0.0653924 0.99786 0
    outer loop
      vertex 77.1928 -71.6563 -43
      vertex 75 -71.8 43
      vertex 77.1928 -71.6563 43
    endloop
  endfacet
  facet normal -0.0653924 0.99786 0
    outer loop
      vertex 75 -71.8 43
      vertex 77.1928 -71.6563 -43
      vertex 75 -71.8 -43
    endloop
  endfacet
  facet normal -0.321411 0.94694 0
    outer loop
      vertex 81.4291 -70.5212 -43
      vertex 79.3482 -71.2275 43
      vertex 81.4291 -70.5212 43
    endloop
  endfacet
  facet normal -0.321411 0.94694 0
    outer loop
      vertex 79.3482 -71.2275 43
      vertex 81.4291 -70.5212 -43
      vertex 79.3482 -71.2275 -43
    endloop
  endfacet
  facet normal 0.555571 0.831469 -0
    outer loop
      vertex -83.4 -69.5492 -43
      vertex -85.2272 -68.3283 43
      vertex -83.4 -69.5492 43
    endloop
  endfacet
  facet normal 0.555571 0.831469 0
    outer loop
      vertex -85.2272 -68.3283 43
      vertex -83.4 -69.5492 -43
      vertex -85.2272 -68.3283 -43
    endloop
  endfacet
  facet normal 0.659335 0.751849 -0
    outer loop
      vertex -85.2272 -68.3283 -43
      vertex -86.8794 -66.8794 43
      vertex -85.2272 -68.3283 43
    endloop
  endfacet
  facet normal 0.659335 0.751849 0
    outer loop
      vertex -86.8794 -66.8794 43
      vertex -85.2272 -68.3283 -43
      vertex -86.8794 -66.8794 -43
    endloop
  endfacet
  facet normal 0.94694 0.321411 0
    outer loop
      vertex -90.5212 -61.4291 43
      vertex -91.2275 -59.3482 -43
      vertex -91.2275 -59.3482 43
    endloop
  endfacet
  facet normal 0.94694 0.321411 0
    outer loop
      vertex -91.2275 -59.3482 -43
      vertex -90.5212 -61.4291 43
      vertex -90.5212 -61.4291 -43
    endloop
  endfacet
  facet normal -0.896862 -0.442311 0
    outer loop
      vertex 90.5212 61.4291 -43
      vertex 89.5492 63.4 43
      vertex 89.5492 63.4 -43
    endloop
  endfacet
  facet normal -0.896862 -0.442311 0
    outer loop
      vertex 89.5492 63.4 43
      vertex 90.5212 61.4291 -43
      vertex 90.5212 61.4291 43
    endloop
  endfacet
  facet normal -0.94694 -0.321411 0
    outer loop
      vertex 91.2275 59.3482 -43
      vertex 90.5212 61.4291 43
      vertex 90.5212 61.4291 -43
    endloop
  endfacet
  facet normal -0.94694 -0.321411 0
    outer loop
      vertex 90.5212 61.4291 43
      vertex 91.2275 59.3482 -43
      vertex 91.2275 59.3482 43
    endloop
  endfacet
  facet normal -0.442311 -0.896862 0
    outer loop
      vertex 81.4291 70.5212 -43
      vertex 83.4 69.5492 43
      vertex 81.4291 70.5212 43
    endloop
  endfacet
  facet normal -0.442311 -0.896862 -0
    outer loop
      vertex 83.4 69.5492 43
      vertex 81.4291 70.5212 -43
      vertex 83.4 69.5492 -43
    endloop
  endfacet
  facet normal 0.0653924 -0.99786 0
    outer loop
      vertex -77.1928 71.6563 -43
      vertex -75 71.8 43
      vertex -77.1928 71.6563 43
    endloop
  endfacet
  facet normal 0.0653924 -0.99786 0
    outer loop
      vertex -75 71.8 43
      vertex -77.1928 71.6563 -43
      vertex -75 71.8 -43
    endloop
  endfacet
  facet normal -0.831469 0.555571 0
    outer loop
      vertex 88.3283 -65.2272 -43
      vertex 89.5492 -63.4 43
      vertex 89.5492 -63.4 -43
    endloop
  endfacet
  facet normal -0.831469 0.555571 0
    outer loop
      vertex 89.5492 -63.4 43
      vertex 88.3283 -65.2272 -43
      vertex 88.3283 -65.2272 43
    endloop
  endfacet
  facet normal -0.94694 0.321411 0
    outer loop
      vertex 90.5212 -61.4291 -43
      vertex 91.2275 -59.3482 43
      vertex 91.2275 -59.3482 -43
    endloop
  endfacet
  facet normal -0.94694 0.321411 0
    outer loop
      vertex 91.2275 -59.3482 43
      vertex 90.5212 -61.4291 -43
      vertex 90.5212 -61.4291 43
    endloop
  endfacet
  facet normal 0.0653924 0.99786 -0
    outer loop
      vertex -75 -71.8 -43
      vertex -77.1928 -71.6563 43
      vertex -75 -71.8 43
    endloop
  endfacet
  facet normal 0.0653924 0.99786 0
    outer loop
      vertex -77.1928 -71.6563 43
      vertex -75 -71.8 -43
      vertex -77.1928 -71.6563 -43
    endloop
  endfacet
  facet normal 0.321411 0.94694 -0
    outer loop
      vertex -79.3482 -71.2275 -43
      vertex -81.4291 -70.5212 43
      vertex -79.3482 -71.2275 43
    endloop
  endfacet
  facet normal 0.321411 0.94694 0
    outer loop
      vertex -81.4291 -70.5212 43
      vertex -79.3482 -71.2275 -43
      vertex -81.4291 -70.5212 -43
    endloop
  endfacet
  facet normal 0.195118 0.98078 -0
    outer loop
      vertex -77.1928 -71.6563 -43
      vertex -79.3482 -71.2275 43
      vertex -77.1928 -71.6563 43
    endloop
  endfacet
  facet normal 0.195118 0.98078 0
    outer loop
      vertex -79.3482 -71.2275 43
      vertex -77.1928 -71.6563 -43
      vertex -79.3482 -71.2275 -43
    endloop
  endfacet
  facet normal 0.442311 0.896862 -0
    outer loop
      vertex -81.4291 -70.5212 -43
      vertex -83.4 -69.5492 43
      vertex -81.4291 -70.5212 43
    endloop
  endfacet
  facet normal 0.442311 0.896862 0
    outer loop
      vertex -83.4 -69.5492 43
      vertex -81.4291 -70.5212 -43
      vertex -83.4 -69.5492 -43
    endloop
  endfacet
  facet normal 0.751849 0.659335 0
    outer loop
      vertex -86.8794 -66.8794 43
      vertex -88.3283 -65.2272 -43
      vertex -88.3283 -65.2272 43
    endloop
  endfacet
  facet normal 0.751849 0.659335 0
    outer loop
      vertex -88.3283 -65.2272 -43
      vertex -86.8794 -66.8794 43
      vertex -86.8794 -66.8794 -43
    endloop
  endfacet
  facet normal 0.896862 0.442311 0
    outer loop
      vertex -89.5492 -63.4 43
      vertex -90.5212 -61.4291 -43
      vertex -90.5212 -61.4291 43
    endloop
  endfacet
  facet normal 0.896862 0.442311 0
    outer loop
      vertex -90.5212 -61.4291 -43
      vertex -89.5492 -63.4 43
      vertex -89.5492 -63.4 -43
    endloop
  endfacet
endsolid OpenSCAD_Model
