solid OpenSCAD_Model
  facet normal -0 1 -0
    outer loop
      vertex -23.9658 1.5 -2.52209
      vertex -24 1.5 -2
      vertex -23.8637 1.5 -3.03526
    endloop
  endfacet
  facet normal 0 1 0
    outer loop
      vertex -23.1734 1.5 -4.43504
      vertex -23.6955 1.5 -3.53073
      vertex -23.8637 1.5 -3.03526
    endloop
  endfacet
  facet normal -0 1 -0
    outer loop
      vertex -23.4641 1.5 -4
      vertex -23.6955 1.5 -3.53073
      vertex -23.1734 1.5 -4.43504
    endloop
  endfacet
  facet normal 0 1 0
    outer loop
      vertex -22.8284 1.5 -4.82841
      vertex -23.1734 1.5 -4.43504
      vertex -23.8637 1.5 -3.03526
    endloop
  endfacet
  facet normal -0 1 -0
    outer loop
      vertex -22.435 1.5 -5.1734
      vertex -22.8284 1.5 -4.82841
      vertex -21.0353 1.5 -5.86369
    endloop
  endfacet
  facet normal -0 1 -0
    outer loop
      vertex -22 1.5 -5.4641
      vertex -22.435 1.5 -5.1734
      vertex -21.5307 1.5 -5.69551
    endloop
  endfacet
  facet normal -0 1 -0
    outer loop
      vertex -21.5307 1.5 -5.69551
      vertex -22.435 1.5 -5.1734
      vertex -21.0353 1.5 -5.86369
    endloop
  endfacet
  facet normal 0 1 0
    outer loop
      vertex -21.0353 1.5 -5.86369
      vertex -22.8284 1.5 -4.82841
      vertex -23.8637 1.5 -3.03526
    endloop
  endfacet
  facet normal 0 1 0
    outer loop
      vertex -24 1.5 -2
      vertex -21.0353 1.5 -5.86369
      vertex -23.8637 1.5 -3.03526
    endloop
  endfacet
  facet normal 0 1 0
    outer loop
      vertex -20 1.5 -6
      vertex -20.5221 1.5 -5.96577
      vertex -21.0353 1.5 -5.86369
    endloop
  endfacet
  facet normal 0 1 0
    outer loop
      vertex -24 1.5 -2
      vertex -20 1.5 -6
      vertex -21.0353 1.5 -5.86369
    endloop
  endfacet
  facet normal -0 1 0
    outer loop
      vertex -24 1.5 -2
      vertex -24 1.5 2
      vertex -20 1.5 -6
    endloop
  endfacet
  facet normal 0 1 0
    outer loop
      vertex 23.1734 1.5 4.43504
      vertex 23.4641 1.5 4
      vertex 23.6955 1.5 3.53073
    endloop
  endfacet
  facet normal 0 1 0
    outer loop
      vertex 20 1.5 -6
      vertex 21.0353 1.5 -5.86369
      vertex 20.5221 1.5 -5.96577
    endloop
  endfacet
  facet normal 0 1 -0
    outer loop
      vertex 22 1.5 -5.4641
      vertex 21.5307 1.5 -5.69551
      vertex 22.435 1.5 -5.1734
    endloop
  endfacet
  facet normal 0 1 0
    outer loop
      vertex 22.435 1.5 -5.1734
      vertex 21.5307 1.5 -5.69551
      vertex 21.0353 1.5 -5.86369
    endloop
  endfacet
  facet normal 0 1 0
    outer loop
      vertex 22.8284 1.5 -4.82841
      vertex 22.435 1.5 -5.1734
      vertex 21.0353 1.5 -5.86369
    endloop
  endfacet
  facet normal 0 1 -0
    outer loop
      vertex 23.1734 1.5 -4.43504
      vertex 22.8284 1.5 -4.82841
      vertex 23.8637 1.5 -3.03526
    endloop
  endfacet
  facet normal 0 1 -0
    outer loop
      vertex 23.4641 1.5 -4
      vertex 23.1734 1.5 -4.43504
      vertex 23.6955 1.5 -3.53073
    endloop
  endfacet
  facet normal 0 1 -0
    outer loop
      vertex 23.6955 1.5 -3.53073
      vertex 23.1734 1.5 -4.43504
      vertex 23.8637 1.5 -3.03526
    endloop
  endfacet
  facet normal 0 1 0
    outer loop
      vertex 23.8637 1.5 -3.03526
      vertex 22.8284 1.5 -4.82841
      vertex 21.0353 1.5 -5.86369
    endloop
  endfacet
  facet normal 0 1 0
    outer loop
      vertex 20 1.5 -6
      vertex 23.8637 1.5 -3.03526
      vertex 21.0353 1.5 -5.86369
    endloop
  endfacet
  facet normal 0 1 0
    outer loop
      vertex 24 1.5 -2
      vertex 23.9658 1.5 -2.52209
      vertex 23.8637 1.5 -3.03526
    endloop
  endfacet
  facet normal 0 1 0
    outer loop
      vertex 20 1.5 -6
      vertex 24 1.5 -2
      vertex 23.8637 1.5 -3.03526
    endloop
  endfacet
  facet normal 0 1 0
    outer loop
      vertex 20 1.5 6
      vertex 24 1.5 2
      vertex 24 1.5 -2
    endloop
  endfacet
  facet normal 0 1 0
    outer loop
      vertex 23.8637 1.5 3.03526
      vertex 23.9658 1.5 2.52209
      vertex 24 1.5 2
    endloop
  endfacet
  facet normal 0 1 0
    outer loop
      vertex 23.8637 1.5 3.03526
      vertex 23.1734 1.5 4.43504
      vertex 23.6955 1.5 3.53073
    endloop
  endfacet
  facet normal 0 1 0
    outer loop
      vertex 23.8637 1.5 3.03526
      vertex 22.8284 1.5 4.82841
      vertex 23.1734 1.5 4.43504
    endloop
  endfacet
  facet normal 0 1 0
    outer loop
      vertex 21.0353 1.5 5.86369
      vertex 22.435 1.5 5.1734
      vertex 22.8284 1.5 4.82841
    endloop
  endfacet
  facet normal 0 1 0
    outer loop
      vertex 21.5307 1.5 5.69551
      vertex 22 1.5 5.4641
      vertex 22.435 1.5 5.1734
    endloop
  endfacet
  facet normal 0 1 0
    outer loop
      vertex 21.0353 1.5 5.86369
      vertex 21.5307 1.5 5.69551
      vertex 22.435 1.5 5.1734
    endloop
  endfacet
  facet normal 0 1 0
    outer loop
      vertex 23.8637 1.5 3.03526
      vertex 21.0353 1.5 5.86369
      vertex 22.8284 1.5 4.82841
    endloop
  endfacet
  facet normal 0 1 0
    outer loop
      vertex 23.8637 1.5 3.03526
      vertex 20 1.5 6
      vertex 21.0353 1.5 5.86369
    endloop
  endfacet
  facet normal 0 1 0
    outer loop
      vertex 21.0353 1.5 5.86369
      vertex 20 1.5 6
      vertex 20.5221 1.5 5.96577
    endloop
  endfacet
  facet normal 0 1 0
    outer loop
      vertex 23.8637 1.5 3.03526
      vertex 24 1.5 2
      vertex 20 1.5 6
    endloop
  endfacet
  facet normal 0 1 0
    outer loop
      vertex 20 1.5 6
      vertex 24 1.5 -2
      vertex 20 1.5 -6
    endloop
  endfacet
  facet normal -0 1 0
    outer loop
      vertex -20 1.5 6
      vertex 20 1.5 6
      vertex 20 1.5 -6
    endloop
  endfacet
  facet normal 0 1 0
    outer loop
      vertex -20 1.5 -6
      vertex -20 1.5 6
      vertex 20 1.5 -6
    endloop
  endfacet
  facet normal 0 1 -0
    outer loop
      vertex -20 1.5 -6
      vertex -24 1.5 2
      vertex -20 1.5 6
    endloop
  endfacet
  facet normal 0 1 0
    outer loop
      vertex -20 1.5 6
      vertex -21.0353 1.5 5.86369
      vertex -20.5221 1.5 5.96577
    endloop
  endfacet
  facet normal 0 1 0
    outer loop
      vertex -20 1.5 6
      vertex -24 1.5 2
      vertex -21.0353 1.5 5.86369
    endloop
  endfacet
  facet normal 0 1 0
    outer loop
      vertex -22.435 1.5 5.1734
      vertex -22 1.5 5.4641
      vertex -21.5307 1.5 5.69551
    endloop
  endfacet
  facet normal 0 1 0
    outer loop
      vertex -21.0353 1.5 5.86369
      vertex -22.435 1.5 5.1734
      vertex -21.5307 1.5 5.69551
    endloop
  endfacet
  facet normal 0 1 0
    outer loop
      vertex -21.0353 1.5 5.86369
      vertex -22.8284 1.5 4.82841
      vertex -22.435 1.5 5.1734
    endloop
  endfacet
  facet normal 0 1 0
    outer loop
      vertex -21.0353 1.5 5.86369
      vertex -23.8637 1.5 3.03526
      vertex -22.8284 1.5 4.82841
    endloop
  endfacet
  facet normal 0 1 0
    outer loop
      vertex -23.8637 1.5 3.03526
      vertex -23.6955 1.5 3.53073
      vertex -23.1734 1.5 4.43504
    endloop
  endfacet
  facet normal 0 1 0
    outer loop
      vertex -23.1734 1.5 4.43504
      vertex -23.6955 1.5 3.53073
      vertex -23.4641 1.5 4
    endloop
  endfacet
  facet normal 0 1 0
    outer loop
      vertex -22.8284 1.5 4.82841
      vertex -23.8637 1.5 3.03526
      vertex -23.1734 1.5 4.43504
    endloop
  endfacet
  facet normal 0 1 0
    outer loop
      vertex -21.0353 1.5 5.86369
      vertex -24 1.5 2
      vertex -23.8637 1.5 3.03526
    endloop
  endfacet
  facet normal 0 1 0
    outer loop
      vertex -23.8637 1.5 3.03526
      vertex -24 1.5 2
      vertex -23.9658 1.5 2.52209
    endloop
  endfacet
  facet normal 0 -1 0
    outer loop
      vertex -23.8637 -1.5 -3.03526
      vertex -24 -1.5 -2
      vertex -23.9658 -1.5 -2.52209
    endloop
  endfacet
  facet normal 0 -1 0
    outer loop
      vertex -23.8637 -1.5 -3.03526
      vertex -23.6955 -1.5 -3.53073
      vertex -23.1734 -1.5 -4.43504
    endloop
  endfacet
  facet normal 0 -1 0
    outer loop
      vertex -23.1734 -1.5 -4.43504
      vertex -23.6955 -1.5 -3.53073
      vertex -23.4641 -1.5 -4
    endloop
  endfacet
  facet normal 0 -1 0
    outer loop
      vertex -23.8637 -1.5 -3.03526
      vertex -23.1734 -1.5 -4.43504
      vertex -22.8284 -1.5 -4.82841
    endloop
  endfacet
  facet normal 0 -1 0
    outer loop
      vertex -21.0353 -1.5 -5.86369
      vertex -22.8284 -1.5 -4.82841
      vertex -22.435 -1.5 -5.1734
    endloop
  endfacet
  facet normal 0 -1 0
    outer loop
      vertex -21.5307 -1.5 -5.69551
      vertex -22.435 -1.5 -5.1734
      vertex -22 -1.5 -5.4641
    endloop
  endfacet
  facet normal 0 -1 0
    outer loop
      vertex -21.0353 -1.5 -5.86369
      vertex -22.435 -1.5 -5.1734
      vertex -21.5307 -1.5 -5.69551
    endloop
  endfacet
  facet normal 0 -1 0
    outer loop
      vertex -23.8637 -1.5 -3.03526
      vertex -22.8284 -1.5 -4.82841
      vertex -21.0353 -1.5 -5.86369
    endloop
  endfacet
  facet normal 0 -1 0
    outer loop
      vertex -23.8637 -1.5 -3.03526
      vertex -21.0353 -1.5 -5.86369
      vertex -24 -1.5 -2
    endloop
  endfacet
  facet normal 0 -1 0
    outer loop
      vertex -21.0353 -1.5 -5.86369
      vertex -20.5221 -1.5 -5.96577
      vertex -20 -1.5 -6
    endloop
  endfacet
  facet normal 0 -1 0
    outer loop
      vertex -21.0353 -1.5 -5.86369
      vertex -20 -1.5 -6
      vertex -24 -1.5 -2
    endloop
  endfacet
  facet normal 0 -1 0
    outer loop
      vertex -20 -1.5 -6
      vertex -24 -1.5 2
      vertex -24 -1.5 -2
    endloop
  endfacet
  facet normal 0 -1 0
    outer loop
      vertex 23.6955 -1.5 3.53073
      vertex 23.4641 -1.5 4
      vertex 23.1734 -1.5 4.43504
    endloop
  endfacet
  facet normal -0 -1 0
    outer loop
      vertex 20.5221 -1.5 -5.96577
      vertex 21.0353 -1.5 -5.86369
      vertex 20 -1.5 -6
    endloop
  endfacet
  facet normal 0 -1 0
    outer loop
      vertex 22.435 -1.5 -5.1734
      vertex 21.5307 -1.5 -5.69551
      vertex 22 -1.5 -5.4641
    endloop
  endfacet
  facet normal 0 -1 0
    outer loop
      vertex 21.0353 -1.5 -5.86369
      vertex 21.5307 -1.5 -5.69551
      vertex 22.435 -1.5 -5.1734
    endloop
  endfacet
  facet normal 0 -1 0
    outer loop
      vertex 21.0353 -1.5 -5.86369
      vertex 22.435 -1.5 -5.1734
      vertex 22.8284 -1.5 -4.82841
    endloop
  endfacet
  facet normal 0 -1 0
    outer loop
      vertex 23.8637 -1.5 -3.03526
      vertex 22.8284 -1.5 -4.82841
      vertex 23.1734 -1.5 -4.43504
    endloop
  endfacet
  facet normal 0 -1 0
    outer loop
      vertex 23.6955 -1.5 -3.53073
      vertex 23.1734 -1.5 -4.43504
      vertex 23.4641 -1.5 -4
    endloop
  endfacet
  facet normal 0 -1 0
    outer loop
      vertex 23.8637 -1.5 -3.03526
      vertex 23.1734 -1.5 -4.43504
      vertex 23.6955 -1.5 -3.53073
    endloop
  endfacet
  facet normal 0 -1 0
    outer loop
      vertex 21.0353 -1.5 -5.86369
      vertex 22.8284 -1.5 -4.82841
      vertex 23.8637 -1.5 -3.03526
    endloop
  endfacet
  facet normal -0 -1 0
    outer loop
      vertex 21.0353 -1.5 -5.86369
      vertex 23.8637 -1.5 -3.03526
      vertex 20 -1.5 -6
    endloop
  endfacet
  facet normal 0 -1 0
    outer loop
      vertex 23.8637 -1.5 -3.03526
      vertex 23.9658 -1.5 -2.52209
      vertex 24 -1.5 -2
    endloop
  endfacet
  facet normal -0 -1 0
    outer loop
      vertex 23.8637 -1.5 -3.03526
      vertex 24 -1.5 -2
      vertex 20 -1.5 -6
    endloop
  endfacet
  facet normal 0 -1 0
    outer loop
      vertex 24 -1.5 -2
      vertex 24 -1.5 2
      vertex 20 -1.5 6
    endloop
  endfacet
  facet normal 0 -1 0
    outer loop
      vertex 24 -1.5 2
      vertex 23.9658 -1.5 2.52209
      vertex 23.8637 -1.5 3.03526
    endloop
  endfacet
  facet normal -0 -1 -0
    outer loop
      vertex 23.6955 -1.5 3.53073
      vertex 23.1734 -1.5 4.43504
      vertex 23.8637 -1.5 3.03526
    endloop
  endfacet
  facet normal -0 -1 -0
    outer loop
      vertex 23.1734 -1.5 4.43504
      vertex 22.8284 -1.5 4.82841
      vertex 23.8637 -1.5 3.03526
    endloop
  endfacet
  facet normal 0 -1 0
    outer loop
      vertex 22.8284 -1.5 4.82841
      vertex 22.435 -1.5 5.1734
      vertex 21.0353 -1.5 5.86369
    endloop
  endfacet
  facet normal 0 -1 0
    outer loop
      vertex 22.435 -1.5 5.1734
      vertex 22 -1.5 5.4641
      vertex 21.5307 -1.5 5.69551
    endloop
  endfacet
  facet normal 0 -1 0
    outer loop
      vertex 22.435 -1.5 5.1734
      vertex 21.5307 -1.5 5.69551
      vertex 21.0353 -1.5 5.86369
    endloop
  endfacet
  facet normal -0 -1 -0
    outer loop
      vertex 22.8284 -1.5 4.82841
      vertex 21.0353 -1.5 5.86369
      vertex 23.8637 -1.5 3.03526
    endloop
  endfacet
  facet normal -0 -1 -0
    outer loop
      vertex 21.0353 -1.5 5.86369
      vertex 20 -1.5 6
      vertex 23.8637 -1.5 3.03526
    endloop
  endfacet
  facet normal -0 -1 -0
    outer loop
      vertex 20.5221 -1.5 5.96577
      vertex 20 -1.5 6
      vertex 21.0353 -1.5 5.86369
    endloop
  endfacet
  facet normal 0 -1 0
    outer loop
      vertex 20 -1.5 6
      vertex 24 -1.5 2
      vertex 23.8637 -1.5 3.03526
    endloop
  endfacet
  facet normal 0 -1 0
    outer loop
      vertex 20 -1.5 -6
      vertex 24 -1.5 -2
      vertex 20 -1.5 6
    endloop
  endfacet
  facet normal 0 -1 0
    outer loop
      vertex 20 -1.5 -6
      vertex 20 -1.5 6
      vertex -20 -1.5 6
    endloop
  endfacet
  facet normal 0 -1 0
    outer loop
      vertex 20 -1.5 -6
      vertex -20 -1.5 6
      vertex -20 -1.5 -6
    endloop
  endfacet
  facet normal 0 -1 -0
    outer loop
      vertex -20 -1.5 6
      vertex -24 -1.5 2
      vertex -20 -1.5 -6
    endloop
  endfacet
  facet normal 0 -1 -0
    outer loop
      vertex -20.5221 -1.5 5.96577
      vertex -21.0353 -1.5 5.86369
      vertex -20 -1.5 6
    endloop
  endfacet
  facet normal 0 -1 -0
    outer loop
      vertex -21.0353 -1.5 5.86369
      vertex -24 -1.5 2
      vertex -20 -1.5 6
    endloop
  endfacet
  facet normal 0 -1 0
    outer loop
      vertex -21.5307 -1.5 5.69551
      vertex -22 -1.5 5.4641
      vertex -22.435 -1.5 5.1734
    endloop
  endfacet
  facet normal 0 -1 -0
    outer loop
      vertex -21.5307 -1.5 5.69551
      vertex -22.435 -1.5 5.1734
      vertex -21.0353 -1.5 5.86369
    endloop
  endfacet
  facet normal 0 -1 -0
    outer loop
      vertex -22.435 -1.5 5.1734
      vertex -22.8284 -1.5 4.82841
      vertex -21.0353 -1.5 5.86369
    endloop
  endfacet
  facet normal 0 -1 -0
    outer loop
      vertex -22.8284 -1.5 4.82841
      vertex -23.8637 -1.5 3.03526
      vertex -21.0353 -1.5 5.86369
    endloop
  endfacet
  facet normal 0 -1 0
    outer loop
      vertex -23.1734 -1.5 4.43504
      vertex -23.6955 -1.5 3.53073
      vertex -23.8637 -1.5 3.03526
    endloop
  endfacet
  facet normal 0 -1 -0
    outer loop
      vertex -23.4641 -1.5 4
      vertex -23.6955 -1.5 3.53073
      vertex -23.1734 -1.5 4.43504
    endloop
  endfacet
  facet normal 0 -1 -0
    outer loop
      vertex -23.1734 -1.5 4.43504
      vertex -23.8637 -1.5 3.03526
      vertex -22.8284 -1.5 4.82841
    endloop
  endfacet
  facet normal 0 -1 -0
    outer loop
      vertex -23.8637 -1.5 3.03526
      vertex -24 -1.5 2
      vertex -21.0353 -1.5 5.86369
    endloop
  endfacet
  facet normal 0 -1 -0
    outer loop
      vertex -23.9658 -1.5 2.52209
      vertex -24 -1.5 2
      vertex -23.8637 -1.5 3.03526
    endloop
  endfacet
  facet normal -0.997861 0 -0.0653659
    outer loop
      vertex -23.9658 1.5 -2.52209
      vertex -24 -1.5 -2
      vertex -24 1.5 -2
    endloop
  endfacet
  facet normal -0.997861 -0 -0.0653659
    outer loop
      vertex -23.9658 1.5 -2.52209
      vertex -23.9658 -1.5 -2.52209
      vertex -24 -1.5 -2
    endloop
  endfacet
  facet normal -0.980776 0 -0.195135
    outer loop
      vertex -23.8637 1.5 -3.03526
      vertex -23.9658 -1.5 -2.52209
      vertex -23.9658 1.5 -2.52209
    endloop
  endfacet
  facet normal -0.980776 -0 -0.195135
    outer loop
      vertex -23.8637 1.5 -3.03526
      vertex -23.8637 -1.5 -3.03526
      vertex -23.9658 -1.5 -2.52209
    endloop
  endfacet
  facet normal -0.946924 0 -0.321458
    outer loop
      vertex -23.6955 1.5 -3.53073
      vertex -23.8637 -1.5 -3.03526
      vertex -23.8637 1.5 -3.03526
    endloop
  endfacet
  facet normal -0.946924 -0 -0.321458
    outer loop
      vertex -23.6955 1.5 -3.53073
      vertex -23.6955 -1.5 -3.53073
      vertex -23.8637 -1.5 -3.03526
    endloop
  endfacet
  facet normal -0.896887 0 -0.44226
    outer loop
      vertex -23.4641 1.5 -4
      vertex -23.6955 -1.5 -3.53073
      vertex -23.6955 1.5 -3.53073
    endloop
  endfacet
  facet normal -0.896887 -0 -0.44226
    outer loop
      vertex -23.4641 1.5 -4
      vertex -23.4641 -1.5 -4
      vertex -23.6955 -1.5 -3.53073
    endloop
  endfacet
  facet normal -0.831456 0 -0.555591
    outer loop
      vertex -23.1734 1.5 -4.43504
      vertex -23.4641 -1.5 -4
      vertex -23.4641 1.5 -4
    endloop
  endfacet
  facet normal -0.831456 -0 -0.555591
    outer loop
      vertex -23.1734 1.5 -4.43504
      vertex -23.1734 -1.5 -4.43504
      vertex -23.4641 -1.5 -4
    endloop
  endfacet
  facet normal -0.751817 0 -0.659371
    outer loop
      vertex -22.8284 1.5 -4.82841
      vertex -23.1734 -1.5 -4.43504
      vertex -23.1734 1.5 -4.43504
    endloop
  endfacet
  facet normal -0.751817 -0 -0.659371
    outer loop
      vertex -22.8284 1.5 -4.82841
      vertex -22.8284 -1.5 -4.82841
      vertex -23.1734 -1.5 -4.43504
    endloop
  endfacet
  facet normal -0.659332 0 -0.751852
    outer loop
      vertex -22.435 1.5 -5.1734
      vertex -22.8284 -1.5 -4.82841
      vertex -22.8284 1.5 -4.82841
    endloop
  endfacet
  facet normal -0.659332 -0 -0.751852
    outer loop
      vertex -22.435 1.5 -5.1734
      vertex -22.435 -1.5 -5.1734
      vertex -22.8284 -1.5 -4.82841
    endloop
  endfacet
  facet normal -0.555626 0 -0.831432
    outer loop
      vertex -22 1.5 -5.4641
      vertex -22.435 -1.5 -5.1734
      vertex -22.435 1.5 -5.1734
    endloop
  endfacet
  facet normal -0.555626 -0 -0.831432
    outer loop
      vertex -22 1.5 -5.4641
      vertex -22 -1.5 -5.4641
      vertex -22.435 -1.5 -5.1734
    endloop
  endfacet
  facet normal -0.442253 0 -0.89689
    outer loop
      vertex -21.5307 1.5 -5.69551
      vertex -22 -1.5 -5.4641
      vertex -22 1.5 -5.4641
    endloop
  endfacet
  facet normal -0.442253 -0 -0.89689
    outer loop
      vertex -21.5307 1.5 -5.69551
      vertex -21.5307 -1.5 -5.69551
      vertex -22 -1.5 -5.4641
    endloop
  endfacet
  facet normal -0.321464 0 -0.946922
    outer loop
      vertex -21.0353 1.5 -5.86369
      vertex -21.5307 -1.5 -5.69551
      vertex -21.5307 1.5 -5.69551
    endloop
  endfacet
  facet normal -0.321464 -0 -0.946922
    outer loop
      vertex -21.0353 1.5 -5.86369
      vertex -21.0353 -1.5 -5.86369
      vertex -21.5307 -1.5 -5.69551
    endloop
  endfacet
  facet normal -0.195087 0 -0.980786
    outer loop
      vertex -20.5221 1.5 -5.96577
      vertex -21.0353 -1.5 -5.86369
      vertex -21.0353 1.5 -5.86369
    endloop
  endfacet
  facet normal -0.195087 -0 -0.980786
    outer loop
      vertex -20.5221 1.5 -5.96577
      vertex -20.5221 -1.5 -5.96577
      vertex -21.0353 -1.5 -5.86369
    endloop
  endfacet
  facet normal -0.0654217 0 -0.997858
    outer loop
      vertex -20 1.5 -6
      vertex -20.5221 -1.5 -5.96577
      vertex -20.5221 1.5 -5.96577
    endloop
  endfacet
  facet normal -0.0654217 -0 -0.997858
    outer loop
      vertex -20 1.5 -6
      vertex -20 -1.5 -6
      vertex -20.5221 -1.5 -5.96577
    endloop
  endfacet
  facet normal -0 0 -1
    outer loop
      vertex 20 1.5 -6
      vertex -20 -1.5 -6
      vertex -20 1.5 -6
    endloop
  endfacet
  facet normal 0 -0 -1
    outer loop
      vertex 20 1.5 -6
      vertex 20 -1.5 -6
      vertex -20 -1.5 -6
    endloop
  endfacet
  facet normal 0.0654217 0 -0.997858
    outer loop
      vertex 20.5221 1.5 -5.96577
      vertex 20 -1.5 -6
      vertex 20 1.5 -6
    endloop
  endfacet
  facet normal 0.0654217 0 -0.997858
    outer loop
      vertex 20.5221 1.5 -5.96577
      vertex 20.5221 -1.5 -5.96577
      vertex 20 -1.5 -6
    endloop
  endfacet
  facet normal 0.195087 0 -0.980786
    outer loop
      vertex 21.0353 1.5 -5.86369
      vertex 20.5221 -1.5 -5.96577
      vertex 20.5221 1.5 -5.96577
    endloop
  endfacet
  facet normal 0.195087 0 -0.980786
    outer loop
      vertex 21.0353 1.5 -5.86369
      vertex 21.0353 -1.5 -5.86369
      vertex 20.5221 -1.5 -5.96577
    endloop
  endfacet
  facet normal 0.321464 0 -0.946922
    outer loop
      vertex 21.5307 1.5 -5.69551
      vertex 21.0353 -1.5 -5.86369
      vertex 21.0353 1.5 -5.86369
    endloop
  endfacet
  facet normal 0.321464 0 -0.946922
    outer loop
      vertex 21.5307 1.5 -5.69551
      vertex 21.5307 -1.5 -5.69551
      vertex 21.0353 -1.5 -5.86369
    endloop
  endfacet
  facet normal 0.442253 0 -0.89689
    outer loop
      vertex 22 1.5 -5.4641
      vertex 21.5307 -1.5 -5.69551
      vertex 21.5307 1.5 -5.69551
    endloop
  endfacet
  facet normal 0.442253 0 -0.89689
    outer loop
      vertex 22 1.5 -5.4641
      vertex 22 -1.5 -5.4641
      vertex 21.5307 -1.5 -5.69551
    endloop
  endfacet
  facet normal 0.555626 0 -0.831432
    outer loop
      vertex 22.435 1.5 -5.1734
      vertex 22 -1.5 -5.4641
      vertex 22 1.5 -5.4641
    endloop
  endfacet
  facet normal 0.555626 0 -0.831432
    outer loop
      vertex 22.435 1.5 -5.1734
      vertex 22.435 -1.5 -5.1734
      vertex 22 -1.5 -5.4641
    endloop
  endfacet
  facet normal 0.659332 0 -0.751852
    outer loop
      vertex 22.8284 1.5 -4.82841
      vertex 22.435 -1.5 -5.1734
      vertex 22.435 1.5 -5.1734
    endloop
  endfacet
  facet normal 0.659332 0 -0.751852
    outer loop
      vertex 22.8284 1.5 -4.82841
      vertex 22.8284 -1.5 -4.82841
      vertex 22.435 -1.5 -5.1734
    endloop
  endfacet
  facet normal 0.751817 0 -0.659371
    outer loop
      vertex 23.1734 1.5 -4.43504
      vertex 22.8284 -1.5 -4.82841
      vertex 22.8284 1.5 -4.82841
    endloop
  endfacet
  facet normal 0.751817 0 -0.659371
    outer loop
      vertex 23.1734 1.5 -4.43504
      vertex 23.1734 -1.5 -4.43504
      vertex 22.8284 -1.5 -4.82841
    endloop
  endfacet
  facet normal 0.831456 0 -0.555591
    outer loop
      vertex 23.4641 1.5 -4
      vertex 23.1734 -1.5 -4.43504
      vertex 23.1734 1.5 -4.43504
    endloop
  endfacet
  facet normal 0.831456 0 -0.555591
    outer loop
      vertex 23.4641 1.5 -4
      vertex 23.4641 -1.5 -4
      vertex 23.1734 -1.5 -4.43504
    endloop
  endfacet
  facet normal 0.896887 0 -0.44226
    outer loop
      vertex 23.6955 1.5 -3.53073
      vertex 23.4641 -1.5 -4
      vertex 23.4641 1.5 -4
    endloop
  endfacet
  facet normal 0.896887 0 -0.44226
    outer loop
      vertex 23.6955 1.5 -3.53073
      vertex 23.6955 -1.5 -3.53073
      vertex 23.4641 -1.5 -4
    endloop
  endfacet
  facet normal 0.946924 0 -0.321458
    outer loop
      vertex 23.8637 1.5 -3.03526
      vertex 23.6955 -1.5 -3.53073
      vertex 23.6955 1.5 -3.53073
    endloop
  endfacet
  facet normal 0.946924 0 -0.321458
    outer loop
      vertex 23.8637 1.5 -3.03526
      vertex 23.8637 -1.5 -3.03526
      vertex 23.6955 -1.5 -3.53073
    endloop
  endfacet
  facet normal 0.980776 0 -0.195135
    outer loop
      vertex 23.9658 1.5 -2.52209
      vertex 23.8637 -1.5 -3.03526
      vertex 23.8637 1.5 -3.03526
    endloop
  endfacet
  facet normal 0.980776 0 -0.195135
    outer loop
      vertex 23.9658 1.5 -2.52209
      vertex 23.9658 -1.5 -2.52209
      vertex 23.8637 -1.5 -3.03526
    endloop
  endfacet
  facet normal 0.997861 0 -0.0653659
    outer loop
      vertex 24 1.5 -2
      vertex 23.9658 -1.5 -2.52209
      vertex 23.9658 1.5 -2.52209
    endloop
  endfacet
  facet normal 0.997861 0 -0.0653659
    outer loop
      vertex 24 1.5 -2
      vertex 24 -1.5 -2
      vertex 23.9658 -1.5 -2.52209
    endloop
  endfacet
  facet normal 1 0 0
    outer loop
      vertex 24 1.5 2
      vertex 24 -1.5 -2
      vertex 24 1.5 -2
    endloop
  endfacet
  facet normal 1 0 0
    outer loop
      vertex 24 1.5 2
      vertex 24 -1.5 2
      vertex 24 -1.5 -2
    endloop
  endfacet
  facet normal 0.997861 0 0.0653659
    outer loop
      vertex 23.9658 1.5 2.52209
      vertex 24 -1.5 2
      vertex 24 1.5 2
    endloop
  endfacet
  facet normal 0.997861 0 0.0653659
    outer loop
      vertex 23.9658 1.5 2.52209
      vertex 23.9658 -1.5 2.52209
      vertex 24 -1.5 2
    endloop
  endfacet
  facet normal 0.980776 0 0.195135
    outer loop
      vertex 23.8637 1.5 3.03526
      vertex 23.9658 -1.5 2.52209
      vertex 23.9658 1.5 2.52209
    endloop
  endfacet
  facet normal 0.980776 0 0.195135
    outer loop
      vertex 23.8637 1.5 3.03526
      vertex 23.8637 -1.5 3.03526
      vertex 23.9658 -1.5 2.52209
    endloop
  endfacet
  facet normal 0.946924 0 0.321458
    outer loop
      vertex 23.6955 1.5 3.53073
      vertex 23.8637 -1.5 3.03526
      vertex 23.8637 1.5 3.03526
    endloop
  endfacet
  facet normal 0.946924 0 0.321458
    outer loop
      vertex 23.6955 1.5 3.53073
      vertex 23.6955 -1.5 3.53073
      vertex 23.8637 -1.5 3.03526
    endloop
  endfacet
  facet normal 0.896887 0 0.44226
    outer loop
      vertex 23.4641 1.5 4
      vertex 23.6955 -1.5 3.53073
      vertex 23.6955 1.5 3.53073
    endloop
  endfacet
  facet normal 0.896887 0 0.44226
    outer loop
      vertex 23.4641 1.5 4
      vertex 23.4641 -1.5 4
      vertex 23.6955 -1.5 3.53073
    endloop
  endfacet
  facet normal 0.831456 0 0.555591
    outer loop
      vertex 23.1734 1.5 4.43504
      vertex 23.4641 -1.5 4
      vertex 23.4641 1.5 4
    endloop
  endfacet
  facet normal 0.831456 0 0.555591
    outer loop
      vertex 23.1734 1.5 4.43504
      vertex 23.1734 -1.5 4.43504
      vertex 23.4641 -1.5 4
    endloop
  endfacet
  facet normal 0.751817 0 0.659371
    outer loop
      vertex 22.8284 1.5 4.82841
      vertex 23.1734 -1.5 4.43504
      vertex 23.1734 1.5 4.43504
    endloop
  endfacet
  facet normal 0.751817 0 0.659371
    outer loop
      vertex 22.8284 1.5 4.82841
      vertex 22.8284 -1.5 4.82841
      vertex 23.1734 -1.5 4.43504
    endloop
  endfacet
  facet normal 0.659332 0 0.751852
    outer loop
      vertex 22.435 1.5 5.1734
      vertex 22.8284 -1.5 4.82841
      vertex 22.8284 1.5 4.82841
    endloop
  endfacet
  facet normal 0.659332 0 0.751852
    outer loop
      vertex 22.435 1.5 5.1734
      vertex 22.435 -1.5 5.1734
      vertex 22.8284 -1.5 4.82841
    endloop
  endfacet
  facet normal 0.555626 0 0.831432
    outer loop
      vertex 22 1.5 5.4641
      vertex 22.435 -1.5 5.1734
      vertex 22.435 1.5 5.1734
    endloop
  endfacet
  facet normal 0.555626 0 0.831432
    outer loop
      vertex 22 1.5 5.4641
      vertex 22 -1.5 5.4641
      vertex 22.435 -1.5 5.1734
    endloop
  endfacet
  facet normal 0.442253 0 0.89689
    outer loop
      vertex 21.5307 1.5 5.69551
      vertex 22 -1.5 5.4641
      vertex 22 1.5 5.4641
    endloop
  endfacet
  facet normal 0.442253 0 0.89689
    outer loop
      vertex 21.5307 1.5 5.69551
      vertex 21.5307 -1.5 5.69551
      vertex 22 -1.5 5.4641
    endloop
  endfacet
  facet normal 0.321464 0 0.946922
    outer loop
      vertex 21.0353 1.5 5.86369
      vertex 21.5307 -1.5 5.69551
      vertex 21.5307 1.5 5.69551
    endloop
  endfacet
  facet normal 0.321464 0 0.946922
    outer loop
      vertex 21.0353 1.5 5.86369
      vertex 21.0353 -1.5 5.86369
      vertex 21.5307 -1.5 5.69551
    endloop
  endfacet
  facet normal 0.195087 0 0.980786
    outer loop
      vertex 20.5221 1.5 5.96577
      vertex 21.0353 -1.5 5.86369
      vertex 21.0353 1.5 5.86369
    endloop
  endfacet
  facet normal 0.195087 0 0.980786
    outer loop
      vertex 20.5221 1.5 5.96577
      vertex 20.5221 -1.5 5.96577
      vertex 21.0353 -1.5 5.86369
    endloop
  endfacet
  facet normal 0.0654217 0 0.997858
    outer loop
      vertex 20 1.5 6
      vertex 20.5221 -1.5 5.96577
      vertex 20.5221 1.5 5.96577
    endloop
  endfacet
  facet normal 0.0654217 0 0.997858
    outer loop
      vertex 20 1.5 6
      vertex 20 -1.5 6
      vertex 20.5221 -1.5 5.96577
    endloop
  endfacet
  facet normal -0 0 1
    outer loop
      vertex -20 1.5 6
      vertex 20 -1.5 6
      vertex 20 1.5 6
    endloop
  endfacet
  facet normal 0 0 1
    outer loop
      vertex -20 1.5 6
      vertex -20 -1.5 6
      vertex 20 -1.5 6
    endloop
  endfacet
  facet normal -0.0654217 0 0.997858
    outer loop
      vertex -20.5221 1.5 5.96577
      vertex -20 -1.5 6
      vertex -20 1.5 6
    endloop
  endfacet
  facet normal -0.0654217 0 0.997858
    outer loop
      vertex -20.5221 1.5 5.96577
      vertex -20.5221 -1.5 5.96577
      vertex -20 -1.5 6
    endloop
  endfacet
  facet normal -0.195087 0 0.980786
    outer loop
      vertex -21.0353 1.5 5.86369
      vertex -20.5221 -1.5 5.96577
      vertex -20.5221 1.5 5.96577
    endloop
  endfacet
  facet normal -0.195087 0 0.980786
    outer loop
      vertex -21.0353 1.5 5.86369
      vertex -21.0353 -1.5 5.86369
      vertex -20.5221 -1.5 5.96577
    endloop
  endfacet
  facet normal -0.321464 0 0.946922
    outer loop
      vertex -21.5307 1.5 5.69551
      vertex -21.0353 -1.5 5.86369
      vertex -21.0353 1.5 5.86369
    endloop
  endfacet
  facet normal -0.321464 0 0.946922
    outer loop
      vertex -21.5307 1.5 5.69551
      vertex -21.5307 -1.5 5.69551
      vertex -21.0353 -1.5 5.86369
    endloop
  endfacet
  facet normal -0.442253 0 0.89689
    outer loop
      vertex -22 1.5 5.4641
      vertex -21.5307 -1.5 5.69551
      vertex -21.5307 1.5 5.69551
    endloop
  endfacet
  facet normal -0.442253 0 0.89689
    outer loop
      vertex -22 1.5 5.4641
      vertex -22 -1.5 5.4641
      vertex -21.5307 -1.5 5.69551
    endloop
  endfacet
  facet normal -0.555626 0 0.831432
    outer loop
      vertex -22.435 1.5 5.1734
      vertex -22 -1.5 5.4641
      vertex -22 1.5 5.4641
    endloop
  endfacet
  facet normal -0.555626 0 0.831432
    outer loop
      vertex -22.435 1.5 5.1734
      vertex -22.435 -1.5 5.1734
      vertex -22 -1.5 5.4641
    endloop
  endfacet
  facet normal -0.659332 0 0.751852
    outer loop
      vertex -22.8284 1.5 4.82841
      vertex -22.435 -1.5 5.1734
      vertex -22.435 1.5 5.1734
    endloop
  endfacet
  facet normal -0.659332 0 0.751852
    outer loop
      vertex -22.8284 1.5 4.82841
      vertex -22.8284 -1.5 4.82841
      vertex -22.435 -1.5 5.1734
    endloop
  endfacet
  facet normal -0.751817 0 0.659371
    outer loop
      vertex -23.1734 1.5 4.43504
      vertex -22.8284 -1.5 4.82841
      vertex -22.8284 1.5 4.82841
    endloop
  endfacet
  facet normal -0.751817 0 0.659371
    outer loop
      vertex -23.1734 1.5 4.43504
      vertex -23.1734 -1.5 4.43504
      vertex -22.8284 -1.5 4.82841
    endloop
  endfacet
  facet normal -0.831456 0 0.555591
    outer loop
      vertex -23.4641 1.5 4
      vertex -23.1734 -1.5 4.43504
      vertex -23.1734 1.5 4.43504
    endloop
  endfacet
  facet normal -0.831456 0 0.555591
    outer loop
      vertex -23.4641 1.5 4
      vertex -23.4641 -1.5 4
      vertex -23.1734 -1.5 4.43504
    endloop
  endfacet
  facet normal -0.896887 0 0.44226
    outer loop
      vertex -23.6955 1.5 3.53073
      vertex -23.4641 -1.5 4
      vertex -23.4641 1.5 4
    endloop
  endfacet
  facet normal -0.896887 0 0.44226
    outer loop
      vertex -23.6955 1.5 3.53073
      vertex -23.6955 -1.5 3.53073
      vertex -23.4641 -1.5 4
    endloop
  endfacet
  facet normal -0.946924 0 0.321458
    outer loop
      vertex -23.8637 1.5 3.03526
      vertex -23.6955 -1.5 3.53073
      vertex -23.6955 1.5 3.53073
    endloop
  endfacet
  facet normal -0.946924 0 0.321458
    outer loop
      vertex -23.8637 1.5 3.03526
      vertex -23.8637 -1.5 3.03526
      vertex -23.6955 -1.5 3.53073
    endloop
  endfacet
  facet normal -0.980776 0 0.195135
    outer loop
      vertex -23.9658 1.5 2.52209
      vertex -23.8637 -1.5 3.03526
      vertex -23.8637 1.5 3.03526
    endloop
  endfacet
  facet normal -0.980776 0 0.195135
    outer loop
      vertex -23.9658 1.5 2.52209
      vertex -23.9658 -1.5 2.52209
      vertex -23.8637 -1.5 3.03526
    endloop
  endfacet
  facet normal -0.997861 0 0.0653659
    outer loop
      vertex -24 1.5 2
      vertex -23.9658 -1.5 2.52209
      vertex -23.9658 1.5 2.52209
    endloop
  endfacet
  facet normal -0.997861 0 0.0653659
    outer loop
      vertex -24 1.5 2
      vertex -24 -1.5 2
      vertex -23.9658 -1.5 2.52209
    endloop
  endfacet
  facet normal -1 0 0
    outer loop
      vertex -24 1.5 -2
      vertex -24 -1.5 2
      vertex -24 1.5 2
    endloop
  endfacet
  facet normal -1 0 0
    outer loop
      vertex -24 1.5 -2
      vertex -24 -1.5 -2
      vertex -24 -1.5 2
    endloop
  endfacet
endsolid OpenSCAD_Model
