solid OpenSCAD_Model
  facet normal -0.980793 0 -0.19505
    outer loop
      vertex -61.7274 -1.5 -19.0705
      vertex -61.9315 1.5 -18.0442
      vertex -61.7274 1.5 -19.0705
    endloop
  endfacet
  facet normal -0.980793 -0 -0.19505
    outer loop
      vertex -61.9315 1.5 -18.0442
      vertex -61.7274 -1.5 -19.0705
      vertex -61.9315 -1.5 -18.0442
    endloop
  endfacet
  facet normal 0.19505 0 -0.980793
    outer loop
      vertex 55.0442 -1.5 -24.9315
      vertex 56.0705 1.5 -24.7274
      vertex 56.0705 -1.5 -24.7274
    endloop
  endfacet
  facet normal 0.19505 0 -0.980793
    outer loop
      vertex 56.0705 1.5 -24.7274
      vertex 55.0442 -1.5 -24.9315
      vertex 55.0442 1.5 -24.9315
    endloop
  endfacet
  facet normal -0.997855 0 0.0654598
    outer loop
      vertex -62 -1.5 17
      vertex -61.9315 1.5 18.0442
      vertex -62 1.5 17
    endloop
  endfacet
  facet normal -0.997855 0 0.0654598
    outer loop
      vertex -61.9315 1.5 18.0442
      vertex -62 -1.5 17
      vertex -61.9315 -1.5 18.0442
    endloop
  endfacet
  facet normal -0.555582 0 -0.831462
    outer loop
      vertex -58.8701 -1.5 -23.3468
      vertex -58 1.5 -23.9282
      vertex -58 -1.5 -23.9282
    endloop
  endfacet
  facet normal -0.555582 0 -0.831462
    outer loop
      vertex -58 1.5 -23.9282
      vertex -58.8701 -1.5 -23.3468
      vertex -58.8701 1.5 -23.3468
    endloop
  endfacet
  facet normal -0.997855 0 -0.0654598
    outer loop
      vertex -61.9315 -1.5 -18.0442
      vertex -62 1.5 -17
      vertex -61.9315 1.5 -18.0442
    endloop
  endfacet
  facet normal -0.997855 -0 -0.0654598
    outer loop
      vertex -62 1.5 -17
      vertex -61.9315 -1.5 -18.0442
      vertex -62 -1.5 -17
    endloop
  endfacet
  facet normal 0 0 -1
    outer loop
      vertex -54 -1.5 -25
      vertex 54 1.5 -25
      vertex 54 -1.5 -25
    endloop
  endfacet
  facet normal -0 0 -1
    outer loop
      vertex 54 1.5 -25
      vertex -54 -1.5 -25
      vertex -54 1.5 -25
    endloop
  endfacet
  facet normal -0.896879 0 -0.442276
    outer loop
      vertex -60.9282 -1.5 -21
      vertex -61.391 1.5 -20.0615
      vertex -60.9282 1.5 -21
    endloop
  endfacet
  facet normal -0.896879 -0 -0.442276
    outer loop
      vertex -61.391 1.5 -20.0615
      vertex -60.9282 -1.5 -21
      vertex -61.391 -1.5 -20.0615
    endloop
  endfacet
  facet normal -0 0 1
    outer loop
      vertex -54 1.5 25
      vertex 54 -1.5 25
      vertex 54 1.5 25
    endloop
  endfacet
  facet normal 0 0 1
    outer loop
      vertex 54 -1.5 25
      vertex -54 1.5 25
      vertex -54 -1.5 25
    endloop
  endfacet
  facet normal -0.19505 0 0.980793
    outer loop
      vertex -56.0705 1.5 24.7274
      vertex -55.0442 -1.5 24.9315
      vertex -55.0442 1.5 24.9315
    endloop
  endfacet
  facet normal -0.19505 0 0.980793
    outer loop
      vertex -55.0442 -1.5 24.9315
      vertex -56.0705 1.5 24.7274
      vertex -56.0705 -1.5 24.7274
    endloop
  endfacet
  facet normal 0.980793 0 -0.19505
    outer loop
      vertex 61.9315 -1.5 -18.0442
      vertex 61.7274 1.5 -19.0705
      vertex 61.9315 1.5 -18.0442
    endloop
  endfacet
  facet normal 0.980793 0 -0.19505
    outer loop
      vertex 61.7274 1.5 -19.0705
      vertex 61.9315 -1.5 -18.0442
      vertex 61.7274 -1.5 -19.0705
    endloop
  endfacet
  facet normal 0.997855 0 -0.0654598
    outer loop
      vertex 62 -1.5 -17
      vertex 61.9315 1.5 -18.0442
      vertex 62 1.5 -17
    endloop
  endfacet
  facet normal 0.997855 0 -0.0654598
    outer loop
      vertex 61.9315 1.5 -18.0442
      vertex 62 -1.5 -17
      vertex 61.9315 -1.5 -18.0442
    endloop
  endfacet
  facet normal 0.0654598 0 -0.997855
    outer loop
      vertex 54 -1.5 -25
      vertex 55.0442 1.5 -24.9315
      vertex 55.0442 -1.5 -24.9315
    endloop
  endfacet
  facet normal 0.0654598 0 -0.997855
    outer loop
      vertex 55.0442 1.5 -24.9315
      vertex 54 -1.5 -25
      vertex 54 1.5 -25
    endloop
  endfacet
  facet normal -0.751801 0 -0.65939
    outer loop
      vertex -59.6568 -1.5 -22.6568
      vertex -60.3468 1.5 -21.8701
      vertex -59.6568 1.5 -22.6568
    endloop
  endfacet
  facet normal -0.751801 -0 -0.65939
    outer loop
      vertex -60.3468 1.5 -21.8701
      vertex -59.6568 -1.5 -22.6568
      vertex -60.3468 -1.5 -21.8701
    endloop
  endfacet
  facet normal -0.94693 0 -0.32144
    outer loop
      vertex -61.391 -1.5 -20.0615
      vertex -61.7274 1.5 -19.0705
      vertex -61.391 1.5 -20.0615
    endloop
  endfacet
  facet normal -0.94693 -0 -0.32144
    outer loop
      vertex -61.7274 1.5 -19.0705
      vertex -61.391 -1.5 -20.0615
      vertex -61.7274 -1.5 -19.0705
    endloop
  endfacet
  facet normal -1 0 0
    outer loop
      vertex -62 -1.5 -17
      vertex -62 1.5 17
      vertex -62 1.5 -17
    endloop
  endfacet
  facet normal -1 -0 0
    outer loop
      vertex -62 1.5 17
      vertex -62 -1.5 -17
      vertex -62 -1.5 17
    endloop
  endfacet
  facet normal 0 1 0
    outer loop
      vertex 54 1.5 25
      vertex 48.7831 1.5 16.9487
      vertex 48 1.5 17
    endloop
  endfacet
  facet normal 0 1 0
    outer loop
      vertex 61.9315 1.5 18.0442
      vertex 49.5529 1.5 16.7955
      vertex 48.7831 1.5 16.9487
    endloop
  endfacet
  facet normal 0 1 0
    outer loop
      vertex 61.9315 1.5 18.0442
      vertex 50.2961 1.5 16.5433
      vertex 49.5529 1.5 16.7955
    endloop
  endfacet
  facet normal 0 1 0
    outer loop
      vertex 61.9315 1.5 18.0442
      vertex 51 1.5 16.1962
      vertex 50.2961 1.5 16.5433
    endloop
  endfacet
  facet normal 0 1 0
    outer loop
      vertex 61.9315 1.5 18.0442
      vertex 51.6526 1.5 15.7601
      vertex 51 1.5 16.1962
    endloop
  endfacet
  facet normal 0 1 0
    outer loop
      vertex 61.9315 1.5 18.0442
      vertex 52.2426 1.5 15.2426
      vertex 51.6526 1.5 15.7601
    endloop
  endfacet
  facet normal 0 1 0
    outer loop
      vertex 61.9315 1.5 18.0442
      vertex 52.7601 1.5 14.6526
      vertex 52.2426 1.5 15.2426
    endloop
  endfacet
  facet normal 0 1 0
    outer loop
      vertex 62 1.5 17
      vertex 53.1962 1.5 14
      vertex 52.7601 1.5 14.6526
    endloop
  endfacet
  facet normal 0 1 0
    outer loop
      vertex 62 1.5 17
      vertex 53.5433 1.5 13.2961
      vertex 53.1962 1.5 14
    endloop
  endfacet
  facet normal 0 1 0
    outer loop
      vertex 62 1.5 17
      vertex 53.7955 1.5 12.5529
      vertex 53.5433 1.5 13.2961
    endloop
  endfacet
  facet normal 0 1 0
    outer loop
      vertex 62 1.5 17
      vertex 53.9487 1.5 11.7831
      vertex 53.7955 1.5 12.5529
    endloop
  endfacet
  facet normal 0 1 0
    outer loop
      vertex 62 1.5 17
      vertex 54 1.5 11
      vertex 53.9487 1.5 11.7831
    endloop
  endfacet
  facet normal 0 1 0
    outer loop
      vertex 62 1.5 17
      vertex 54 1.5 -11
      vertex 54 1.5 11
    endloop
  endfacet
  facet normal 0 1 -0
    outer loop
      vertex 62 1.5 -17
      vertex 54 1.5 -11
      vertex 62 1.5 17
    endloop
  endfacet
  facet normal 0 1 0
    outer loop
      vertex 54 1.5 -11
      vertex 62 1.5 -17
      vertex 53.9487 1.5 -11.7831
    endloop
  endfacet
  facet normal 0 1 0
    outer loop
      vertex 53.9487 1.5 -11.7831
      vertex 62 1.5 -17
      vertex 53.7955 1.5 -12.5529
    endloop
  endfacet
  facet normal 0 1 0
    outer loop
      vertex 62 1.5 -17
      vertex 53.5433 1.5 -13.2961
      vertex 53.7955 1.5 -12.5529
    endloop
  endfacet
  facet normal 0 1 0
    outer loop
      vertex 62 1.5 -17
      vertex 53.1962 1.5 -14
      vertex 53.5433 1.5 -13.2961
    endloop
  endfacet
  facet normal 0 1 0
    outer loop
      vertex 62 1.5 -17
      vertex 52.7601 1.5 -14.6526
      vertex 53.1962 1.5 -14
    endloop
  endfacet
  facet normal 0 1 -0
    outer loop
      vertex 61.9315 1.5 -18.0442
      vertex 52.7601 1.5 -14.6526
      vertex 62 1.5 -17
    endloop
  endfacet
  facet normal 0 1 -0
    outer loop
      vertex 61.7274 1.5 -19.0705
      vertex 52.7601 1.5 -14.6526
      vertex 61.9315 1.5 -18.0442
    endloop
  endfacet
  facet normal 0 1 -0
    outer loop
      vertex 61.391 1.5 -20.0615
      vertex 52.7601 1.5 -14.6526
      vertex 61.7274 1.5 -19.0705
    endloop
  endfacet
  facet normal 0 1 -0
    outer loop
      vertex 60.9282 1.5 -21
      vertex 52.7601 1.5 -14.6526
      vertex 61.391 1.5 -20.0615
    endloop
  endfacet
  facet normal 0 1 0
    outer loop
      vertex 52.7601 1.5 -14.6526
      vertex 60.9282 1.5 -21
      vertex 52.2426 1.5 -15.2426
    endloop
  endfacet
  facet normal 0 1 -0
    outer loop
      vertex 60.3468 1.5 -21.8701
      vertex 52.2426 1.5 -15.2426
      vertex 60.9282 1.5 -21
    endloop
  endfacet
  facet normal 0 1 -0
    outer loop
      vertex 59.6568 1.5 -22.6568
      vertex 52.2426 1.5 -15.2426
      vertex 60.3468 1.5 -21.8701
    endloop
  endfacet
  facet normal 0 1 -0
    outer loop
      vertex 58.8701 1.5 -23.3468
      vertex 52.2426 1.5 -15.2426
      vertex 59.6568 1.5 -22.6568
    endloop
  endfacet
  facet normal 0 1 0
    outer loop
      vertex 48 1.5 -17
      vertex 54 1.5 -25
      vertex -48 1.5 -17
    endloop
  endfacet
  facet normal 0 1 -0
    outer loop
      vertex 58 1.5 -23.9282
      vertex 52.2426 1.5 -15.2426
      vertex 58.8701 1.5 -23.3468
    endloop
  endfacet
  facet normal 0 1 0
    outer loop
      vertex -54 1.5 -25
      vertex -48 1.5 -17
      vertex 54 1.5 -25
    endloop
  endfacet
  facet normal 0 1 0
    outer loop
      vertex 52.2426 1.5 -15.2426
      vertex 58 1.5 -23.9282
      vertex 51.6526 1.5 -15.7601
    endloop
  endfacet
  facet normal -0 1 0
    outer loop
      vertex -55.0442 1.5 -24.9315
      vertex -48 1.5 -17
      vertex -54 1.5 -25
    endloop
  endfacet
  facet normal 0 1 -0
    outer loop
      vertex 57.0615 1.5 -24.391
      vertex 51.6526 1.5 -15.7601
      vertex 58 1.5 -23.9282
    endloop
  endfacet
  facet normal 0 1 0
    outer loop
      vertex -48 1.5 -17
      vertex -61.9315 1.5 -18.0442
      vertex -62 1.5 -17
    endloop
  endfacet
  facet normal 0 1 -0
    outer loop
      vertex 56.0705 1.5 -24.7274
      vertex 51.6526 1.5 -15.7601
      vertex 57.0615 1.5 -24.391
    endloop
  endfacet
  facet normal 0 1 0
    outer loop
      vertex -48 1.5 -17
      vertex -61.7274 1.5 -19.0705
      vertex -61.9315 1.5 -18.0442
    endloop
  endfacet
  facet normal 0 1 -0
    outer loop
      vertex 55.0442 1.5 -24.9315
      vertex 51.6526 1.5 -15.7601
      vertex 56.0705 1.5 -24.7274
    endloop
  endfacet
  facet normal 0 1 0
    outer loop
      vertex -48 1.5 -17
      vertex -61.391 1.5 -20.0615
      vertex -61.7274 1.5 -19.0705
    endloop
  endfacet
  facet normal 0 1 -0
    outer loop
      vertex 54 1.5 -25
      vertex 51.6526 1.5 -15.7601
      vertex 55.0442 1.5 -24.9315
    endloop
  endfacet
  facet normal 0 1 0
    outer loop
      vertex -48 1.5 -17
      vertex -60.9282 1.5 -21
      vertex -61.391 1.5 -20.0615
    endloop
  endfacet
  facet normal 0 1 0
    outer loop
      vertex 51.6526 1.5 -15.7601
      vertex 54 1.5 -25
      vertex 51 1.5 -16.1962
    endloop
  endfacet
  facet normal 0 1 0
    outer loop
      vertex -48 1.5 -17
      vertex -60.3468 1.5 -21.8701
      vertex -60.9282 1.5 -21
    endloop
  endfacet
  facet normal 0 1 0
    outer loop
      vertex 51 1.5 -16.1962
      vertex 54 1.5 -25
      vertex 50.2961 1.5 -16.5433
    endloop
  endfacet
  facet normal 0 1 0
    outer loop
      vertex -48 1.5 -17
      vertex -59.6568 1.5 -22.6568
      vertex -60.3468 1.5 -21.8701
    endloop
  endfacet
  facet normal 0 1 0
    outer loop
      vertex 50.2961 1.5 -16.5433
      vertex 54 1.5 -25
      vertex 49.5529 1.5 -16.7955
    endloop
  endfacet
  facet normal 0 1 0
    outer loop
      vertex -48 1.5 -17
      vertex -58.8701 1.5 -23.3468
      vertex -59.6568 1.5 -22.6568
    endloop
  endfacet
  facet normal 0 1 0
    outer loop
      vertex 49.5529 1.5 -16.7955
      vertex 54 1.5 -25
      vertex 48.7831 1.5 -16.9487
    endloop
  endfacet
  facet normal 0 1 0
    outer loop
      vertex -48 1.5 -17
      vertex -58 1.5 -23.9282
      vertex -58.8701 1.5 -23.3468
    endloop
  endfacet
  facet normal 0 1 0
    outer loop
      vertex 48.7831 1.5 -16.9487
      vertex 54 1.5 -25
      vertex 48 1.5 -17
    endloop
  endfacet
  facet normal 0 1 0
    outer loop
      vertex -48 1.5 -17
      vertex -57.0615 1.5 -24.391
      vertex -58 1.5 -23.9282
    endloop
  endfacet
  facet normal 0 1 0
    outer loop
      vertex -48 1.5 -17
      vertex -56.0705 1.5 -24.7274
      vertex -57.0615 1.5 -24.391
    endloop
  endfacet
  facet normal 0 1 0
    outer loop
      vertex -48 1.5 -17
      vertex -55.0442 1.5 -24.9315
      vertex -56.0705 1.5 -24.7274
    endloop
  endfacet
  facet normal 0 1 0
    outer loop
      vertex 48.7831 1.5 16.9487
      vertex 54 1.5 25
      vertex 55.0442 1.5 24.9315
    endloop
  endfacet
  facet normal 0 1 0
    outer loop
      vertex 54 1.5 25
      vertex 48 1.5 17
      vertex -54 1.5 25
    endloop
  endfacet
  facet normal 0 1 0
    outer loop
      vertex 48.7831 1.5 16.9487
      vertex 55.0442 1.5 24.9315
      vertex 56.0705 1.5 24.7274
    endloop
  endfacet
  facet normal 0 1 -0
    outer loop
      vertex -48 1.5 17
      vertex -54 1.5 25
      vertex 48 1.5 17
    endloop
  endfacet
  facet normal 0 1 0
    outer loop
      vertex 48.7831 1.5 16.9487
      vertex 56.0705 1.5 24.7274
      vertex 57.0615 1.5 24.391
    endloop
  endfacet
  facet normal 0 1 -0
    outer loop
      vertex -48.7831 1.5 16.9487
      vertex -54 1.5 25
      vertex -48 1.5 17
    endloop
  endfacet
  facet normal 0 1 0
    outer loop
      vertex 48.7831 1.5 16.9487
      vertex 57.0615 1.5 24.391
      vertex 58 1.5 23.9282
    endloop
  endfacet
  facet normal 0 1 -0
    outer loop
      vertex -49.5529 1.5 16.7955
      vertex -54 1.5 25
      vertex -48.7831 1.5 16.9487
    endloop
  endfacet
  facet normal 0 1 0
    outer loop
      vertex 48.7831 1.5 16.9487
      vertex 58 1.5 23.9282
      vertex 58.8701 1.5 23.3468
    endloop
  endfacet
  facet normal 0 1 -0
    outer loop
      vertex -50.2961 1.5 16.5433
      vertex -54 1.5 25
      vertex -49.5529 1.5 16.7955
    endloop
  endfacet
  facet normal 0 1 0
    outer loop
      vertex 48.7831 1.5 16.9487
      vertex 58.8701 1.5 23.3468
      vertex 59.6568 1.5 22.6568
    endloop
  endfacet
  facet normal 0 1 -0
    outer loop
      vertex -51 1.5 16.1962
      vertex -54 1.5 25
      vertex -50.2961 1.5 16.5433
    endloop
  endfacet
  facet normal 0 1 0
    outer loop
      vertex 48.7831 1.5 16.9487
      vertex 59.6568 1.5 22.6568
      vertex 60.3468 1.5 21.8701
    endloop
  endfacet
  facet normal 0 1 -0
    outer loop
      vertex -51.6526 1.5 15.7601
      vertex -54 1.5 25
      vertex -51 1.5 16.1962
    endloop
  endfacet
  facet normal 0 1 0
    outer loop
      vertex 48.7831 1.5 16.9487
      vertex 60.3468 1.5 21.8701
      vertex 60.9282 1.5 21
    endloop
  endfacet
  facet normal 0 1 0
    outer loop
      vertex -54 1.5 25
      vertex -51.6526 1.5 15.7601
      vertex -55.0442 1.5 24.9315
    endloop
  endfacet
  facet normal 0 1 0
    outer loop
      vertex 48.7831 1.5 16.9487
      vertex 60.9282 1.5 21
      vertex 61.391 1.5 20.0615
    endloop
  endfacet
  facet normal 0 1 0
    outer loop
      vertex -55.0442 1.5 24.9315
      vertex -51.6526 1.5 15.7601
      vertex -56.0705 1.5 24.7274
    endloop
  endfacet
  facet normal 0 1 0
    outer loop
      vertex 48.7831 1.5 16.9487
      vertex 61.391 1.5 20.0615
      vertex 61.7274 1.5 19.0705
    endloop
  endfacet
  facet normal 0 1 0
    outer loop
      vertex -56.0705 1.5 24.7274
      vertex -51.6526 1.5 15.7601
      vertex -57.0615 1.5 24.391
    endloop
  endfacet
  facet normal 0 1 0
    outer loop
      vertex 48.7831 1.5 16.9487
      vertex 61.7274 1.5 19.0705
      vertex 61.9315 1.5 18.0442
    endloop
  endfacet
  facet normal 0 1 0
    outer loop
      vertex -57.0615 1.5 24.391
      vertex -51.6526 1.5 15.7601
      vertex -58 1.5 23.9282
    endloop
  endfacet
  facet normal 0 1 0
    outer loop
      vertex 52.7601 1.5 14.6526
      vertex 61.9315 1.5 18.0442
      vertex 62 1.5 17
    endloop
  endfacet
  facet normal 0 1 -0
    outer loop
      vertex -52.2426 1.5 15.2426
      vertex -58 1.5 23.9282
      vertex -51.6526 1.5 15.7601
    endloop
  endfacet
  facet normal 0 1 0
    outer loop
      vertex -58 1.5 23.9282
      vertex -52.2426 1.5 15.2426
      vertex -58.8701 1.5 23.3468
    endloop
  endfacet
  facet normal 0 1 0
    outer loop
      vertex -58.8701 1.5 23.3468
      vertex -52.2426 1.5 15.2426
      vertex -59.6568 1.5 22.6568
    endloop
  endfacet
  facet normal 0 1 0
    outer loop
      vertex -59.6568 1.5 22.6568
      vertex -52.2426 1.5 15.2426
      vertex -60.3468 1.5 21.8701
    endloop
  endfacet
  facet normal 0 1 0
    outer loop
      vertex -60.3468 1.5 21.8701
      vertex -52.2426 1.5 15.2426
      vertex -60.9282 1.5 21
    endloop
  endfacet
  facet normal 0 1 -0
    outer loop
      vertex -52.7601 1.5 14.6526
      vertex -60.9282 1.5 21
      vertex -52.2426 1.5 15.2426
    endloop
  endfacet
  facet normal 0 1 0
    outer loop
      vertex -60.9282 1.5 21
      vertex -52.7601 1.5 14.6526
      vertex -61.391 1.5 20.0615
    endloop
  endfacet
  facet normal 0 1 0
    outer loop
      vertex -61.391 1.5 20.0615
      vertex -52.7601 1.5 14.6526
      vertex -61.7274 1.5 19.0705
    endloop
  endfacet
  facet normal 0 1 0
    outer loop
      vertex -61.7274 1.5 19.0705
      vertex -52.7601 1.5 14.6526
      vertex -61.9315 1.5 18.0442
    endloop
  endfacet
  facet normal 0 1 0
    outer loop
      vertex -61.9315 1.5 18.0442
      vertex -52.7601 1.5 14.6526
      vertex -62 1.5 17
    endloop
  endfacet
  facet normal 0 1 -0
    outer loop
      vertex -53.1962 1.5 14
      vertex -62 1.5 17
      vertex -52.7601 1.5 14.6526
    endloop
  endfacet
  facet normal 0 1 -0
    outer loop
      vertex -53.5433 1.5 13.2961
      vertex -62 1.5 17
      vertex -53.1962 1.5 14
    endloop
  endfacet
  facet normal 0 1 -0
    outer loop
      vertex -53.7955 1.5 12.5529
      vertex -62 1.5 17
      vertex -53.5433 1.5 13.2961
    endloop
  endfacet
  facet normal 0 1 -0
    outer loop
      vertex -53.9487 1.5 11.7831
      vertex -62 1.5 17
      vertex -53.7955 1.5 12.5529
    endloop
  endfacet
  facet normal 0 1 -0
    outer loop
      vertex -54 1.5 11
      vertex -62 1.5 17
      vertex -53.9487 1.5 11.7831
    endloop
  endfacet
  facet normal 0 1 -0
    outer loop
      vertex -54 1.5 -11
      vertex -62 1.5 17
      vertex -54 1.5 11
    endloop
  endfacet
  facet normal 0 1 0
    outer loop
      vertex -62 1.5 -17
      vertex -54 1.5 -11
      vertex -53.9487 1.5 -11.7831
    endloop
  endfacet
  facet normal 0 1 0
    outer loop
      vertex -62 1.5 -17
      vertex -53.9487 1.5 -11.7831
      vertex -53.7955 1.5 -12.5529
    endloop
  endfacet
  facet normal 0 1 0
    outer loop
      vertex -54 1.5 -11
      vertex -62 1.5 -17
      vertex -62 1.5 17
    endloop
  endfacet
  facet normal 0 1 0
    outer loop
      vertex -53.5433 1.5 -13.2961
      vertex -62 1.5 -17
      vertex -53.7955 1.5 -12.5529
    endloop
  endfacet
  facet normal 0 1 0
    outer loop
      vertex -53.1962 1.5 -14
      vertex -62 1.5 -17
      vertex -53.5433 1.5 -13.2961
    endloop
  endfacet
  facet normal 0 1 0
    outer loop
      vertex -52.7601 1.5 -14.6526
      vertex -62 1.5 -17
      vertex -53.1962 1.5 -14
    endloop
  endfacet
  facet normal 0 1 0
    outer loop
      vertex -52.2426 1.5 -15.2426
      vertex -62 1.5 -17
      vertex -52.7601 1.5 -14.6526
    endloop
  endfacet
  facet normal 0 1 0
    outer loop
      vertex -51.6526 1.5 -15.7601
      vertex -62 1.5 -17
      vertex -52.2426 1.5 -15.2426
    endloop
  endfacet
  facet normal 0 1 0
    outer loop
      vertex -51 1.5 -16.1962
      vertex -62 1.5 -17
      vertex -51.6526 1.5 -15.7601
    endloop
  endfacet
  facet normal 0 1 0
    outer loop
      vertex -50.2961 1.5 -16.5433
      vertex -62 1.5 -17
      vertex -51 1.5 -16.1962
    endloop
  endfacet
  facet normal 0 1 0
    outer loop
      vertex -49.5529 1.5 -16.7955
      vertex -62 1.5 -17
      vertex -50.2961 1.5 -16.5433
    endloop
  endfacet
  facet normal 0 1 0
    outer loop
      vertex -48.7831 1.5 -16.9487
      vertex -62 1.5 -17
      vertex -49.5529 1.5 -16.7955
    endloop
  endfacet
  facet normal 0 1 0
    outer loop
      vertex -62 1.5 -17
      vertex -48.7831 1.5 -16.9487
      vertex -48 1.5 -17
    endloop
  endfacet
  facet normal 0 -1 0
    outer loop
      vertex -54 -1.5 25
      vertex -48.7831 -1.5 16.9487
      vertex -48 -1.5 17
    endloop
  endfacet
  facet normal 0 -1 0
    outer loop
      vertex -61.9315 -1.5 18.0442
      vertex -49.5529 -1.5 16.7955
      vertex -48.7831 -1.5 16.9487
    endloop
  endfacet
  facet normal 0 -1 0
    outer loop
      vertex -61.9315 -1.5 18.0442
      vertex -50.2961 -1.5 16.5433
      vertex -49.5529 -1.5 16.7955
    endloop
  endfacet
  facet normal 0 -1 0
    outer loop
      vertex -61.9315 -1.5 18.0442
      vertex -51 -1.5 16.1962
      vertex -50.2961 -1.5 16.5433
    endloop
  endfacet
  facet normal 0 -1 0
    outer loop
      vertex -61.9315 -1.5 18.0442
      vertex -51.6526 -1.5 15.7601
      vertex -51 -1.5 16.1962
    endloop
  endfacet
  facet normal 0 -1 0
    outer loop
      vertex -61.9315 -1.5 18.0442
      vertex -52.2426 -1.5 15.2426
      vertex -51.6526 -1.5 15.7601
    endloop
  endfacet
  facet normal 0 -1 0
    outer loop
      vertex -61.9315 -1.5 18.0442
      vertex -52.7601 -1.5 14.6526
      vertex -52.2426 -1.5 15.2426
    endloop
  endfacet
  facet normal 0 -1 0
    outer loop
      vertex -62 -1.5 17
      vertex -53.1962 -1.5 14
      vertex -52.7601 -1.5 14.6526
    endloop
  endfacet
  facet normal 0 -1 0
    outer loop
      vertex -62 -1.5 17
      vertex -53.5433 -1.5 13.2961
      vertex -53.1962 -1.5 14
    endloop
  endfacet
  facet normal 0 -1 0
    outer loop
      vertex -62 -1.5 17
      vertex -53.7955 -1.5 12.5529
      vertex -53.5433 -1.5 13.2961
    endloop
  endfacet
  facet normal 0 -1 0
    outer loop
      vertex -62 -1.5 17
      vertex -53.9487 -1.5 11.7831
      vertex -53.7955 -1.5 12.5529
    endloop
  endfacet
  facet normal 0 -1 0
    outer loop
      vertex -62 -1.5 17
      vertex -54 -1.5 11
      vertex -53.9487 -1.5 11.7831
    endloop
  endfacet
  facet normal 0 -1 0
    outer loop
      vertex -62 -1.5 17
      vertex -54 -1.5 -11
      vertex -54 -1.5 11
    endloop
  endfacet
  facet normal 0 -1 0
    outer loop
      vertex -62 -1.5 -17
      vertex -54 -1.5 -11
      vertex -62 -1.5 17
    endloop
  endfacet
  facet normal 0 -1 -0
    outer loop
      vertex -54 -1.5 -11
      vertex -62 -1.5 -17
      vertex -53.9487 -1.5 -11.7831
    endloop
  endfacet
  facet normal 0 -1 -0
    outer loop
      vertex -53.9487 -1.5 -11.7831
      vertex -62 -1.5 -17
      vertex -53.7955 -1.5 -12.5529
    endloop
  endfacet
  facet normal 0 -1 0
    outer loop
      vertex -62 -1.5 -17
      vertex -53.5433 -1.5 -13.2961
      vertex -53.7955 -1.5 -12.5529
    endloop
  endfacet
  facet normal 0 -1 0
    outer loop
      vertex -62 -1.5 -17
      vertex -53.1962 -1.5 -14
      vertex -53.5433 -1.5 -13.2961
    endloop
  endfacet
  facet normal 0 -1 0
    outer loop
      vertex -62 -1.5 -17
      vertex -52.7601 -1.5 -14.6526
      vertex -53.1962 -1.5 -14
    endloop
  endfacet
  facet normal 0 -1 0
    outer loop
      vertex -61.9315 -1.5 -18.0442
      vertex -52.7601 -1.5 -14.6526
      vertex -62 -1.5 -17
    endloop
  endfacet
  facet normal 0 -1 0
    outer loop
      vertex -61.7274 -1.5 -19.0705
      vertex -52.7601 -1.5 -14.6526
      vertex -61.9315 -1.5 -18.0442
    endloop
  endfacet
  facet normal 0 -1 0
    outer loop
      vertex -61.391 -1.5 -20.0615
      vertex -52.7601 -1.5 -14.6526
      vertex -61.7274 -1.5 -19.0705
    endloop
  endfacet
  facet normal 0 -1 0
    outer loop
      vertex -60.9282 -1.5 -21
      vertex -52.7601 -1.5 -14.6526
      vertex -61.391 -1.5 -20.0615
    endloop
  endfacet
  facet normal 0 -1 -0
    outer loop
      vertex -52.7601 -1.5 -14.6526
      vertex -60.9282 -1.5 -21
      vertex -52.2426 -1.5 -15.2426
    endloop
  endfacet
  facet normal 0 -1 0
    outer loop
      vertex -60.3468 -1.5 -21.8701
      vertex -52.2426 -1.5 -15.2426
      vertex -60.9282 -1.5 -21
    endloop
  endfacet
  facet normal 0 -1 0
    outer loop
      vertex -59.6568 -1.5 -22.6568
      vertex -52.2426 -1.5 -15.2426
      vertex -60.3468 -1.5 -21.8701
    endloop
  endfacet
  facet normal 0 -1 0
    outer loop
      vertex -58.8701 -1.5 -23.3468
      vertex -52.2426 -1.5 -15.2426
      vertex -59.6568 -1.5 -22.6568
    endloop
  endfacet
  facet normal 0 -1 -0
    outer loop
      vertex -48 -1.5 -17
      vertex -54 -1.5 -25
      vertex 48 -1.5 -17
    endloop
  endfacet
  facet normal 0 -1 0
    outer loop
      vertex -58 -1.5 -23.9282
      vertex -52.2426 -1.5 -15.2426
      vertex -58.8701 -1.5 -23.3468
    endloop
  endfacet
  facet normal 0 -1 0
    outer loop
      vertex 54 -1.5 -25
      vertex 48 -1.5 -17
      vertex -54 -1.5 -25
    endloop
  endfacet
  facet normal 0 -1 -0
    outer loop
      vertex -52.2426 -1.5 -15.2426
      vertex -58 -1.5 -23.9282
      vertex -51.6526 -1.5 -15.7601
    endloop
  endfacet
  facet normal -0 -1 0
    outer loop
      vertex 55.0442 -1.5 -24.9315
      vertex 48 -1.5 -17
      vertex 54 -1.5 -25
    endloop
  endfacet
  facet normal 0 -1 0
    outer loop
      vertex -57.0615 -1.5 -24.391
      vertex -51.6526 -1.5 -15.7601
      vertex -58 -1.5 -23.9282
    endloop
  endfacet
  facet normal 0 -1 0
    outer loop
      vertex 48 -1.5 -17
      vertex 61.9315 -1.5 -18.0442
      vertex 62 -1.5 -17
    endloop
  endfacet
  facet normal 0 -1 0
    outer loop
      vertex -56.0705 -1.5 -24.7274
      vertex -51.6526 -1.5 -15.7601
      vertex -57.0615 -1.5 -24.391
    endloop
  endfacet
  facet normal 0 -1 0
    outer loop
      vertex 48 -1.5 -17
      vertex 61.7274 -1.5 -19.0705
      vertex 61.9315 -1.5 -18.0442
    endloop
  endfacet
  facet normal 0 -1 0
    outer loop
      vertex -55.0442 -1.5 -24.9315
      vertex -51.6526 -1.5 -15.7601
      vertex -56.0705 -1.5 -24.7274
    endloop
  endfacet
  facet normal 0 -1 0
    outer loop
      vertex 48 -1.5 -17
      vertex 61.391 -1.5 -20.0615
      vertex 61.7274 -1.5 -19.0705
    endloop
  endfacet
  facet normal 0 -1 0
    outer loop
      vertex -54 -1.5 -25
      vertex -51.6526 -1.5 -15.7601
      vertex -55.0442 -1.5 -24.9315
    endloop
  endfacet
  facet normal 0 -1 0
    outer loop
      vertex 48 -1.5 -17
      vertex 60.9282 -1.5 -21
      vertex 61.391 -1.5 -20.0615
    endloop
  endfacet
  facet normal 0 -1 -0
    outer loop
      vertex -51.6526 -1.5 -15.7601
      vertex -54 -1.5 -25
      vertex -51 -1.5 -16.1962
    endloop
  endfacet
  facet normal 0 -1 0
    outer loop
      vertex 48 -1.5 -17
      vertex 60.3468 -1.5 -21.8701
      vertex 60.9282 -1.5 -21
    endloop
  endfacet
  facet normal 0 -1 -0
    outer loop
      vertex -51 -1.5 -16.1962
      vertex -54 -1.5 -25
      vertex -50.2961 -1.5 -16.5433
    endloop
  endfacet
  facet normal 0 -1 0
    outer loop
      vertex 48 -1.5 -17
      vertex 59.6568 -1.5 -22.6568
      vertex 60.3468 -1.5 -21.8701
    endloop
  endfacet
  facet normal 0 -1 -0
    outer loop
      vertex -50.2961 -1.5 -16.5433
      vertex -54 -1.5 -25
      vertex -49.5529 -1.5 -16.7955
    endloop
  endfacet
  facet normal 0 -1 0
    outer loop
      vertex 48 -1.5 -17
      vertex 58.8701 -1.5 -23.3468
      vertex 59.6568 -1.5 -22.6568
    endloop
  endfacet
  facet normal 0 -1 -0
    outer loop
      vertex -49.5529 -1.5 -16.7955
      vertex -54 -1.5 -25
      vertex -48.7831 -1.5 -16.9487
    endloop
  endfacet
  facet normal 0 -1 0
    outer loop
      vertex 48 -1.5 -17
      vertex 58 -1.5 -23.9282
      vertex 58.8701 -1.5 -23.3468
    endloop
  endfacet
  facet normal 0 -1 -0
    outer loop
      vertex -48.7831 -1.5 -16.9487
      vertex -54 -1.5 -25
      vertex -48 -1.5 -17
    endloop
  endfacet
  facet normal 0 -1 0
    outer loop
      vertex 48 -1.5 -17
      vertex 57.0615 -1.5 -24.391
      vertex 58 -1.5 -23.9282
    endloop
  endfacet
  facet normal 0 -1 0
    outer loop
      vertex 48 -1.5 -17
      vertex 56.0705 -1.5 -24.7274
      vertex 57.0615 -1.5 -24.391
    endloop
  endfacet
  facet normal 0 -1 0
    outer loop
      vertex 48 -1.5 -17
      vertex 55.0442 -1.5 -24.9315
      vertex 56.0705 -1.5 -24.7274
    endloop
  endfacet
  facet normal 0 -1 0
    outer loop
      vertex -48.7831 -1.5 16.9487
      vertex -54 -1.5 25
      vertex -55.0442 -1.5 24.9315
    endloop
  endfacet
  facet normal 0 -1 0
    outer loop
      vertex -54 -1.5 25
      vertex -48 -1.5 17
      vertex 54 -1.5 25
    endloop
  endfacet
  facet normal 0 -1 0
    outer loop
      vertex -48.7831 -1.5 16.9487
      vertex -55.0442 -1.5 24.9315
      vertex -56.0705 -1.5 24.7274
    endloop
  endfacet
  facet normal 0 -1 0
    outer loop
      vertex 48 -1.5 17
      vertex 54 -1.5 25
      vertex -48 -1.5 17
    endloop
  endfacet
  facet normal 0 -1 0
    outer loop
      vertex -48.7831 -1.5 16.9487
      vertex -56.0705 -1.5 24.7274
      vertex -57.0615 -1.5 24.391
    endloop
  endfacet
  facet normal 0 -1 0
    outer loop
      vertex 48.7831 -1.5 16.9487
      vertex 54 -1.5 25
      vertex 48 -1.5 17
    endloop
  endfacet
  facet normal 0 -1 0
    outer loop
      vertex -48.7831 -1.5 16.9487
      vertex -57.0615 -1.5 24.391
      vertex -58 -1.5 23.9282
    endloop
  endfacet
  facet normal 0 -1 0
    outer loop
      vertex 49.5529 -1.5 16.7955
      vertex 54 -1.5 25
      vertex 48.7831 -1.5 16.9487
    endloop
  endfacet
  facet normal 0 -1 0
    outer loop
      vertex -48.7831 -1.5 16.9487
      vertex -58 -1.5 23.9282
      vertex -58.8701 -1.5 23.3468
    endloop
  endfacet
  facet normal 0 -1 0
    outer loop
      vertex 50.2961 -1.5 16.5433
      vertex 54 -1.5 25
      vertex 49.5529 -1.5 16.7955
    endloop
  endfacet
  facet normal 0 -1 0
    outer loop
      vertex -48.7831 -1.5 16.9487
      vertex -58.8701 -1.5 23.3468
      vertex -59.6568 -1.5 22.6568
    endloop
  endfacet
  facet normal 0 -1 0
    outer loop
      vertex 51 -1.5 16.1962
      vertex 54 -1.5 25
      vertex 50.2961 -1.5 16.5433
    endloop
  endfacet
  facet normal 0 -1 0
    outer loop
      vertex -48.7831 -1.5 16.9487
      vertex -59.6568 -1.5 22.6568
      vertex -60.3468 -1.5 21.8701
    endloop
  endfacet
  facet normal 0 -1 0
    outer loop
      vertex 51.6526 -1.5 15.7601
      vertex 54 -1.5 25
      vertex 51 -1.5 16.1962
    endloop
  endfacet
  facet normal 0 -1 0
    outer loop
      vertex -48.7831 -1.5 16.9487
      vertex -60.3468 -1.5 21.8701
      vertex -60.9282 -1.5 21
    endloop
  endfacet
  facet normal 0 -1 -0
    outer loop
      vertex 54 -1.5 25
      vertex 51.6526 -1.5 15.7601
      vertex 55.0442 -1.5 24.9315
    endloop
  endfacet
  facet normal 0 -1 0
    outer loop
      vertex -48.7831 -1.5 16.9487
      vertex -60.9282 -1.5 21
      vertex -61.391 -1.5 20.0615
    endloop
  endfacet
  facet normal 0 -1 -0
    outer loop
      vertex 55.0442 -1.5 24.9315
      vertex 51.6526 -1.5 15.7601
      vertex 56.0705 -1.5 24.7274
    endloop
  endfacet
  facet normal 0 -1 0
    outer loop
      vertex -48.7831 -1.5 16.9487
      vertex -61.391 -1.5 20.0615
      vertex -61.7274 -1.5 19.0705
    endloop
  endfacet
  facet normal 0 -1 -0
    outer loop
      vertex 56.0705 -1.5 24.7274
      vertex 51.6526 -1.5 15.7601
      vertex 57.0615 -1.5 24.391
    endloop
  endfacet
  facet normal 0 -1 0
    outer loop
      vertex -48.7831 -1.5 16.9487
      vertex -61.7274 -1.5 19.0705
      vertex -61.9315 -1.5 18.0442
    endloop
  endfacet
  facet normal 0 -1 -0
    outer loop
      vertex 57.0615 -1.5 24.391
      vertex 51.6526 -1.5 15.7601
      vertex 58 -1.5 23.9282
    endloop
  endfacet
  facet normal 0 -1 0
    outer loop
      vertex -52.7601 -1.5 14.6526
      vertex -61.9315 -1.5 18.0442
      vertex -62 -1.5 17
    endloop
  endfacet
  facet normal 0 -1 0
    outer loop
      vertex 52.2426 -1.5 15.2426
      vertex 58 -1.5 23.9282
      vertex 51.6526 -1.5 15.7601
    endloop
  endfacet
  facet normal 0 -1 -0
    outer loop
      vertex 58 -1.5 23.9282
      vertex 52.2426 -1.5 15.2426
      vertex 58.8701 -1.5 23.3468
    endloop
  endfacet
  facet normal 0 -1 -0
    outer loop
      vertex 58.8701 -1.5 23.3468
      vertex 52.2426 -1.5 15.2426
      vertex 59.6568 -1.5 22.6568
    endloop
  endfacet
  facet normal 0 -1 -0
    outer loop
      vertex 59.6568 -1.5 22.6568
      vertex 52.2426 -1.5 15.2426
      vertex 60.3468 -1.5 21.8701
    endloop
  endfacet
  facet normal 0 -1 -0
    outer loop
      vertex 60.3468 -1.5 21.8701
      vertex 52.2426 -1.5 15.2426
      vertex 60.9282 -1.5 21
    endloop
  endfacet
  facet normal 0 -1 0
    outer loop
      vertex 52.7601 -1.5 14.6526
      vertex 60.9282 -1.5 21
      vertex 52.2426 -1.5 15.2426
    endloop
  endfacet
  facet normal 0 -1 -0
    outer loop
      vertex 60.9282 -1.5 21
      vertex 52.7601 -1.5 14.6526
      vertex 61.391 -1.5 20.0615
    endloop
  endfacet
  facet normal 0 -1 -0
    outer loop
      vertex 61.391 -1.5 20.0615
      vertex 52.7601 -1.5 14.6526
      vertex 61.7274 -1.5 19.0705
    endloop
  endfacet
  facet normal 0 -1 -0
    outer loop
      vertex 61.7274 -1.5 19.0705
      vertex 52.7601 -1.5 14.6526
      vertex 61.9315 -1.5 18.0442
    endloop
  endfacet
  facet normal 0 -1 -0
    outer loop
      vertex 61.9315 -1.5 18.0442
      vertex 52.7601 -1.5 14.6526
      vertex 62 -1.5 17
    endloop
  endfacet
  facet normal 0 -1 0
    outer loop
      vertex 53.1962 -1.5 14
      vertex 62 -1.5 17
      vertex 52.7601 -1.5 14.6526
    endloop
  endfacet
  facet normal 0 -1 0
    outer loop
      vertex 53.5433 -1.5 13.2961
      vertex 62 -1.5 17
      vertex 53.1962 -1.5 14
    endloop
  endfacet
  facet normal 0 -1 0
    outer loop
      vertex 53.7955 -1.5 12.5529
      vertex 62 -1.5 17
      vertex 53.5433 -1.5 13.2961
    endloop
  endfacet
  facet normal 0 -1 0
    outer loop
      vertex 53.9487 -1.5 11.7831
      vertex 62 -1.5 17
      vertex 53.7955 -1.5 12.5529
    endloop
  endfacet
  facet normal 0 -1 0
    outer loop
      vertex 54 -1.5 11
      vertex 62 -1.5 17
      vertex 53.9487 -1.5 11.7831
    endloop
  endfacet
  facet normal 0 -1 0
    outer loop
      vertex 54 -1.5 -11
      vertex 62 -1.5 17
      vertex 54 -1.5 11
    endloop
  endfacet
  facet normal 0 -1 0
    outer loop
      vertex 62 -1.5 -17
      vertex 54 -1.5 -11
      vertex 53.9487 -1.5 -11.7831
    endloop
  endfacet
  facet normal 0 -1 0
    outer loop
      vertex 62 -1.5 -17
      vertex 53.9487 -1.5 -11.7831
      vertex 53.7955 -1.5 -12.5529
    endloop
  endfacet
  facet normal 0 -1 0
    outer loop
      vertex 54 -1.5 -11
      vertex 62 -1.5 -17
      vertex 62 -1.5 17
    endloop
  endfacet
  facet normal 0 -1 0
    outer loop
      vertex 53.5433 -1.5 -13.2961
      vertex 62 -1.5 -17
      vertex 53.7955 -1.5 -12.5529
    endloop
  endfacet
  facet normal 0 -1 0
    outer loop
      vertex 53.1962 -1.5 -14
      vertex 62 -1.5 -17
      vertex 53.5433 -1.5 -13.2961
    endloop
  endfacet
  facet normal 0 -1 0
    outer loop
      vertex 52.7601 -1.5 -14.6526
      vertex 62 -1.5 -17
      vertex 53.1962 -1.5 -14
    endloop
  endfacet
  facet normal 0 -1 0
    outer loop
      vertex 52.2426 -1.5 -15.2426
      vertex 62 -1.5 -17
      vertex 52.7601 -1.5 -14.6526
    endloop
  endfacet
  facet normal 0 -1 0
    outer loop
      vertex 51.6526 -1.5 -15.7601
      vertex 62 -1.5 -17
      vertex 52.2426 -1.5 -15.2426
    endloop
  endfacet
  facet normal 0 -1 0
    outer loop
      vertex 51 -1.5 -16.1962
      vertex 62 -1.5 -17
      vertex 51.6526 -1.5 -15.7601
    endloop
  endfacet
  facet normal 0 -1 0
    outer loop
      vertex 50.2961 -1.5 -16.5433
      vertex 62 -1.5 -17
      vertex 51 -1.5 -16.1962
    endloop
  endfacet
  facet normal 0 -1 0
    outer loop
      vertex 49.5529 -1.5 -16.7955
      vertex 62 -1.5 -17
      vertex 50.2961 -1.5 -16.5433
    endloop
  endfacet
  facet normal 0 -1 0
    outer loop
      vertex 48.7831 -1.5 -16.9487
      vertex 62 -1.5 -17
      vertex 49.5529 -1.5 -16.7955
    endloop
  endfacet
  facet normal 0 -1 0
    outer loop
      vertex 62 -1.5 -17
      vertex 48.7831 -1.5 -16.9487
      vertex 48 -1.5 -17
    endloop
  endfacet
  facet normal -0.442276 0 0.896879
    outer loop
      vertex -58 1.5 23.9282
      vertex -57.0615 -1.5 24.391
      vertex -57.0615 1.5 24.391
    endloop
  endfacet
  facet normal -0.442276 0 0.896879
    outer loop
      vertex -57.0615 -1.5 24.391
      vertex -58 1.5 23.9282
      vertex -58 -1.5 23.9282
    endloop
  endfacet
  facet normal -0.896879 0 0.442276
    outer loop
      vertex -61.391 -1.5 20.0615
      vertex -60.9282 1.5 21
      vertex -61.391 1.5 20.0615
    endloop
  endfacet
  facet normal -0.896879 0 0.442276
    outer loop
      vertex -60.9282 1.5 21
      vertex -61.391 -1.5 20.0615
      vertex -60.9282 -1.5 21
    endloop
  endfacet
  facet normal -0.980793 0 0.19505
    outer loop
      vertex -61.9315 -1.5 18.0442
      vertex -61.7274 1.5 19.0705
      vertex -61.9315 1.5 18.0442
    endloop
  endfacet
  facet normal -0.980793 0 0.19505
    outer loop
      vertex -61.7274 1.5 19.0705
      vertex -61.9315 -1.5 18.0442
      vertex -61.7274 -1.5 19.0705
    endloop
  endfacet
  facet normal 0.0654598 0 0.997855
    outer loop
      vertex 54 1.5 25
      vertex 55.0442 -1.5 24.9315
      vertex 55.0442 1.5 24.9315
    endloop
  endfacet
  facet normal 0.0654598 0 0.997855
    outer loop
      vertex 55.0442 -1.5 24.9315
      vertex 54 1.5 25
      vertex 54 -1.5 25
    endloop
  endfacet
  facet normal 0.896879 -0 0.442276
    outer loop
      vertex 60.9282 -1.5 21
      vertex 61.391 1.5 20.0615
      vertex 60.9282 1.5 21
    endloop
  endfacet
  facet normal 0.896879 0 0.442276
    outer loop
      vertex 61.391 1.5 20.0615
      vertex 60.9282 -1.5 21
      vertex 61.391 -1.5 20.0615
    endloop
  endfacet
  facet normal -0.0654598 0 0.997855
    outer loop
      vertex -55.0442 1.5 24.9315
      vertex -54 -1.5 25
      vertex -54 1.5 25
    endloop
  endfacet
  facet normal -0.0654598 0 0.997855
    outer loop
      vertex -54 -1.5 25
      vertex -55.0442 1.5 24.9315
      vertex -55.0442 -1.5 24.9315
    endloop
  endfacet
  facet normal 0.831462 0 -0.555582
    outer loop
      vertex 60.9282 -1.5 -21
      vertex 60.3468 1.5 -21.8701
      vertex 60.9282 1.5 -21
    endloop
  endfacet
  facet normal 0.831462 0 -0.555582
    outer loop
      vertex 60.3468 1.5 -21.8701
      vertex 60.9282 -1.5 -21
      vertex 60.3468 -1.5 -21.8701
    endloop
  endfacet
  facet normal 1 -0 0
    outer loop
      vertex 62 -1.5 17
      vertex 62 1.5 -17
      vertex 62 1.5 17
    endloop
  endfacet
  facet normal 1 0 0
    outer loop
      vertex 62 1.5 -17
      vertex 62 -1.5 17
      vertex 62 -1.5 -17
    endloop
  endfacet
  facet normal 0.997855 -0 0.0654598
    outer loop
      vertex 61.9315 -1.5 18.0442
      vertex 62 1.5 17
      vertex 61.9315 1.5 18.0442
    endloop
  endfacet
  facet normal 0.997855 0 0.0654598
    outer loop
      vertex 62 1.5 17
      vertex 61.9315 -1.5 18.0442
      vertex 62 -1.5 17
    endloop
  endfacet
  facet normal 0.980793 -0 0.19505
    outer loop
      vertex 61.7274 -1.5 19.0705
      vertex 61.9315 1.5 18.0442
      vertex 61.7274 1.5 19.0705
    endloop
  endfacet
  facet normal 0.980793 0 0.19505
    outer loop
      vertex 61.9315 1.5 18.0442
      vertex 61.7274 -1.5 19.0705
      vertex 61.9315 -1.5 18.0442
    endloop
  endfacet
  facet normal -0.751801 0 0.65939
    outer loop
      vertex -60.3468 -1.5 21.8701
      vertex -59.6568 1.5 22.6568
      vertex -60.3468 1.5 21.8701
    endloop
  endfacet
  facet normal -0.751801 0 0.65939
    outer loop
      vertex -59.6568 1.5 22.6568
      vertex -60.3468 -1.5 21.8701
      vertex -59.6568 -1.5 22.6568
    endloop
  endfacet
  facet normal -0.555582 0 0.831462
    outer loop
      vertex -58.8701 1.5 23.3468
      vertex -58 -1.5 23.9282
      vertex -58 1.5 23.9282
    endloop
  endfacet
  facet normal -0.555582 0 0.831462
    outer loop
      vertex -58 -1.5 23.9282
      vertex -58.8701 1.5 23.3468
      vertex -58.8701 -1.5 23.3468
    endloop
  endfacet
  facet normal -0.32144 0 0.94693
    outer loop
      vertex -57.0615 1.5 24.391
      vertex -56.0705 -1.5 24.7274
      vertex -56.0705 1.5 24.7274
    endloop
  endfacet
  facet normal -0.32144 0 0.94693
    outer loop
      vertex -56.0705 -1.5 24.7274
      vertex -57.0615 1.5 24.391
      vertex -57.0615 -1.5 24.391
    endloop
  endfacet
  facet normal -0.831462 0 0.555582
    outer loop
      vertex -60.9282 -1.5 21
      vertex -60.3468 1.5 21.8701
      vertex -60.9282 1.5 21
    endloop
  endfacet
  facet normal -0.831462 0 0.555582
    outer loop
      vertex -60.3468 1.5 21.8701
      vertex -60.9282 -1.5 21
      vertex -60.3468 -1.5 21.8701
    endloop
  endfacet
  facet normal -0.94693 0 0.32144
    outer loop
      vertex -61.7274 -1.5 19.0705
      vertex -61.391 1.5 20.0615
      vertex -61.7274 1.5 19.0705
    endloop
  endfacet
  facet normal -0.94693 0 0.32144
    outer loop
      vertex -61.391 1.5 20.0615
      vertex -61.7274 -1.5 19.0705
      vertex -61.391 -1.5 20.0615
    endloop
  endfacet
  facet normal 0.19505 0 0.980793
    outer loop
      vertex 55.0442 1.5 24.9315
      vertex 56.0705 -1.5 24.7274
      vertex 56.0705 1.5 24.7274
    endloop
  endfacet
  facet normal 0.19505 0 0.980793
    outer loop
      vertex 56.0705 -1.5 24.7274
      vertex 55.0442 1.5 24.9315
      vertex 55.0442 -1.5 24.9315
    endloop
  endfacet
  facet normal 0.555582 0 0.831462
    outer loop
      vertex 58 1.5 23.9282
      vertex 58.8701 -1.5 23.3468
      vertex 58.8701 1.5 23.3468
    endloop
  endfacet
  facet normal 0.555582 0 0.831462
    outer loop
      vertex 58.8701 -1.5 23.3468
      vertex 58 1.5 23.9282
      vertex 58 -1.5 23.9282
    endloop
  endfacet
  facet normal 0.32144 0 0.94693
    outer loop
      vertex 56.0705 1.5 24.7274
      vertex 57.0615 -1.5 24.391
      vertex 57.0615 1.5 24.391
    endloop
  endfacet
  facet normal 0.32144 0 0.94693
    outer loop
      vertex 57.0615 -1.5 24.391
      vertex 56.0705 1.5 24.7274
      vertex 56.0705 -1.5 24.7274
    endloop
  endfacet
  facet normal 0.65939 0 0.751801
    outer loop
      vertex 58.8701 1.5 23.3468
      vertex 59.6568 -1.5 22.6568
      vertex 59.6568 1.5 22.6568
    endloop
  endfacet
  facet normal 0.65939 0 0.751801
    outer loop
      vertex 59.6568 -1.5 22.6568
      vertex 58.8701 1.5 23.3468
      vertex 58.8701 -1.5 23.3468
    endloop
  endfacet
  facet normal 0.831462 -0 0.555582
    outer loop
      vertex 60.3468 -1.5 21.8701
      vertex 60.9282 1.5 21
      vertex 60.3468 1.5 21.8701
    endloop
  endfacet
  facet normal 0.831462 0 0.555582
    outer loop
      vertex 60.9282 1.5 21
      vertex 60.3468 -1.5 21.8701
      vertex 60.9282 -1.5 21
    endloop
  endfacet
  facet normal 0.94693 -0 0.32144
    outer loop
      vertex 61.391 -1.5 20.0615
      vertex 61.7274 1.5 19.0705
      vertex 61.391 1.5 20.0615
    endloop
  endfacet
  facet normal 0.94693 0 0.32144
    outer loop
      vertex 61.7274 1.5 19.0705
      vertex 61.391 -1.5 20.0615
      vertex 61.7274 -1.5 19.0705
    endloop
  endfacet
  facet normal 0.555582 0 -0.831462
    outer loop
      vertex 58 -1.5 -23.9282
      vertex 58.8701 1.5 -23.3468
      vertex 58.8701 -1.5 -23.3468
    endloop
  endfacet
  facet normal 0.555582 0 -0.831462
    outer loop
      vertex 58.8701 1.5 -23.3468
      vertex 58 -1.5 -23.9282
      vertex 58 1.5 -23.9282
    endloop
  endfacet
  facet normal 0.94693 0 -0.32144
    outer loop
      vertex 61.7274 -1.5 -19.0705
      vertex 61.391 1.5 -20.0615
      vertex 61.7274 1.5 -19.0705
    endloop
  endfacet
  facet normal 0.94693 0 -0.32144
    outer loop
      vertex 61.391 1.5 -20.0615
      vertex 61.7274 -1.5 -19.0705
      vertex 61.391 -1.5 -20.0615
    endloop
  endfacet
  facet normal -0.19505 0 -0.980793
    outer loop
      vertex -56.0705 -1.5 -24.7274
      vertex -55.0442 1.5 -24.9315
      vertex -55.0442 -1.5 -24.9315
    endloop
  endfacet
  facet normal -0.19505 0 -0.980793
    outer loop
      vertex -55.0442 1.5 -24.9315
      vertex -56.0705 -1.5 -24.7274
      vertex -56.0705 1.5 -24.7274
    endloop
  endfacet
  facet normal -0.0654598 0 -0.997855
    outer loop
      vertex -55.0442 -1.5 -24.9315
      vertex -54 1.5 -25
      vertex -54 -1.5 -25
    endloop
  endfacet
  facet normal -0.0654598 0 -0.997855
    outer loop
      vertex -54 1.5 -25
      vertex -55.0442 -1.5 -24.9315
      vertex -55.0442 1.5 -24.9315
    endloop
  endfacet
  facet normal -0.65939 0 -0.751801
    outer loop
      vertex -59.6568 -1.5 -22.6568
      vertex -58.8701 1.5 -23.3468
      vertex -58.8701 -1.5 -23.3468
    endloop
  endfacet
  facet normal -0.65939 0 -0.751801
    outer loop
      vertex -58.8701 1.5 -23.3468
      vertex -59.6568 -1.5 -22.6568
      vertex -59.6568 1.5 -22.6568
    endloop
  endfacet
  facet normal -0.65939 0 0.751801
    outer loop
      vertex -59.6568 1.5 22.6568
      vertex -58.8701 -1.5 23.3468
      vertex -58.8701 1.5 23.3468
    endloop
  endfacet
  facet normal -0.65939 0 0.751801
    outer loop
      vertex -58.8701 -1.5 23.3468
      vertex -59.6568 1.5 22.6568
      vertex -59.6568 -1.5 22.6568
    endloop
  endfacet
  facet normal 0.442276 0 0.896879
    outer loop
      vertex 57.0615 1.5 24.391
      vertex 58 -1.5 23.9282
      vertex 58 1.5 23.9282
    endloop
  endfacet
  facet normal 0.442276 0 0.896879
    outer loop
      vertex 58 -1.5 23.9282
      vertex 57.0615 1.5 24.391
      vertex 57.0615 -1.5 24.391
    endloop
  endfacet
  facet normal 0.751801 -0 0.65939
    outer loop
      vertex 59.6568 -1.5 22.6568
      vertex 60.3468 1.5 21.8701
      vertex 59.6568 1.5 22.6568
    endloop
  endfacet
  facet normal 0.751801 0 0.65939
    outer loop
      vertex 60.3468 1.5 21.8701
      vertex 59.6568 -1.5 22.6568
      vertex 60.3468 -1.5 21.8701
    endloop
  endfacet
  facet normal 0.32144 0 -0.94693
    outer loop
      vertex 56.0705 -1.5 -24.7274
      vertex 57.0615 1.5 -24.391
      vertex 57.0615 -1.5 -24.391
    endloop
  endfacet
  facet normal 0.32144 0 -0.94693
    outer loop
      vertex 57.0615 1.5 -24.391
      vertex 56.0705 -1.5 -24.7274
      vertex 56.0705 1.5 -24.7274
    endloop
  endfacet
  facet normal 0.896879 0 -0.442276
    outer loop
      vertex 61.391 -1.5 -20.0615
      vertex 60.9282 1.5 -21
      vertex 61.391 1.5 -20.0615
    endloop
  endfacet
  facet normal 0.896879 0 -0.442276
    outer loop
      vertex 60.9282 1.5 -21
      vertex 61.391 -1.5 -20.0615
      vertex 60.9282 -1.5 -21
    endloop
  endfacet
  facet normal 0.442276 0 -0.896879
    outer loop
      vertex 57.0615 -1.5 -24.391
      vertex 58 1.5 -23.9282
      vertex 58 -1.5 -23.9282
    endloop
  endfacet
  facet normal 0.442276 0 -0.896879
    outer loop
      vertex 58 1.5 -23.9282
      vertex 57.0615 -1.5 -24.391
      vertex 57.0615 1.5 -24.391
    endloop
  endfacet
  facet normal -0.831462 0 -0.555582
    outer loop
      vertex -60.3468 -1.5 -21.8701
      vertex -60.9282 1.5 -21
      vertex -60.3468 1.5 -21.8701
    endloop
  endfacet
  facet normal -0.831462 -0 -0.555582
    outer loop
      vertex -60.9282 1.5 -21
      vertex -60.3468 -1.5 -21.8701
      vertex -60.9282 -1.5 -21
    endloop
  endfacet
  facet normal 0.65939 0 -0.751801
    outer loop
      vertex 58.8701 -1.5 -23.3468
      vertex 59.6568 1.5 -22.6568
      vertex 59.6568 -1.5 -22.6568
    endloop
  endfacet
  facet normal 0.65939 0 -0.751801
    outer loop
      vertex 59.6568 1.5 -22.6568
      vertex 58.8701 -1.5 -23.3468
      vertex 58.8701 1.5 -23.3468
    endloop
  endfacet
  facet normal 0.751801 0 -0.65939
    outer loop
      vertex 60.3468 -1.5 -21.8701
      vertex 59.6568 1.5 -22.6568
      vertex 60.3468 1.5 -21.8701
    endloop
  endfacet
  facet normal 0.751801 0 -0.65939
    outer loop
      vertex 59.6568 1.5 -22.6568
      vertex 60.3468 -1.5 -21.8701
      vertex 59.6568 -1.5 -22.6568
    endloop
  endfacet
  facet normal -0.442276 0 -0.896879
    outer loop
      vertex -58 -1.5 -23.9282
      vertex -57.0615 1.5 -24.391
      vertex -57.0615 -1.5 -24.391
    endloop
  endfacet
  facet normal -0.442276 0 -0.896879
    outer loop
      vertex -57.0615 1.5 -24.391
      vertex -58 -1.5 -23.9282
      vertex -58 1.5 -23.9282
    endloop
  endfacet
  facet normal -0.32144 0 -0.94693
    outer loop
      vertex -57.0615 -1.5 -24.391
      vertex -56.0705 1.5 -24.7274
      vertex -56.0705 -1.5 -24.7274
    endloop
  endfacet
  facet normal -0.32144 0 -0.94693
    outer loop
      vertex -56.0705 1.5 -24.7274
      vertex -57.0615 -1.5 -24.391
      vertex -57.0615 1.5 -24.391
    endloop
  endfacet
  facet normal 0.831442 -0 0.555611
    outer loop
      vertex -53.1962 -1.5 -14
      vertex -52.7601 1.5 -14.6526
      vertex -53.1962 1.5 -14
    endloop
  endfacet
  facet normal 0.831442 0 0.555611
    outer loop
      vertex -52.7601 1.5 -14.6526
      vertex -53.1962 -1.5 -14
      vertex -52.7601 -1.5 -14.6526
    endloop
  endfacet
  facet normal -0.896885 0 -0.442263
    outer loop
      vertex 53.5433 -1.5 13.2961
      vertex 53.1962 1.5 14
      vertex 53.5433 1.5 13.2961
    endloop
  endfacet
  facet normal -0.896885 -0 -0.442263
    outer loop
      vertex 53.1962 1.5 14
      vertex 53.5433 -1.5 13.2961
      vertex 53.1962 -1.5 14
    endloop
  endfacet
  facet normal 0.896885 -0 0.442263
    outer loop
      vertex -53.5433 -1.5 -13.2961
      vertex -53.1962 1.5 -14
      vertex -53.5433 1.5 -13.2961
    endloop
  endfacet
  facet normal 0.896885 0 0.442263
    outer loop
      vertex -53.1962 1.5 -14
      vertex -53.5433 -1.5 -13.2961
      vertex -53.1962 -1.5 -14
    endloop
  endfacet
  facet normal 0.195185 0 -0.980766
    outer loop
      vertex -49.5529 -1.5 16.7955
      vertex -48.7831 1.5 16.9487
      vertex -48.7831 -1.5 16.9487
    endloop
  endfacet
  facet normal 0.195185 0 -0.980766
    outer loop
      vertex -48.7831 1.5 16.9487
      vertex -49.5529 -1.5 16.7955
      vertex -49.5529 1.5 16.7955
    endloop
  endfacet
  facet normal -0.831442 0 -0.555611
    outer loop
      vertex 53.1962 -1.5 14
      vertex 52.7601 1.5 14.6526
      vertex 53.1962 1.5 14
    endloop
  endfacet
  facet normal -0.831442 -0 -0.555611
    outer loop
      vertex 52.7601 1.5 14.6526
      vertex 53.1962 -1.5 14
      vertex 52.7601 -1.5 14.6526
    endloop
  endfacet
  facet normal 0.321345 0 -0.946962
    outer loop
      vertex -50.2961 -1.5 16.5433
      vertex -49.5529 1.5 16.7955
      vertex -49.5529 -1.5 16.7955
    endloop
  endfacet
  facet normal 0.321345 0 -0.946962
    outer loop
      vertex -49.5529 1.5 16.7955
      vertex -50.2961 -1.5 16.5433
      vertex -50.2961 1.5 16.5433
    endloop
  endfacet
  facet normal -0.321345 0 0.946962
    outer loop
      vertex 49.5529 1.5 -16.7955
      vertex 50.2961 -1.5 -16.5433
      vertex 50.2961 1.5 -16.5433
    endloop
  endfacet
  facet normal -0.321345 0 0.946962
    outer loop
      vertex 50.2961 -1.5 -16.5433
      vertex 49.5529 1.5 -16.7955
      vertex 49.5529 -1.5 -16.7955
    endloop
  endfacet
  facet normal 1 -0 0
    outer loop
      vertex -54 -1.5 11
      vertex -54 1.5 -11
      vertex -54 1.5 11
    endloop
  endfacet
  facet normal 1 0 0
    outer loop
      vertex -54 1.5 -11
      vertex -54 -1.5 11
      vertex -54 -1.5 -11
    endloop
  endfacet
  facet normal -0.555611 0 -0.831442
    outer loop
      vertex 51 -1.5 16.1962
      vertex 51.6526 1.5 15.7601
      vertex 51.6526 -1.5 15.7601
    endloop
  endfacet
  facet normal -0.555611 0 -0.831442
    outer loop
      vertex 51.6526 1.5 15.7601
      vertex 51 -1.5 16.1962
      vertex 51 1.5 16.1962
    endloop
  endfacet
  facet normal 0 0 -1
    outer loop
      vertex -48 -1.5 17
      vertex 48 1.5 17
      vertex 48 -1.5 17
    endloop
  endfacet
  facet normal -0 0 -1
    outer loop
      vertex 48 1.5 17
      vertex -48 -1.5 17
      vertex -48 1.5 17
    endloop
  endfacet
  facet normal 0.997861 0 -0.0653688
    outer loop
      vertex -53.9487 -1.5 11.7831
      vertex -54 1.5 11
      vertex -53.9487 1.5 11.7831
    endloop
  endfacet
  facet normal 0.997861 0 -0.0653688
    outer loop
      vertex -54 1.5 11
      vertex -53.9487 -1.5 11.7831
      vertex -54 -1.5 11
    endloop
  endfacet
  facet normal -0.997861 0 0.0653688
    outer loop
      vertex 53.9487 -1.5 -11.7831
      vertex 54 1.5 -11
      vertex 53.9487 1.5 -11.7831
    endloop
  endfacet
  facet normal -0.997861 0 0.0653688
    outer loop
      vertex 54 1.5 -11
      vertex 53.9487 -1.5 -11.7831
      vertex 54 -1.5 -11
    endloop
  endfacet
  facet normal -0 0 1
    outer loop
      vertex -48 1.5 -17
      vertex 48 -1.5 -17
      vertex 48 1.5 -17
    endloop
  endfacet
  facet normal 0 0 1
    outer loop
      vertex 48 -1.5 -17
      vertex -48 1.5 -17
      vertex -48 -1.5 -17
    endloop
  endfacet
  facet normal -0.751787 0 -0.659406
    outer loop
      vertex 52.7601 -1.5 14.6526
      vertex 52.2426 1.5 15.2426
      vertex 52.7601 1.5 14.6526
    endloop
  endfacet
  facet normal -0.751787 -0 -0.659406
    outer loop
      vertex 52.2426 1.5 15.2426
      vertex 52.7601 -1.5 14.6526
      vertex 52.2426 -1.5 15.2426
    endloop
  endfacet
  facet normal -0.321345 0 -0.946962
    outer loop
      vertex 49.5529 -1.5 16.7955
      vertex 50.2961 1.5 16.5433
      vertex 50.2961 -1.5 16.5433
    endloop
  endfacet
  facet normal -0.321345 0 -0.946962
    outer loop
      vertex 50.2961 1.5 16.5433
      vertex 49.5529 -1.5 16.7955
      vertex 49.5529 1.5 16.7955
    endloop
  endfacet
  facet normal -0.442263 0 -0.896885
    outer loop
      vertex 50.2961 -1.5 16.5433
      vertex 51 1.5 16.1962
      vertex 51 -1.5 16.1962
    endloop
  endfacet
  facet normal -0.442263 0 -0.896885
    outer loop
      vertex 51 1.5 16.1962
      vertex 50.2961 -1.5 16.5433
      vertex 50.2961 1.5 16.5433
    endloop
  endfacet
  facet normal 0.0653688 0 -0.997861
    outer loop
      vertex -48.7831 -1.5 16.9487
      vertex -48 1.5 17
      vertex -48 -1.5 17
    endloop
  endfacet
  facet normal 0.0653688 0 -0.997861
    outer loop
      vertex -48 1.5 17
      vertex -48.7831 -1.5 16.9487
      vertex -48.7831 1.5 16.9487
    endloop
  endfacet
  facet normal 0.442263 0 -0.896885
    outer loop
      vertex -51 -1.5 16.1962
      vertex -50.2961 1.5 16.5433
      vertex -50.2961 -1.5 16.5433
    endloop
  endfacet
  facet normal 0.442263 0 -0.896885
    outer loop
      vertex -50.2961 1.5 16.5433
      vertex -51 -1.5 16.1962
      vertex -51 1.5 16.1962
    endloop
  endfacet
  facet normal 0.896885 0 -0.442263
    outer loop
      vertex -53.1962 -1.5 14
      vertex -53.5433 1.5 13.2961
      vertex -53.1962 1.5 14
    endloop
  endfacet
  facet normal 0.896885 0 -0.442263
    outer loop
      vertex -53.5433 1.5 13.2961
      vertex -53.1962 -1.5 14
      vertex -53.5433 -1.5 13.2961
    endloop
  endfacet
  facet normal 0.831442 0 -0.555611
    outer loop
      vertex -52.7601 -1.5 14.6526
      vertex -53.1962 1.5 14
      vertex -52.7601 1.5 14.6526
    endloop
  endfacet
  facet normal 0.831442 0 -0.555611
    outer loop
      vertex -53.1962 1.5 14
      vertex -52.7601 -1.5 14.6526
      vertex -53.1962 -1.5 14
    endloop
  endfacet
  facet normal 0.997861 -0 0.0653688
    outer loop
      vertex -54 -1.5 -11
      vertex -53.9487 1.5 -11.7831
      vertex -54 1.5 -11
    endloop
  endfacet
  facet normal 0.997861 0 0.0653688
    outer loop
      vertex -53.9487 1.5 -11.7831
      vertex -54 -1.5 -11
      vertex -53.9487 -1.5 -11.7831
    endloop
  endfacet
  facet normal 0.946962 -0 0.321345
    outer loop
      vertex -53.7955 -1.5 -12.5529
      vertex -53.5433 1.5 -13.2961
      vertex -53.7955 1.5 -12.5529
    endloop
  endfacet
  facet normal 0.946962 0 0.321345
    outer loop
      vertex -53.5433 1.5 -13.2961
      vertex -53.7955 -1.5 -12.5529
      vertex -53.5433 -1.5 -13.2961
    endloop
  endfacet
  facet normal -0.980766 0 -0.195185
    outer loop
      vertex 53.9487 -1.5 11.7831
      vertex 53.7955 1.5 12.5529
      vertex 53.9487 1.5 11.7831
    endloop
  endfacet
  facet normal -0.980766 -0 -0.195185
    outer loop
      vertex 53.7955 1.5 12.5529
      vertex 53.9487 -1.5 11.7831
      vertex 53.7955 -1.5 12.5529
    endloop
  endfacet
  facet normal -0.831442 0 0.555611
    outer loop
      vertex 52.7601 -1.5 -14.6526
      vertex 53.1962 1.5 -14
      vertex 52.7601 1.5 -14.6526
    endloop
  endfacet
  facet normal -0.831442 0 0.555611
    outer loop
      vertex 53.1962 1.5 -14
      vertex 52.7601 -1.5 -14.6526
      vertex 53.1962 -1.5 -14
    endloop
  endfacet
  facet normal -1 0 0
    outer loop
      vertex 54 -1.5 -11
      vertex 54 1.5 11
      vertex 54 1.5 -11
    endloop
  endfacet
  facet normal -1 -0 0
    outer loop
      vertex 54 1.5 11
      vertex 54 -1.5 -11
      vertex 54 -1.5 11
    endloop
  endfacet
  facet normal -0.997861 0 -0.0653688
    outer loop
      vertex 54 -1.5 11
      vertex 53.9487 1.5 11.7831
      vertex 54 1.5 11
    endloop
  endfacet
  facet normal -0.997861 -0 -0.0653688
    outer loop
      vertex 53.9487 1.5 11.7831
      vertex 54 -1.5 11
      vertex 53.9487 -1.5 11.7831
    endloop
  endfacet
  facet normal -0.0653688 0 0.997861
    outer loop
      vertex 48 1.5 -17
      vertex 48.7831 -1.5 -16.9487
      vertex 48.7831 1.5 -16.9487
    endloop
  endfacet
  facet normal -0.0653688 0 0.997861
    outer loop
      vertex 48.7831 -1.5 -16.9487
      vertex 48 1.5 -17
      vertex 48 -1.5 -17
    endloop
  endfacet
  facet normal -0.195185 0 0.980766
    outer loop
      vertex 48.7831 1.5 -16.9487
      vertex 49.5529 -1.5 -16.7955
      vertex 49.5529 1.5 -16.7955
    endloop
  endfacet
  facet normal -0.195185 0 0.980766
    outer loop
      vertex 49.5529 -1.5 -16.7955
      vertex 48.7831 1.5 -16.9487
      vertex 48.7831 -1.5 -16.9487
    endloop
  endfacet
  facet normal 0.442263 0 0.896885
    outer loop
      vertex -51 1.5 -16.1962
      vertex -50.2961 -1.5 -16.5433
      vertex -50.2961 1.5 -16.5433
    endloop
  endfacet
  facet normal 0.442263 0 0.896885
    outer loop
      vertex -50.2961 -1.5 -16.5433
      vertex -51 1.5 -16.1962
      vertex -51 -1.5 -16.1962
    endloop
  endfacet
  facet normal 0.555611 0 0.831442
    outer loop
      vertex -51.6526 1.5 -15.7601
      vertex -51 -1.5 -16.1962
      vertex -51 1.5 -16.1962
    endloop
  endfacet
  facet normal 0.555611 0 0.831442
    outer loop
      vertex -51 -1.5 -16.1962
      vertex -51.6526 1.5 -15.7601
      vertex -51.6526 -1.5 -15.7601
    endloop
  endfacet
  facet normal 0.751787 -0 0.659406
    outer loop
      vertex -52.7601 -1.5 -14.6526
      vertex -52.2426 1.5 -15.2426
      vertex -52.7601 1.5 -14.6526
    endloop
  endfacet
  facet normal 0.751787 0 0.659406
    outer loop
      vertex -52.2426 1.5 -15.2426
      vertex -52.7601 -1.5 -14.6526
      vertex -52.2426 -1.5 -15.2426
    endloop
  endfacet
  facet normal -0.659406 0 -0.751787
    outer loop
      vertex 51.6526 -1.5 15.7601
      vertex 52.2426 1.5 15.2426
      vertex 52.2426 -1.5 15.2426
    endloop
  endfacet
  facet normal -0.659406 0 -0.751787
    outer loop
      vertex 52.2426 1.5 15.2426
      vertex 51.6526 -1.5 15.7601
      vertex 51.6526 1.5 15.7601
    endloop
  endfacet
  facet normal -0.195185 0 -0.980766
    outer loop
      vertex 48.7831 -1.5 16.9487
      vertex 49.5529 1.5 16.7955
      vertex 49.5529 -1.5 16.7955
    endloop
  endfacet
  facet normal -0.195185 0 -0.980766
    outer loop
      vertex 49.5529 1.5 16.7955
      vertex 48.7831 -1.5 16.9487
      vertex 48.7831 1.5 16.9487
    endloop
  endfacet
  facet normal -0.0653688 0 -0.997861
    outer loop
      vertex 48 -1.5 17
      vertex 48.7831 1.5 16.9487
      vertex 48.7831 -1.5 16.9487
    endloop
  endfacet
  facet normal -0.0653688 0 -0.997861
    outer loop
      vertex 48.7831 1.5 16.9487
      vertex 48 -1.5 17
      vertex 48 1.5 17
    endloop
  endfacet
  facet normal 0.555611 0 -0.831442
    outer loop
      vertex -51.6526 -1.5 15.7601
      vertex -51 1.5 16.1962
      vertex -51 -1.5 16.1962
    endloop
  endfacet
  facet normal 0.555611 0 -0.831442
    outer loop
      vertex -51 1.5 16.1962
      vertex -51.6526 -1.5 15.7601
      vertex -51.6526 1.5 15.7601
    endloop
  endfacet
  facet normal 0.946962 0 -0.321345
    outer loop
      vertex -53.5433 -1.5 13.2961
      vertex -53.7955 1.5 12.5529
      vertex -53.5433 1.5 13.2961
    endloop
  endfacet
  facet normal 0.946962 0 -0.321345
    outer loop
      vertex -53.7955 1.5 12.5529
      vertex -53.5433 -1.5 13.2961
      vertex -53.7955 -1.5 12.5529
    endloop
  endfacet
  facet normal 0.980766 0 -0.195185
    outer loop
      vertex -53.7955 -1.5 12.5529
      vertex -53.9487 1.5 11.7831
      vertex -53.7955 1.5 12.5529
    endloop
  endfacet
  facet normal 0.980766 0 -0.195185
    outer loop
      vertex -53.9487 1.5 11.7831
      vertex -53.7955 -1.5 12.5529
      vertex -53.9487 -1.5 11.7831
    endloop
  endfacet
  facet normal 0.980766 -0 0.195185
    outer loop
      vertex -53.9487 -1.5 -11.7831
      vertex -53.7955 1.5 -12.5529
      vertex -53.9487 1.5 -11.7831
    endloop
  endfacet
  facet normal 0.980766 0 0.195185
    outer loop
      vertex -53.7955 1.5 -12.5529
      vertex -53.9487 -1.5 -11.7831
      vertex -53.7955 -1.5 -12.5529
    endloop
  endfacet
  facet normal -0.442263 0 0.896885
    outer loop
      vertex 50.2961 1.5 -16.5433
      vertex 51 -1.5 -16.1962
      vertex 51 1.5 -16.1962
    endloop
  endfacet
  facet normal -0.442263 0 0.896885
    outer loop
      vertex 51 -1.5 -16.1962
      vertex 50.2961 1.5 -16.5433
      vertex 50.2961 -1.5 -16.5433
    endloop
  endfacet
  facet normal -0.555611 0 0.831442
    outer loop
      vertex 51 1.5 -16.1962
      vertex 51.6526 -1.5 -15.7601
      vertex 51.6526 1.5 -15.7601
    endloop
  endfacet
  facet normal -0.555611 0 0.831442
    outer loop
      vertex 51.6526 -1.5 -15.7601
      vertex 51 1.5 -16.1962
      vertex 51 -1.5 -16.1962
    endloop
  endfacet
  facet normal -0.946962 0 0.321345
    outer loop
      vertex 53.5433 -1.5 -13.2961
      vertex 53.7955 1.5 -12.5529
      vertex 53.5433 1.5 -13.2961
    endloop
  endfacet
  facet normal -0.946962 0 0.321345
    outer loop
      vertex 53.7955 1.5 -12.5529
      vertex 53.5433 -1.5 -13.2961
      vertex 53.7955 -1.5 -12.5529
    endloop
  endfacet
  facet normal -0.980766 0 0.195185
    outer loop
      vertex 53.7955 -1.5 -12.5529
      vertex 53.9487 1.5 -11.7831
      vertex 53.7955 1.5 -12.5529
    endloop
  endfacet
  facet normal -0.980766 0 0.195185
    outer loop
      vertex 53.9487 1.5 -11.7831
      vertex 53.7955 -1.5 -12.5529
      vertex 53.9487 -1.5 -11.7831
    endloop
  endfacet
  facet normal -0.896885 0 0.442263
    outer loop
      vertex 53.1962 -1.5 -14
      vertex 53.5433 1.5 -13.2961
      vertex 53.1962 1.5 -14
    endloop
  endfacet
  facet normal -0.896885 0 0.442263
    outer loop
      vertex 53.5433 1.5 -13.2961
      vertex 53.1962 -1.5 -14
      vertex 53.5433 -1.5 -13.2961
    endloop
  endfacet
  facet normal -0.946962 0 -0.321345
    outer loop
      vertex 53.7955 -1.5 12.5529
      vertex 53.5433 1.5 13.2961
      vertex 53.7955 1.5 12.5529
    endloop
  endfacet
  facet normal -0.946962 -0 -0.321345
    outer loop
      vertex 53.5433 1.5 13.2961
      vertex 53.7955 -1.5 12.5529
      vertex 53.5433 -1.5 13.2961
    endloop
  endfacet
  facet normal 0.321345 0 0.946962
    outer loop
      vertex -50.2961 1.5 -16.5433
      vertex -49.5529 -1.5 -16.7955
      vertex -49.5529 1.5 -16.7955
    endloop
  endfacet
  facet normal 0.321345 0 0.946962
    outer loop
      vertex -49.5529 -1.5 -16.7955
      vertex -50.2961 1.5 -16.5433
      vertex -50.2961 -1.5 -16.5433
    endloop
  endfacet
  facet normal 0.195185 0 0.980766
    outer loop
      vertex -49.5529 1.5 -16.7955
      vertex -48.7831 -1.5 -16.9487
      vertex -48.7831 1.5 -16.9487
    endloop
  endfacet
  facet normal 0.195185 0 0.980766
    outer loop
      vertex -48.7831 -1.5 -16.9487
      vertex -49.5529 1.5 -16.7955
      vertex -49.5529 -1.5 -16.7955
    endloop
  endfacet
  facet normal 0.0653688 0 0.997861
    outer loop
      vertex -48.7831 1.5 -16.9487
      vertex -48 -1.5 -17
      vertex -48 1.5 -17
    endloop
  endfacet
  facet normal 0.0653688 0 0.997861
    outer loop
      vertex -48 -1.5 -17
      vertex -48.7831 1.5 -16.9487
      vertex -48.7831 -1.5 -16.9487
    endloop
  endfacet
  facet normal 0.659406 0 0.751787
    outer loop
      vertex -52.2426 1.5 -15.2426
      vertex -51.6526 -1.5 -15.7601
      vertex -51.6526 1.5 -15.7601
    endloop
  endfacet
  facet normal 0.659406 0 0.751787
    outer loop
      vertex -51.6526 -1.5 -15.7601
      vertex -52.2426 1.5 -15.2426
      vertex -52.2426 -1.5 -15.2426
    endloop
  endfacet
  facet normal 0.659406 0 -0.751787
    outer loop
      vertex -52.2426 -1.5 15.2426
      vertex -51.6526 1.5 15.7601
      vertex -51.6526 -1.5 15.7601
    endloop
  endfacet
  facet normal 0.659406 0 -0.751787
    outer loop
      vertex -51.6526 1.5 15.7601
      vertex -52.2426 -1.5 15.2426
      vertex -52.2426 1.5 15.2426
    endloop
  endfacet
  facet normal 0.751787 0 -0.659406
    outer loop
      vertex -52.2426 -1.5 15.2426
      vertex -52.7601 1.5 14.6526
      vertex -52.2426 1.5 15.2426
    endloop
  endfacet
  facet normal 0.751787 0 -0.659406
    outer loop
      vertex -52.7601 1.5 14.6526
      vertex -52.2426 -1.5 15.2426
      vertex -52.7601 -1.5 14.6526
    endloop
  endfacet
  facet normal -0.659406 0 0.751787
    outer loop
      vertex 51.6526 1.5 -15.7601
      vertex 52.2426 -1.5 -15.2426
      vertex 52.2426 1.5 -15.2426
    endloop
  endfacet
  facet normal -0.659406 0 0.751787
    outer loop
      vertex 52.2426 -1.5 -15.2426
      vertex 51.6526 1.5 -15.7601
      vertex 51.6526 -1.5 -15.7601
    endloop
  endfacet
  facet normal -0.751787 0 0.659406
    outer loop
      vertex 52.2426 -1.5 -15.2426
      vertex 52.7601 1.5 -14.6526
      vertex 52.2426 1.5 -15.2426
    endloop
  endfacet
  facet normal -0.751787 0 0.659406
    outer loop
      vertex 52.7601 1.5 -14.6526
      vertex 52.2426 -1.5 -15.2426
      vertex 52.7601 -1.5 -14.6526
    endloop
  endfacet
endsolid OpenSCAD_Model
