solid OpenSCAD_Model
  facet normal -0.980795 0 -0.195043
    outer loop
      vertex -49.7274 -3.5 -9.07054
      vertex -49.9315 3.5 -8.0442
      vertex -49.7274 3.5 -9.07054
    endloop
  endfacet
  facet normal -0.980795 -0 -0.195043
    outer loop
      vertex -49.9315 3.5 -8.0442
      vertex -49.7274 -3.5 -9.07054
      vertex -49.9315 -3.5 -8.0442
    endloop
  endfacet
  facet normal 0.0654598 0 -0.997855
    outer loop
      vertex 42 -3.5 -15
      vertex 43.0442 3.5 -14.9315
      vertex 43.0442 -3.5 -14.9315
    endloop
  endfacet
  facet normal 0.0654598 0 -0.997855
    outer loop
      vertex 43.0442 3.5 -14.9315
      vertex 42 -3.5 -15
      vertex 42 3.5 -15
    endloop
  endfacet
  facet normal -0.0654598 0 0.997855
    outer loop
      vertex -43.0442 3.5 14.9315
      vertex -42 -3.5 15
      vertex -42 3.5 15
    endloop
  endfacet
  facet normal -0.0654598 0 0.997855
    outer loop
      vertex -42 -3.5 15
      vertex -43.0442 3.5 14.9315
      vertex -43.0442 -3.5 14.9315
    endloop
  endfacet
  facet normal -0.997855 0 -0.0654598
    outer loop
      vertex -49.9315 -3.5 -8.0442
      vertex -50 3.5 -7
      vertex -49.9315 3.5 -8.0442
    endloop
  endfacet
  facet normal -0.997855 -0 -0.0654598
    outer loop
      vertex -50 3.5 -7
      vertex -49.9315 -3.5 -8.0442
      vertex -50 -3.5 -7
    endloop
  endfacet
  facet normal 0 0 -1
    outer loop
      vertex -42 -3.5 -15
      vertex 42 3.5 -15
      vertex 42 -3.5 -15
    endloop
  endfacet
  facet normal -0 0 -1
    outer loop
      vertex 42 3.5 -15
      vertex -42 -3.5 -15
      vertex -42 3.5 -15
    endloop
  endfacet
  facet normal -0.896879 0 -0.442276
    outer loop
      vertex -48.9282 -3.5 -11
      vertex -49.391 3.5 -10.0615
      vertex -48.9282 3.5 -11
    endloop
  endfacet
  facet normal -0.896879 -0 -0.442276
    outer loop
      vertex -49.391 3.5 -10.0615
      vertex -48.9282 -3.5 -11
      vertex -49.391 -3.5 -10.0615
    endloop
  endfacet
  facet normal -0.751801 0 0.65939
    outer loop
      vertex -48.3468 -3.5 11.8701
      vertex -47.6568 3.5 12.6568
      vertex -48.3468 3.5 11.8701
    endloop
  endfacet
  facet normal -0.751801 0 0.65939
    outer loop
      vertex -47.6568 3.5 12.6568
      vertex -48.3468 -3.5 11.8701
      vertex -47.6568 -3.5 12.6568
    endloop
  endfacet
  facet normal 0.32144 0 0.94693
    outer loop
      vertex 44.0705 3.5 14.7274
      vertex 45.0615 -3.5 14.391
      vertex 45.0615 3.5 14.391
    endloop
  endfacet
  facet normal 0.32144 0 0.94693
    outer loop
      vertex 45.0615 -3.5 14.391
      vertex 44.0705 3.5 14.7274
      vertex 44.0705 -3.5 14.7274
    endloop
  endfacet
  facet normal -0 0 1
    outer loop
      vertex -42 3.5 15
      vertex 42 -3.5 15
      vertex 42 3.5 15
    endloop
  endfacet
  facet normal 0 0 1
    outer loop
      vertex 42 -3.5 15
      vertex -42 3.5 15
      vertex -42 -3.5 15
    endloop
  endfacet
  facet normal 1 -0 0
    outer loop
      vertex 50 -3.5 7
      vertex 50 3.5 -7
      vertex 50 3.5 7
    endloop
  endfacet
  facet normal 1 0 0
    outer loop
      vertex 50 3.5 -7
      vertex 50 -3.5 7
      vertex 50 -3.5 -7
    endloop
  endfacet
  facet normal 0.946926 0 -0.321452
    outer loop
      vertex 49.7274 -3.5 -9.07054
      vertex 49.391 3.5 -10.0615
      vertex 49.7274 3.5 -9.07054
    endloop
  endfacet
  facet normal 0.946926 0 -0.321452
    outer loop
      vertex 49.391 3.5 -10.0615
      vertex 49.7274 -3.5 -9.07054
      vertex 49.391 -3.5 -10.0615
    endloop
  endfacet
  facet normal 0.980795 0 -0.195043
    outer loop
      vertex 49.9315 -3.5 -8.0442
      vertex 49.7274 3.5 -9.07054
      vertex 49.9315 3.5 -8.0442
    endloop
  endfacet
  facet normal 0.980795 0 -0.195043
    outer loop
      vertex 49.7274 3.5 -9.07054
      vertex 49.9315 -3.5 -8.0442
      vertex 49.7274 -3.5 -9.07054
    endloop
  endfacet
  facet normal -0.751801 0 -0.65939
    outer loop
      vertex -47.6568 -3.5 -12.6568
      vertex -48.3468 3.5 -11.8701
      vertex -47.6568 3.5 -12.6568
    endloop
  endfacet
  facet normal -0.751801 -0 -0.65939
    outer loop
      vertex -48.3468 3.5 -11.8701
      vertex -47.6568 -3.5 -12.6568
      vertex -48.3468 -3.5 -11.8701
    endloop
  endfacet
  facet normal -0.946926 0 -0.321452
    outer loop
      vertex -49.391 -3.5 -10.0615
      vertex -49.7274 3.5 -9.07054
      vertex -49.391 3.5 -10.0615
    endloop
  endfacet
  facet normal -0.946926 -0 -0.321452
    outer loop
      vertex -49.7274 3.5 -9.07054
      vertex -49.391 -3.5 -10.0615
      vertex -49.7274 -3.5 -9.07054
    endloop
  endfacet
  facet normal -1 0 0
    outer loop
      vertex -50 -3.5 -7
      vertex -50 3.5 7
      vertex -50 3.5 -7
    endloop
  endfacet
  facet normal -1 -0 0
    outer loop
      vertex -50 3.5 7
      vertex -50 -3.5 -7
      vertex -50 -3.5 7
    endloop
  endfacet
  facet normal 0 1 0
    outer loop
      vertex 40.5 3.5 8.33012
      vertex 42 3.5 15
      vertex 43.0442 3.5 14.9315
    endloop
  endfacet
  facet normal 0 1 0
    outer loop
      vertex 42 3.5 15
      vertex 38 3.5 9
      vertex -42 3.5 15
    endloop
  endfacet
  facet normal 0 1 0
    outer loop
      vertex 40.5 3.5 8.33012
      vertex 43.0442 3.5 14.9315
      vertex 44.0705 3.5 14.7274
    endloop
  endfacet
  facet normal 0 1 -0
    outer loop
      vertex -38 3.5 9
      vertex -42 3.5 15
      vertex 38 3.5 9
    endloop
  endfacet
  facet normal 0 1 0
    outer loop
      vertex 41.0438 3.5 7.96677
      vertex 44.0705 3.5 14.7274
      vertex 45.0615 3.5 14.391
    endloop
  endfacet
  facet normal 0 1 -0
    outer loop
      vertex -38.6526 3.5 8.95721
      vertex -42 3.5 15
      vertex -38 3.5 9
    endloop
  endfacet
  facet normal 0 1 0
    outer loop
      vertex 41.0438 3.5 7.96677
      vertex 45.0615 3.5 14.391
      vertex 46 3.5 13.9282
    endloop
  endfacet
  facet normal 0 1 -0
    outer loop
      vertex -39.2941 3.5 8.82962
      vertex -42 3.5 15
      vertex -38.6526 3.5 8.95721
    endloop
  endfacet
  facet normal 0 1 0
    outer loop
      vertex 41.5355 3.5 7.53552
      vertex 46 3.5 13.9282
      vertex 46.8701 3.5 13.3468
    endloop
  endfacet
  facet normal 0 1 -0
    outer loop
      vertex -39.9134 3.5 8.61938
      vertex -42 3.5 15
      vertex -39.2941 3.5 8.82962
    endloop
  endfacet
  facet normal 0 1 0
    outer loop
      vertex 41.5355 3.5 7.53552
      vertex 46.8701 3.5 13.3468
      vertex 47.6568 3.5 12.6568
    endloop
  endfacet
  facet normal 0 1 -0
    outer loop
      vertex -40.5 3.5 8.33012
      vertex -42 3.5 15
      vertex -39.9134 3.5 8.61938
    endloop
  endfacet
  facet normal 0 1 0
    outer loop
      vertex 41.9668 3.5 7.04379
      vertex 47.6568 3.5 12.6568
      vertex 48.3468 3.5 11.8701
    endloop
  endfacet
  facet normal 0 1 0
    outer loop
      vertex -42 3.5 15
      vertex -40.5 3.5 8.33012
      vertex -43.0442 3.5 14.9315
    endloop
  endfacet
  facet normal 0 1 0
    outer loop
      vertex 41.9668 3.5 7.04379
      vertex 48.3468 3.5 11.8701
      vertex 48.9282 3.5 11
    endloop
  endfacet
  facet normal 0 1 0
    outer loop
      vertex -43.0442 3.5 14.9315
      vertex -40.5 3.5 8.33012
      vertex -44.0705 3.5 14.7274
    endloop
  endfacet
  facet normal 0 1 0
    outer loop
      vertex 42.3301 3.5 6.5
      vertex 48.9282 3.5 11
      vertex 49.391 3.5 10.0615
    endloop
  endfacet
  facet normal 0 1 -0
    outer loop
      vertex -41.0438 3.5 7.96677
      vertex -44.0705 3.5 14.7274
      vertex -40.5 3.5 8.33012
    endloop
  endfacet
  facet normal 0 1 0
    outer loop
      vertex 42.3301 3.5 6.5
      vertex 49.391 3.5 10.0615
      vertex 49.7274 3.5 9.07054
    endloop
  endfacet
  facet normal 0 1 0
    outer loop
      vertex -44.0705 3.5 14.7274
      vertex -41.0438 3.5 7.96677
      vertex -45.0615 3.5 14.391
    endloop
  endfacet
  facet normal 0 1 0
    outer loop
      vertex -45.0615 3.5 14.391
      vertex -41.0438 3.5 7.96677
      vertex -46 3.5 13.9282
    endloop
  endfacet
  facet normal 0 1 0
    outer loop
      vertex 42 3.5 15
      vertex 38.6526 3.5 8.95721
      vertex 38 3.5 9
    endloop
  endfacet
  facet normal 0 1 0
    outer loop
      vertex 42 3.5 15
      vertex 39.2941 3.5 8.82962
      vertex 38.6526 3.5 8.95721
    endloop
  endfacet
  facet normal 0 1 0
    outer loop
      vertex 42 3.5 15
      vertex 39.9134 3.5 8.61938
      vertex 39.2941 3.5 8.82962
    endloop
  endfacet
  facet normal 0 1 0
    outer loop
      vertex 42 3.5 15
      vertex 40.5 3.5 8.33012
      vertex 39.9134 3.5 8.61938
    endloop
  endfacet
  facet normal 0 1 0
    outer loop
      vertex 42.6194 3.5 5.91341
      vertex 49.7274 3.5 9.07054
      vertex 49.9315 3.5 8.0442
    endloop
  endfacet
  facet normal 0 1 0
    outer loop
      vertex 44.0705 3.5 14.7274
      vertex 41.0438 3.5 7.96677
      vertex 40.5 3.5 8.33012
    endloop
  endfacet
  facet normal 0 1 0
    outer loop
      vertex 46 3.5 13.9282
      vertex 41.5355 3.5 7.53552
      vertex 41.0438 3.5 7.96677
    endloop
  endfacet
  facet normal 0 1 0
    outer loop
      vertex 47.6568 3.5 12.6568
      vertex 41.9668 3.5 7.04379
      vertex 41.5355 3.5 7.53552
    endloop
  endfacet
  facet normal 0 1 0
    outer loop
      vertex 42.6194 3.5 5.91341
      vertex 49.9315 3.5 8.0442
      vertex 50 3.5 7
    endloop
  endfacet
  facet normal 0 1 0
    outer loop
      vertex 48.9282 3.5 11
      vertex 42.3301 3.5 6.5
      vertex 41.9668 3.5 7.04379
    endloop
  endfacet
  facet normal 0 1 0
    outer loop
      vertex 49.7274 3.5 9.07054
      vertex 42.6194 3.5 5.91341
      vertex 42.3301 3.5 6.5
    endloop
  endfacet
  facet normal 0 1 0
    outer loop
      vertex 50 3.5 7
      vertex 42.8296 3.5 5.29408
      vertex 42.6194 3.5 5.91341
    endloop
  endfacet
  facet normal 0 1 0
    outer loop
      vertex 50 3.5 7
      vertex 42.9572 3.5 4.65262
      vertex 42.8296 3.5 5.29408
    endloop
  endfacet
  facet normal 0 1 0
    outer loop
      vertex 50 3.5 7
      vertex 43 3.5 4
      vertex 42.9572 3.5 4.65262
    endloop
  endfacet
  facet normal 0 1 0
    outer loop
      vertex 50 3.5 7
      vertex 43 3.5 -4
      vertex 43 3.5 4
    endloop
  endfacet
  facet normal 0 1 -0
    outer loop
      vertex 50 3.5 -7
      vertex 43 3.5 -4
      vertex 50 3.5 7
    endloop
  endfacet
  facet normal 0 1 0
    outer loop
      vertex 43 3.5 -4
      vertex 50 3.5 -7
      vertex 42.9572 3.5 -4.65262
    endloop
  endfacet
  facet normal 0 1 0
    outer loop
      vertex 42.9572 3.5 -4.65262
      vertex 50 3.5 -7
      vertex 42.8296 3.5 -5.29408
    endloop
  endfacet
  facet normal 0 1 0
    outer loop
      vertex 42.8296 3.5 -5.29408
      vertex 50 3.5 -7
      vertex 42.6194 3.5 -5.91341
    endloop
  endfacet
  facet normal 0 1 -0
    outer loop
      vertex 49.9315 3.5 -8.0442
      vertex 42.6194 3.5 -5.91341
      vertex 50 3.5 -7
    endloop
  endfacet
  facet normal 0 1 -0
    outer loop
      vertex 49.7274 3.5 -9.07054
      vertex 42.6194 3.5 -5.91341
      vertex 49.9315 3.5 -8.0442
    endloop
  endfacet
  facet normal 0 1 0
    outer loop
      vertex 42.6194 3.5 -5.91341
      vertex 49.7274 3.5 -9.07054
      vertex 42.3301 3.5 -6.5
    endloop
  endfacet
  facet normal 0 1 -0
    outer loop
      vertex 49.391 3.5 -10.0615
      vertex 42.3301 3.5 -6.5
      vertex 49.7274 3.5 -9.07054
    endloop
  endfacet
  facet normal 0 1 -0
    outer loop
      vertex 48.9282 3.5 -11
      vertex 42.3301 3.5 -6.5
      vertex 49.391 3.5 -10.0615
    endloop
  endfacet
  facet normal 0 1 0
    outer loop
      vertex 42.3301 3.5 -6.5
      vertex 48.9282 3.5 -11
      vertex 41.9668 3.5 -7.04379
    endloop
  endfacet
  facet normal 0 1 -0
    outer loop
      vertex 48.3468 3.5 -11.8701
      vertex 41.9668 3.5 -7.04379
      vertex 48.9282 3.5 -11
    endloop
  endfacet
  facet normal 0 1 -0
    outer loop
      vertex 47.6568 3.5 -12.6568
      vertex 41.9668 3.5 -7.04379
      vertex 48.3468 3.5 -11.8701
    endloop
  endfacet
  facet normal 0 1 0
    outer loop
      vertex 41.9668 3.5 -7.04379
      vertex 47.6568 3.5 -12.6568
      vertex 41.5355 3.5 -7.53552
    endloop
  endfacet
  facet normal 0 1 0
    outer loop
      vertex 41.5355 3.5 -7.53552
      vertex 46 3.5 -13.9282
      vertex 41.0438 3.5 -7.96677
    endloop
  endfacet
  facet normal 0 1 -0
    outer loop
      vertex 46 3.5 -13.9282
      vertex 41.5355 3.5 -7.53552
      vertex 46.8701 3.5 -13.3468
    endloop
  endfacet
  facet normal 0 1 -0
    outer loop
      vertex 46.8701 3.5 -13.3468
      vertex 41.5355 3.5 -7.53552
      vertex 47.6568 3.5 -12.6568
    endloop
  endfacet
  facet normal 0 1 -0
    outer loop
      vertex -41.5355 3.5 7.53552
      vertex -46 3.5 13.9282
      vertex -41.0438 3.5 7.96677
    endloop
  endfacet
  facet normal 0 1 0
    outer loop
      vertex -46 3.5 13.9282
      vertex -41.5355 3.5 7.53552
      vertex -46.8701 3.5 13.3468
    endloop
  endfacet
  facet normal 0 1 0
    outer loop
      vertex -46.8701 3.5 13.3468
      vertex -41.5355 3.5 7.53552
      vertex -47.6568 3.5 12.6568
    endloop
  endfacet
  facet normal 0 1 -0
    outer loop
      vertex -41.9668 3.5 7.04379
      vertex -47.6568 3.5 12.6568
      vertex -41.5355 3.5 7.53552
    endloop
  endfacet
  facet normal 0 1 0
    outer loop
      vertex -47.6568 3.5 12.6568
      vertex -41.9668 3.5 7.04379
      vertex -48.3468 3.5 11.8701
    endloop
  endfacet
  facet normal 0 1 0
    outer loop
      vertex -48.3468 3.5 11.8701
      vertex -41.9668 3.5 7.04379
      vertex -48.9282 3.5 11
    endloop
  endfacet
  facet normal 0 1 -0
    outer loop
      vertex -42.3301 3.5 6.5
      vertex -48.9282 3.5 11
      vertex -41.9668 3.5 7.04379
    endloop
  endfacet
  facet normal 0 1 0
    outer loop
      vertex -48.9282 3.5 11
      vertex -42.3301 3.5 6.5
      vertex -49.391 3.5 10.0615
    endloop
  endfacet
  facet normal 0 1 0
    outer loop
      vertex -49.391 3.5 10.0615
      vertex -42.3301 3.5 6.5
      vertex -49.7274 3.5 9.07054
    endloop
  endfacet
  facet normal 0 1 -0
    outer loop
      vertex -42.6194 3.5 5.91341
      vertex -49.7274 3.5 9.07054
      vertex -42.3301 3.5 6.5
    endloop
  endfacet
  facet normal 0 1 0
    outer loop
      vertex -49.7274 3.5 9.07054
      vertex -42.6194 3.5 5.91341
      vertex -49.9315 3.5 8.0442
    endloop
  endfacet
  facet normal 0 1 0
    outer loop
      vertex -49.9315 3.5 8.0442
      vertex -42.6194 3.5 5.91341
      vertex -50 3.5 7
    endloop
  endfacet
  facet normal 0 1 -0
    outer loop
      vertex -42.8296 3.5 5.29408
      vertex -50 3.5 7
      vertex -42.6194 3.5 5.91341
    endloop
  endfacet
  facet normal 0 1 -0
    outer loop
      vertex -42.9572 3.5 4.65262
      vertex -50 3.5 7
      vertex -42.8296 3.5 5.29408
    endloop
  endfacet
  facet normal 0 1 -0
    outer loop
      vertex -43 3.5 4
      vertex -50 3.5 7
      vertex -42.9572 3.5 4.65262
    endloop
  endfacet
  facet normal 0 1 -0
    outer loop
      vertex -43 3.5 -4
      vertex -50 3.5 7
      vertex -43 3.5 4
    endloop
  endfacet
  facet normal 0 1 0
    outer loop
      vertex -50 3.5 -7
      vertex -43 3.5 -4
      vertex -42.9572 3.5 -4.65262
    endloop
  endfacet
  facet normal 0 1 0
    outer loop
      vertex -50 3.5 -7
      vertex -42.9572 3.5 -4.65262
      vertex -42.8296 3.5 -5.29408
    endloop
  endfacet
  facet normal 0 1 0
    outer loop
      vertex -50 3.5 -7
      vertex -42.8296 3.5 -5.29408
      vertex -42.6194 3.5 -5.91341
    endloop
  endfacet
  facet normal 0 1 0
    outer loop
      vertex -49.7274 3.5 -9.07054
      vertex -42.6194 3.5 -5.91341
      vertex -42.3301 3.5 -6.5
    endloop
  endfacet
  facet normal 0 1 0
    outer loop
      vertex -43 3.5 -4
      vertex -50 3.5 -7
      vertex -50 3.5 7
    endloop
  endfacet
  facet normal 0 1 0
    outer loop
      vertex -48.9282 3.5 -11
      vertex -42.3301 3.5 -6.5
      vertex -41.9668 3.5 -7.04379
    endloop
  endfacet
  facet normal 0 1 0
    outer loop
      vertex -47.6568 3.5 -12.6568
      vertex -41.9668 3.5 -7.04379
      vertex -41.5355 3.5 -7.53552
    endloop
  endfacet
  facet normal 0 1 0
    outer loop
      vertex -46 3.5 -13.9282
      vertex -41.5355 3.5 -7.53552
      vertex -41.0438 3.5 -7.96677
    endloop
  endfacet
  facet normal 0 1 0
    outer loop
      vertex -42.6194 3.5 -5.91341
      vertex -49.9315 3.5 -8.0442
      vertex -50 3.5 -7
    endloop
  endfacet
  facet normal 0 1 0
    outer loop
      vertex -44.0705 3.5 -14.7274
      vertex -41.0438 3.5 -7.96677
      vertex -40.5 3.5 -8.33012
    endloop
  endfacet
  facet normal 0 1 0
    outer loop
      vertex -42 3.5 -15
      vertex -40.5 3.5 -8.33012
      vertex -39.9134 3.5 -8.61938
    endloop
  endfacet
  facet normal 0 1 0
    outer loop
      vertex -42 3.5 -15
      vertex -39.9134 3.5 -8.61938
      vertex -39.2941 3.5 -8.82962
    endloop
  endfacet
  facet normal 0 1 0
    outer loop
      vertex -42 3.5 -15
      vertex -39.2941 3.5 -8.82962
      vertex -38.6526 3.5 -8.95721
    endloop
  endfacet
  facet normal 0 1 0
    outer loop
      vertex -42.6194 3.5 -5.91341
      vertex -49.7274 3.5 -9.07054
      vertex -49.9315 3.5 -8.0442
    endloop
  endfacet
  facet normal 0 1 0
    outer loop
      vertex -42 3.5 -15
      vertex -38.6526 3.5 -8.95721
      vertex -38 3.5 -9
    endloop
  endfacet
  facet normal 0 1 0
    outer loop
      vertex 38 3.5 -9
      vertex 42 3.5 -15
      vertex -38 3.5 -9
    endloop
  endfacet
  facet normal 0 1 -0
    outer loop
      vertex 45.0615 3.5 -14.391
      vertex 41.0438 3.5 -7.96677
      vertex 46 3.5 -13.9282
    endloop
  endfacet
  facet normal 0 1 0
    outer loop
      vertex -42 3.5 -15
      vertex -38 3.5 -9
      vertex 42 3.5 -15
    endloop
  endfacet
  facet normal 0 1 -0
    outer loop
      vertex 44.0705 3.5 -14.7274
      vertex 41.0438 3.5 -7.96677
      vertex 45.0615 3.5 -14.391
    endloop
  endfacet
  facet normal 0 1 0
    outer loop
      vertex -40.5 3.5 -8.33012
      vertex -42 3.5 -15
      vertex -43.0442 3.5 -14.9315
    endloop
  endfacet
  facet normal 0 1 0
    outer loop
      vertex 41.0438 3.5 -7.96677
      vertex 44.0705 3.5 -14.7274
      vertex 40.5 3.5 -8.33012
    endloop
  endfacet
  facet normal 0 1 0
    outer loop
      vertex -42.3301 3.5 -6.5
      vertex -49.391 3.5 -10.0615
      vertex -49.7274 3.5 -9.07054
    endloop
  endfacet
  facet normal 0 1 -0
    outer loop
      vertex 43.0442 3.5 -14.9315
      vertex 40.5 3.5 -8.33012
      vertex 44.0705 3.5 -14.7274
    endloop
  endfacet
  facet normal 0 1 0
    outer loop
      vertex -42.3301 3.5 -6.5
      vertex -48.9282 3.5 -11
      vertex -49.391 3.5 -10.0615
    endloop
  endfacet
  facet normal 0 1 -0
    outer loop
      vertex 42 3.5 -15
      vertex 40.5 3.5 -8.33012
      vertex 43.0442 3.5 -14.9315
    endloop
  endfacet
  facet normal 0 1 0
    outer loop
      vertex -41.9668 3.5 -7.04379
      vertex -48.3468 3.5 -11.8701
      vertex -48.9282 3.5 -11
    endloop
  endfacet
  facet normal 0 1 0
    outer loop
      vertex 40.5 3.5 -8.33012
      vertex 42 3.5 -15
      vertex 39.9134 3.5 -8.61938
    endloop
  endfacet
  facet normal 0 1 0
    outer loop
      vertex -41.9668 3.5 -7.04379
      vertex -47.6568 3.5 -12.6568
      vertex -48.3468 3.5 -11.8701
    endloop
  endfacet
  facet normal 0 1 0
    outer loop
      vertex 39.9134 3.5 -8.61938
      vertex 42 3.5 -15
      vertex 39.2941 3.5 -8.82962
    endloop
  endfacet
  facet normal 0 1 0
    outer loop
      vertex -41.5355 3.5 -7.53552
      vertex -46.8701 3.5 -13.3468
      vertex -47.6568 3.5 -12.6568
    endloop
  endfacet
  facet normal 0 1 0
    outer loop
      vertex 39.2941 3.5 -8.82962
      vertex 42 3.5 -15
      vertex 38.6526 3.5 -8.95721
    endloop
  endfacet
  facet normal 0 1 0
    outer loop
      vertex -41.5355 3.5 -7.53552
      vertex -46 3.5 -13.9282
      vertex -46.8701 3.5 -13.3468
    endloop
  endfacet
  facet normal 0 1 0
    outer loop
      vertex 38.6526 3.5 -8.95721
      vertex 42 3.5 -15
      vertex 38 3.5 -9
    endloop
  endfacet
  facet normal 0 1 0
    outer loop
      vertex -41.0438 3.5 -7.96677
      vertex -45.0615 3.5 -14.391
      vertex -46 3.5 -13.9282
    endloop
  endfacet
  facet normal 0 1 0
    outer loop
      vertex -41.0438 3.5 -7.96677
      vertex -44.0705 3.5 -14.7274
      vertex -45.0615 3.5 -14.391
    endloop
  endfacet
  facet normal 0 1 0
    outer loop
      vertex -40.5 3.5 -8.33012
      vertex -43.0442 3.5 -14.9315
      vertex -44.0705 3.5 -14.7274
    endloop
  endfacet
  facet normal 0 -1 0
    outer loop
      vertex -40.5 -3.5 8.33012
      vertex -42 -3.5 15
      vertex -43.0442 -3.5 14.9315
    endloop
  endfacet
  facet normal 0 -1 0
    outer loop
      vertex -42 -3.5 15
      vertex -38 -3.5 9
      vertex 42 -3.5 15
    endloop
  endfacet
  facet normal 0 -1 0
    outer loop
      vertex -40.5 -3.5 8.33012
      vertex -43.0442 -3.5 14.9315
      vertex -44.0705 -3.5 14.7274
    endloop
  endfacet
  facet normal 0 -1 0
    outer loop
      vertex 38 -3.5 9
      vertex 42 -3.5 15
      vertex -38 -3.5 9
    endloop
  endfacet
  facet normal 0 -1 0
    outer loop
      vertex -41.0438 -3.5 7.96677
      vertex -44.0705 -3.5 14.7274
      vertex -45.0615 -3.5 14.391
    endloop
  endfacet
  facet normal 0 -1 0
    outer loop
      vertex 38.6526 -3.5 8.95721
      vertex 42 -3.5 15
      vertex 38 -3.5 9
    endloop
  endfacet
  facet normal 0 -1 0
    outer loop
      vertex -41.0438 -3.5 7.96677
      vertex -45.0615 -3.5 14.391
      vertex -46 -3.5 13.9282
    endloop
  endfacet
  facet normal 0 -1 0
    outer loop
      vertex 39.2941 -3.5 8.82962
      vertex 42 -3.5 15
      vertex 38.6526 -3.5 8.95721
    endloop
  endfacet
  facet normal 0 -1 0
    outer loop
      vertex -41.5355 -3.5 7.53552
      vertex -46 -3.5 13.9282
      vertex -46.8701 -3.5 13.3468
    endloop
  endfacet
  facet normal 0 -1 0
    outer loop
      vertex 39.9134 -3.5 8.61938
      vertex 42 -3.5 15
      vertex 39.2941 -3.5 8.82962
    endloop
  endfacet
  facet normal 0 -1 0
    outer loop
      vertex -41.5355 -3.5 7.53552
      vertex -46.8701 -3.5 13.3468
      vertex -47.6568 -3.5 12.6568
    endloop
  endfacet
  facet normal 0 -1 0
    outer loop
      vertex 40.5 -3.5 8.33012
      vertex 42 -3.5 15
      vertex 39.9134 -3.5 8.61938
    endloop
  endfacet
  facet normal 0 -1 0
    outer loop
      vertex -41.9668 -3.5 7.04379
      vertex -47.6568 -3.5 12.6568
      vertex -48.3468 -3.5 11.8701
    endloop
  endfacet
  facet normal 0 -1 -0
    outer loop
      vertex 42 -3.5 15
      vertex 40.5 -3.5 8.33012
      vertex 43.0442 -3.5 14.9315
    endloop
  endfacet
  facet normal 0 -1 0
    outer loop
      vertex -41.9668 -3.5 7.04379
      vertex -48.3468 -3.5 11.8701
      vertex -48.9282 -3.5 11
    endloop
  endfacet
  facet normal 0 -1 -0
    outer loop
      vertex 43.0442 -3.5 14.9315
      vertex 40.5 -3.5 8.33012
      vertex 44.0705 -3.5 14.7274
    endloop
  endfacet
  facet normal 0 -1 0
    outer loop
      vertex -42.3301 -3.5 6.5
      vertex -48.9282 -3.5 11
      vertex -49.391 -3.5 10.0615
    endloop
  endfacet
  facet normal 0 -1 0
    outer loop
      vertex 41.0438 -3.5 7.96677
      vertex 44.0705 -3.5 14.7274
      vertex 40.5 -3.5 8.33012
    endloop
  endfacet
  facet normal 0 -1 0
    outer loop
      vertex -42.3301 -3.5 6.5
      vertex -49.391 -3.5 10.0615
      vertex -49.7274 -3.5 9.07054
    endloop
  endfacet
  facet normal 0 -1 -0
    outer loop
      vertex 44.0705 -3.5 14.7274
      vertex 41.0438 -3.5 7.96677
      vertex 45.0615 -3.5 14.391
    endloop
  endfacet
  facet normal 0 -1 -0
    outer loop
      vertex 45.0615 -3.5 14.391
      vertex 41.0438 -3.5 7.96677
      vertex 46 -3.5 13.9282
    endloop
  endfacet
  facet normal 0 -1 0
    outer loop
      vertex -42 -3.5 15
      vertex -38.6526 -3.5 8.95721
      vertex -38 -3.5 9
    endloop
  endfacet
  facet normal 0 -1 0
    outer loop
      vertex -42 -3.5 15
      vertex -39.2941 -3.5 8.82962
      vertex -38.6526 -3.5 8.95721
    endloop
  endfacet
  facet normal 0 -1 0
    outer loop
      vertex -42 -3.5 15
      vertex -39.9134 -3.5 8.61938
      vertex -39.2941 -3.5 8.82962
    endloop
  endfacet
  facet normal 0 -1 0
    outer loop
      vertex -42 -3.5 15
      vertex -40.5 -3.5 8.33012
      vertex -39.9134 -3.5 8.61938
    endloop
  endfacet
  facet normal 0 -1 0
    outer loop
      vertex -42.6194 -3.5 5.91341
      vertex -49.7274 -3.5 9.07054
      vertex -49.9315 -3.5 8.0442
    endloop
  endfacet
  facet normal 0 -1 0
    outer loop
      vertex -44.0705 -3.5 14.7274
      vertex -41.0438 -3.5 7.96677
      vertex -40.5 -3.5 8.33012
    endloop
  endfacet
  facet normal 0 -1 0
    outer loop
      vertex -46 -3.5 13.9282
      vertex -41.5355 -3.5 7.53552
      vertex -41.0438 -3.5 7.96677
    endloop
  endfacet
  facet normal 0 -1 0
    outer loop
      vertex -47.6568 -3.5 12.6568
      vertex -41.9668 -3.5 7.04379
      vertex -41.5355 -3.5 7.53552
    endloop
  endfacet
  facet normal 0 -1 0
    outer loop
      vertex -42.6194 -3.5 5.91341
      vertex -49.9315 -3.5 8.0442
      vertex -50 -3.5 7
    endloop
  endfacet
  facet normal 0 -1 0
    outer loop
      vertex -48.9282 -3.5 11
      vertex -42.3301 -3.5 6.5
      vertex -41.9668 -3.5 7.04379
    endloop
  endfacet
  facet normal 0 -1 0
    outer loop
      vertex -49.7274 -3.5 9.07054
      vertex -42.6194 -3.5 5.91341
      vertex -42.3301 -3.5 6.5
    endloop
  endfacet
  facet normal 0 -1 0
    outer loop
      vertex -50 -3.5 7
      vertex -42.8296 -3.5 5.29408
      vertex -42.6194 -3.5 5.91341
    endloop
  endfacet
  facet normal 0 -1 0
    outer loop
      vertex -50 -3.5 7
      vertex -42.9572 -3.5 4.65262
      vertex -42.8296 -3.5 5.29408
    endloop
  endfacet
  facet normal 0 -1 0
    outer loop
      vertex -50 -3.5 7
      vertex -43 -3.5 4
      vertex -42.9572 -3.5 4.65262
    endloop
  endfacet
  facet normal 0 -1 0
    outer loop
      vertex -50 -3.5 7
      vertex -43 -3.5 -4
      vertex -43 -3.5 4
    endloop
  endfacet
  facet normal 0 -1 0
    outer loop
      vertex -50 -3.5 -7
      vertex -43 -3.5 -4
      vertex -50 -3.5 7
    endloop
  endfacet
  facet normal 0 -1 -0
    outer loop
      vertex -43 -3.5 -4
      vertex -50 -3.5 -7
      vertex -42.9572 -3.5 -4.65262
    endloop
  endfacet
  facet normal 0 -1 -0
    outer loop
      vertex -42.9572 -3.5 -4.65262
      vertex -50 -3.5 -7
      vertex -42.8296 -3.5 -5.29408
    endloop
  endfacet
  facet normal 0 -1 -0
    outer loop
      vertex -42.8296 -3.5 -5.29408
      vertex -50 -3.5 -7
      vertex -42.6194 -3.5 -5.91341
    endloop
  endfacet
  facet normal 0 -1 0
    outer loop
      vertex -49.9315 -3.5 -8.0442
      vertex -42.6194 -3.5 -5.91341
      vertex -50 -3.5 -7
    endloop
  endfacet
  facet normal 0 -1 0
    outer loop
      vertex -49.7274 -3.5 -9.07054
      vertex -42.6194 -3.5 -5.91341
      vertex -49.9315 -3.5 -8.0442
    endloop
  endfacet
  facet normal 0 -1 -0
    outer loop
      vertex -42.6194 -3.5 -5.91341
      vertex -49.7274 -3.5 -9.07054
      vertex -42.3301 -3.5 -6.5
    endloop
  endfacet
  facet normal 0 -1 0
    outer loop
      vertex -49.391 -3.5 -10.0615
      vertex -42.3301 -3.5 -6.5
      vertex -49.7274 -3.5 -9.07054
    endloop
  endfacet
  facet normal 0 -1 0
    outer loop
      vertex -48.9282 -3.5 -11
      vertex -42.3301 -3.5 -6.5
      vertex -49.391 -3.5 -10.0615
    endloop
  endfacet
  facet normal 0 -1 -0
    outer loop
      vertex -42.3301 -3.5 -6.5
      vertex -48.9282 -3.5 -11
      vertex -41.9668 -3.5 -7.04379
    endloop
  endfacet
  facet normal 0 -1 0
    outer loop
      vertex -48.3468 -3.5 -11.8701
      vertex -41.9668 -3.5 -7.04379
      vertex -48.9282 -3.5 -11
    endloop
  endfacet
  facet normal 0 -1 0
    outer loop
      vertex -47.6568 -3.5 -12.6568
      vertex -41.9668 -3.5 -7.04379
      vertex -48.3468 -3.5 -11.8701
    endloop
  endfacet
  facet normal 0 -1 -0
    outer loop
      vertex -41.9668 -3.5 -7.04379
      vertex -47.6568 -3.5 -12.6568
      vertex -41.5355 -3.5 -7.53552
    endloop
  endfacet
  facet normal 0 -1 -0
    outer loop
      vertex -41.5355 -3.5 -7.53552
      vertex -46 -3.5 -13.9282
      vertex -41.0438 -3.5 -7.96677
    endloop
  endfacet
  facet normal 0 -1 0
    outer loop
      vertex -46 -3.5 -13.9282
      vertex -41.5355 -3.5 -7.53552
      vertex -46.8701 -3.5 -13.3468
    endloop
  endfacet
  facet normal 0 -1 0
    outer loop
      vertex -46.8701 -3.5 -13.3468
      vertex -41.5355 -3.5 -7.53552
      vertex -47.6568 -3.5 -12.6568
    endloop
  endfacet
  facet normal 0 -1 0
    outer loop
      vertex 41.5355 -3.5 7.53552
      vertex 46 -3.5 13.9282
      vertex 41.0438 -3.5 7.96677
    endloop
  endfacet
  facet normal 0 -1 -0
    outer loop
      vertex 46 -3.5 13.9282
      vertex 41.5355 -3.5 7.53552
      vertex 46.8701 -3.5 13.3468
    endloop
  endfacet
  facet normal 0 -1 -0
    outer loop
      vertex 46.8701 -3.5 13.3468
      vertex 41.5355 -3.5 7.53552
      vertex 47.6568 -3.5 12.6568
    endloop
  endfacet
  facet normal 0 -1 0
    outer loop
      vertex 41.9668 -3.5 7.04379
      vertex 47.6568 -3.5 12.6568
      vertex 41.5355 -3.5 7.53552
    endloop
  endfacet
  facet normal 0 -1 -0
    outer loop
      vertex 47.6568 -3.5 12.6568
      vertex 41.9668 -3.5 7.04379
      vertex 48.3468 -3.5 11.8701
    endloop
  endfacet
  facet normal 0 -1 -0
    outer loop
      vertex 48.3468 -3.5 11.8701
      vertex 41.9668 -3.5 7.04379
      vertex 48.9282 -3.5 11
    endloop
  endfacet
  facet normal 0 -1 0
    outer loop
      vertex 42.3301 -3.5 6.5
      vertex 48.9282 -3.5 11
      vertex 41.9668 -3.5 7.04379
    endloop
  endfacet
  facet normal 0 -1 -0
    outer loop
      vertex 48.9282 -3.5 11
      vertex 42.3301 -3.5 6.5
      vertex 49.391 -3.5 10.0615
    endloop
  endfacet
  facet normal 0 -1 -0
    outer loop
      vertex 49.391 -3.5 10.0615
      vertex 42.3301 -3.5 6.5
      vertex 49.7274 -3.5 9.07054
    endloop
  endfacet
  facet normal 0 -1 0
    outer loop
      vertex 42.6194 -3.5 5.91341
      vertex 49.7274 -3.5 9.07054
      vertex 42.3301 -3.5 6.5
    endloop
  endfacet
  facet normal 0 -1 -0
    outer loop
      vertex 49.7274 -3.5 9.07054
      vertex 42.6194 -3.5 5.91341
      vertex 49.9315 -3.5 8.0442
    endloop
  endfacet
  facet normal 0 -1 -0
    outer loop
      vertex 49.9315 -3.5 8.0442
      vertex 42.6194 -3.5 5.91341
      vertex 50 -3.5 7
    endloop
  endfacet
  facet normal 0 -1 0
    outer loop
      vertex 42.8296 -3.5 5.29408
      vertex 50 -3.5 7
      vertex 42.6194 -3.5 5.91341
    endloop
  endfacet
  facet normal 0 -1 0
    outer loop
      vertex 42.9572 -3.5 4.65262
      vertex 50 -3.5 7
      vertex 42.8296 -3.5 5.29408
    endloop
  endfacet
  facet normal 0 -1 0
    outer loop
      vertex 43 -3.5 4
      vertex 50 -3.5 7
      vertex 42.9572 -3.5 4.65262
    endloop
  endfacet
  facet normal 0 -1 0
    outer loop
      vertex 43 -3.5 -4
      vertex 50 -3.5 7
      vertex 43 -3.5 4
    endloop
  endfacet
  facet normal 0 -1 0
    outer loop
      vertex 50 -3.5 -7
      vertex 43 -3.5 -4
      vertex 42.9572 -3.5 -4.65262
    endloop
  endfacet
  facet normal 0 -1 0
    outer loop
      vertex 50 -3.5 -7
      vertex 42.9572 -3.5 -4.65262
      vertex 42.8296 -3.5 -5.29408
    endloop
  endfacet
  facet normal 0 -1 0
    outer loop
      vertex 50 -3.5 -7
      vertex 42.8296 -3.5 -5.29408
      vertex 42.6194 -3.5 -5.91341
    endloop
  endfacet
  facet normal 0 -1 0
    outer loop
      vertex 49.7274 -3.5 -9.07054
      vertex 42.6194 -3.5 -5.91341
      vertex 42.3301 -3.5 -6.5
    endloop
  endfacet
  facet normal 0 -1 0
    outer loop
      vertex 43 -3.5 -4
      vertex 50 -3.5 -7
      vertex 50 -3.5 7
    endloop
  endfacet
  facet normal 0 -1 0
    outer loop
      vertex 48.9282 -3.5 -11
      vertex 42.3301 -3.5 -6.5
      vertex 41.9668 -3.5 -7.04379
    endloop
  endfacet
  facet normal 0 -1 0
    outer loop
      vertex 47.6568 -3.5 -12.6568
      vertex 41.9668 -3.5 -7.04379
      vertex 41.5355 -3.5 -7.53552
    endloop
  endfacet
  facet normal 0 -1 0
    outer loop
      vertex 46 -3.5 -13.9282
      vertex 41.5355 -3.5 -7.53552
      vertex 41.0438 -3.5 -7.96677
    endloop
  endfacet
  facet normal 0 -1 0
    outer loop
      vertex 42.6194 -3.5 -5.91341
      vertex 49.9315 -3.5 -8.0442
      vertex 50 -3.5 -7
    endloop
  endfacet
  facet normal 0 -1 0
    outer loop
      vertex 44.0705 -3.5 -14.7274
      vertex 41.0438 -3.5 -7.96677
      vertex 40.5 -3.5 -8.33012
    endloop
  endfacet
  facet normal 0 -1 0
    outer loop
      vertex 42 -3.5 -15
      vertex 40.5 -3.5 -8.33012
      vertex 39.9134 -3.5 -8.61938
    endloop
  endfacet
  facet normal 0 -1 0
    outer loop
      vertex 42 -3.5 -15
      vertex 39.9134 -3.5 -8.61938
      vertex 39.2941 -3.5 -8.82962
    endloop
  endfacet
  facet normal 0 -1 0
    outer loop
      vertex 42 -3.5 -15
      vertex 39.2941 -3.5 -8.82962
      vertex 38.6526 -3.5 -8.95721
    endloop
  endfacet
  facet normal 0 -1 0
    outer loop
      vertex 42.6194 -3.5 -5.91341
      vertex 49.7274 -3.5 -9.07054
      vertex 49.9315 -3.5 -8.0442
    endloop
  endfacet
  facet normal 0 -1 0
    outer loop
      vertex 42 -3.5 -15
      vertex 38.6526 -3.5 -8.95721
      vertex 38 -3.5 -9
    endloop
  endfacet
  facet normal 0 -1 -0
    outer loop
      vertex -38 -3.5 -9
      vertex -42 -3.5 -15
      vertex 38 -3.5 -9
    endloop
  endfacet
  facet normal 0 -1 0
    outer loop
      vertex -45.0615 -3.5 -14.391
      vertex -41.0438 -3.5 -7.96677
      vertex -46 -3.5 -13.9282
    endloop
  endfacet
  facet normal 0 -1 0
    outer loop
      vertex 42 -3.5 -15
      vertex 38 -3.5 -9
      vertex -42 -3.5 -15
    endloop
  endfacet
  facet normal 0 -1 0
    outer loop
      vertex -44.0705 -3.5 -14.7274
      vertex -41.0438 -3.5 -7.96677
      vertex -45.0615 -3.5 -14.391
    endloop
  endfacet
  facet normal 0 -1 0
    outer loop
      vertex 40.5 -3.5 -8.33012
      vertex 42 -3.5 -15
      vertex 43.0442 -3.5 -14.9315
    endloop
  endfacet
  facet normal 0 -1 -0
    outer loop
      vertex -41.0438 -3.5 -7.96677
      vertex -44.0705 -3.5 -14.7274
      vertex -40.5 -3.5 -8.33012
    endloop
  endfacet
  facet normal 0 -1 0
    outer loop
      vertex 42.3301 -3.5 -6.5
      vertex 49.391 -3.5 -10.0615
      vertex 49.7274 -3.5 -9.07054
    endloop
  endfacet
  facet normal 0 -1 0
    outer loop
      vertex -43.0442 -3.5 -14.9315
      vertex -40.5 -3.5 -8.33012
      vertex -44.0705 -3.5 -14.7274
    endloop
  endfacet
  facet normal 0 -1 0
    outer loop
      vertex 42.3301 -3.5 -6.5
      vertex 48.9282 -3.5 -11
      vertex 49.391 -3.5 -10.0615
    endloop
  endfacet
  facet normal 0 -1 0
    outer loop
      vertex -42 -3.5 -15
      vertex -40.5 -3.5 -8.33012
      vertex -43.0442 -3.5 -14.9315
    endloop
  endfacet
  facet normal 0 -1 0
    outer loop
      vertex 41.9668 -3.5 -7.04379
      vertex 48.3468 -3.5 -11.8701
      vertex 48.9282 -3.5 -11
    endloop
  endfacet
  facet normal 0 -1 -0
    outer loop
      vertex -40.5 -3.5 -8.33012
      vertex -42 -3.5 -15
      vertex -39.9134 -3.5 -8.61938
    endloop
  endfacet
  facet normal 0 -1 0
    outer loop
      vertex 41.9668 -3.5 -7.04379
      vertex 47.6568 -3.5 -12.6568
      vertex 48.3468 -3.5 -11.8701
    endloop
  endfacet
  facet normal 0 -1 -0
    outer loop
      vertex -39.9134 -3.5 -8.61938
      vertex -42 -3.5 -15
      vertex -39.2941 -3.5 -8.82962
    endloop
  endfacet
  facet normal 0 -1 0
    outer loop
      vertex 41.5355 -3.5 -7.53552
      vertex 46.8701 -3.5 -13.3468
      vertex 47.6568 -3.5 -12.6568
    endloop
  endfacet
  facet normal 0 -1 -0
    outer loop
      vertex -39.2941 -3.5 -8.82962
      vertex -42 -3.5 -15
      vertex -38.6526 -3.5 -8.95721
    endloop
  endfacet
  facet normal 0 -1 0
    outer loop
      vertex 41.5355 -3.5 -7.53552
      vertex 46 -3.5 -13.9282
      vertex 46.8701 -3.5 -13.3468
    endloop
  endfacet
  facet normal 0 -1 -0
    outer loop
      vertex -38.6526 -3.5 -8.95721
      vertex -42 -3.5 -15
      vertex -38 -3.5 -9
    endloop
  endfacet
  facet normal 0 -1 0
    outer loop
      vertex 41.0438 -3.5 -7.96677
      vertex 45.0615 -3.5 -14.391
      vertex 46 -3.5 -13.9282
    endloop
  endfacet
  facet normal 0 -1 0
    outer loop
      vertex 41.0438 -3.5 -7.96677
      vertex 44.0705 -3.5 -14.7274
      vertex 45.0615 -3.5 -14.391
    endloop
  endfacet
  facet normal 0 -1 0
    outer loop
      vertex 40.5 -3.5 -8.33012
      vertex 43.0442 -3.5 -14.9315
      vertex 44.0705 -3.5 -14.7274
    endloop
  endfacet
  facet normal -0.997855 0 0.0654598
    outer loop
      vertex -50 -3.5 7
      vertex -49.9315 3.5 8.0442
      vertex -50 3.5 7
    endloop
  endfacet
  facet normal -0.997855 0 0.0654598
    outer loop
      vertex -49.9315 3.5 8.0442
      vertex -50 -3.5 7
      vertex -49.9315 -3.5 8.0442
    endloop
  endfacet
  facet normal -0.980795 0 0.195043
    outer loop
      vertex -49.9315 -3.5 8.0442
      vertex -49.7274 3.5 9.07054
      vertex -49.9315 3.5 8.0442
    endloop
  endfacet
  facet normal -0.980795 0 0.195043
    outer loop
      vertex -49.7274 3.5 9.07054
      vertex -49.9315 -3.5 8.0442
      vertex -49.7274 -3.5 9.07054
    endloop
  endfacet
  facet normal -0.442276 0 0.896879
    outer loop
      vertex -46 3.5 13.9282
      vertex -45.0615 -3.5 14.391
      vertex -45.0615 3.5 14.391
    endloop
  endfacet
  facet normal -0.442276 0 0.896879
    outer loop
      vertex -45.0615 -3.5 14.391
      vertex -46 3.5 13.9282
      vertex -46 -3.5 13.9282
    endloop
  endfacet
  facet normal -0.555582 0 0.831462
    outer loop
      vertex -46.8701 3.5 13.3468
      vertex -46 -3.5 13.9282
      vertex -46 3.5 13.9282
    endloop
  endfacet
  facet normal -0.555582 0 0.831462
    outer loop
      vertex -46 -3.5 13.9282
      vertex -46.8701 3.5 13.3468
      vertex -46.8701 -3.5 13.3468
    endloop
  endfacet
  facet normal -0.32144 0 0.94693
    outer loop
      vertex -45.0615 3.5 14.391
      vertex -44.0705 -3.5 14.7274
      vertex -44.0705 3.5 14.7274
    endloop
  endfacet
  facet normal -0.32144 0 0.94693
    outer loop
      vertex -44.0705 -3.5 14.7274
      vertex -45.0615 3.5 14.391
      vertex -45.0615 -3.5 14.391
    endloop
  endfacet
  facet normal -0.831462 0 0.555582
    outer loop
      vertex -48.9282 -3.5 11
      vertex -48.3468 3.5 11.8701
      vertex -48.9282 3.5 11
    endloop
  endfacet
  facet normal -0.831462 0 0.555582
    outer loop
      vertex -48.3468 3.5 11.8701
      vertex -48.9282 -3.5 11
      vertex -48.3468 -3.5 11.8701
    endloop
  endfacet
  facet normal -0.946926 0 0.321452
    outer loop
      vertex -49.7274 -3.5 9.07054
      vertex -49.391 3.5 10.0615
      vertex -49.7274 3.5 9.07054
    endloop
  endfacet
  facet normal -0.946926 0 0.321452
    outer loop
      vertex -49.391 3.5 10.0615
      vertex -49.7274 -3.5 9.07054
      vertex -49.391 -3.5 10.0615
    endloop
  endfacet
  facet normal 0.0654598 0 0.997855
    outer loop
      vertex 42 3.5 15
      vertex 43.0442 -3.5 14.9315
      vertex 43.0442 3.5 14.9315
    endloop
  endfacet
  facet normal 0.0654598 0 0.997855
    outer loop
      vertex 43.0442 -3.5 14.9315
      vertex 42 3.5 15
      vertex 42 -3.5 15
    endloop
  endfacet
  facet normal 0.19505 0 0.980793
    outer loop
      vertex 43.0442 3.5 14.9315
      vertex 44.0705 -3.5 14.7274
      vertex 44.0705 3.5 14.7274
    endloop
  endfacet
  facet normal 0.19505 0 0.980793
    outer loop
      vertex 44.0705 -3.5 14.7274
      vertex 43.0442 3.5 14.9315
      vertex 43.0442 -3.5 14.9315
    endloop
  endfacet
  facet normal 0.831462 -0 0.555582
    outer loop
      vertex 48.3468 -3.5 11.8701
      vertex 48.9282 3.5 11
      vertex 48.3468 3.5 11.8701
    endloop
  endfacet
  facet normal 0.831462 0 0.555582
    outer loop
      vertex 48.9282 3.5 11
      vertex 48.3468 -3.5 11.8701
      vertex 48.9282 -3.5 11
    endloop
  endfacet
  facet normal 0.896879 -0 0.442276
    outer loop
      vertex 48.9282 -3.5 11
      vertex 49.391 3.5 10.0615
      vertex 48.9282 3.5 11
    endloop
  endfacet
  facet normal 0.896879 0 0.442276
    outer loop
      vertex 49.391 3.5 10.0615
      vertex 48.9282 -3.5 11
      vertex 49.391 -3.5 10.0615
    endloop
  endfacet
  facet normal 0.980795 -0 0.195043
    outer loop
      vertex 49.7274 -3.5 9.07054
      vertex 49.9315 3.5 8.0442
      vertex 49.7274 3.5 9.07054
    endloop
  endfacet
  facet normal 0.980795 0 0.195043
    outer loop
      vertex 49.9315 3.5 8.0442
      vertex 49.7274 -3.5 9.07054
      vertex 49.9315 -3.5 8.0442
    endloop
  endfacet
  facet normal 0.19505 0 -0.980793
    outer loop
      vertex 43.0442 -3.5 -14.9315
      vertex 44.0705 3.5 -14.7274
      vertex 44.0705 -3.5 -14.7274
    endloop
  endfacet
  facet normal 0.19505 0 -0.980793
    outer loop
      vertex 44.0705 3.5 -14.7274
      vertex 43.0442 -3.5 -14.9315
      vertex 43.0442 3.5 -14.9315
    endloop
  endfacet
  facet normal 0.896879 0 -0.442276
    outer loop
      vertex 49.391 -3.5 -10.0615
      vertex 48.9282 3.5 -11
      vertex 49.391 3.5 -10.0615
    endloop
  endfacet
  facet normal 0.896879 0 -0.442276
    outer loop
      vertex 48.9282 3.5 -11
      vertex 49.391 -3.5 -10.0615
      vertex 48.9282 -3.5 -11
    endloop
  endfacet
  facet normal 0.997855 0 -0.0654598
    outer loop
      vertex 50 -3.5 -7
      vertex 49.9315 3.5 -8.0442
      vertex 50 3.5 -7
    endloop
  endfacet
  facet normal 0.997855 0 -0.0654598
    outer loop
      vertex 49.9315 3.5 -8.0442
      vertex 50 -3.5 -7
      vertex 49.9315 -3.5 -8.0442
    endloop
  endfacet
  facet normal -0.19505 0 0.980793
    outer loop
      vertex -44.0705 3.5 14.7274
      vertex -43.0442 -3.5 14.9315
      vertex -43.0442 3.5 14.9315
    endloop
  endfacet
  facet normal -0.19505 0 0.980793
    outer loop
      vertex -43.0442 -3.5 14.9315
      vertex -44.0705 3.5 14.7274
      vertex -44.0705 -3.5 14.7274
    endloop
  endfacet
  facet normal -0.65939 0 0.751801
    outer loop
      vertex -47.6568 3.5 12.6568
      vertex -46.8701 -3.5 13.3468
      vertex -46.8701 3.5 13.3468
    endloop
  endfacet
  facet normal -0.65939 0 0.751801
    outer loop
      vertex -46.8701 -3.5 13.3468
      vertex -47.6568 3.5 12.6568
      vertex -47.6568 -3.5 12.6568
    endloop
  endfacet
  facet normal -0.896879 0 0.442276
    outer loop
      vertex -49.391 -3.5 10.0615
      vertex -48.9282 3.5 11
      vertex -49.391 3.5 10.0615
    endloop
  endfacet
  facet normal -0.896879 0 0.442276
    outer loop
      vertex -48.9282 3.5 11
      vertex -49.391 -3.5 10.0615
      vertex -48.9282 -3.5 11
    endloop
  endfacet
  facet normal 0.555582 0 0.831462
    outer loop
      vertex 46 3.5 13.9282
      vertex 46.8701 -3.5 13.3468
      vertex 46.8701 3.5 13.3468
    endloop
  endfacet
  facet normal 0.555582 0 0.831462
    outer loop
      vertex 46.8701 -3.5 13.3468
      vertex 46 3.5 13.9282
      vertex 46 -3.5 13.9282
    endloop
  endfacet
  facet normal 0.65939 0 0.751801
    outer loop
      vertex 46.8701 3.5 13.3468
      vertex 47.6568 -3.5 12.6568
      vertex 47.6568 3.5 12.6568
    endloop
  endfacet
  facet normal 0.65939 0 0.751801
    outer loop
      vertex 47.6568 -3.5 12.6568
      vertex 46.8701 3.5 13.3468
      vertex 46.8701 -3.5 13.3468
    endloop
  endfacet
  facet normal 0.751801 -0 0.65939
    outer loop
      vertex 47.6568 -3.5 12.6568
      vertex 48.3468 3.5 11.8701
      vertex 47.6568 3.5 12.6568
    endloop
  endfacet
  facet normal 0.751801 0 0.65939
    outer loop
      vertex 48.3468 3.5 11.8701
      vertex 47.6568 -3.5 12.6568
      vertex 48.3468 -3.5 11.8701
    endloop
  endfacet
  facet normal 0.946926 -0 0.321452
    outer loop
      vertex 49.391 -3.5 10.0615
      vertex 49.7274 3.5 9.07054
      vertex 49.391 3.5 10.0615
    endloop
  endfacet
  facet normal 0.946926 0 0.321452
    outer loop
      vertex 49.7274 3.5 9.07054
      vertex 49.391 -3.5 10.0615
      vertex 49.7274 -3.5 9.07054
    endloop
  endfacet
  facet normal 0.997855 -0 0.0654598
    outer loop
      vertex 49.9315 -3.5 8.0442
      vertex 50 3.5 7
      vertex 49.9315 3.5 8.0442
    endloop
  endfacet
  facet normal 0.997855 0 0.0654598
    outer loop
      vertex 50 3.5 7
      vertex 49.9315 -3.5 8.0442
      vertex 50 -3.5 7
    endloop
  endfacet
  facet normal -0.19505 0 -0.980793
    outer loop
      vertex -44.0705 -3.5 -14.7274
      vertex -43.0442 3.5 -14.9315
      vertex -43.0442 -3.5 -14.9315
    endloop
  endfacet
  facet normal -0.19505 0 -0.980793
    outer loop
      vertex -43.0442 3.5 -14.9315
      vertex -44.0705 -3.5 -14.7274
      vertex -44.0705 3.5 -14.7274
    endloop
  endfacet
  facet normal -0.0654598 0 -0.997855
    outer loop
      vertex -43.0442 -3.5 -14.9315
      vertex -42 3.5 -15
      vertex -42 -3.5 -15
    endloop
  endfacet
  facet normal -0.0654598 0 -0.997855
    outer loop
      vertex -42 3.5 -15
      vertex -43.0442 -3.5 -14.9315
      vertex -43.0442 3.5 -14.9315
    endloop
  endfacet
  facet normal -0.65939 0 -0.751801
    outer loop
      vertex -47.6568 -3.5 -12.6568
      vertex -46.8701 3.5 -13.3468
      vertex -46.8701 -3.5 -13.3468
    endloop
  endfacet
  facet normal -0.65939 0 -0.751801
    outer loop
      vertex -46.8701 3.5 -13.3468
      vertex -47.6568 -3.5 -12.6568
      vertex -47.6568 3.5 -12.6568
    endloop
  endfacet
  facet normal 0.442276 0 0.896879
    outer loop
      vertex 45.0615 3.5 14.391
      vertex 46 -3.5 13.9282
      vertex 46 3.5 13.9282
    endloop
  endfacet
  facet normal 0.442276 0 0.896879
    outer loop
      vertex 46 -3.5 13.9282
      vertex 45.0615 3.5 14.391
      vertex 45.0615 -3.5 14.391
    endloop
  endfacet
  facet normal 0.32144 0 -0.94693
    outer loop
      vertex 44.0705 -3.5 -14.7274
      vertex 45.0615 3.5 -14.391
      vertex 45.0615 -3.5 -14.391
    endloop
  endfacet
  facet normal 0.32144 0 -0.94693
    outer loop
      vertex 45.0615 3.5 -14.391
      vertex 44.0705 -3.5 -14.7274
      vertex 44.0705 3.5 -14.7274
    endloop
  endfacet
  facet normal 0.442276 0 -0.896879
    outer loop
      vertex 45.0615 -3.5 -14.391
      vertex 46 3.5 -13.9282
      vertex 46 -3.5 -13.9282
    endloop
  endfacet
  facet normal 0.442276 0 -0.896879
    outer loop
      vertex 46 3.5 -13.9282
      vertex 45.0615 -3.5 -14.391
      vertex 45.0615 3.5 -14.391
    endloop
  endfacet
  facet normal 0.751801 0 -0.65939
    outer loop
      vertex 48.3468 -3.5 -11.8701
      vertex 47.6568 3.5 -12.6568
      vertex 48.3468 3.5 -11.8701
    endloop
  endfacet
  facet normal 0.751801 0 -0.65939
    outer loop
      vertex 47.6568 3.5 -12.6568
      vertex 48.3468 -3.5 -11.8701
      vertex 47.6568 -3.5 -12.6568
    endloop
  endfacet
  facet normal 0.831462 0 -0.555582
    outer loop
      vertex 48.9282 -3.5 -11
      vertex 48.3468 3.5 -11.8701
      vertex 48.9282 3.5 -11
    endloop
  endfacet
  facet normal 0.831462 0 -0.555582
    outer loop
      vertex 48.3468 3.5 -11.8701
      vertex 48.9282 -3.5 -11
      vertex 48.3468 -3.5 -11.8701
    endloop
  endfacet
  facet normal 0.555582 0 -0.831462
    outer loop
      vertex 46 -3.5 -13.9282
      vertex 46.8701 3.5 -13.3468
      vertex 46.8701 -3.5 -13.3468
    endloop
  endfacet
  facet normal 0.555582 0 -0.831462
    outer loop
      vertex 46.8701 3.5 -13.3468
      vertex 46 -3.5 -13.9282
      vertex 46 3.5 -13.9282
    endloop
  endfacet
  facet normal -0.555582 0 -0.831462
    outer loop
      vertex -46.8701 -3.5 -13.3468
      vertex -46 3.5 -13.9282
      vertex -46 -3.5 -13.9282
    endloop
  endfacet
  facet normal -0.555582 0 -0.831462
    outer loop
      vertex -46 3.5 -13.9282
      vertex -46.8701 -3.5 -13.3468
      vertex -46.8701 3.5 -13.3468
    endloop
  endfacet
  facet normal 0.65939 0 -0.751801
    outer loop
      vertex 46.8701 -3.5 -13.3468
      vertex 47.6568 3.5 -12.6568
      vertex 47.6568 -3.5 -12.6568
    endloop
  endfacet
  facet normal 0.65939 0 -0.751801
    outer loop
      vertex 47.6568 3.5 -12.6568
      vertex 46.8701 -3.5 -13.3468
      vertex 46.8701 3.5 -13.3468
    endloop
  endfacet
  facet normal -0.831462 0 -0.555582
    outer loop
      vertex -48.3468 -3.5 -11.8701
      vertex -48.9282 3.5 -11
      vertex -48.3468 3.5 -11.8701
    endloop
  endfacet
  facet normal -0.831462 -0 -0.555582
    outer loop
      vertex -48.9282 3.5 -11
      vertex -48.3468 -3.5 -11.8701
      vertex -48.9282 -3.5 -11
    endloop
  endfacet
  facet normal -0.442276 0 -0.896879
    outer loop
      vertex -46 -3.5 -13.9282
      vertex -45.0615 3.5 -14.391
      vertex -45.0615 -3.5 -14.391
    endloop
  endfacet
  facet normal -0.442276 0 -0.896879
    outer loop
      vertex -45.0615 3.5 -14.391
      vertex -46 -3.5 -13.9282
      vertex -46 3.5 -13.9282
    endloop
  endfacet
  facet normal -0.32144 0 -0.94693
    outer loop
      vertex -45.0615 -3.5 -14.391
      vertex -44.0705 3.5 -14.7274
      vertex -44.0705 -3.5 -14.7274
    endloop
  endfacet
  facet normal -0.32144 0 -0.94693
    outer loop
      vertex -44.0705 3.5 -14.7274
      vertex -45.0615 -3.5 -14.391
      vertex -45.0615 3.5 -14.391
    endloop
  endfacet
  facet normal 0.980784 -0 0.195099
    outer loop
      vertex -42.9572 -3.5 -4.65262
      vertex -42.8296 3.5 -5.29408
      vertex -42.9572 3.5 -4.65262
    endloop
  endfacet
  facet normal 0.980784 0 0.195099
    outer loop
      vertex -42.8296 3.5 -5.29408
      vertex -42.9572 -3.5 -4.65262
      vertex -42.8296 -3.5 -5.29408
    endloop
  endfacet
  facet normal -0 0 1
    outer loop
      vertex -38 3.5 -9
      vertex 38 -3.5 -9
      vertex 38 3.5 -9
    endloop
  endfacet
  facet normal 0 0 1
    outer loop
      vertex 38 -3.5 -9
      vertex -38 3.5 -9
      vertex -38 -3.5 -9
    endloop
  endfacet
  facet normal 0.946946 0 -0.321393
    outer loop
      vertex -42.6194 -3.5 5.91341
      vertex -42.8296 3.5 5.29408
      vertex -42.6194 3.5 5.91341
    endloop
  endfacet
  facet normal 0.946946 0 -0.321393
    outer loop
      vertex -42.8296 3.5 5.29408
      vertex -42.6194 -3.5 5.91341
      vertex -42.8296 -3.5 5.29408
    endloop
  endfacet
  facet normal 0.065428 0 -0.997857
    outer loop
      vertex -38.6526 -3.5 8.95721
      vertex -38 3.5 9
      vertex -38 -3.5 9
    endloop
  endfacet
  facet normal 0.065428 0 -0.997857
    outer loop
      vertex -38 3.5 9
      vertex -38.6526 -3.5 8.95721
      vertex -38.6526 3.5 8.95721
    endloop
  endfacet
  facet normal 0.997856 -0 0.0654412
    outer loop
      vertex -43 -3.5 -4
      vertex -42.9572 3.5 -4.65262
      vertex -43 3.5 -4
    endloop
  endfacet
  facet normal 0.997856 0 0.0654412
    outer loop
      vertex -42.9572 3.5 -4.65262
      vertex -43 -3.5 -4
      vertex -42.9572 -3.5 -4.65262
    endloop
  endfacet
  facet normal -0.065428 0 0.997857
    outer loop
      vertex 38 3.5 -9
      vertex 38.6526 -3.5 -8.95721
      vertex 38.6526 3.5 -8.95721
    endloop
  endfacet
  facet normal -0.065428 0 0.997857
    outer loop
      vertex 38.6526 -3.5 -8.95721
      vertex 38 3.5 -9
      vertex 38 -3.5 -9
    endloop
  endfacet
  facet normal 0.659381 0 -0.751809
    outer loop
      vertex -41.5355 -3.5 7.53552
      vertex -41.0438 3.5 7.96677
      vertex -41.0438 -3.5 7.96677
    endloop
  endfacet
  facet normal 0.659381 0 -0.751809
    outer loop
      vertex -41.0438 3.5 7.96677
      vertex -41.5355 -3.5 7.53552
      vertex -41.5355 3.5 7.53552
    endloop
  endfacet
  facet normal 0.321461 0 -0.946923
    outer loop
      vertex -39.9134 -3.5 8.61938
      vertex -39.2941 3.5 8.82962
      vertex -39.2941 -3.5 8.82962
    endloop
  endfacet
  facet normal 0.321461 0 -0.946923
    outer loop
      vertex -39.2941 3.5 8.82962
      vertex -39.9134 -3.5 8.61938
      vertex -39.9134 3.5 8.61938
    endloop
  endfacet
  facet normal -0.896857 0 -0.44232
    outer loop
      vertex 42.6194 -3.5 5.91341
      vertex 42.3301 3.5 6.5
      vertex 42.6194 3.5 5.91341
    endloop
  endfacet
  facet normal -0.896857 -0 -0.44232
    outer loop
      vertex 42.3301 3.5 6.5
      vertex 42.6194 -3.5 5.91341
      vertex 42.3301 -3.5 6.5
    endloop
  endfacet
  facet normal -0.065428 0 -0.997857
    outer loop
      vertex 38 -3.5 9
      vertex 38.6526 3.5 8.95721
      vertex 38.6526 -3.5 8.95721
    endloop
  endfacet
  facet normal -0.065428 0 -0.997857
    outer loop
      vertex 38.6526 3.5 8.95721
      vertex 38 -3.5 9
      vertex 38 3.5 9
    endloop
  endfacet
  facet normal 0 0 -1
    outer loop
      vertex -38 -3.5 9
      vertex 38 3.5 9
      vertex 38 -3.5 9
    endloop
  endfacet
  facet normal -0 0 -1
    outer loop
      vertex 38 3.5 9
      vertex -38 -3.5 9
      vertex -38 3.5 9
    endloop
  endfacet
  facet normal -0.980784 0 0.195099
    outer loop
      vertex 42.8296 -3.5 -5.29408
      vertex 42.9572 3.5 -4.65262
      vertex 42.8296 3.5 -5.29408
    endloop
  endfacet
  facet normal -0.980784 0 0.195099
    outer loop
      vertex 42.9572 3.5 -4.65262
      vertex 42.8296 -3.5 -5.29408
      vertex 42.9572 -3.5 -4.65262
    endloop
  endfacet
  facet normal -0.555564 0 0.831474
    outer loop
      vertex 40.5 3.5 -8.33012
      vertex 41.0438 -3.5 -7.96677
      vertex 41.0438 3.5 -7.96677
    endloop
  endfacet
  facet normal -0.555564 0 0.831474
    outer loop
      vertex 41.0438 -3.5 -7.96677
      vertex 40.5 3.5 -8.33012
      vertex 40.5 -3.5 -8.33012
    endloop
  endfacet
  facet normal 0.946946 -0 0.321393
    outer loop
      vertex -42.8296 -3.5 -5.29408
      vertex -42.6194 3.5 -5.91341
      vertex -42.8296 3.5 -5.29408
    endloop
  endfacet
  facet normal 0.946946 0 0.321393
    outer loop
      vertex -42.6194 3.5 -5.91341
      vertex -42.8296 -3.5 -5.29408
      vertex -42.6194 -3.5 -5.91341
    endloop
  endfacet
  facet normal 0.896857 -0 0.44232
    outer loop
      vertex -42.6194 -3.5 -5.91341
      vertex -42.3301 3.5 -6.5
      vertex -42.6194 3.5 -5.91341
    endloop
  endfacet
  facet normal 0.896857 0 0.44232
    outer loop
      vertex -42.3301 3.5 -6.5
      vertex -42.6194 -3.5 -5.91341
      vertex -42.3301 -3.5 -6.5
    endloop
  endfacet
  facet normal 1 -0 0
    outer loop
      vertex -43 -3.5 4
      vertex -43 3.5 -4
      vertex -43 3.5 4
    endloop
  endfacet
  facet normal 1 0 0
    outer loop
      vertex -43 3.5 -4
      vertex -43 -3.5 4
      vertex -43 -3.5 -4
    endloop
  endfacet
  facet normal 0.997856 0 -0.0654412
    outer loop
      vertex -42.9572 -3.5 4.65262
      vertex -43 3.5 4
      vertex -42.9572 3.5 4.65262
    endloop
  endfacet
  facet normal 0.997856 0 -0.0654412
    outer loop
      vertex -43 3.5 4
      vertex -42.9572 -3.5 4.65262
      vertex -43 -3.5 4
    endloop
  endfacet
  facet normal 0.831504 0 -0.555519
    outer loop
      vertex -41.9668 -3.5 7.04379
      vertex -42.3301 3.5 6.5
      vertex -41.9668 3.5 7.04379
    endloop
  endfacet
  facet normal 0.831504 0 -0.555519
    outer loop
      vertex -42.3301 3.5 6.5
      vertex -41.9668 -3.5 7.04379
      vertex -42.3301 -3.5 6.5
    endloop
  endfacet
  facet normal 0.195072 0 -0.980789
    outer loop
      vertex -39.2941 -3.5 8.82962
      vertex -38.6526 3.5 8.95721
      vertex -38.6526 -3.5 8.95721
    endloop
  endfacet
  facet normal 0.195072 0 -0.980789
    outer loop
      vertex -38.6526 3.5 8.95721
      vertex -39.2941 -3.5 8.82962
      vertex -39.2941 3.5 8.82962
    endloop
  endfacet
  facet normal 0.555564 0 -0.831474
    outer loop
      vertex -41.0438 -3.5 7.96677
      vertex -40.5 3.5 8.33012
      vertex -40.5 -3.5 8.33012
    endloop
  endfacet
  facet normal 0.555564 0 -0.831474
    outer loop
      vertex -40.5 3.5 8.33012
      vertex -41.0438 -3.5 7.96677
      vertex -41.0438 3.5 7.96677
    endloop
  endfacet
  facet normal -0.946946 0 -0.321393
    outer loop
      vertex 42.8296 -3.5 5.29408
      vertex 42.6194 3.5 5.91341
      vertex 42.8296 3.5 5.29408
    endloop
  endfacet
  facet normal -0.946946 -0 -0.321393
    outer loop
      vertex 42.6194 3.5 5.91341
      vertex 42.8296 -3.5 5.29408
      vertex 42.6194 -3.5 5.91341
    endloop
  endfacet
  facet normal -0.980784 0 -0.195099
    outer loop
      vertex 42.9572 -3.5 4.65262
      vertex 42.8296 3.5 5.29408
      vertex 42.9572 3.5 4.65262
    endloop
  endfacet
  facet normal -0.980784 -0 -0.195099
    outer loop
      vertex 42.8296 3.5 5.29408
      vertex 42.9572 -3.5 4.65262
      vertex 42.8296 -3.5 5.29408
    endloop
  endfacet
  facet normal -1 0 0
    outer loop
      vertex 43 -3.5 -4
      vertex 43 3.5 4
      vertex 43 3.5 -4
    endloop
  endfacet
  facet normal -1 -0 0
    outer loop
      vertex 43 3.5 4
      vertex 43 -3.5 -4
      vertex 43 -3.5 4
    endloop
  endfacet
  facet normal -0.997856 0 0.0654412
    outer loop
      vertex 42.9572 -3.5 -4.65262
      vertex 43 3.5 -4
      vertex 42.9572 3.5 -4.65262
    endloop
  endfacet
  facet normal -0.997856 0 0.0654412
    outer loop
      vertex 43 3.5 -4
      vertex 42.9572 -3.5 -4.65262
      vertex 43 -3.5 -4
    endloop
  endfacet
  facet normal 0.555564 0 0.831474
    outer loop
      vertex -41.0438 3.5 -7.96677
      vertex -40.5 -3.5 -8.33012
      vertex -40.5 3.5 -8.33012
    endloop
  endfacet
  facet normal 0.555564 0 0.831474
    outer loop
      vertex -40.5 -3.5 -8.33012
      vertex -41.0438 3.5 -7.96677
      vertex -41.0438 -3.5 -7.96677
    endloop
  endfacet
  facet normal 0.065428 0 0.997857
    outer loop
      vertex -38.6526 3.5 -8.95721
      vertex -38 -3.5 -9
      vertex -38 3.5 -9
    endloop
  endfacet
  facet normal 0.065428 0 0.997857
    outer loop
      vertex -38 -3.5 -9
      vertex -38.6526 3.5 -8.95721
      vertex -38.6526 -3.5 -8.95721
    endloop
  endfacet
  facet normal 0.980784 0 -0.195099
    outer loop
      vertex -42.8296 -3.5 5.29408
      vertex -42.9572 3.5 4.65262
      vertex -42.8296 3.5 5.29408
    endloop
  endfacet
  facet normal 0.980784 0 -0.195099
    outer loop
      vertex -42.9572 3.5 4.65262
      vertex -42.8296 -3.5 5.29408
      vertex -42.9572 -3.5 4.65262
    endloop
  endfacet
  facet normal 0.896857 0 -0.44232
    outer loop
      vertex -42.3301 -3.5 6.5
      vertex -42.6194 3.5 5.91341
      vertex -42.3301 3.5 6.5
    endloop
  endfacet
  facet normal 0.896857 0 -0.44232
    outer loop
      vertex -42.6194 3.5 5.91341
      vertex -42.3301 -3.5 6.5
      vertex -42.6194 -3.5 5.91341
    endloop
  endfacet
  facet normal 0.751791 0 -0.659401
    outer loop
      vertex -41.5355 -3.5 7.53552
      vertex -41.9668 3.5 7.04379
      vertex -41.5355 3.5 7.53552
    endloop
  endfacet
  facet normal 0.751791 0 -0.659401
    outer loop
      vertex -41.9668 3.5 7.04379
      vertex -41.5355 -3.5 7.53552
      vertex -41.9668 -3.5 7.04379
    endloop
  endfacet
  facet normal 0.442265 0 -0.896884
    outer loop
      vertex -40.5 -3.5 8.33012
      vertex -39.9134 3.5 8.61938
      vertex -39.9134 -3.5 8.61938
    endloop
  endfacet
  facet normal 0.442265 0 -0.896884
    outer loop
      vertex -39.9134 3.5 8.61938
      vertex -40.5 -3.5 8.33012
      vertex -40.5 3.5 8.33012
    endloop
  endfacet
  facet normal -0.659381 0 -0.751809
    outer loop
      vertex 41.0438 -3.5 7.96677
      vertex 41.5355 3.5 7.53552
      vertex 41.5355 -3.5 7.53552
    endloop
  endfacet
  facet normal -0.659381 0 -0.751809
    outer loop
      vertex 41.5355 3.5 7.53552
      vertex 41.0438 -3.5 7.96677
      vertex 41.0438 3.5 7.96677
    endloop
  endfacet
  facet normal -0.831504 0 -0.555519
    outer loop
      vertex 42.3301 -3.5 6.5
      vertex 41.9668 3.5 7.04379
      vertex 42.3301 3.5 6.5
    endloop
  endfacet
  facet normal -0.831504 -0 -0.555519
    outer loop
      vertex 41.9668 3.5 7.04379
      vertex 42.3301 -3.5 6.5
      vertex 41.9668 -3.5 7.04379
    endloop
  endfacet
  facet normal -0.321461 0 -0.946923
    outer loop
      vertex 39.2941 -3.5 8.82962
      vertex 39.9134 3.5 8.61938
      vertex 39.9134 -3.5 8.61938
    endloop
  endfacet
  facet normal -0.321461 0 -0.946923
    outer loop
      vertex 39.9134 3.5 8.61938
      vertex 39.2941 -3.5 8.82962
      vertex 39.2941 3.5 8.82962
    endloop
  endfacet
  facet normal -0.555564 0 -0.831474
    outer loop
      vertex 40.5 -3.5 8.33012
      vertex 41.0438 3.5 7.96677
      vertex 41.0438 -3.5 7.96677
    endloop
  endfacet
  facet normal -0.555564 0 -0.831474
    outer loop
      vertex 41.0438 3.5 7.96677
      vertex 40.5 -3.5 8.33012
      vertex 40.5 3.5 8.33012
    endloop
  endfacet
  facet normal -0.195072 0 -0.980789
    outer loop
      vertex 38.6526 -3.5 8.95721
      vertex 39.2941 3.5 8.82962
      vertex 39.2941 -3.5 8.82962
    endloop
  endfacet
  facet normal -0.195072 0 -0.980789
    outer loop
      vertex 39.2941 3.5 8.82962
      vertex 38.6526 -3.5 8.95721
      vertex 38.6526 3.5 8.95721
    endloop
  endfacet
  facet normal -0.997856 0 -0.0654412
    outer loop
      vertex 43 -3.5 4
      vertex 42.9572 3.5 4.65262
      vertex 43 3.5 4
    endloop
  endfacet
  facet normal -0.997856 -0 -0.0654412
    outer loop
      vertex 42.9572 3.5 4.65262
      vertex 43 -3.5 4
      vertex 42.9572 -3.5 4.65262
    endloop
  endfacet
  facet normal 0.195072 0 0.980789
    outer loop
      vertex -39.2941 3.5 -8.82962
      vertex -38.6526 -3.5 -8.95721
      vertex -38.6526 3.5 -8.95721
    endloop
  endfacet
  facet normal 0.195072 0 0.980789
    outer loop
      vertex -38.6526 -3.5 -8.95721
      vertex -39.2941 3.5 -8.82962
      vertex -39.2941 -3.5 -8.82962
    endloop
  endfacet
  facet normal -0.751791 0 -0.659401
    outer loop
      vertex 41.9668 -3.5 7.04379
      vertex 41.5355 3.5 7.53552
      vertex 41.9668 3.5 7.04379
    endloop
  endfacet
  facet normal -0.751791 -0 -0.659401
    outer loop
      vertex 41.5355 3.5 7.53552
      vertex 41.9668 -3.5 7.04379
      vertex 41.5355 -3.5 7.53552
    endloop
  endfacet
  facet normal -0.442265 0 -0.896884
    outer loop
      vertex 39.9134 -3.5 8.61938
      vertex 40.5 3.5 8.33012
      vertex 40.5 -3.5 8.33012
    endloop
  endfacet
  facet normal -0.442265 0 -0.896884
    outer loop
      vertex 40.5 3.5 8.33012
      vertex 39.9134 -3.5 8.61938
      vertex 39.9134 3.5 8.61938
    endloop
  endfacet
  facet normal -0.442265 0 0.896884
    outer loop
      vertex 39.9134 3.5 -8.61938
      vertex 40.5 -3.5 -8.33012
      vertex 40.5 3.5 -8.33012
    endloop
  endfacet
  facet normal -0.442265 0 0.896884
    outer loop
      vertex 40.5 -3.5 -8.33012
      vertex 39.9134 3.5 -8.61938
      vertex 39.9134 -3.5 -8.61938
    endloop
  endfacet
  facet normal -0.195072 0 0.980789
    outer loop
      vertex 38.6526 3.5 -8.95721
      vertex 39.2941 -3.5 -8.82962
      vertex 39.2941 3.5 -8.82962
    endloop
  endfacet
  facet normal -0.195072 0 0.980789
    outer loop
      vertex 39.2941 -3.5 -8.82962
      vertex 38.6526 3.5 -8.95721
      vertex 38.6526 -3.5 -8.95721
    endloop
  endfacet
  facet normal -0.321461 0 0.946923
    outer loop
      vertex 39.2941 3.5 -8.82962
      vertex 39.9134 -3.5 -8.61938
      vertex 39.9134 3.5 -8.61938
    endloop
  endfacet
  facet normal -0.321461 0 0.946923
    outer loop
      vertex 39.9134 -3.5 -8.61938
      vertex 39.2941 3.5 -8.82962
      vertex 39.2941 -3.5 -8.82962
    endloop
  endfacet
  facet normal -0.896857 0 0.44232
    outer loop
      vertex 42.3301 -3.5 -6.5
      vertex 42.6194 3.5 -5.91341
      vertex 42.3301 3.5 -6.5
    endloop
  endfacet
  facet normal -0.896857 0 0.44232
    outer loop
      vertex 42.6194 3.5 -5.91341
      vertex 42.3301 -3.5 -6.5
      vertex 42.6194 -3.5 -5.91341
    endloop
  endfacet
  facet normal -0.831504 0 0.555519
    outer loop
      vertex 41.9668 -3.5 -7.04379
      vertex 42.3301 3.5 -6.5
      vertex 41.9668 3.5 -7.04379
    endloop
  endfacet
  facet normal -0.831504 0 0.555519
    outer loop
      vertex 42.3301 3.5 -6.5
      vertex 41.9668 -3.5 -7.04379
      vertex 42.3301 -3.5 -6.5
    endloop
  endfacet
  facet normal 0.751791 -0 0.659401
    outer loop
      vertex -41.9668 -3.5 -7.04379
      vertex -41.5355 3.5 -7.53552
      vertex -41.9668 3.5 -7.04379
    endloop
  endfacet
  facet normal 0.751791 0 0.659401
    outer loop
      vertex -41.5355 3.5 -7.53552
      vertex -41.9668 -3.5 -7.04379
      vertex -41.5355 -3.5 -7.53552
    endloop
  endfacet
  facet normal 0.659381 0 0.751809
    outer loop
      vertex -41.5355 3.5 -7.53552
      vertex -41.0438 -3.5 -7.96677
      vertex -41.0438 3.5 -7.96677
    endloop
  endfacet
  facet normal 0.659381 0 0.751809
    outer loop
      vertex -41.0438 -3.5 -7.96677
      vertex -41.5355 3.5 -7.53552
      vertex -41.5355 -3.5 -7.53552
    endloop
  endfacet
  facet normal -0.659381 0 0.751809
    outer loop
      vertex 41.0438 3.5 -7.96677
      vertex 41.5355 -3.5 -7.53552
      vertex 41.5355 3.5 -7.53552
    endloop
  endfacet
  facet normal -0.659381 0 0.751809
    outer loop
      vertex 41.5355 -3.5 -7.53552
      vertex 41.0438 3.5 -7.96677
      vertex 41.0438 -3.5 -7.96677
    endloop
  endfacet
  facet normal -0.946946 0 0.321393
    outer loop
      vertex 42.6194 -3.5 -5.91341
      vertex 42.8296 3.5 -5.29408
      vertex 42.6194 3.5 -5.91341
    endloop
  endfacet
  facet normal -0.946946 0 0.321393
    outer loop
      vertex 42.8296 3.5 -5.29408
      vertex 42.6194 -3.5 -5.91341
      vertex 42.8296 -3.5 -5.29408
    endloop
  endfacet
  facet normal 0.831504 -0 0.555519
    outer loop
      vertex -42.3301 -3.5 -6.5
      vertex -41.9668 3.5 -7.04379
      vertex -42.3301 3.5 -6.5
    endloop
  endfacet
  facet normal 0.831504 0 0.555519
    outer loop
      vertex -41.9668 3.5 -7.04379
      vertex -42.3301 -3.5 -6.5
      vertex -41.9668 -3.5 -7.04379
    endloop
  endfacet
  facet normal 0.442265 0 0.896884
    outer loop
      vertex -40.5 3.5 -8.33012
      vertex -39.9134 -3.5 -8.61938
      vertex -39.9134 3.5 -8.61938
    endloop
  endfacet
  facet normal 0.442265 0 0.896884
    outer loop
      vertex -39.9134 -3.5 -8.61938
      vertex -40.5 3.5 -8.33012
      vertex -40.5 -3.5 -8.33012
    endloop
  endfacet
  facet normal 0.321461 0 0.946923
    outer loop
      vertex -39.9134 3.5 -8.61938
      vertex -39.2941 -3.5 -8.82962
      vertex -39.2941 3.5 -8.82962
    endloop
  endfacet
  facet normal 0.321461 0 0.946923
    outer loop
      vertex -39.2941 -3.5 -8.82962
      vertex -39.9134 3.5 -8.61938
      vertex -39.9134 -3.5 -8.61938
    endloop
  endfacet
  facet normal -0.751791 0 0.659401
    outer loop
      vertex 41.5355 -3.5 -7.53552
      vertex 41.9668 3.5 -7.04379
      vertex 41.5355 3.5 -7.53552
    endloop
  endfacet
  facet normal -0.751791 0 0.659401
    outer loop
      vertex 41.9668 3.5 -7.04379
      vertex 41.5355 -3.5 -7.53552
      vertex 41.9668 -3.5 -7.04379
    endloop
  endfacet
endsolid OpenSCAD_Model
