solid OpenSCAD_Model
  facet normal 0.998426 -0 0.0560763
    outer loop
      vertex 25.8365 -2 2.91108
      vertex 26 2 0
      vertex 25.8365 2 2.91108
    endloop
  endfacet
  facet normal 0.998426 0 0.0560763
    outer loop
      vertex 26 2 0
      vertex 25.8365 -2 2.91108
      vertex 26 -2 0
    endloop
  endfacet
  facet normal -0.998426 0 0.0560763
    outer loop
      vertex -26 -2 0
      vertex -25.8365 2 2.91108
      vertex -26 2 0
    endloop
  endfacet
  facet normal -0.998426 0 0.0560763
    outer loop
      vertex -25.8365 2 2.91108
      vertex -26 -2 0
      vertex -25.8365 -2 2.91108
    endloop
  endfacet
  facet normal 0.0560763 0 0.998426
    outer loop
      vertex 0 2 26
      vertex 2.91108 -2 25.8365
      vertex 2.91108 2 25.8365
    endloop
  endfacet
  facet normal 0.0560763 0 0.998426
    outer loop
      vertex 2.91108 -2 25.8365
      vertex 0 2 26
      vertex 0 -2 26
    endloop
  endfacet
  facet normal 0.745658 -0 0.666329
    outer loop
      vertex 18.3848 -2 18.3848
      vertex 20.3276 2 16.2107
      vertex 18.3848 2 18.3848
    endloop
  endfacet
  facet normal 0.745658 0 0.666329
    outer loop
      vertex 20.3276 2 16.2107
      vertex 18.3848 -2 18.3848
      vertex 20.3276 -2 16.2107
    endloop
  endfacet
  facet normal -0.666329 0 0.745658
    outer loop
      vertex -18.3848 2 18.3848
      vertex -16.2107 -2 20.3276
      vertex -16.2107 2 20.3276
    endloop
  endfacet
  facet normal -0.666329 0 0.745658
    outer loop
      vertex -16.2107 -2 20.3276
      vertex -18.3848 2 18.3848
      vertex -18.3848 -2 18.3848
    endloop
  endfacet
  facet normal -0.276816 0 0.960923
    outer loop
      vertex -8.58726 2 24.541
      vertex -5.78554 -2 25.3481
      vertex -5.78554 2 25.3481
    endloop
  endfacet
  facet normal -0.276816 0 0.960923
    outer loop
      vertex -5.78554 -2 25.3481
      vertex -8.58726 2 24.541
      vertex -8.58726 -2 24.541
    endloop
  endfacet
  facet normal 0.923878 -0 0.382688
    outer loop
      vertex 23.4252 -2 11.281
      vertex 24.541 2 8.58726
      vertex 23.4252 2 11.281
    endloop
  endfacet
  facet normal 0.923878 0 0.382688
    outer loop
      vertex 24.541 2 8.58726
      vertex 23.4252 -2 11.281
      vertex 24.541 -2 8.58726
    endloop
  endfacet
  facet normal 0.875213 -0 0.483737
    outer loop
      vertex 22.0148 -2 13.8328
      vertex 23.4252 2 11.281
      vertex 22.0148 2 13.8328
    endloop
  endfacet
  facet normal 0.875213 0 0.483737
    outer loop
      vertex 23.4252 2 11.281
      vertex 22.0148 -2 13.8328
      vertex 23.4252 -2 11.281
    endloop
  endfacet
  facet normal 0.382688 0 0.923878
    outer loop
      vertex 8.58726 2 24.541
      vertex 11.281 -2 23.4252
      vertex 11.281 2 23.4252
    endloop
  endfacet
  facet normal 0.382688 0 0.923878
    outer loop
      vertex 11.281 -2 23.4252
      vertex 8.58726 2 24.541
      vertex 8.58726 -2 24.541
    endloop
  endfacet
  facet normal 0.276816 0 0.960923
    outer loop
      vertex 5.78554 2 25.3481
      vertex 8.58726 -2 24.541
      vertex 8.58726 2 24.541
    endloop
  endfacet
  facet normal 0.276816 0 0.960923
    outer loop
      vertex 8.58726 -2 24.541
      vertex 5.78554 2 25.3481
      vertex 5.78554 -2 25.3481
    endloop
  endfacet
  facet normal 0.578669 0 0.815562
    outer loop
      vertex 13.8328 2 22.0148
      vertex 16.2107 -2 20.3276
      vertex 16.2107 2 20.3276
    endloop
  endfacet
  facet normal 0.578669 0 0.815562
    outer loop
      vertex 16.2107 -2 20.3276
      vertex 13.8328 2 22.0148
      vertex 13.8328 -2 22.0148
    endloop
  endfacet
  facet normal -0.923878 0 0.382688
    outer loop
      vertex -24.541 -2 8.58726
      vertex -23.4252 2 11.281
      vertex -24.541 2 8.58726
    endloop
  endfacet
  facet normal -0.923878 0 0.382688
    outer loop
      vertex -23.4252 2 11.281
      vertex -24.541 -2 8.58726
      vertex -23.4252 -2 11.281
    endloop
  endfacet
  facet normal -0.960923 0 0.276816
    outer loop
      vertex -25.3481 -2 5.78554
      vertex -24.541 2 8.58726
      vertex -25.3481 2 5.78554
    endloop
  endfacet
  facet normal -0.960923 0 0.276816
    outer loop
      vertex -24.541 2 8.58726
      vertex -25.3481 -2 5.78554
      vertex -24.541 -2 8.58726
    endloop
  endfacet
  facet normal -0.167509 0 0.98587
    outer loop
      vertex -5.78554 2 25.3481
      vertex -2.91108 -2 25.8365
      vertex -2.91108 2 25.8365
    endloop
  endfacet
  facet normal -0.167509 0 0.98587
    outer loop
      vertex -2.91108 -2 25.8365
      vertex -5.78554 2 25.3481
      vertex -5.78554 -2 25.3481
    endloop
  endfacet
  facet normal 0.923878 0 -0.382688
    outer loop
      vertex 24.541 -2 -8.58726
      vertex 23.4252 2 -11.281
      vertex 24.541 2 -8.58726
    endloop
  endfacet
  facet normal 0.923878 0 -0.382688
    outer loop
      vertex 23.4252 2 -11.281
      vertex 24.541 -2 -8.58726
      vertex 23.4252 -2 -11.281
    endloop
  endfacet
  facet normal -0.382688 0 -0.923878
    outer loop
      vertex -11.281 -2 -23.4252
      vertex -8.58726 2 -24.541
      vertex -8.58726 -2 -24.541
    endloop
  endfacet
  facet normal -0.382688 0 -0.923878
    outer loop
      vertex -8.58726 2 -24.541
      vertex -11.281 -2 -23.4252
      vertex -11.281 2 -23.4252
    endloop
  endfacet
  facet normal -0.276816 0 -0.960923
    outer loop
      vertex -8.58726 -2 -24.541
      vertex -5.78554 2 -25.3481
      vertex -5.78554 -2 -25.3481
    endloop
  endfacet
  facet normal -0.276816 0 -0.960923
    outer loop
      vertex -5.78554 2 -25.3481
      vertex -8.58726 -2 -24.541
      vertex -8.58726 2 -24.541
    endloop
  endfacet
  facet normal 0 1 0
    outer loop
      vertex 0 2 19
      vertex 0 2 26
      vertex 2.91108 2 25.8365
    endloop
  endfacet
  facet normal 0 1 0
    outer loop
      vertex 2.12732 2 18.8805
      vertex 2.91108 2 25.8365
      vertex 5.78554 2 25.3481
    endloop
  endfacet
  facet normal 0 1 0
    outer loop
      vertex 0 2 26
      vertex 0 2 19
      vertex -2.91108 2 25.8365
    endloop
  endfacet
  facet normal 0 1 0
    outer loop
      vertex 4.2279 2 18.5236
      vertex 5.78554 2 25.3481
      vertex 8.58726 2 24.541
    endloop
  endfacet
  facet normal 0 1 -0
    outer loop
      vertex -2.12732 2 18.8805
      vertex -2.91108 2 25.8365
      vertex 0 2 19
    endloop
  endfacet
  facet normal 0 1 0
    outer loop
      vertex 6.2753 2 17.9338
      vertex 8.58726 2 24.541
      vertex 11.281 2 23.4252
    endloop
  endfacet
  facet normal 0 1 0
    outer loop
      vertex -2.91108 2 25.8365
      vertex -2.12732 2 18.8805
      vertex -5.78554 2 25.3481
    endloop
  endfacet
  facet normal 0 1 0
    outer loop
      vertex 8.24379 2 17.1184
      vertex 11.281 2 23.4252
      vertex 13.8328 2 22.0148
    endloop
  endfacet
  facet normal 0 1 -0
    outer loop
      vertex -4.2279 2 18.5236
      vertex -5.78554 2 25.3481
      vertex -2.12732 2 18.8805
    endloop
  endfacet
  facet normal 0 1 0
    outer loop
      vertex 10.1086 2 16.0878
      vertex 13.8328 2 22.0148
      vertex 16.2107 2 20.3276
    endloop
  endfacet
  facet normal 0 1 0
    outer loop
      vertex -5.78554 2 25.3481
      vertex -4.2279 2 18.5236
      vertex -8.58726 2 24.541
    endloop
  endfacet
  facet normal 0 1 -0
    outer loop
      vertex -6.2753 2 17.9338
      vertex -8.58726 2 24.541
      vertex -4.2279 2 18.5236
    endloop
  endfacet
  facet normal 0 1 0
    outer loop
      vertex 2.91108 2 25.8365
      vertex 2.12732 2 18.8805
      vertex 0 2 19
    endloop
  endfacet
  facet normal 0 1 0
    outer loop
      vertex 5.78554 2 25.3481
      vertex 4.2279 2 18.5236
      vertex 2.12732 2 18.8805
    endloop
  endfacet
  facet normal 0 1 0
    outer loop
      vertex 11.8463 2 14.8548
      vertex 16.2107 2 20.3276
      vertex 18.3848 2 18.3848
    endloop
  endfacet
  facet normal 0 1 0
    outer loop
      vertex 8.58726 2 24.541
      vertex 6.2753 2 17.9338
      vertex 4.2279 2 18.5236
    endloop
  endfacet
  facet normal 0 1 0
    outer loop
      vertex 11.281 2 23.4252
      vertex 8.24379 2 17.1184
      vertex 6.2753 2 17.9338
    endloop
  endfacet
  facet normal 0 1 0
    outer loop
      vertex 13.435 2 13.435
      vertex 18.3848 2 18.3848
      vertex 20.3276 2 16.2107
    endloop
  endfacet
  facet normal 0 1 0
    outer loop
      vertex 13.8328 2 22.0148
      vertex 10.1086 2 16.0878
      vertex 8.24379 2 17.1184
    endloop
  endfacet
  facet normal 0 1 0
    outer loop
      vertex 16.2107 2 20.3276
      vertex 11.8463 2 14.8548
      vertex 10.1086 2 16.0878
    endloop
  endfacet
  facet normal 0 1 0
    outer loop
      vertex 14.8548 2 11.8463
      vertex 20.3276 2 16.2107
      vertex 22.0148 2 13.8328
    endloop
  endfacet
  facet normal 0 1 0
    outer loop
      vertex 18.3848 2 18.3848
      vertex 13.435 2 13.435
      vertex 11.8463 2 14.8548
    endloop
  endfacet
  facet normal 0 1 0
    outer loop
      vertex 20.3276 2 16.2107
      vertex 14.8548 2 11.8463
      vertex 13.435 2 13.435
    endloop
  endfacet
  facet normal 0 1 0
    outer loop
      vertex 16.0878 2 10.1086
      vertex 22.0148 2 13.8328
      vertex 23.4252 2 11.281
    endloop
  endfacet
  facet normal 0 1 0
    outer loop
      vertex 22.0148 2 13.8328
      vertex 16.0878 2 10.1086
      vertex 14.8548 2 11.8463
    endloop
  endfacet
  facet normal 0 1 0
    outer loop
      vertex 17.1184 2 8.24379
      vertex 23.4252 2 11.281
      vertex 24.541 2 8.58726
    endloop
  endfacet
  facet normal 0 1 0
    outer loop
      vertex 23.4252 2 11.281
      vertex 17.1184 2 8.24379
      vertex 16.0878 2 10.1086
    endloop
  endfacet
  facet normal 0 1 0
    outer loop
      vertex 24.541 2 8.58726
      vertex 17.9338 2 6.2753
      vertex 17.1184 2 8.24379
    endloop
  endfacet
  facet normal 0 1 0
    outer loop
      vertex 25.3481 2 5.78554
      vertex 17.9338 2 6.2753
      vertex 24.541 2 8.58726
    endloop
  endfacet
  facet normal 0 1 0
    outer loop
      vertex 25.3481 2 5.78554
      vertex 18.5236 2 4.2279
      vertex 17.9338 2 6.2753
    endloop
  endfacet
  facet normal 0 1 0
    outer loop
      vertex 25.8365 2 2.91108
      vertex 18.5236 2 4.2279
      vertex 25.3481 2 5.78554
    endloop
  endfacet
  facet normal 0 1 0
    outer loop
      vertex 25.8365 2 2.91108
      vertex 18.8805 2 2.12732
      vertex 18.5236 2 4.2279
    endloop
  endfacet
  facet normal 0 1 0
    outer loop
      vertex 26 2 0
      vertex 18.8805 2 2.12732
      vertex 25.8365 2 2.91108
    endloop
  endfacet
  facet normal 0 1 0
    outer loop
      vertex 26 2 0
      vertex 19 2 0
      vertex 18.8805 2 2.12732
    endloop
  endfacet
  facet normal 0 1 0
    outer loop
      vertex 26 2 0
      vertex 18.8805 2 -2.12732
      vertex 19 2 0
    endloop
  endfacet
  facet normal 0 1 -0
    outer loop
      vertex 25.8365 2 -2.91108
      vertex 18.8805 2 -2.12732
      vertex 26 2 0
    endloop
  endfacet
  facet normal 0 1 0
    outer loop
      vertex 25.8365 2 -2.91108
      vertex 18.5236 2 -4.2279
      vertex 18.8805 2 -2.12732
    endloop
  endfacet
  facet normal 0 1 -0
    outer loop
      vertex 25.3481 2 -5.78554
      vertex 18.5236 2 -4.2279
      vertex 25.8365 2 -2.91108
    endloop
  endfacet
  facet normal 0 1 0
    outer loop
      vertex 25.3481 2 -5.78554
      vertex 17.9338 2 -6.2753
      vertex 18.5236 2 -4.2279
    endloop
  endfacet
  facet normal 0 1 -0
    outer loop
      vertex 24.541 2 -8.58726
      vertex 17.9338 2 -6.2753
      vertex 25.3481 2 -5.78554
    endloop
  endfacet
  facet normal 0 1 0
    outer loop
      vertex 17.9338 2 -6.2753
      vertex 24.541 2 -8.58726
      vertex 17.1184 2 -8.24379
    endloop
  endfacet
  facet normal 0 1 -0
    outer loop
      vertex 23.4252 2 -11.281
      vertex 17.1184 2 -8.24379
      vertex 24.541 2 -8.58726
    endloop
  endfacet
  facet normal 0 1 0
    outer loop
      vertex 17.1184 2 -8.24379
      vertex 23.4252 2 -11.281
      vertex 16.0878 2 -10.1086
    endloop
  endfacet
  facet normal 0 1 -0
    outer loop
      vertex 22.0148 2 -13.8328
      vertex 16.0878 2 -10.1086
      vertex 23.4252 2 -11.281
    endloop
  endfacet
  facet normal 0 1 0
    outer loop
      vertex 16.0878 2 -10.1086
      vertex 22.0148 2 -13.8328
      vertex 14.8548 2 -11.8463
    endloop
  endfacet
  facet normal 0 1 -0
    outer loop
      vertex 20.3276 2 -16.2107
      vertex 14.8548 2 -11.8463
      vertex 22.0148 2 -13.8328
    endloop
  endfacet
  facet normal 0 1 0
    outer loop
      vertex 14.8548 2 -11.8463
      vertex 20.3276 2 -16.2107
      vertex 13.435 2 -13.435
    endloop
  endfacet
  facet normal 0 1 -0
    outer loop
      vertex 18.3848 2 -18.3848
      vertex 13.435 2 -13.435
      vertex 20.3276 2 -16.2107
    endloop
  endfacet
  facet normal 0 1 0
    outer loop
      vertex 13.435 2 -13.435
      vertex 18.3848 2 -18.3848
      vertex 11.8463 2 -14.8548
    endloop
  endfacet
  facet normal 0 1 -0
    outer loop
      vertex 16.2107 2 -20.3276
      vertex 11.8463 2 -14.8548
      vertex 18.3848 2 -18.3848
    endloop
  endfacet
  facet normal 0 1 0
    outer loop
      vertex 11.8463 2 -14.8548
      vertex 16.2107 2 -20.3276
      vertex 10.1086 2 -16.0878
    endloop
  endfacet
  facet normal 0 1 -0
    outer loop
      vertex 13.8328 2 -22.0148
      vertex 10.1086 2 -16.0878
      vertex 16.2107 2 -20.3276
    endloop
  endfacet
  facet normal 0 1 0
    outer loop
      vertex 10.1086 2 -16.0878
      vertex 13.8328 2 -22.0148
      vertex 8.24379 2 -17.1184
    endloop
  endfacet
  facet normal 0 1 -0
    outer loop
      vertex 11.281 2 -23.4252
      vertex 8.24379 2 -17.1184
      vertex 13.8328 2 -22.0148
    endloop
  endfacet
  facet normal 0 1 0
    outer loop
      vertex 8.24379 2 -17.1184
      vertex 11.281 2 -23.4252
      vertex 6.2753 2 -17.9338
    endloop
  endfacet
  facet normal 0 1 -0
    outer loop
      vertex 8.58726 2 -24.541
      vertex 6.2753 2 -17.9338
      vertex 11.281 2 -23.4252
    endloop
  endfacet
  facet normal 0 1 0
    outer loop
      vertex -8.58726 2 24.541
      vertex -6.2753 2 17.9338
      vertex -11.281 2 23.4252
    endloop
  endfacet
  facet normal 0 1 -0
    outer loop
      vertex -8.24379 2 17.1184
      vertex -11.281 2 23.4252
      vertex -6.2753 2 17.9338
    endloop
  endfacet
  facet normal 0 1 0
    outer loop
      vertex -11.281 2 23.4252
      vertex -8.24379 2 17.1184
      vertex -13.8328 2 22.0148
    endloop
  endfacet
  facet normal 0 1 -0
    outer loop
      vertex -10.1086 2 16.0878
      vertex -13.8328 2 22.0148
      vertex -8.24379 2 17.1184
    endloop
  endfacet
  facet normal 0 1 0
    outer loop
      vertex -13.8328 2 22.0148
      vertex -10.1086 2 16.0878
      vertex -16.2107 2 20.3276
    endloop
  endfacet
  facet normal 0 1 -0
    outer loop
      vertex -11.8463 2 14.8548
      vertex -16.2107 2 20.3276
      vertex -10.1086 2 16.0878
    endloop
  endfacet
  facet normal 0 1 0
    outer loop
      vertex -16.2107 2 20.3276
      vertex -11.8463 2 14.8548
      vertex -18.3848 2 18.3848
    endloop
  endfacet
  facet normal 0 1 -0
    outer loop
      vertex -13.435 2 13.435
      vertex -18.3848 2 18.3848
      vertex -11.8463 2 14.8548
    endloop
  endfacet
  facet normal 0 1 0
    outer loop
      vertex -18.3848 2 18.3848
      vertex -13.435 2 13.435
      vertex -20.3276 2 16.2107
    endloop
  endfacet
  facet normal 0 1 -0
    outer loop
      vertex -14.8548 2 11.8463
      vertex -20.3276 2 16.2107
      vertex -13.435 2 13.435
    endloop
  endfacet
  facet normal 0 1 0
    outer loop
      vertex -20.3276 2 16.2107
      vertex -14.8548 2 11.8463
      vertex -22.0148 2 13.8328
    endloop
  endfacet
  facet normal 0 1 -0
    outer loop
      vertex -16.0878 2 10.1086
      vertex -22.0148 2 13.8328
      vertex -14.8548 2 11.8463
    endloop
  endfacet
  facet normal 0 1 0
    outer loop
      vertex -22.0148 2 13.8328
      vertex -16.0878 2 10.1086
      vertex -23.4252 2 11.281
    endloop
  endfacet
  facet normal 0 1 -0
    outer loop
      vertex -17.1184 2 8.24379
      vertex -23.4252 2 11.281
      vertex -16.0878 2 10.1086
    endloop
  endfacet
  facet normal 0 1 0
    outer loop
      vertex -23.4252 2 11.281
      vertex -17.1184 2 8.24379
      vertex -24.541 2 8.58726
    endloop
  endfacet
  facet normal 0 1 -0
    outer loop
      vertex -17.9338 2 6.2753
      vertex -24.541 2 8.58726
      vertex -17.1184 2 8.24379
    endloop
  endfacet
  facet normal 0 1 0
    outer loop
      vertex -17.9338 2 6.2753
      vertex -25.3481 2 5.78554
      vertex -24.541 2 8.58726
    endloop
  endfacet
  facet normal 0 1 -0
    outer loop
      vertex -18.5236 2 4.2279
      vertex -25.3481 2 5.78554
      vertex -17.9338 2 6.2753
    endloop
  endfacet
  facet normal 0 1 0
    outer loop
      vertex -18.5236 2 4.2279
      vertex -25.8365 2 2.91108
      vertex -25.3481 2 5.78554
    endloop
  endfacet
  facet normal 0 1 -0
    outer loop
      vertex -18.8805 2 2.12732
      vertex -25.8365 2 2.91108
      vertex -18.5236 2 4.2279
    endloop
  endfacet
  facet normal 0 1 -0
    outer loop
      vertex -19 2 0
      vertex -25.8365 2 2.91108
      vertex -18.8805 2 2.12732
    endloop
  endfacet
  facet normal 0 1 0
    outer loop
      vertex -19 2 0
      vertex -26 2 0
      vertex -25.8365 2 2.91108
    endloop
  endfacet
  facet normal 0 1 0
    outer loop
      vertex -18.8805 2 -2.12732
      vertex -26 2 0
      vertex -19 2 0
    endloop
  endfacet
  facet normal 0 1 0
    outer loop
      vertex -18.8805 2 -2.12732
      vertex -25.8365 2 -2.91108
      vertex -26 2 0
    endloop
  endfacet
  facet normal 0 1 0
    outer loop
      vertex -18.5236 2 -4.2279
      vertex -25.8365 2 -2.91108
      vertex -18.8805 2 -2.12732
    endloop
  endfacet
  facet normal 0 1 0
    outer loop
      vertex -18.5236 2 -4.2279
      vertex -25.3481 2 -5.78554
      vertex -25.8365 2 -2.91108
    endloop
  endfacet
  facet normal 0 1 0
    outer loop
      vertex -17.9338 2 -6.2753
      vertex -25.3481 2 -5.78554
      vertex -18.5236 2 -4.2279
    endloop
  endfacet
  facet normal 0 1 0
    outer loop
      vertex -24.541 2 -8.58726
      vertex -17.9338 2 -6.2753
      vertex -17.1184 2 -8.24379
    endloop
  endfacet
  facet normal 0 1 0
    outer loop
      vertex -17.9338 2 -6.2753
      vertex -24.541 2 -8.58726
      vertex -25.3481 2 -5.78554
    endloop
  endfacet
  facet normal 0 1 0
    outer loop
      vertex -23.4252 2 -11.281
      vertex -17.1184 2 -8.24379
      vertex -16.0878 2 -10.1086
    endloop
  endfacet
  facet normal 0 1 0
    outer loop
      vertex -17.1184 2 -8.24379
      vertex -23.4252 2 -11.281
      vertex -24.541 2 -8.58726
    endloop
  endfacet
  facet normal 0 1 0
    outer loop
      vertex -22.0148 2 -13.8328
      vertex -16.0878 2 -10.1086
      vertex -14.8548 2 -11.8463
    endloop
  endfacet
  facet normal 0 1 0
    outer loop
      vertex -20.3276 2 -16.2107
      vertex -14.8548 2 -11.8463
      vertex -13.435 2 -13.435
    endloop
  endfacet
  facet normal 0 1 0
    outer loop
      vertex -16.0878 2 -10.1086
      vertex -22.0148 2 -13.8328
      vertex -23.4252 2 -11.281
    endloop
  endfacet
  facet normal 0 1 0
    outer loop
      vertex -18.3848 2 -18.3848
      vertex -13.435 2 -13.435
      vertex -11.8463 2 -14.8548
    endloop
  endfacet
  facet normal 0 1 0
    outer loop
      vertex -16.2107 2 -20.3276
      vertex -11.8463 2 -14.8548
      vertex -10.1086 2 -16.0878
    endloop
  endfacet
  facet normal 0 1 0
    outer loop
      vertex -14.8548 2 -11.8463
      vertex -20.3276 2 -16.2107
      vertex -22.0148 2 -13.8328
    endloop
  endfacet
  facet normal 0 1 0
    outer loop
      vertex -13.8328 2 -22.0148
      vertex -10.1086 2 -16.0878
      vertex -8.24379 2 -17.1184
    endloop
  endfacet
  facet normal 0 1 0
    outer loop
      vertex -11.281 2 -23.4252
      vertex -8.24379 2 -17.1184
      vertex -6.2753 2 -17.9338
    endloop
  endfacet
  facet normal 0 1 0
    outer loop
      vertex -13.435 2 -13.435
      vertex -18.3848 2 -18.3848
      vertex -20.3276 2 -16.2107
    endloop
  endfacet
  facet normal 0 1 0
    outer loop
      vertex -8.58726 2 -24.541
      vertex -6.2753 2 -17.9338
      vertex -4.2279 2 -18.5236
    endloop
  endfacet
  facet normal 0 1 0
    outer loop
      vertex -5.78554 2 -25.3481
      vertex -4.2279 2 -18.5236
      vertex -2.12732 2 -18.8805
    endloop
  endfacet
  facet normal 0 1 0
    outer loop
      vertex -2.91108 2 -25.8365
      vertex -2.12732 2 -18.8805
      vertex 0 2 -19
    endloop
  endfacet
  facet normal 0 1 0
    outer loop
      vertex 6.2753 2 -17.9338
      vertex 8.58726 2 -24.541
      vertex 4.2279 2 -18.5236
    endloop
  endfacet
  facet normal 0 1 0
    outer loop
      vertex -11.8463 2 -14.8548
      vertex -16.2107 2 -20.3276
      vertex -18.3848 2 -18.3848
    endloop
  endfacet
  facet normal 0 1 -0
    outer loop
      vertex 5.78554 2 -25.3481
      vertex 4.2279 2 -18.5236
      vertex 8.58726 2 -24.541
    endloop
  endfacet
  facet normal 0 1 0
    outer loop
      vertex -10.1086 2 -16.0878
      vertex -13.8328 2 -22.0148
      vertex -16.2107 2 -20.3276
    endloop
  endfacet
  facet normal 0 1 0
    outer loop
      vertex 4.2279 2 -18.5236
      vertex 5.78554 2 -25.3481
      vertex 2.12732 2 -18.8805
    endloop
  endfacet
  facet normal 0 1 0
    outer loop
      vertex -8.24379 2 -17.1184
      vertex -11.281 2 -23.4252
      vertex -13.8328 2 -22.0148
    endloop
  endfacet
  facet normal 0 1 -0
    outer loop
      vertex 2.91108 2 -25.8365
      vertex 2.12732 2 -18.8805
      vertex 5.78554 2 -25.3481
    endloop
  endfacet
  facet normal 0 1 0
    outer loop
      vertex -6.2753 2 -17.9338
      vertex -8.58726 2 -24.541
      vertex -11.281 2 -23.4252
    endloop
  endfacet
  facet normal 0 1 0
    outer loop
      vertex 2.12732 2 -18.8805
      vertex 2.91108 2 -25.8365
      vertex 0 2 -19
    endloop
  endfacet
  facet normal 0 1 0
    outer loop
      vertex -4.2279 2 -18.5236
      vertex -5.78554 2 -25.3481
      vertex -8.58726 2 -24.541
    endloop
  endfacet
  facet normal 0 1 0
    outer loop
      vertex 0 2 -26
      vertex 0 2 -19
      vertex 2.91108 2 -25.8365
    endloop
  endfacet
  facet normal 0 1 0
    outer loop
      vertex -2.12732 2 -18.8805
      vertex -2.91108 2 -25.8365
      vertex -5.78554 2 -25.3481
    endloop
  endfacet
  facet normal 0 1 0
    outer loop
      vertex 0 2 -19
      vertex 0 2 -26
      vertex -2.91108 2 -25.8365
    endloop
  endfacet
  facet normal 0.960923 -0 0.276816
    outer loop
      vertex 24.541 -2 8.58726
      vertex 25.3481 2 5.78554
      vertex 24.541 2 8.58726
    endloop
  endfacet
  facet normal 0.960923 0 0.276816
    outer loop
      vertex 25.3481 2 5.78554
      vertex 24.541 -2 8.58726
      vertex 25.3481 -2 5.78554
    endloop
  endfacet
  facet normal 0.98587 -0 0.167509
    outer loop
      vertex 25.3481 -2 5.78554
      vertex 25.8365 2 2.91108
      vertex 25.3481 2 5.78554
    endloop
  endfacet
  facet normal 0.98587 0 0.167509
    outer loop
      vertex 25.8365 2 2.91108
      vertex 25.3481 -2 5.78554
      vertex 25.8365 -2 2.91108
    endloop
  endfacet
  facet normal 0.815562 -0 0.578669
    outer loop
      vertex 20.3276 -2 16.2107
      vertex 22.0148 2 13.8328
      vertex 20.3276 2 16.2107
    endloop
  endfacet
  facet normal 0.815562 0 0.578669
    outer loop
      vertex 22.0148 2 13.8328
      vertex 20.3276 -2 16.2107
      vertex 22.0148 -2 13.8328
    endloop
  endfacet
  facet normal 0.167509 0 0.98587
    outer loop
      vertex 2.91108 2 25.8365
      vertex 5.78554 -2 25.3481
      vertex 5.78554 2 25.3481
    endloop
  endfacet
  facet normal 0.167509 0 0.98587
    outer loop
      vertex 5.78554 -2 25.3481
      vertex 2.91108 2 25.8365
      vertex 2.91108 -2 25.8365
    endloop
  endfacet
  facet normal 0.483737 0 0.875213
    outer loop
      vertex 11.281 2 23.4252
      vertex 13.8328 -2 22.0148
      vertex 13.8328 2 22.0148
    endloop
  endfacet
  facet normal 0.483737 0 0.875213
    outer loop
      vertex 13.8328 -2 22.0148
      vertex 11.281 2 23.4252
      vertex 11.281 -2 23.4252
    endloop
  endfacet
  facet normal 0.666329 0 0.745658
    outer loop
      vertex 16.2107 2 20.3276
      vertex 18.3848 -2 18.3848
      vertex 18.3848 2 18.3848
    endloop
  endfacet
  facet normal 0.666329 0 0.745658
    outer loop
      vertex 18.3848 -2 18.3848
      vertex 16.2107 2 20.3276
      vertex 16.2107 -2 20.3276
    endloop
  endfacet
  facet normal -0.815562 0 0.578669
    outer loop
      vertex -22.0148 -2 13.8328
      vertex -20.3276 2 16.2107
      vertex -22.0148 2 13.8328
    endloop
  endfacet
  facet normal -0.815562 0 0.578669
    outer loop
      vertex -20.3276 2 16.2107
      vertex -22.0148 -2 13.8328
      vertex -20.3276 -2 16.2107
    endloop
  endfacet
  facet normal -0.745658 0 0.666329
    outer loop
      vertex -20.3276 -2 16.2107
      vertex -18.3848 2 18.3848
      vertex -20.3276 2 16.2107
    endloop
  endfacet
  facet normal -0.745658 0 0.666329
    outer loop
      vertex -18.3848 2 18.3848
      vertex -20.3276 -2 16.2107
      vertex -18.3848 -2 18.3848
    endloop
  endfacet
  facet normal -0.875213 0 0.483737
    outer loop
      vertex -23.4252 -2 11.281
      vertex -22.0148 2 13.8328
      vertex -23.4252 2 11.281
    endloop
  endfacet
  facet normal -0.875213 0 0.483737
    outer loop
      vertex -22.0148 2 13.8328
      vertex -23.4252 -2 11.281
      vertex -22.0148 -2 13.8328
    endloop
  endfacet
  facet normal -0.98587 0 0.167509
    outer loop
      vertex -25.8365 -2 2.91108
      vertex -25.3481 2 5.78554
      vertex -25.8365 2 2.91108
    endloop
  endfacet
  facet normal -0.98587 0 0.167509
    outer loop
      vertex -25.3481 2 5.78554
      vertex -25.8365 -2 2.91108
      vertex -25.3481 -2 5.78554
    endloop
  endfacet
  facet normal 0 -1 0
    outer loop
      vertex 0 -2 19
      vertex 0 -2 26
      vertex -2.91108 -2 25.8365
    endloop
  endfacet
  facet normal 0 -1 0
    outer loop
      vertex -2.12732 -2 18.8805
      vertex -2.91108 -2 25.8365
      vertex -5.78554 -2 25.3481
    endloop
  endfacet
  facet normal 0 -1 0
    outer loop
      vertex 0 -2 26
      vertex 0 -2 19
      vertex 2.91108 -2 25.8365
    endloop
  endfacet
  facet normal 0 -1 0
    outer loop
      vertex -4.2279 -2 18.5236
      vertex -5.78554 -2 25.3481
      vertex -8.58726 -2 24.541
    endloop
  endfacet
  facet normal 0 -1 0
    outer loop
      vertex 2.12732 -2 18.8805
      vertex 2.91108 -2 25.8365
      vertex 0 -2 19
    endloop
  endfacet
  facet normal 0 -1 0
    outer loop
      vertex -6.2753 -2 17.9338
      vertex -8.58726 -2 24.541
      vertex -11.281 -2 23.4252
    endloop
  endfacet
  facet normal 0 -1 -0
    outer loop
      vertex 2.91108 -2 25.8365
      vertex 2.12732 -2 18.8805
      vertex 5.78554 -2 25.3481
    endloop
  endfacet
  facet normal 0 -1 0
    outer loop
      vertex -8.24379 -2 17.1184
      vertex -11.281 -2 23.4252
      vertex -13.8328 -2 22.0148
    endloop
  endfacet
  facet normal 0 -1 0
    outer loop
      vertex 4.2279 -2 18.5236
      vertex 5.78554 -2 25.3481
      vertex 2.12732 -2 18.8805
    endloop
  endfacet
  facet normal 0 -1 0
    outer loop
      vertex -10.1086 -2 16.0878
      vertex -13.8328 -2 22.0148
      vertex -16.2107 -2 20.3276
    endloop
  endfacet
  facet normal 0 -1 -0
    outer loop
      vertex 5.78554 -2 25.3481
      vertex 4.2279 -2 18.5236
      vertex 8.58726 -2 24.541
    endloop
  endfacet
  facet normal 0 -1 0
    outer loop
      vertex 6.2753 -2 17.9338
      vertex 8.58726 -2 24.541
      vertex 4.2279 -2 18.5236
    endloop
  endfacet
  facet normal 0 -1 0
    outer loop
      vertex -2.91108 -2 25.8365
      vertex -2.12732 -2 18.8805
      vertex 0 -2 19
    endloop
  endfacet
  facet normal 0 -1 0
    outer loop
      vertex -5.78554 -2 25.3481
      vertex -4.2279 -2 18.5236
      vertex -2.12732 -2 18.8805
    endloop
  endfacet
  facet normal 0 -1 0
    outer loop
      vertex -11.8463 -2 14.8548
      vertex -16.2107 -2 20.3276
      vertex -18.3848 -2 18.3848
    endloop
  endfacet
  facet normal 0 -1 0
    outer loop
      vertex -8.58726 -2 24.541
      vertex -6.2753 -2 17.9338
      vertex -4.2279 -2 18.5236
    endloop
  endfacet
  facet normal 0 -1 0
    outer loop
      vertex -11.281 -2 23.4252
      vertex -8.24379 -2 17.1184
      vertex -6.2753 -2 17.9338
    endloop
  endfacet
  facet normal 0 -1 0
    outer loop
      vertex -13.435 -2 13.435
      vertex -18.3848 -2 18.3848
      vertex -20.3276 -2 16.2107
    endloop
  endfacet
  facet normal 0 -1 0
    outer loop
      vertex -13.8328 -2 22.0148
      vertex -10.1086 -2 16.0878
      vertex -8.24379 -2 17.1184
    endloop
  endfacet
  facet normal 0 -1 0
    outer loop
      vertex -16.2107 -2 20.3276
      vertex -11.8463 -2 14.8548
      vertex -10.1086 -2 16.0878
    endloop
  endfacet
  facet normal 0 -1 0
    outer loop
      vertex -14.8548 -2 11.8463
      vertex -20.3276 -2 16.2107
      vertex -22.0148 -2 13.8328
    endloop
  endfacet
  facet normal 0 -1 0
    outer loop
      vertex -18.3848 -2 18.3848
      vertex -13.435 -2 13.435
      vertex -11.8463 -2 14.8548
    endloop
  endfacet
  facet normal 0 -1 0
    outer loop
      vertex -20.3276 -2 16.2107
      vertex -14.8548 -2 11.8463
      vertex -13.435 -2 13.435
    endloop
  endfacet
  facet normal 0 -1 0
    outer loop
      vertex -16.0878 -2 10.1086
      vertex -22.0148 -2 13.8328
      vertex -23.4252 -2 11.281
    endloop
  endfacet
  facet normal 0 -1 0
    outer loop
      vertex -22.0148 -2 13.8328
      vertex -16.0878 -2 10.1086
      vertex -14.8548 -2 11.8463
    endloop
  endfacet
  facet normal 0 -1 0
    outer loop
      vertex -17.1184 -2 8.24379
      vertex -23.4252 -2 11.281
      vertex -24.541 -2 8.58726
    endloop
  endfacet
  facet normal 0 -1 0
    outer loop
      vertex -23.4252 -2 11.281
      vertex -17.1184 -2 8.24379
      vertex -16.0878 -2 10.1086
    endloop
  endfacet
  facet normal 0 -1 0
    outer loop
      vertex -24.541 -2 8.58726
      vertex -17.9338 -2 6.2753
      vertex -17.1184 -2 8.24379
    endloop
  endfacet
  facet normal 0 -1 0
    outer loop
      vertex -25.3481 -2 5.78554
      vertex -17.9338 -2 6.2753
      vertex -24.541 -2 8.58726
    endloop
  endfacet
  facet normal 0 -1 0
    outer loop
      vertex -25.3481 -2 5.78554
      vertex -18.5236 -2 4.2279
      vertex -17.9338 -2 6.2753
    endloop
  endfacet
  facet normal 0 -1 0
    outer loop
      vertex -25.8365 -2 2.91108
      vertex -18.5236 -2 4.2279
      vertex -25.3481 -2 5.78554
    endloop
  endfacet
  facet normal 0 -1 0
    outer loop
      vertex -25.8365 -2 2.91108
      vertex -18.8805 -2 2.12732
      vertex -18.5236 -2 4.2279
    endloop
  endfacet
  facet normal 0 -1 0
    outer loop
      vertex -26 -2 0
      vertex -18.8805 -2 2.12732
      vertex -25.8365 -2 2.91108
    endloop
  endfacet
  facet normal 0 -1 0
    outer loop
      vertex -26 -2 0
      vertex -19 -2 0
      vertex -18.8805 -2 2.12732
    endloop
  endfacet
  facet normal 0 -1 0
    outer loop
      vertex -26 -2 0
      vertex -18.8805 -2 -2.12732
      vertex -19 -2 0
    endloop
  endfacet
  facet normal 0 -1 0
    outer loop
      vertex -25.8365 -2 -2.91108
      vertex -18.8805 -2 -2.12732
      vertex -26 -2 0
    endloop
  endfacet
  facet normal 0 -1 0
    outer loop
      vertex -25.8365 -2 -2.91108
      vertex -18.5236 -2 -4.2279
      vertex -18.8805 -2 -2.12732
    endloop
  endfacet
  facet normal 0 -1 0
    outer loop
      vertex -25.3481 -2 -5.78554
      vertex -18.5236 -2 -4.2279
      vertex -25.8365 -2 -2.91108
    endloop
  endfacet
  facet normal 0 -1 0
    outer loop
      vertex -25.3481 -2 -5.78554
      vertex -17.9338 -2 -6.2753
      vertex -18.5236 -2 -4.2279
    endloop
  endfacet
  facet normal 0 -1 0
    outer loop
      vertex -24.541 -2 -8.58726
      vertex -17.9338 -2 -6.2753
      vertex -25.3481 -2 -5.78554
    endloop
  endfacet
  facet normal 0 -1 -0
    outer loop
      vertex -17.9338 -2 -6.2753
      vertex -24.541 -2 -8.58726
      vertex -17.1184 -2 -8.24379
    endloop
  endfacet
  facet normal 0 -1 0
    outer loop
      vertex -23.4252 -2 -11.281
      vertex -17.1184 -2 -8.24379
      vertex -24.541 -2 -8.58726
    endloop
  endfacet
  facet normal 0 -1 -0
    outer loop
      vertex -17.1184 -2 -8.24379
      vertex -23.4252 -2 -11.281
      vertex -16.0878 -2 -10.1086
    endloop
  endfacet
  facet normal 0 -1 0
    outer loop
      vertex -22.0148 -2 -13.8328
      vertex -16.0878 -2 -10.1086
      vertex -23.4252 -2 -11.281
    endloop
  endfacet
  facet normal 0 -1 -0
    outer loop
      vertex -16.0878 -2 -10.1086
      vertex -22.0148 -2 -13.8328
      vertex -14.8548 -2 -11.8463
    endloop
  endfacet
  facet normal 0 -1 0
    outer loop
      vertex -20.3276 -2 -16.2107
      vertex -14.8548 -2 -11.8463
      vertex -22.0148 -2 -13.8328
    endloop
  endfacet
  facet normal 0 -1 -0
    outer loop
      vertex -14.8548 -2 -11.8463
      vertex -20.3276 -2 -16.2107
      vertex -13.435 -2 -13.435
    endloop
  endfacet
  facet normal 0 -1 0
    outer loop
      vertex -18.3848 -2 -18.3848
      vertex -13.435 -2 -13.435
      vertex -20.3276 -2 -16.2107
    endloop
  endfacet
  facet normal 0 -1 -0
    outer loop
      vertex -13.435 -2 -13.435
      vertex -18.3848 -2 -18.3848
      vertex -11.8463 -2 -14.8548
    endloop
  endfacet
  facet normal 0 -1 0
    outer loop
      vertex -16.2107 -2 -20.3276
      vertex -11.8463 -2 -14.8548
      vertex -18.3848 -2 -18.3848
    endloop
  endfacet
  facet normal 0 -1 -0
    outer loop
      vertex -11.8463 -2 -14.8548
      vertex -16.2107 -2 -20.3276
      vertex -10.1086 -2 -16.0878
    endloop
  endfacet
  facet normal 0 -1 0
    outer loop
      vertex -13.8328 -2 -22.0148
      vertex -10.1086 -2 -16.0878
      vertex -16.2107 -2 -20.3276
    endloop
  endfacet
  facet normal 0 -1 -0
    outer loop
      vertex -10.1086 -2 -16.0878
      vertex -13.8328 -2 -22.0148
      vertex -8.24379 -2 -17.1184
    endloop
  endfacet
  facet normal 0 -1 0
    outer loop
      vertex -11.281 -2 -23.4252
      vertex -8.24379 -2 -17.1184
      vertex -13.8328 -2 -22.0148
    endloop
  endfacet
  facet normal 0 -1 -0
    outer loop
      vertex -8.24379 -2 -17.1184
      vertex -11.281 -2 -23.4252
      vertex -6.2753 -2 -17.9338
    endloop
  endfacet
  facet normal 0 -1 0
    outer loop
      vertex -8.58726 -2 -24.541
      vertex -6.2753 -2 -17.9338
      vertex -11.281 -2 -23.4252
    endloop
  endfacet
  facet normal 0 -1 -0
    outer loop
      vertex 8.58726 -2 24.541
      vertex 6.2753 -2 17.9338
      vertex 11.281 -2 23.4252
    endloop
  endfacet
  facet normal 0 -1 0
    outer loop
      vertex 8.24379 -2 17.1184
      vertex 11.281 -2 23.4252
      vertex 6.2753 -2 17.9338
    endloop
  endfacet
  facet normal 0 -1 -0
    outer loop
      vertex 11.281 -2 23.4252
      vertex 8.24379 -2 17.1184
      vertex 13.8328 -2 22.0148
    endloop
  endfacet
  facet normal 0 -1 0
    outer loop
      vertex 10.1086 -2 16.0878
      vertex 13.8328 -2 22.0148
      vertex 8.24379 -2 17.1184
    endloop
  endfacet
  facet normal 0 -1 -0
    outer loop
      vertex 13.8328 -2 22.0148
      vertex 10.1086 -2 16.0878
      vertex 16.2107 -2 20.3276
    endloop
  endfacet
  facet normal 0 -1 0
    outer loop
      vertex 11.8463 -2 14.8548
      vertex 16.2107 -2 20.3276
      vertex 10.1086 -2 16.0878
    endloop
  endfacet
  facet normal 0 -1 -0
    outer loop
      vertex 16.2107 -2 20.3276
      vertex 11.8463 -2 14.8548
      vertex 18.3848 -2 18.3848
    endloop
  endfacet
  facet normal 0 -1 0
    outer loop
      vertex 13.435 -2 13.435
      vertex 18.3848 -2 18.3848
      vertex 11.8463 -2 14.8548
    endloop
  endfacet
  facet normal 0 -1 -0
    outer loop
      vertex 18.3848 -2 18.3848
      vertex 13.435 -2 13.435
      vertex 20.3276 -2 16.2107
    endloop
  endfacet
  facet normal 0 -1 0
    outer loop
      vertex 14.8548 -2 11.8463
      vertex 20.3276 -2 16.2107
      vertex 13.435 -2 13.435
    endloop
  endfacet
  facet normal 0 -1 -0
    outer loop
      vertex 20.3276 -2 16.2107
      vertex 14.8548 -2 11.8463
      vertex 22.0148 -2 13.8328
    endloop
  endfacet
  facet normal 0 -1 0
    outer loop
      vertex 16.0878 -2 10.1086
      vertex 22.0148 -2 13.8328
      vertex 14.8548 -2 11.8463
    endloop
  endfacet
  facet normal 0 -1 -0
    outer loop
      vertex 22.0148 -2 13.8328
      vertex 16.0878 -2 10.1086
      vertex 23.4252 -2 11.281
    endloop
  endfacet
  facet normal 0 -1 0
    outer loop
      vertex 17.1184 -2 8.24379
      vertex 23.4252 -2 11.281
      vertex 16.0878 -2 10.1086
    endloop
  endfacet
  facet normal 0 -1 -0
    outer loop
      vertex 23.4252 -2 11.281
      vertex 17.1184 -2 8.24379
      vertex 24.541 -2 8.58726
    endloop
  endfacet
  facet normal 0 -1 0
    outer loop
      vertex 17.9338 -2 6.2753
      vertex 24.541 -2 8.58726
      vertex 17.1184 -2 8.24379
    endloop
  endfacet
  facet normal 0 -1 0
    outer loop
      vertex 17.9338 -2 6.2753
      vertex 25.3481 -2 5.78554
      vertex 24.541 -2 8.58726
    endloop
  endfacet
  facet normal 0 -1 0
    outer loop
      vertex 18.5236 -2 4.2279
      vertex 25.3481 -2 5.78554
      vertex 17.9338 -2 6.2753
    endloop
  endfacet
  facet normal 0 -1 0
    outer loop
      vertex 18.5236 -2 4.2279
      vertex 25.8365 -2 2.91108
      vertex 25.3481 -2 5.78554
    endloop
  endfacet
  facet normal 0 -1 0
    outer loop
      vertex 18.8805 -2 2.12732
      vertex 25.8365 -2 2.91108
      vertex 18.5236 -2 4.2279
    endloop
  endfacet
  facet normal 0 -1 0
    outer loop
      vertex 19 -2 0
      vertex 25.8365 -2 2.91108
      vertex 18.8805 -2 2.12732
    endloop
  endfacet
  facet normal 0 -1 0
    outer loop
      vertex 19 -2 0
      vertex 26 -2 0
      vertex 25.8365 -2 2.91108
    endloop
  endfacet
  facet normal 0 -1 0
    outer loop
      vertex 18.8805 -2 -2.12732
      vertex 26 -2 0
      vertex 19 -2 0
    endloop
  endfacet
  facet normal 0 -1 0
    outer loop
      vertex 18.8805 -2 -2.12732
      vertex 25.8365 -2 -2.91108
      vertex 26 -2 0
    endloop
  endfacet
  facet normal 0 -1 0
    outer loop
      vertex 18.5236 -2 -4.2279
      vertex 25.8365 -2 -2.91108
      vertex 18.8805 -2 -2.12732
    endloop
  endfacet
  facet normal 0 -1 0
    outer loop
      vertex 18.5236 -2 -4.2279
      vertex 25.3481 -2 -5.78554
      vertex 25.8365 -2 -2.91108
    endloop
  endfacet
  facet normal 0 -1 0
    outer loop
      vertex 17.9338 -2 -6.2753
      vertex 25.3481 -2 -5.78554
      vertex 18.5236 -2 -4.2279
    endloop
  endfacet
  facet normal 0 -1 0
    outer loop
      vertex 24.541 -2 -8.58726
      vertex 17.9338 -2 -6.2753
      vertex 17.1184 -2 -8.24379
    endloop
  endfacet
  facet normal 0 -1 0
    outer loop
      vertex 17.9338 -2 -6.2753
      vertex 24.541 -2 -8.58726
      vertex 25.3481 -2 -5.78554
    endloop
  endfacet
  facet normal 0 -1 0
    outer loop
      vertex 23.4252 -2 -11.281
      vertex 17.1184 -2 -8.24379
      vertex 16.0878 -2 -10.1086
    endloop
  endfacet
  facet normal 0 -1 0
    outer loop
      vertex 17.1184 -2 -8.24379
      vertex 23.4252 -2 -11.281
      vertex 24.541 -2 -8.58726
    endloop
  endfacet
  facet normal 0 -1 0
    outer loop
      vertex 22.0148 -2 -13.8328
      vertex 16.0878 -2 -10.1086
      vertex 14.8548 -2 -11.8463
    endloop
  endfacet
  facet normal 0 -1 0
    outer loop
      vertex 20.3276 -2 -16.2107
      vertex 14.8548 -2 -11.8463
      vertex 13.435 -2 -13.435
    endloop
  endfacet
  facet normal 0 -1 0
    outer loop
      vertex 16.0878 -2 -10.1086
      vertex 22.0148 -2 -13.8328
      vertex 23.4252 -2 -11.281
    endloop
  endfacet
  facet normal 0 -1 0
    outer loop
      vertex 18.3848 -2 -18.3848
      vertex 13.435 -2 -13.435
      vertex 11.8463 -2 -14.8548
    endloop
  endfacet
  facet normal 0 -1 0
    outer loop
      vertex 16.2107 -2 -20.3276
      vertex 11.8463 -2 -14.8548
      vertex 10.1086 -2 -16.0878
    endloop
  endfacet
  facet normal 0 -1 0
    outer loop
      vertex 14.8548 -2 -11.8463
      vertex 20.3276 -2 -16.2107
      vertex 22.0148 -2 -13.8328
    endloop
  endfacet
  facet normal 0 -1 0
    outer loop
      vertex 13.8328 -2 -22.0148
      vertex 10.1086 -2 -16.0878
      vertex 8.24379 -2 -17.1184
    endloop
  endfacet
  facet normal 0 -1 0
    outer loop
      vertex 11.281 -2 -23.4252
      vertex 8.24379 -2 -17.1184
      vertex 6.2753 -2 -17.9338
    endloop
  endfacet
  facet normal 0 -1 0
    outer loop
      vertex 13.435 -2 -13.435
      vertex 18.3848 -2 -18.3848
      vertex 20.3276 -2 -16.2107
    endloop
  endfacet
  facet normal 0 -1 0
    outer loop
      vertex 8.58726 -2 -24.541
      vertex 6.2753 -2 -17.9338
      vertex 4.2279 -2 -18.5236
    endloop
  endfacet
  facet normal 0 -1 0
    outer loop
      vertex 5.78554 -2 -25.3481
      vertex 4.2279 -2 -18.5236
      vertex 2.12732 -2 -18.8805
    endloop
  endfacet
  facet normal 0 -1 0
    outer loop
      vertex 2.91108 -2 -25.8365
      vertex 2.12732 -2 -18.8805
      vertex 0 -2 -19
    endloop
  endfacet
  facet normal 0 -1 -0
    outer loop
      vertex -6.2753 -2 -17.9338
      vertex -8.58726 -2 -24.541
      vertex -4.2279 -2 -18.5236
    endloop
  endfacet
  facet normal 0 -1 0
    outer loop
      vertex 11.8463 -2 -14.8548
      vertex 16.2107 -2 -20.3276
      vertex 18.3848 -2 -18.3848
    endloop
  endfacet
  facet normal 0 -1 0
    outer loop
      vertex -5.78554 -2 -25.3481
      vertex -4.2279 -2 -18.5236
      vertex -8.58726 -2 -24.541
    endloop
  endfacet
  facet normal 0 -1 0
    outer loop
      vertex 10.1086 -2 -16.0878
      vertex 13.8328 -2 -22.0148
      vertex 16.2107 -2 -20.3276
    endloop
  endfacet
  facet normal 0 -1 -0
    outer loop
      vertex -4.2279 -2 -18.5236
      vertex -5.78554 -2 -25.3481
      vertex -2.12732 -2 -18.8805
    endloop
  endfacet
  facet normal 0 -1 0
    outer loop
      vertex 8.24379 -2 -17.1184
      vertex 11.281 -2 -23.4252
      vertex 13.8328 -2 -22.0148
    endloop
  endfacet
  facet normal 0 -1 0
    outer loop
      vertex -2.91108 -2 -25.8365
      vertex -2.12732 -2 -18.8805
      vertex -5.78554 -2 -25.3481
    endloop
  endfacet
  facet normal 0 -1 0
    outer loop
      vertex 6.2753 -2 -17.9338
      vertex 8.58726 -2 -24.541
      vertex 11.281 -2 -23.4252
    endloop
  endfacet
  facet normal 0 -1 -0
    outer loop
      vertex -2.12732 -2 -18.8805
      vertex -2.91108 -2 -25.8365
      vertex 0 -2 -19
    endloop
  endfacet
  facet normal 0 -1 0
    outer loop
      vertex 4.2279 -2 -18.5236
      vertex 5.78554 -2 -25.3481
      vertex 8.58726 -2 -24.541
    endloop
  endfacet
  facet normal 0 -1 0
    outer loop
      vertex 0 -2 -26
      vertex 0 -2 -19
      vertex -2.91108 -2 -25.8365
    endloop
  endfacet
  facet normal 0 -1 0
    outer loop
      vertex 2.12732 -2 -18.8805
      vertex 2.91108 -2 -25.8365
      vertex 5.78554 -2 -25.3481
    endloop
  endfacet
  facet normal 0 -1 0
    outer loop
      vertex 0 -2 -19
      vertex 0 -2 -26
      vertex 2.91108 -2 -25.8365
    endloop
  endfacet
  facet normal -0.483737 0 0.875213
    outer loop
      vertex -13.8328 2 22.0148
      vertex -11.281 -2 23.4252
      vertex -11.281 2 23.4252
    endloop
  endfacet
  facet normal -0.483737 0 0.875213
    outer loop
      vertex -11.281 -2 23.4252
      vertex -13.8328 2 22.0148
      vertex -13.8328 -2 22.0148
    endloop
  endfacet
  facet normal -0.382688 0 0.923878
    outer loop
      vertex -11.281 2 23.4252
      vertex -8.58726 -2 24.541
      vertex -8.58726 2 24.541
    endloop
  endfacet
  facet normal -0.382688 0 0.923878
    outer loop
      vertex -8.58726 -2 24.541
      vertex -11.281 2 23.4252
      vertex -11.281 -2 23.4252
    endloop
  endfacet
  facet normal -0.578669 0 0.815562
    outer loop
      vertex -16.2107 2 20.3276
      vertex -13.8328 -2 22.0148
      vertex -13.8328 2 22.0148
    endloop
  endfacet
  facet normal -0.578669 0 0.815562
    outer loop
      vertex -13.8328 -2 22.0148
      vertex -16.2107 2 20.3276
      vertex -16.2107 -2 20.3276
    endloop
  endfacet
  facet normal -0.0560763 0 0.998426
    outer loop
      vertex -2.91108 2 25.8365
      vertex 0 -2 26
      vertex 0 2 26
    endloop
  endfacet
  facet normal -0.0560763 0 0.998426
    outer loop
      vertex 0 -2 26
      vertex -2.91108 2 25.8365
      vertex -2.91108 -2 25.8365
    endloop
  endfacet
  facet normal 0.0560763 0 -0.998426
    outer loop
      vertex 0 -2 -26
      vertex 2.91108 2 -25.8365
      vertex 2.91108 -2 -25.8365
    endloop
  endfacet
  facet normal 0.0560763 0 -0.998426
    outer loop
      vertex 2.91108 2 -25.8365
      vertex 0 -2 -26
      vertex 0 2 -26
    endloop
  endfacet
  facet normal 0.276816 0 -0.960923
    outer loop
      vertex 5.78554 -2 -25.3481
      vertex 8.58726 2 -24.541
      vertex 8.58726 -2 -24.541
    endloop
  endfacet
  facet normal 0.276816 0 -0.960923
    outer loop
      vertex 8.58726 2 -24.541
      vertex 5.78554 -2 -25.3481
      vertex 5.78554 2 -25.3481
    endloop
  endfacet
  facet normal 0.578669 0 -0.815562
    outer loop
      vertex 13.8328 -2 -22.0148
      vertex 16.2107 2 -20.3276
      vertex 16.2107 -2 -20.3276
    endloop
  endfacet
  facet normal 0.578669 0 -0.815562
    outer loop
      vertex 16.2107 2 -20.3276
      vertex 13.8328 -2 -22.0148
      vertex 13.8328 2 -22.0148
    endloop
  endfacet
  facet normal 0.382688 0 -0.923878
    outer loop
      vertex 8.58726 -2 -24.541
      vertex 11.281 2 -23.4252
      vertex 11.281 -2 -23.4252
    endloop
  endfacet
  facet normal 0.382688 0 -0.923878
    outer loop
      vertex 11.281 2 -23.4252
      vertex 8.58726 -2 -24.541
      vertex 8.58726 2 -24.541
    endloop
  endfacet
  facet normal 0.745658 0 -0.666329
    outer loop
      vertex 20.3276 -2 -16.2107
      vertex 18.3848 2 -18.3848
      vertex 20.3276 2 -16.2107
    endloop
  endfacet
  facet normal 0.745658 0 -0.666329
    outer loop
      vertex 18.3848 2 -18.3848
      vertex 20.3276 -2 -16.2107
      vertex 18.3848 -2 -18.3848
    endloop
  endfacet
  facet normal 0.875213 0 -0.483737
    outer loop
      vertex 23.4252 -2 -11.281
      vertex 22.0148 2 -13.8328
      vertex 23.4252 2 -11.281
    endloop
  endfacet
  facet normal 0.875213 0 -0.483737
    outer loop
      vertex 22.0148 2 -13.8328
      vertex 23.4252 -2 -11.281
      vertex 22.0148 -2 -13.8328
    endloop
  endfacet
  facet normal -0.666329 0 -0.745658
    outer loop
      vertex -18.3848 -2 -18.3848
      vertex -16.2107 2 -20.3276
      vertex -16.2107 -2 -20.3276
    endloop
  endfacet
  facet normal -0.666329 0 -0.745658
    outer loop
      vertex -16.2107 2 -20.3276
      vertex -18.3848 -2 -18.3848
      vertex -18.3848 2 -18.3848
    endloop
  endfacet
  facet normal -0.483737 0 -0.875213
    outer loop
      vertex -13.8328 -2 -22.0148
      vertex -11.281 2 -23.4252
      vertex -11.281 -2 -23.4252
    endloop
  endfacet
  facet normal -0.483737 0 -0.875213
    outer loop
      vertex -11.281 2 -23.4252
      vertex -13.8328 -2 -22.0148
      vertex -13.8328 2 -22.0148
    endloop
  endfacet
  facet normal -0.167509 0 -0.98587
    outer loop
      vertex -5.78554 -2 -25.3481
      vertex -2.91108 2 -25.8365
      vertex -2.91108 -2 -25.8365
    endloop
  endfacet
  facet normal -0.167509 0 -0.98587
    outer loop
      vertex -2.91108 2 -25.8365
      vertex -5.78554 -2 -25.3481
      vertex -5.78554 2 -25.3481
    endloop
  endfacet
  facet normal -0.923878 0 -0.382688
    outer loop
      vertex -23.4252 -2 -11.281
      vertex -24.541 2 -8.58726
      vertex -23.4252 2 -11.281
    endloop
  endfacet
  facet normal -0.923878 -0 -0.382688
    outer loop
      vertex -24.541 2 -8.58726
      vertex -23.4252 -2 -11.281
      vertex -24.541 -2 -8.58726
    endloop
  endfacet
  facet normal -0.815562 0 -0.578669
    outer loop
      vertex -20.3276 -2 -16.2107
      vertex -22.0148 2 -13.8328
      vertex -20.3276 2 -16.2107
    endloop
  endfacet
  facet normal -0.815562 -0 -0.578669
    outer loop
      vertex -22.0148 2 -13.8328
      vertex -20.3276 -2 -16.2107
      vertex -22.0148 -2 -13.8328
    endloop
  endfacet
  facet normal -0.960923 0 -0.276816
    outer loop
      vertex -24.541 -2 -8.58726
      vertex -25.3481 2 -5.78554
      vertex -24.541 2 -8.58726
    endloop
  endfacet
  facet normal -0.960923 -0 -0.276816
    outer loop
      vertex -25.3481 2 -5.78554
      vertex -24.541 -2 -8.58726
      vertex -25.3481 -2 -5.78554
    endloop
  endfacet
  facet normal -0.998426 0 -0.0560763
    outer loop
      vertex -25.8365 -2 -2.91108
      vertex -26 2 0
      vertex -25.8365 2 -2.91108
    endloop
  endfacet
  facet normal -0.998426 -0 -0.0560763
    outer loop
      vertex -26 2 0
      vertex -25.8365 -2 -2.91108
      vertex -26 -2 0
    endloop
  endfacet
  facet normal 0.167509 0 -0.98587
    outer loop
      vertex 2.91108 -2 -25.8365
      vertex 5.78554 2 -25.3481
      vertex 5.78554 -2 -25.3481
    endloop
  endfacet
  facet normal 0.167509 0 -0.98587
    outer loop
      vertex 5.78554 2 -25.3481
      vertex 2.91108 -2 -25.8365
      vertex 2.91108 2 -25.8365
    endloop
  endfacet
  facet normal 0.666329 0 -0.745658
    outer loop
      vertex 16.2107 -2 -20.3276
      vertex 18.3848 2 -18.3848
      vertex 18.3848 -2 -18.3848
    endloop
  endfacet
  facet normal 0.666329 0 -0.745658
    outer loop
      vertex 18.3848 2 -18.3848
      vertex 16.2107 -2 -20.3276
      vertex 16.2107 2 -20.3276
    endloop
  endfacet
  facet normal 0.483737 0 -0.875213
    outer loop
      vertex 11.281 -2 -23.4252
      vertex 13.8328 2 -22.0148
      vertex 13.8328 -2 -22.0148
    endloop
  endfacet
  facet normal 0.483737 0 -0.875213
    outer loop
      vertex 13.8328 2 -22.0148
      vertex 11.281 -2 -23.4252
      vertex 11.281 2 -23.4252
    endloop
  endfacet
  facet normal 0.815562 0 -0.578669
    outer loop
      vertex 22.0148 -2 -13.8328
      vertex 20.3276 2 -16.2107
      vertex 22.0148 2 -13.8328
    endloop
  endfacet
  facet normal 0.815562 0 -0.578669
    outer loop
      vertex 20.3276 2 -16.2107
      vertex 22.0148 -2 -13.8328
      vertex 20.3276 -2 -16.2107
    endloop
  endfacet
  facet normal 0.98587 0 -0.167509
    outer loop
      vertex 25.8365 -2 -2.91108
      vertex 25.3481 2 -5.78554
      vertex 25.8365 2 -2.91108
    endloop
  endfacet
  facet normal 0.98587 0 -0.167509
    outer loop
      vertex 25.3481 2 -5.78554
      vertex 25.8365 -2 -2.91108
      vertex 25.3481 -2 -5.78554
    endloop
  endfacet
  facet normal 0.960923 0 -0.276816
    outer loop
      vertex 25.3481 -2 -5.78554
      vertex 24.541 2 -8.58726
      vertex 25.3481 2 -5.78554
    endloop
  endfacet
  facet normal 0.960923 0 -0.276816
    outer loop
      vertex 24.541 2 -8.58726
      vertex 25.3481 -2 -5.78554
      vertex 24.541 -2 -8.58726
    endloop
  endfacet
  facet normal 0.998426 0 -0.0560763
    outer loop
      vertex 26 -2 0
      vertex 25.8365 2 -2.91108
      vertex 26 2 0
    endloop
  endfacet
  facet normal 0.998426 0 -0.0560763
    outer loop
      vertex 25.8365 2 -2.91108
      vertex 26 -2 0
      vertex 25.8365 -2 -2.91108
    endloop
  endfacet
  facet normal -0.578669 0 -0.815562
    outer loop
      vertex -16.2107 -2 -20.3276
      vertex -13.8328 2 -22.0148
      vertex -13.8328 -2 -22.0148
    endloop
  endfacet
  facet normal -0.578669 0 -0.815562
    outer loop
      vertex -13.8328 2 -22.0148
      vertex -16.2107 -2 -20.3276
      vertex -16.2107 2 -20.3276
    endloop
  endfacet
  facet normal -0.0560763 0 -0.998426
    outer loop
      vertex -2.91108 -2 -25.8365
      vertex 0 2 -26
      vertex 0 -2 -26
    endloop
  endfacet
  facet normal -0.0560763 0 -0.998426
    outer loop
      vertex 0 2 -26
      vertex -2.91108 -2 -25.8365
      vertex -2.91108 2 -25.8365
    endloop
  endfacet
  facet normal -0.875213 0 -0.483737
    outer loop
      vertex -22.0148 -2 -13.8328
      vertex -23.4252 2 -11.281
      vertex -22.0148 2 -13.8328
    endloop
  endfacet
  facet normal -0.875213 -0 -0.483737
    outer loop
      vertex -23.4252 2 -11.281
      vertex -22.0148 -2 -13.8328
      vertex -23.4252 -2 -11.281
    endloop
  endfacet
  facet normal -0.745658 0 -0.666329
    outer loop
      vertex -18.3848 -2 -18.3848
      vertex -20.3276 2 -16.2107
      vertex -18.3848 2 -18.3848
    endloop
  endfacet
  facet normal -0.745658 -0 -0.666329
    outer loop
      vertex -20.3276 2 -16.2107
      vertex -18.3848 -2 -18.3848
      vertex -20.3276 -2 -16.2107
    endloop
  endfacet
  facet normal -0.98587 0 -0.167509
    outer loop
      vertex -25.3481 -2 -5.78554
      vertex -25.8365 2 -2.91108
      vertex -25.3481 2 -5.78554
    endloop
  endfacet
  facet normal -0.98587 -0 -0.167509
    outer loop
      vertex -25.8365 2 -2.91108
      vertex -25.3481 -2 -5.78554
      vertex -25.8365 -2 -2.91108
    endloop
  endfacet
  facet normal -0.998426 0 -0.0560855
    outer loop
      vertex 19 -2 0
      vertex 18.8805 2 2.12732
      vertex 19 2 0
    endloop
  endfacet
  facet normal -0.998426 -0 -0.0560855
    outer loop
      vertex 18.8805 2 2.12732
      vertex 19 -2 0
      vertex 18.8805 -2 2.12732
    endloop
  endfacet
  facet normal 0.998426 0 -0.0560855
    outer loop
      vertex -18.8805 -2 2.12732
      vertex -19 2 0
      vertex -18.8805 2 2.12732
    endloop
  endfacet
  facet normal 0.998426 0 -0.0560855
    outer loop
      vertex -19 2 0
      vertex -18.8805 -2 2.12732
      vertex -19 -2 0
    endloop
  endfacet
  facet normal -0.0560855 0 -0.998426
    outer loop
      vertex 0 -2 19
      vertex 2.12732 2 18.8805
      vertex 2.12732 -2 18.8805
    endloop
  endfacet
  facet normal -0.0560855 0 -0.998426
    outer loop
      vertex 2.12732 2 18.8805
      vertex 0 -2 19
      vertex 0 2 19
    endloop
  endfacet
  facet normal 0.0560855 0 0.998426
    outer loop
      vertex -2.12732 2 -18.8805
      vertex 0 -2 -19
      vertex 0 2 -19
    endloop
  endfacet
  facet normal 0.0560855 0 0.998426
    outer loop
      vertex 0 -2 -19
      vertex -2.12732 2 -18.8805
      vertex -2.12732 -2 -18.8805
    endloop
  endfacet
  facet normal -0.66636 0 -0.74563
    outer loop
      vertex 11.8463 -2 14.8548
      vertex 13.435 2 13.435
      vertex 13.435 -2 13.435
    endloop
  endfacet
  facet normal -0.66636 0 -0.74563
    outer loop
      vertex 13.435 2 13.435
      vertex 11.8463 -2 14.8548
      vertex 11.8463 2 14.8548
    endloop
  endfacet
  facet normal 0.66636 0 -0.74563
    outer loop
      vertex -13.435 -2 13.435
      vertex -11.8463 2 14.8548
      vertex -11.8463 -2 14.8548
    endloop
  endfacet
  facet normal 0.66636 0 -0.74563
    outer loop
      vertex -11.8463 2 14.8548
      vertex -13.435 -2 13.435
      vertex -13.435 2 13.435
    endloop
  endfacet
  facet normal 0.382693 0 -0.923875
    outer loop
      vertex -8.24379 -2 17.1184
      vertex -6.2753 2 17.9338
      vertex -6.2753 -2 17.9338
    endloop
  endfacet
  facet normal 0.382693 0 -0.923875
    outer loop
      vertex -6.2753 2 17.9338
      vertex -8.24379 -2 17.1184
      vertex -8.24379 2 17.1184
    endloop
  endfacet
  facet normal 0.923875 -0 0.382693
    outer loop
      vertex -17.9338 -2 -6.2753
      vertex -17.1184 2 -8.24379
      vertex -17.9338 2 -6.2753
    endloop
  endfacet
  facet normal 0.923875 0 0.382693
    outer loop
      vertex -17.1184 2 -8.24379
      vertex -17.9338 -2 -6.2753
      vertex -17.1184 -2 -8.24379
    endloop
  endfacet
  facet normal -0.923875 0 -0.382693
    outer loop
      vertex 17.9338 -2 6.2753
      vertex 17.1184 2 8.24379
      vertex 17.9338 2 6.2753
    endloop
  endfacet
  facet normal -0.923875 -0 -0.382693
    outer loop
      vertex 17.1184 2 8.24379
      vertex 17.9338 -2 6.2753
      vertex 17.1184 -2 8.24379
    endloop
  endfacet
  facet normal -0.985871 0 -0.167505
    outer loop
      vertex 18.8805 -2 2.12732
      vertex 18.5236 2 4.2279
      vertex 18.8805 2 2.12732
    endloop
  endfacet
  facet normal -0.985871 -0 -0.167505
    outer loop
      vertex 18.5236 2 4.2279
      vertex 18.8805 -2 2.12732
      vertex 18.5236 -2 4.2279
    endloop
  endfacet
  facet normal -0.382693 0 -0.923875
    outer loop
      vertex 6.2753 -2 17.9338
      vertex 8.24379 2 17.1184
      vertex 8.24379 -2 17.1184
    endloop
  endfacet
  facet normal -0.382693 0 -0.923875
    outer loop
      vertex 8.24379 2 17.1184
      vertex 6.2753 -2 17.9338
      vertex 6.2753 2 17.9338
    endloop
  endfacet
  facet normal -0.276816 0 -0.960923
    outer loop
      vertex 4.2279 -2 18.5236
      vertex 6.2753 2 17.9338
      vertex 6.2753 -2 17.9338
    endloop
  endfacet
  facet normal -0.276816 0 -0.960923
    outer loop
      vertex 6.2753 2 17.9338
      vertex 4.2279 -2 18.5236
      vertex 4.2279 2 18.5236
    endloop
  endfacet
  facet normal -0.483703 0 -0.875232
    outer loop
      vertex 8.24379 -2 17.1184
      vertex 10.1086 2 16.0878
      vertex 10.1086 -2 16.0878
    endloop
  endfacet
  facet normal -0.483703 0 -0.875232
    outer loop
      vertex 10.1086 2 16.0878
      vertex 8.24379 -2 17.1184
      vertex 8.24379 2 17.1184
    endloop
  endfacet
  facet normal 0.875232 0 -0.483703
    outer loop
      vertex -16.0878 -2 10.1086
      vertex -17.1184 2 8.24379
      vertex -16.0878 2 10.1086
    endloop
  endfacet
  facet normal 0.875232 0 -0.483703
    outer loop
      vertex -17.1184 2 8.24379
      vertex -16.0878 -2 10.1086
      vertex -17.1184 -2 8.24379
    endloop
  endfacet
  facet normal 0.74563 0 -0.66636
    outer loop
      vertex -13.435 -2 13.435
      vertex -14.8548 2 11.8463
      vertex -13.435 2 13.435
    endloop
  endfacet
  facet normal 0.74563 0 -0.66636
    outer loop
      vertex -14.8548 2 11.8463
      vertex -13.435 -2 13.435
      vertex -14.8548 -2 11.8463
    endloop
  endfacet
  facet normal 0.167505 0 -0.985871
    outer loop
      vertex -4.2279 -2 18.5236
      vertex -2.12732 2 18.8805
      vertex -2.12732 -2 18.8805
    endloop
  endfacet
  facet normal 0.167505 0 -0.985871
    outer loop
      vertex -2.12732 2 18.8805
      vertex -4.2279 -2 18.5236
      vertex -4.2279 2 18.5236
    endloop
  endfacet
  facet normal 0.66636 0 0.74563
    outer loop
      vertex -13.435 2 -13.435
      vertex -11.8463 -2 -14.8548
      vertex -11.8463 2 -14.8548
    endloop
  endfacet
  facet normal 0.66636 0 0.74563
    outer loop
      vertex -11.8463 -2 -14.8548
      vertex -13.435 2 -13.435
      vertex -13.435 -2 -13.435
    endloop
  endfacet
  facet normal -0.960923 0 -0.276816
    outer loop
      vertex 18.5236 -2 4.2279
      vertex 17.9338 2 6.2753
      vertex 18.5236 2 4.2279
    endloop
  endfacet
  facet normal -0.960923 -0 -0.276816
    outer loop
      vertex 17.9338 2 6.2753
      vertex 18.5236 -2 4.2279
      vertex 17.9338 -2 6.2753
    endloop
  endfacet
  facet normal -0.815553 0 -0.578683
    outer loop
      vertex 16.0878 -2 10.1086
      vertex 14.8548 2 11.8463
      vertex 16.0878 2 10.1086
    endloop
  endfacet
  facet normal -0.815553 -0 -0.578683
    outer loop
      vertex 14.8548 2 11.8463
      vertex 16.0878 -2 10.1086
      vertex 14.8548 -2 11.8463
    endloop
  endfacet
  facet normal -0.74563 0 -0.66636
    outer loop
      vertex 14.8548 -2 11.8463
      vertex 13.435 2 13.435
      vertex 14.8548 2 11.8463
    endloop
  endfacet
  facet normal -0.74563 -0 -0.66636
    outer loop
      vertex 13.435 2 13.435
      vertex 14.8548 -2 11.8463
      vertex 13.435 -2 13.435
    endloop
  endfacet
  facet normal -0.875232 0 -0.483703
    outer loop
      vertex 17.1184 -2 8.24379
      vertex 16.0878 2 10.1086
      vertex 17.1184 2 8.24379
    endloop
  endfacet
  facet normal -0.875232 -0 -0.483703
    outer loop
      vertex 16.0878 2 10.1086
      vertex 17.1184 -2 8.24379
      vertex 16.0878 -2 10.1086
    endloop
  endfacet
  facet normal -0.167505 0 -0.985871
    outer loop
      vertex 2.12732 -2 18.8805
      vertex 4.2279 2 18.5236
      vertex 4.2279 -2 18.5236
    endloop
  endfacet
  facet normal -0.167505 0 -0.985871
    outer loop
      vertex 4.2279 2 18.5236
      vertex 2.12732 -2 18.8805
      vertex 2.12732 2 18.8805
    endloop
  endfacet
  facet normal -0.578683 0 -0.815553
    outer loop
      vertex 10.1086 -2 16.0878
      vertex 11.8463 2 14.8548
      vertex 11.8463 -2 14.8548
    endloop
  endfacet
  facet normal -0.578683 0 -0.815553
    outer loop
      vertex 11.8463 2 14.8548
      vertex 10.1086 -2 16.0878
      vertex 10.1086 2 16.0878
    endloop
  endfacet
  facet normal 0.960923 0 -0.276816
    outer loop
      vertex -17.9338 -2 6.2753
      vertex -18.5236 2 4.2279
      vertex -17.9338 2 6.2753
    endloop
  endfacet
  facet normal 0.960923 0 -0.276816
    outer loop
      vertex -18.5236 2 4.2279
      vertex -17.9338 -2 6.2753
      vertex -18.5236 -2 4.2279
    endloop
  endfacet
  facet normal 0.815553 0 -0.578683
    outer loop
      vertex -14.8548 -2 11.8463
      vertex -16.0878 2 10.1086
      vertex -14.8548 2 11.8463
    endloop
  endfacet
  facet normal 0.815553 0 -0.578683
    outer loop
      vertex -16.0878 2 10.1086
      vertex -14.8548 -2 11.8463
      vertex -16.0878 -2 10.1086
    endloop
  endfacet
  facet normal 0.923875 0 -0.382693
    outer loop
      vertex -17.1184 -2 8.24379
      vertex -17.9338 2 6.2753
      vertex -17.1184 2 8.24379
    endloop
  endfacet
  facet normal 0.923875 0 -0.382693
    outer loop
      vertex -17.9338 2 6.2753
      vertex -17.1184 -2 8.24379
      vertex -17.9338 -2 6.2753
    endloop
  endfacet
  facet normal 0.985871 0 -0.167505
    outer loop
      vertex -18.5236 -2 4.2279
      vertex -18.8805 2 2.12732
      vertex -18.5236 2 4.2279
    endloop
  endfacet
  facet normal 0.985871 0 -0.167505
    outer loop
      vertex -18.8805 2 2.12732
      vertex -18.5236 -2 4.2279
      vertex -18.8805 -2 2.12732
    endloop
  endfacet
  facet normal 0.483703 0 -0.875232
    outer loop
      vertex -10.1086 -2 16.0878
      vertex -8.24379 2 17.1184
      vertex -8.24379 -2 17.1184
    endloop
  endfacet
  facet normal 0.483703 0 -0.875232
    outer loop
      vertex -8.24379 2 17.1184
      vertex -10.1086 -2 16.0878
      vertex -10.1086 2 16.0878
    endloop
  endfacet
  facet normal 0.578683 0 -0.815553
    outer loop
      vertex -11.8463 -2 14.8548
      vertex -10.1086 2 16.0878
      vertex -10.1086 -2 16.0878
    endloop
  endfacet
  facet normal 0.578683 0 -0.815553
    outer loop
      vertex -10.1086 2 16.0878
      vertex -11.8463 -2 14.8548
      vertex -11.8463 2 14.8548
    endloop
  endfacet
  facet normal 0.276816 0 -0.960923
    outer loop
      vertex -6.2753 -2 17.9338
      vertex -4.2279 2 18.5236
      vertex -4.2279 -2 18.5236
    endloop
  endfacet
  facet normal 0.276816 0 -0.960923
    outer loop
      vertex -4.2279 2 18.5236
      vertex -6.2753 -2 17.9338
      vertex -6.2753 2 17.9338
    endloop
  endfacet
  facet normal 0.0560855 0 -0.998426
    outer loop
      vertex -2.12732 -2 18.8805
      vertex 0 2 19
      vertex 0 -2 19
    endloop
  endfacet
  facet normal 0.0560855 0 -0.998426
    outer loop
      vertex 0 2 19
      vertex -2.12732 -2 18.8805
      vertex -2.12732 2 18.8805
    endloop
  endfacet
  facet normal -0.0560855 0 0.998426
    outer loop
      vertex 0 2 -19
      vertex 2.12732 -2 -18.8805
      vertex 2.12732 2 -18.8805
    endloop
  endfacet
  facet normal -0.0560855 0 0.998426
    outer loop
      vertex 2.12732 -2 -18.8805
      vertex 0 2 -19
      vertex 0 -2 -19
    endloop
  endfacet
  facet normal -0.276816 0 0.960923
    outer loop
      vertex 4.2279 2 -18.5236
      vertex 6.2753 -2 -17.9338
      vertex 6.2753 2 -17.9338
    endloop
  endfacet
  facet normal -0.276816 0 0.960923
    outer loop
      vertex 6.2753 -2 -17.9338
      vertex 4.2279 2 -18.5236
      vertex 4.2279 -2 -18.5236
    endloop
  endfacet
  facet normal -0.66636 0 0.74563
    outer loop
      vertex 11.8463 2 -14.8548
      vertex 13.435 -2 -13.435
      vertex 13.435 2 -13.435
    endloop
  endfacet
  facet normal -0.66636 0 0.74563
    outer loop
      vertex 13.435 -2 -13.435
      vertex 11.8463 2 -14.8548
      vertex 11.8463 -2 -14.8548
    endloop
  endfacet
  facet normal -0.483703 0 0.875232
    outer loop
      vertex 8.24379 2 -17.1184
      vertex 10.1086 -2 -16.0878
      vertex 10.1086 2 -16.0878
    endloop
  endfacet
  facet normal -0.483703 0 0.875232
    outer loop
      vertex 10.1086 -2 -16.0878
      vertex 8.24379 2 -17.1184
      vertex 8.24379 -2 -17.1184
    endloop
  endfacet
  facet normal -0.960923 0 0.276816
    outer loop
      vertex 17.9338 -2 -6.2753
      vertex 18.5236 2 -4.2279
      vertex 17.9338 2 -6.2753
    endloop
  endfacet
  facet normal -0.960923 0 0.276816
    outer loop
      vertex 18.5236 2 -4.2279
      vertex 17.9338 -2 -6.2753
      vertex 18.5236 -2 -4.2279
    endloop
  endfacet
  facet normal -0.815553 0 0.578683
    outer loop
      vertex 14.8548 -2 -11.8463
      vertex 16.0878 2 -10.1086
      vertex 14.8548 2 -11.8463
    endloop
  endfacet
  facet normal -0.815553 0 0.578683
    outer loop
      vertex 16.0878 2 -10.1086
      vertex 14.8548 -2 -11.8463
      vertex 16.0878 -2 -10.1086
    endloop
  endfacet
  facet normal 0.578683 0 0.815553
    outer loop
      vertex -11.8463 2 -14.8548
      vertex -10.1086 -2 -16.0878
      vertex -10.1086 2 -16.0878
    endloop
  endfacet
  facet normal 0.578683 0 0.815553
    outer loop
      vertex -10.1086 -2 -16.0878
      vertex -11.8463 2 -14.8548
      vertex -11.8463 -2 -14.8548
    endloop
  endfacet
  facet normal 0.382693 0 0.923875
    outer loop
      vertex -8.24379 2 -17.1184
      vertex -6.2753 -2 -17.9338
      vertex -6.2753 2 -17.9338
    endloop
  endfacet
  facet normal 0.382693 0 0.923875
    outer loop
      vertex -6.2753 -2 -17.9338
      vertex -8.24379 2 -17.1184
      vertex -8.24379 -2 -17.1184
    endloop
  endfacet
  facet normal 0.167505 0 0.985871
    outer loop
      vertex -4.2279 2 -18.5236
      vertex -2.12732 -2 -18.8805
      vertex -2.12732 2 -18.8805
    endloop
  endfacet
  facet normal 0.167505 0 0.985871
    outer loop
      vertex -2.12732 -2 -18.8805
      vertex -4.2279 2 -18.5236
      vertex -4.2279 -2 -18.5236
    endloop
  endfacet
  facet normal 0.875232 -0 0.483703
    outer loop
      vertex -17.1184 -2 -8.24379
      vertex -16.0878 2 -10.1086
      vertex -17.1184 2 -8.24379
    endloop
  endfacet
  facet normal 0.875232 0 0.483703
    outer loop
      vertex -16.0878 2 -10.1086
      vertex -17.1184 -2 -8.24379
      vertex -16.0878 -2 -10.1086
    endloop
  endfacet
  facet normal 0.74563 -0 0.66636
    outer loop
      vertex -14.8548 -2 -11.8463
      vertex -13.435 2 -13.435
      vertex -14.8548 2 -11.8463
    endloop
  endfacet
  facet normal 0.74563 0 0.66636
    outer loop
      vertex -13.435 2 -13.435
      vertex -14.8548 -2 -11.8463
      vertex -13.435 -2 -13.435
    endloop
  endfacet
  facet normal 0.960923 -0 0.276816
    outer loop
      vertex -18.5236 -2 -4.2279
      vertex -17.9338 2 -6.2753
      vertex -18.5236 2 -4.2279
    endloop
  endfacet
  facet normal 0.960923 0 0.276816
    outer loop
      vertex -17.9338 2 -6.2753
      vertex -18.5236 -2 -4.2279
      vertex -17.9338 -2 -6.2753
    endloop
  endfacet
  facet normal 0.998426 -0 0.0560855
    outer loop
      vertex -19 -2 0
      vertex -18.8805 2 -2.12732
      vertex -19 2 0
    endloop
  endfacet
  facet normal 0.998426 0 0.0560855
    outer loop
      vertex -18.8805 2 -2.12732
      vertex -19 -2 0
      vertex -18.8805 -2 -2.12732
    endloop
  endfacet
  facet normal -0.167505 0 0.985871
    outer loop
      vertex 2.12732 2 -18.8805
      vertex 4.2279 -2 -18.5236
      vertex 4.2279 2 -18.5236
    endloop
  endfacet
  facet normal -0.167505 0 0.985871
    outer loop
      vertex 4.2279 -2 -18.5236
      vertex 2.12732 2 -18.8805
      vertex 2.12732 -2 -18.8805
    endloop
  endfacet
  facet normal -0.382693 0 0.923875
    outer loop
      vertex 6.2753 2 -17.9338
      vertex 8.24379 -2 -17.1184
      vertex 8.24379 2 -17.1184
    endloop
  endfacet
  facet normal -0.382693 0 0.923875
    outer loop
      vertex 8.24379 -2 -17.1184
      vertex 6.2753 2 -17.9338
      vertex 6.2753 -2 -17.9338
    endloop
  endfacet
  facet normal -0.74563 0 0.66636
    outer loop
      vertex 13.435 -2 -13.435
      vertex 14.8548 2 -11.8463
      vertex 13.435 2 -13.435
    endloop
  endfacet
  facet normal -0.74563 0 0.66636
    outer loop
      vertex 14.8548 2 -11.8463
      vertex 13.435 -2 -13.435
      vertex 14.8548 -2 -11.8463
    endloop
  endfacet
  facet normal -0.578683 0 0.815553
    outer loop
      vertex 10.1086 2 -16.0878
      vertex 11.8463 -2 -14.8548
      vertex 11.8463 2 -14.8548
    endloop
  endfacet
  facet normal -0.578683 0 0.815553
    outer loop
      vertex 11.8463 -2 -14.8548
      vertex 10.1086 2 -16.0878
      vertex 10.1086 -2 -16.0878
    endloop
  endfacet
  facet normal -0.923875 0 0.382693
    outer loop
      vertex 17.1184 -2 -8.24379
      vertex 17.9338 2 -6.2753
      vertex 17.1184 2 -8.24379
    endloop
  endfacet
  facet normal -0.923875 0 0.382693
    outer loop
      vertex 17.9338 2 -6.2753
      vertex 17.1184 -2 -8.24379
      vertex 17.9338 -2 -6.2753
    endloop
  endfacet
  facet normal -0.985871 0 0.167505
    outer loop
      vertex 18.5236 -2 -4.2279
      vertex 18.8805 2 -2.12732
      vertex 18.5236 2 -4.2279
    endloop
  endfacet
  facet normal -0.985871 0 0.167505
    outer loop
      vertex 18.8805 2 -2.12732
      vertex 18.5236 -2 -4.2279
      vertex 18.8805 -2 -2.12732
    endloop
  endfacet
  facet normal 0.483703 0 0.875232
    outer loop
      vertex -10.1086 2 -16.0878
      vertex -8.24379 -2 -17.1184
      vertex -8.24379 2 -17.1184
    endloop
  endfacet
  facet normal 0.483703 0 0.875232
    outer loop
      vertex -8.24379 -2 -17.1184
      vertex -10.1086 2 -16.0878
      vertex -10.1086 -2 -16.0878
    endloop
  endfacet
  facet normal 0.276816 0 0.960923
    outer loop
      vertex -6.2753 2 -17.9338
      vertex -4.2279 -2 -18.5236
      vertex -4.2279 2 -18.5236
    endloop
  endfacet
  facet normal 0.276816 0 0.960923
    outer loop
      vertex -4.2279 -2 -18.5236
      vertex -6.2753 2 -17.9338
      vertex -6.2753 -2 -17.9338
    endloop
  endfacet
  facet normal 0.815553 -0 0.578683
    outer loop
      vertex -16.0878 -2 -10.1086
      vertex -14.8548 2 -11.8463
      vertex -16.0878 2 -10.1086
    endloop
  endfacet
  facet normal 0.815553 0 0.578683
    outer loop
      vertex -14.8548 2 -11.8463
      vertex -16.0878 -2 -10.1086
      vertex -14.8548 -2 -11.8463
    endloop
  endfacet
  facet normal 0.985871 -0 0.167505
    outer loop
      vertex -18.8805 -2 -2.12732
      vertex -18.5236 2 -4.2279
      vertex -18.8805 2 -2.12732
    endloop
  endfacet
  facet normal 0.985871 0 0.167505
    outer loop
      vertex -18.5236 2 -4.2279
      vertex -18.8805 -2 -2.12732
      vertex -18.5236 -2 -4.2279
    endloop
  endfacet
  facet normal -0.875232 0 0.483703
    outer loop
      vertex 16.0878 -2 -10.1086
      vertex 17.1184 2 -8.24379
      vertex 16.0878 2 -10.1086
    endloop
  endfacet
  facet normal -0.875232 0 0.483703
    outer loop
      vertex 17.1184 2 -8.24379
      vertex 16.0878 -2 -10.1086
      vertex 17.1184 -2 -8.24379
    endloop
  endfacet
  facet normal -0.998426 0 0.0560855
    outer loop
      vertex 18.8805 -2 -2.12732
      vertex 19 2 0
      vertex 18.8805 2 -2.12732
    endloop
  endfacet
  facet normal -0.998426 0 0.0560855
    outer loop
      vertex 19 2 0
      vertex 18.8805 -2 -2.12732
      vertex 19 -2 0
    endloop
  endfacet
endsolid OpenSCAD_Model
