solid OpenSCAD_Model
  facet normal -0.875308 0 -0.483566
    outer loop
      vertex -128.862 -1.5 -64.3649
      vertex -130.326 1.5 -61.7149
      vertex -128.862 1.5 -64.3649
    endloop
  endfacet
  facet normal -0.875308 -0 -0.483566
    outer loop
      vertex -130.326 1.5 -61.7149
      vertex -128.862 -1.5 -64.3649
      vertex -130.326 -1.5 -61.7149
    endloop
  endfacet
  facet normal -0.923847 0 -0.382762
    outer loop
      vertex -130.326 -1.5 -61.7149
      vertex -131.485 1.5 -58.9175
      vertex -130.326 1.5 -61.7149
    endloop
  endfacet
  facet normal -0.923847 -0 -0.382762
    outer loop
      vertex -131.485 1.5 -58.9175
      vertex -130.326 -1.5 -61.7149
      vertex -131.485 -1.5 -58.9175
    endloop
  endfacet
  facet normal 0 1 0
    outer loop
      vertex -106 1.5 -77
      vertex -106 1.5 77
      vertex 0 1.5 77
    endloop
  endfacet
  facet normal 0 1 0
    outer loop
      vertex -106 1.5 77
      vertex -133 1.5 50
      vertex -109.023 1.5 76.8302
    endloop
  endfacet
  facet normal 0 1 0
    outer loop
      vertex -109.023 1.5 76.8302
      vertex -133 1.5 50
      vertex -112.008 1.5 76.323
    endloop
  endfacet
  facet normal 0 1 0
    outer loop
      vertex -112.008 1.5 76.323
      vertex -133 1.5 50
      vertex -114.918 1.5 75.4848
    endloop
  endfacet
  facet normal 0 1 0
    outer loop
      vertex -114.918 1.5 75.4848
      vertex -133 1.5 50
      vertex -117.715 1.5 74.3262
    endloop
  endfacet
  facet normal 0 1 0
    outer loop
      vertex -117.715 1.5 74.3262
      vertex -133 1.5 50
      vertex -120.365 1.5 72.8615
    endloop
  endfacet
  facet normal 0 1 0
    outer loop
      vertex -120.365 1.5 72.8615
      vertex -133 1.5 50
      vertex -122.834 1.5 71.1094
    endloop
  endfacet
  facet normal 0 1 0
    outer loop
      vertex -122.834 1.5 71.1094
      vertex -133 1.5 50
      vertex -125.092 1.5 69.0919
    endloop
  endfacet
  facet normal 0 1 0
    outer loop
      vertex -125.092 1.5 69.0919
      vertex -133 1.5 50
      vertex -127.109 1.5 66.8342
    endloop
  endfacet
  facet normal 0 1 0
    outer loop
      vertex -127.109 1.5 66.8342
      vertex -133 1.5 50
      vertex -128.862 1.5 64.3649
    endloop
  endfacet
  facet normal 0 1 0
    outer loop
      vertex -128.862 1.5 64.3649
      vertex -133 1.5 50
      vertex -130.326 1.5 61.7149
    endloop
  endfacet
  facet normal 0 1 0
    outer loop
      vertex -130.326 1.5 61.7149
      vertex -133 1.5 50
      vertex -131.485 1.5 58.9175
    endloop
  endfacet
  facet normal 0 1 0
    outer loop
      vertex -131.485 1.5 58.9175
      vertex -133 1.5 50
      vertex -132.323 1.5 56.0081
    endloop
  endfacet
  facet normal 0 1 0
    outer loop
      vertex -132.323 1.5 56.0081
      vertex -133 1.5 50
      vertex -132.83 1.5 53.023
    endloop
  endfacet
  facet normal 0 1 0
    outer loop
      vertex -106 1.5 77
      vertex -106 1.5 -77
      vertex -133 1.5 50
    endloop
  endfacet
  facet normal 0 1 0
    outer loop
      vertex -133 1.5 50
      vertex -106 1.5 -77
      vertex -133 1.5 -50
    endloop
  endfacet
  facet normal 0 1 0
    outer loop
      vertex -133 1.5 -50
      vertex -106 1.5 -77
      vertex -132.83 1.5 -53.023
    endloop
  endfacet
  facet normal 0 1 0
    outer loop
      vertex -132.83 1.5 -53.023
      vertex -106 1.5 -77
      vertex -132.323 1.5 -56.0081
    endloop
  endfacet
  facet normal 0 1 0
    outer loop
      vertex -132.323 1.5 -56.0081
      vertex -106 1.5 -77
      vertex -131.485 1.5 -58.9175
    endloop
  endfacet
  facet normal 0 1 0
    outer loop
      vertex -131.485 1.5 -58.9175
      vertex -106 1.5 -77
      vertex -130.326 1.5 -61.7149
    endloop
  endfacet
  facet normal 0 1 0
    outer loop
      vertex -130.326 1.5 -61.7149
      vertex -106 1.5 -77
      vertex -128.862 1.5 -64.3649
    endloop
  endfacet
  facet normal 0 1 0
    outer loop
      vertex -128.862 1.5 -64.3649
      vertex -106 1.5 -77
      vertex -127.109 1.5 -66.8342
    endloop
  endfacet
  facet normal 0 1 0
    outer loop
      vertex -127.109 1.5 -66.8342
      vertex -106 1.5 -77
      vertex -125.092 1.5 -69.0919
    endloop
  endfacet
  facet normal 0 1 0
    outer loop
      vertex -125.092 1.5 -69.0919
      vertex -106 1.5 -77
      vertex -122.834 1.5 -71.1094
    endloop
  endfacet
  facet normal 0 1 0
    outer loop
      vertex -122.834 1.5 -71.1094
      vertex -106 1.5 -77
      vertex -120.365 1.5 -72.8615
    endloop
  endfacet
  facet normal 0 1 0
    outer loop
      vertex -120.365 1.5 -72.8615
      vertex -106 1.5 -77
      vertex -117.715 1.5 -74.3262
    endloop
  endfacet
  facet normal 0 1 0
    outer loop
      vertex -117.715 1.5 -74.3262
      vertex -106 1.5 -77
      vertex -114.918 1.5 -75.4848
    endloop
  endfacet
  facet normal 0 1 0
    outer loop
      vertex -114.918 1.5 -75.4848
      vertex -106 1.5 -77
      vertex -112.008 1.5 -76.323
    endloop
  endfacet
  facet normal 0 1 0
    outer loop
      vertex -106 1.5 -77
      vertex 0 1.5 77
      vertex 0 1.5 -77
    endloop
  endfacet
  facet normal 0 1 0
    outer loop
      vertex -112.008 1.5 -76.323
      vertex -106 1.5 -77
      vertex -109.023 1.5 -76.8302
    endloop
  endfacet
  facet normal -0.923847 0 0.382762
    outer loop
      vertex -131.485 -1.5 58.9175
      vertex -130.326 1.5 61.7149
      vertex -131.485 1.5 58.9175
    endloop
  endfacet
  facet normal -0.923847 0 0.382762
    outer loop
      vertex -130.326 1.5 61.7149
      vertex -131.485 -1.5 58.9175
      vertex -130.326 -1.5 61.7149
    endloop
  endfacet
  facet normal -0 0 1
    outer loop
      vertex -106 1.5 77
      vertex 0 -1.5 77
      vertex 0 1.5 77
    endloop
  endfacet
  facet normal 0 0 1
    outer loop
      vertex 0 -1.5 77
      vertex -106 1.5 77
      vertex -106 -1.5 77
    endloop
  endfacet
  facet normal -1 0 0
    outer loop
      vertex -133 -1.5 -50
      vertex -133 1.5 50
      vertex -133 1.5 -50
    endloop
  endfacet
  facet normal -1 -0 0
    outer loop
      vertex -133 1.5 50
      vertex -133 -1.5 -50
      vertex -133 -1.5 50
    endloop
  endfacet
  facet normal -0.960933 0 -0.276779
    outer loop
      vertex -131.485 -1.5 -58.9175
      vertex -132.323 1.5 -56.0081
      vertex -131.485 1.5 -58.9175
    endloop
  endfacet
  facet normal -0.960933 -0 -0.276779
    outer loop
      vertex -132.323 1.5 -56.0081
      vertex -131.485 -1.5 -58.9175
      vertex -132.323 -1.5 -56.0081
    endloop
  endfacet
  facet normal -0.998423 0 0.0561468
    outer loop
      vertex -133 -1.5 50
      vertex -132.83 1.5 53.023
      vertex -133 1.5 50
    endloop
  endfacet
  facet normal -0.998423 0 0.0561468
    outer loop
      vertex -132.83 1.5 53.023
      vertex -133 -1.5 50
      vertex -132.83 -1.5 53.023
    endloop
  endfacet
  facet normal -0.815415 0 0.578877
    outer loop
      vertex -128.862 -1.5 64.3649
      vertex -127.109 1.5 66.8342
      vertex -128.862 1.5 64.3649
    endloop
  endfacet
  facet normal -0.815415 0 0.578877
    outer loop
      vertex -127.109 1.5 66.8342
      vertex -128.862 -1.5 64.3649
      vertex -127.109 -1.5 66.8342
    endloop
  endfacet
  facet normal 0 0 -1
    outer loop
      vertex -106 -1.5 -77
      vertex 0 1.5 -77
      vertex 0 -1.5 -77
    endloop
  endfacet
  facet normal -0 0 -1
    outer loop
      vertex 0 1.5 -77
      vertex -106 -1.5 -77
      vertex -106 1.5 -77
    endloop
  endfacet
  facet normal -0.382696 0 0.923874
    outer loop
      vertex -117.715 1.5 74.3262
      vertex -114.918 -1.5 75.4848
      vertex -114.918 1.5 75.4848
    endloop
  endfacet
  facet normal -0.382696 0 0.923874
    outer loop
      vertex -114.918 -1.5 75.4848
      vertex -117.715 1.5 74.3262
      vertex -117.715 -1.5 74.3262
    endloop
  endfacet
  facet normal -0.056081 0 0.998426
    outer loop
      vertex -109.023 1.5 76.8302
      vertex -106 -1.5 77
      vertex -106 1.5 77
    endloop
  endfacet
  facet normal -0.056081 0 0.998426
    outer loop
      vertex -106 -1.5 77
      vertex -109.023 1.5 76.8302
      vertex -109.023 -1.5 76.8302
    endloop
  endfacet
  facet normal -0.167515 0 0.985869
    outer loop
      vertex -112.008 1.5 76.323
      vertex -109.023 -1.5 76.8302
      vertex -109.023 1.5 76.8302
    endloop
  endfacet
  facet normal -0.167515 0 0.985869
    outer loop
      vertex -109.023 -1.5 76.8302
      vertex -112.008 1.5 76.323
      vertex -112.008 -1.5 76.323
    endloop
  endfacet
  facet normal -0.998423 0 -0.0561468
    outer loop
      vertex -132.83 -1.5 -53.023
      vertex -133 1.5 -50
      vertex -132.83 1.5 -53.023
    endloop
  endfacet
  facet normal -0.998423 -0 -0.0561468
    outer loop
      vertex -133 1.5 -50
      vertex -132.83 -1.5 -53.023
      vertex -133 -1.5 -50
    endloop
  endfacet
  facet normal -0.483743 0 0.87521
    outer loop
      vertex -120.365 1.5 72.8615
      vertex -117.715 -1.5 74.3262
      vertex -117.715 1.5 74.3262
    endloop
  endfacet
  facet normal -0.483743 0 0.87521
    outer loop
      vertex -117.715 -1.5 74.3262
      vertex -120.365 1.5 72.8615
      vertex -120.365 -1.5 72.8615
    endloop
  endfacet
  facet normal -0.666278 0 0.745703
    outer loop
      vertex -125.092 1.5 69.0919
      vertex -122.834 -1.5 71.1094
      vertex -122.834 1.5 71.1094
    endloop
  endfacet
  facet normal -0.666278 0 0.745703
    outer loop
      vertex -122.834 -1.5 71.1094
      vertex -125.092 1.5 69.0919
      vertex -125.092 -1.5 69.0919
    endloop
  endfacet
  facet normal -0.875308 0 0.483566
    outer loop
      vertex -130.326 -1.5 61.7149
      vertex -128.862 1.5 64.3649
      vertex -130.326 1.5 61.7149
    endloop
  endfacet
  facet normal -0.875308 0 0.483566
    outer loop
      vertex -128.862 1.5 64.3649
      vertex -130.326 -1.5 61.7149
      vertex -128.862 -1.5 64.3649
    endloop
  endfacet
  facet normal -0.382696 0 -0.923874
    outer loop
      vertex -117.715 -1.5 -74.3262
      vertex -114.918 1.5 -75.4848
      vertex -114.918 -1.5 -75.4848
    endloop
  endfacet
  facet normal -0.382696 0 -0.923874
    outer loop
      vertex -114.918 1.5 -75.4848
      vertex -117.715 -1.5 -74.3262
      vertex -117.715 1.5 -74.3262
    endloop
  endfacet
  facet normal -0.815415 0 -0.578877
    outer loop
      vertex -127.109 -1.5 -66.8342
      vertex -128.862 1.5 -64.3649
      vertex -127.109 1.5 -66.8342
    endloop
  endfacet
  facet normal -0.815415 -0 -0.578877
    outer loop
      vertex -128.862 1.5 -64.3649
      vertex -127.109 -1.5 -66.8342
      vertex -128.862 -1.5 -64.3649
    endloop
  endfacet
  facet normal -0.276788 0 0.960931
    outer loop
      vertex -114.918 1.5 75.4848
      vertex -112.008 -1.5 76.323
      vertex -112.008 1.5 76.323
    endloop
  endfacet
  facet normal -0.276788 0 0.960931
    outer loop
      vertex -112.008 -1.5 76.323
      vertex -114.918 1.5 75.4848
      vertex -114.918 -1.5 75.4848
    endloop
  endfacet
  facet normal -0.578726 0 0.815522
    outer loop
      vertex -122.834 1.5 71.1094
      vertex -120.365 -1.5 72.8615
      vertex -120.365 1.5 72.8615
    endloop
  endfacet
  facet normal -0.578726 0 0.815522
    outer loop
      vertex -120.365 -1.5 72.8615
      vertex -122.834 1.5 71.1094
      vertex -122.834 -1.5 71.1094
    endloop
  endfacet
  facet normal -0.985881 0 -0.167446
    outer loop
      vertex -132.323 -1.5 -56.0081
      vertex -132.83 1.5 -53.023
      vertex -132.323 1.5 -56.0081
    endloop
  endfacet
  facet normal -0.985881 -0 -0.167446
    outer loop
      vertex -132.83 1.5 -53.023
      vertex -132.323 -1.5 -56.0081
      vertex -132.83 -1.5 -53.023
    endloop
  endfacet
  facet normal 0 -1 0
    outer loop
      vertex -133 -1.5 50
      vertex -106 -1.5 77
      vertex -109.023 -1.5 76.8302
    endloop
  endfacet
  facet normal 0 -1 0
    outer loop
      vertex -133 -1.5 50
      vertex -109.023 -1.5 76.8302
      vertex -112.008 -1.5 76.323
    endloop
  endfacet
  facet normal 0 -1 0
    outer loop
      vertex -133 -1.5 50
      vertex -112.008 -1.5 76.323
      vertex -114.918 -1.5 75.4848
    endloop
  endfacet
  facet normal 0 -1 0
    outer loop
      vertex -133 -1.5 50
      vertex -114.918 -1.5 75.4848
      vertex -117.715 -1.5 74.3262
    endloop
  endfacet
  facet normal 0 -1 0
    outer loop
      vertex -133 -1.5 50
      vertex -117.715 -1.5 74.3262
      vertex -120.365 -1.5 72.8615
    endloop
  endfacet
  facet normal 0 -1 0
    outer loop
      vertex -133 -1.5 50
      vertex -120.365 -1.5 72.8615
      vertex -122.834 -1.5 71.1094
    endloop
  endfacet
  facet normal 0 -1 0
    outer loop
      vertex -133 -1.5 50
      vertex -122.834 -1.5 71.1094
      vertex -125.092 -1.5 69.0919
    endloop
  endfacet
  facet normal 0 -1 0
    outer loop
      vertex -133 -1.5 50
      vertex -125.092 -1.5 69.0919
      vertex -127.109 -1.5 66.8342
    endloop
  endfacet
  facet normal 0 -1 0
    outer loop
      vertex -133 -1.5 50
      vertex -127.109 -1.5 66.8342
      vertex -128.862 -1.5 64.3649
    endloop
  endfacet
  facet normal 0 -1 0
    outer loop
      vertex -133 -1.5 50
      vertex -128.862 -1.5 64.3649
      vertex -130.326 -1.5 61.7149
    endloop
  endfacet
  facet normal 0 -1 0
    outer loop
      vertex -133 -1.5 50
      vertex -130.326 -1.5 61.7149
      vertex -131.485 -1.5 58.9175
    endloop
  endfacet
  facet normal 0 -1 0
    outer loop
      vertex -133 -1.5 50
      vertex -131.485 -1.5 58.9175
      vertex -132.323 -1.5 56.0081
    endloop
  endfacet
  facet normal 0 -1 0
    outer loop
      vertex -133 -1.5 50
      vertex -132.323 -1.5 56.0081
      vertex -132.83 -1.5 53.023
    endloop
  endfacet
  facet normal 0 -1 0
    outer loop
      vertex -106 -1.5 -77
      vertex -106 -1.5 77
      vertex -133 -1.5 50
    endloop
  endfacet
  facet normal 0 -1 0
    outer loop
      vertex -106 -1.5 -77
      vertex -133 -1.5 50
      vertex -133 -1.5 -50
    endloop
  endfacet
  facet normal 0 -1 0
    outer loop
      vertex -106 -1.5 -77
      vertex -133 -1.5 -50
      vertex -132.83 -1.5 -53.023
    endloop
  endfacet
  facet normal 0 -1 0
    outer loop
      vertex -106 -1.5 -77
      vertex -132.83 -1.5 -53.023
      vertex -132.323 -1.5 -56.0081
    endloop
  endfacet
  facet normal 0 -1 0
    outer loop
      vertex -106 -1.5 -77
      vertex -132.323 -1.5 -56.0081
      vertex -131.485 -1.5 -58.9175
    endloop
  endfacet
  facet normal 0 -1 0
    outer loop
      vertex -106 -1.5 -77
      vertex -131.485 -1.5 -58.9175
      vertex -130.326 -1.5 -61.7149
    endloop
  endfacet
  facet normal 0 -1 0
    outer loop
      vertex -106 -1.5 -77
      vertex -130.326 -1.5 -61.7149
      vertex -128.862 -1.5 -64.3649
    endloop
  endfacet
  facet normal 0 -1 0
    outer loop
      vertex -106 -1.5 -77
      vertex -128.862 -1.5 -64.3649
      vertex -127.109 -1.5 -66.8342
    endloop
  endfacet
  facet normal 0 -1 0
    outer loop
      vertex -106 -1.5 -77
      vertex -127.109 -1.5 -66.8342
      vertex -125.092 -1.5 -69.0919
    endloop
  endfacet
  facet normal 0 -1 0
    outer loop
      vertex -106 -1.5 -77
      vertex -125.092 -1.5 -69.0919
      vertex -122.834 -1.5 -71.1094
    endloop
  endfacet
  facet normal 0 -1 0
    outer loop
      vertex -106 -1.5 -77
      vertex -122.834 -1.5 -71.1094
      vertex -120.365 -1.5 -72.8615
    endloop
  endfacet
  facet normal 0 -1 0
    outer loop
      vertex -106 -1.5 -77
      vertex -120.365 -1.5 -72.8615
      vertex -117.715 -1.5 -74.3262
    endloop
  endfacet
  facet normal 0 -1 0
    outer loop
      vertex -106 -1.5 -77
      vertex -117.715 -1.5 -74.3262
      vertex -114.918 -1.5 -75.4848
    endloop
  endfacet
  facet normal 0 -1 0
    outer loop
      vertex -106 -1.5 -77
      vertex -114.918 -1.5 -75.4848
      vertex -112.008 -1.5 -76.323
    endloop
  endfacet
  facet normal 0 -1 0
    outer loop
      vertex -106 -1.5 -77
      vertex -112.008 -1.5 -76.323
      vertex -109.023 -1.5 -76.8302
    endloop
  endfacet
  facet normal 0 -1 0
    outer loop
      vertex -106 -1.5 77
      vertex -106 -1.5 -77
      vertex 0 -1.5 77
    endloop
  endfacet
  facet normal 0 -1 -0
    outer loop
      vertex 0 -1.5 77
      vertex -106 -1.5 -77
      vertex 0 -1.5 -77
    endloop
  endfacet
  facet normal -0.745741 0 0.666236
    outer loop
      vertex -127.109 -1.5 66.8342
      vertex -125.092 1.5 69.0919
      vertex -127.109 1.5 66.8342
    endloop
  endfacet
  facet normal -0.745741 0 0.666236
    outer loop
      vertex -125.092 1.5 69.0919
      vertex -127.109 -1.5 66.8342
      vertex -125.092 -1.5 69.0919
    endloop
  endfacet
  facet normal -0.960933 0 0.276779
    outer loop
      vertex -132.323 -1.5 56.0081
      vertex -131.485 1.5 58.9175
      vertex -132.323 1.5 56.0081
    endloop
  endfacet
  facet normal -0.960933 0 0.276779
    outer loop
      vertex -131.485 1.5 58.9175
      vertex -132.323 -1.5 56.0081
      vertex -131.485 -1.5 58.9175
    endloop
  endfacet
  facet normal -0.985881 0 0.167446
    outer loop
      vertex -132.83 -1.5 53.023
      vertex -132.323 1.5 56.0081
      vertex -132.83 1.5 53.023
    endloop
  endfacet
  facet normal -0.985881 0 0.167446
    outer loop
      vertex -132.323 1.5 56.0081
      vertex -132.83 -1.5 53.023
      vertex -132.323 -1.5 56.0081
    endloop
  endfacet
  facet normal -0.276788 0 -0.960931
    outer loop
      vertex -114.918 -1.5 -75.4848
      vertex -112.008 1.5 -76.323
      vertex -112.008 -1.5 -76.323
    endloop
  endfacet
  facet normal -0.276788 0 -0.960931
    outer loop
      vertex -112.008 1.5 -76.323
      vertex -114.918 -1.5 -75.4848
      vertex -114.918 1.5 -75.4848
    endloop
  endfacet
  facet normal -0.167515 0 -0.985869
    outer loop
      vertex -112.008 -1.5 -76.323
      vertex -109.023 1.5 -76.8302
      vertex -109.023 -1.5 -76.8302
    endloop
  endfacet
  facet normal -0.167515 0 -0.985869
    outer loop
      vertex -109.023 1.5 -76.8302
      vertex -112.008 -1.5 -76.323
      vertex -112.008 1.5 -76.323
    endloop
  endfacet
  facet normal -0.056081 0 -0.998426
    outer loop
      vertex -109.023 -1.5 -76.8302
      vertex -106 1.5 -77
      vertex -106 -1.5 -77
    endloop
  endfacet
  facet normal -0.056081 0 -0.998426
    outer loop
      vertex -106 1.5 -77
      vertex -109.023 -1.5 -76.8302
      vertex -109.023 1.5 -76.8302
    endloop
  endfacet
  facet normal -0.666278 0 -0.745703
    outer loop
      vertex -125.092 -1.5 -69.0919
      vertex -122.834 1.5 -71.1094
      vertex -122.834 -1.5 -71.1094
    endloop
  endfacet
  facet normal -0.666278 0 -0.745703
    outer loop
      vertex -122.834 1.5 -71.1094
      vertex -125.092 -1.5 -69.0919
      vertex -125.092 1.5 -69.0919
    endloop
  endfacet
  facet normal -0.745741 0 -0.666236
    outer loop
      vertex -125.092 -1.5 -69.0919
      vertex -127.109 1.5 -66.8342
      vertex -125.092 1.5 -69.0919
    endloop
  endfacet
  facet normal -0.745741 -0 -0.666236
    outer loop
      vertex -127.109 1.5 -66.8342
      vertex -125.092 -1.5 -69.0919
      vertex -127.109 -1.5 -66.8342
    endloop
  endfacet
  facet normal -0.578726 0 -0.815522
    outer loop
      vertex -122.834 -1.5 -71.1094
      vertex -120.365 1.5 -72.8615
      vertex -120.365 -1.5 -72.8615
    endloop
  endfacet
  facet normal -0.578726 0 -0.815522
    outer loop
      vertex -120.365 1.5 -72.8615
      vertex -122.834 -1.5 -71.1094
      vertex -122.834 1.5 -71.1094
    endloop
  endfacet
  facet normal -0.483743 0 -0.87521
    outer loop
      vertex -120.365 -1.5 -72.8615
      vertex -117.715 1.5 -74.3262
      vertex -117.715 -1.5 -74.3262
    endloop
  endfacet
  facet normal -0.483743 0 -0.87521
    outer loop
      vertex -117.715 1.5 -74.3262
      vertex -120.365 -1.5 -72.8615
      vertex -120.365 1.5 -72.8615
    endloop
  endfacet
  facet normal 1 -0 0
    outer loop
      vertex 0 -1.5 77
      vertex 0 1.5 -77
      vertex 0 1.5 77
    endloop
  endfacet
  facet normal 1 0 0
    outer loop
      vertex 0 1.5 -77
      vertex 0 -1.5 77
      vertex 0 -1.5 -77
    endloop
  endfacet
endsolid OpenSCAD_Model
