solid OpenSCAD_Model
  facet normal 0.960919 -0 0.27683
    outer loop
      vertex 157.419 -95 81.6928
      vertex 158.847 0 76.736
      vertex 157.419 0 81.6928
    endloop
  endfacet
  facet normal 0.960919 0 0.27683
    outer loop
      vertex 158.847 0 76.736
      vertex 157.419 -95 81.6928
      vertex 158.847 -95 76.736
    endloop
  endfacet
  facet normal 0.483897 0 0.875125
    outer loop
      vertex 133.959 0 107.945
      vertex 138.473 -95 105.449
      vertex 138.473 0 105.449
    endloop
  endfacet
  facet normal 0.483897 0 0.875125
    outer loop
      vertex 138.473 -95 105.449
      vertex 133.959 0 107.945
      vertex 133.959 -95 107.945
    endloop
  endfacet
  facet normal -0 0 1
    outer loop
      vertex 0 0 112.5
      vertex 114 -95 112.5
      vertex 114 0 112.5
    endloop
  endfacet
  facet normal 0 0 1
    outer loop
      vertex 114 -95 112.5
      vertex 0 0 112.5
      vertex 0 -95 112.5
    endloop
  endfacet
  facet normal 0.985874 -0 0.167491
    outer loop
      vertex 158.847 -95 76.736
      vertex 159.711 0 71.6504
      vertex 158.847 0 76.736
    endloop
  endfacet
  facet normal 0.985874 0 0.167491
    outer loop
      vertex 159.711 0 71.6504
      vertex 158.847 -95 76.736
      vertex 159.711 -95 71.6504
    endloop
  endfacet
  facet normal 0.985874 0 -0.167491
    outer loop
      vertex 159.711 -95 -71.6504
      vertex 158.847 0 -76.736
      vertex 159.711 0 -71.6504
    endloop
  endfacet
  facet normal 0.985874 0 -0.167491
    outer loop
      vertex 158.847 0 -76.736
      vertex 159.711 -95 -71.6504
      vertex 158.847 -95 -76.736
    endloop
  endfacet
  facet normal 0.998429 0 -0.056024
    outer loop
      vertex 160 -95 -66.5
      vertex 159.711 0 -71.6504
      vertex 160 0 -66.5
    endloop
  endfacet
  facet normal 0.998429 0 -0.056024
    outer loop
      vertex 159.711 0 -71.6504
      vertex 160 -95 -66.5
      vertex 159.711 -95 -71.6504
    endloop
  endfacet
  facet normal 0.0560284 0 -0.998429
    outer loop
      vertex 114 -95 -112.5
      vertex 119.15 0 -112.211
      vertex 119.15 -95 -112.211
    endloop
  endfacet
  facet normal 0.0560284 0 -0.998429
    outer loop
      vertex 119.15 0 -112.211
      vertex 114 -95 -112.5
      vertex 114 0 -112.5
    endloop
  endfacet
  facet normal 0 -1 0
    outer loop
      vertex 0 -95 -112.5
      vertex 109 -95 -85
      vertex 0 -95 -85
    endloop
  endfacet
  facet normal -0 -1 0
    outer loop
      vertex 119.15 -95 -112.211
      vertex 109 -95 -85
      vertex 114 -95 -112.5
    endloop
  endfacet
  facet normal 0 -1 0
    outer loop
      vertex 109 -95 -85
      vertex 152.949 -95 -90.9735
      vertex 155.445 -95 -86.4586
    endloop
  endfacet
  facet normal 0 -1 0
    outer loop
      vertex 109 -95 -85
      vertex 149.964 -95 -95.1805
      vertex 152.949 -95 -90.9735
    endloop
  endfacet
  facet normal 0 -1 0
    outer loop
      vertex 109 -95 -85
      vertex 146.527 -95 -99.0269
      vertex 149.964 -95 -95.1805
    endloop
  endfacet
  facet normal 0 -1 0
    outer loop
      vertex 109 -95 -85
      vertex 142.681 -95 -102.464
      vertex 146.527 -95 -99.0269
    endloop
  endfacet
  facet normal 0 -1 0
    outer loop
      vertex 109 -95 -85
      vertex 138.473 -95 -105.449
      vertex 142.681 -95 -102.464
    endloop
  endfacet
  facet normal 0 -1 0
    outer loop
      vertex 109 -95 -85
      vertex 133.959 -95 -107.945
      vertex 138.473 -95 -105.449
    endloop
  endfacet
  facet normal 0 -1 0
    outer loop
      vertex 109 -95 -85
      vertex 129.193 -95 -109.919
      vertex 133.959 -95 -107.945
    endloop
  endfacet
  facet normal 0 -1 0
    outer loop
      vertex 109 -95 -85
      vertex 124.236 -95 -111.347
      vertex 129.193 -95 -109.919
    endloop
  endfacet
  facet normal 0 -1 -0
    outer loop
      vertex 109 -95 -85
      vertex 0 -95 -112.5
      vertex 114 -95 -112.5
    endloop
  endfacet
  facet normal 0 -1 0
    outer loop
      vertex 109 -95 -85
      vertex 119.15 -95 -112.211
      vertex 124.236 -95 -111.347
    endloop
  endfacet
  facet normal 0 -1 0
    outer loop
      vertex 109 -95 85
      vertex 114 -95 112.5
      vertex 0 -95 112.5
    endloop
  endfacet
  facet normal 0 -1 0
    outer loop
      vertex 112.807 -95 84.7862
      vertex 114 -95 112.5
      vertex 109 -95 85
    endloop
  endfacet
  facet normal 0 -1 -0
    outer loop
      vertex 114 -95 112.5
      vertex 112.807 -95 84.7862
      vertex 119.15 -95 112.211
    endloop
  endfacet
  facet normal 0 -1 0
    outer loop
      vertex 116.566 -95 84.1475
      vertex 119.15 -95 112.211
      vertex 112.807 -95 84.7862
    endloop
  endfacet
  facet normal 0 -1 -0
    outer loop
      vertex 119.15 -95 112.211
      vertex 116.566 -95 84.1475
      vertex 124.236 -95 111.347
    endloop
  endfacet
  facet normal 0 -1 0
    outer loop
      vertex 120.229 -95 83.092
      vertex 124.236 -95 111.347
      vertex 116.566 -95 84.1475
    endloop
  endfacet
  facet normal 0 -1 -0
    outer loop
      vertex 124.236 -95 111.347
      vertex 120.229 -95 83.092
      vertex 129.193 -95 109.919
    endloop
  endfacet
  facet normal 0 -1 -0
    outer loop
      vertex 129.193 -95 109.919
      vertex 120.229 -95 83.092
      vertex 133.959 -95 107.945
    endloop
  endfacet
  facet normal 0 -1 0
    outer loop
      vertex 123.752 -95 81.6329
      vertex 133.959 -95 107.945
      vertex 120.229 -95 83.092
    endloop
  endfacet
  facet normal 0 -1 -0
    outer loop
      vertex 133.959 -95 107.945
      vertex 123.752 -95 81.6329
      vertex 138.473 -95 105.449
    endloop
  endfacet
  facet normal 0 -1 0
    outer loop
      vertex 109 -95 85
      vertex 0 -95 112.5
      vertex 0 -95 85
    endloop
  endfacet
  facet normal 0 -1 0
    outer loop
      vertex 127.089 -95 79.7886
      vertex 138.473 -95 105.449
      vertex 123.752 -95 81.6329
    endloop
  endfacet
  facet normal 0 -1 -0
    outer loop
      vertex 138.473 -95 105.449
      vertex 127.089 -95 79.7886
      vertex 142.681 -95 102.464
    endloop
  endfacet
  facet normal 0 -1 -0
    outer loop
      vertex 142.681 -95 102.464
      vertex 127.089 -95 79.7886
      vertex 146.527 -95 99.0269
    endloop
  endfacet
  facet normal 0 -1 0
    outer loop
      vertex 130.199 -95 77.5823
      vertex 146.527 -95 99.0269
      vertex 127.089 -95 79.7886
    endloop
  endfacet
  facet normal 0 -1 -0
    outer loop
      vertex 146.527 -95 99.0269
      vertex 130.199 -95 77.5823
      vertex 149.964 -95 95.1805
    endloop
  endfacet
  facet normal 0 -1 0
    outer loop
      vertex 133.042 -95 75.0416
      vertex 149.964 -95 95.1805
      vertex 130.199 -95 77.5823
    endloop
  endfacet
  facet normal 0 -1 -0
    outer loop
      vertex 149.964 -95 95.1805
      vertex 133.042 -95 75.0416
      vertex 152.949 -95 90.9735
    endloop
  endfacet
  facet normal 0 -1 -0
    outer loop
      vertex 152.949 -95 90.9735
      vertex 133.042 -95 75.0416
      vertex 155.445 -95 86.4586
    endloop
  endfacet
  facet normal 0 -1 0
    outer loop
      vertex 135.582 -95 72.1986
      vertex 155.445 -95 86.4586
      vertex 133.042 -95 75.0416
    endloop
  endfacet
  facet normal 0 -1 -0
    outer loop
      vertex 155.445 -95 86.4586
      vertex 135.582 -95 72.1986
      vertex 157.419 -95 81.6928
    endloop
  endfacet
  facet normal 0 -1 0
    outer loop
      vertex 137.789 -95 69.0891
      vertex 157.419 -95 81.6928
      vertex 135.582 -95 72.1986
    endloop
  endfacet
  facet normal 0 -1 -0
    outer loop
      vertex 157.419 -95 81.6928
      vertex 137.789 -95 69.0891
      vertex 158.847 -95 76.736
    endloop
  endfacet
  facet normal 0 -1 0
    outer loop
      vertex 139.633 -95 65.752
      vertex 158.847 -95 76.736
      vertex 137.789 -95 69.0891
    endloop
  endfacet
  facet normal 0 -1 -0
    outer loop
      vertex 158.847 -95 76.736
      vertex 139.633 -95 65.752
      vertex 159.711 -95 71.6504
    endloop
  endfacet
  facet normal 0 -1 -0
    outer loop
      vertex 159.711 -95 71.6504
      vertex 139.633 -95 65.752
      vertex 160 -95 66.5
    endloop
  endfacet
  facet normal 0 -1 0
    outer loop
      vertex 141.092 -95 62.2295
      vertex 160 -95 66.5
      vertex 139.633 -95 65.752
    endloop
  endfacet
  facet normal 0 -1 0
    outer loop
      vertex 142.148 -95 58.5657
      vertex 160 -95 66.5
      vertex 141.092 -95 62.2295
    endloop
  endfacet
  facet normal 0 -1 0
    outer loop
      vertex 142.786 -95 54.8068
      vertex 160 -95 66.5
      vertex 142.148 -95 58.5657
    endloop
  endfacet
  facet normal 0 -1 0
    outer loop
      vertex 143 -95 51
      vertex 160 -95 66.5
      vertex 142.786 -95 54.8068
    endloop
  endfacet
  facet normal 0 -1 0
    outer loop
      vertex 143 -95 -51
      vertex 160 -95 66.5
      vertex 143 -95 51
    endloop
  endfacet
  facet normal 0 -1 0
    outer loop
      vertex 160 -95 -66.5
      vertex 143 -95 -51
      vertex 142.786 -95 -54.8068
    endloop
  endfacet
  facet normal 0 -1 0
    outer loop
      vertex 143 -95 -51
      vertex 160 -95 -66.5
      vertex 160 -95 66.5
    endloop
  endfacet
  facet normal 0 -1 0
    outer loop
      vertex 142.148 -95 -58.5657
      vertex 160 -95 -66.5
      vertex 142.786 -95 -54.8068
    endloop
  endfacet
  facet normal 0 -1 0
    outer loop
      vertex 141.092 -95 -62.2295
      vertex 160 -95 -66.5
      vertex 142.148 -95 -58.5657
    endloop
  endfacet
  facet normal 0 -1 0
    outer loop
      vertex 139.633 -95 -65.752
      vertex 160 -95 -66.5
      vertex 141.092 -95 -62.2295
    endloop
  endfacet
  facet normal 0 -1 0
    outer loop
      vertex 158.847 -95 -76.736
      vertex 139.633 -95 -65.752
      vertex 137.789 -95 -69.0891
    endloop
  endfacet
  facet normal 0 -1 0
    outer loop
      vertex 139.633 -95 -65.752
      vertex 159.711 -95 -71.6504
      vertex 160 -95 -66.5
    endloop
  endfacet
  facet normal 0 -1 0
    outer loop
      vertex 157.419 -95 -81.6928
      vertex 137.789 -95 -69.0891
      vertex 135.582 -95 -72.1986
    endloop
  endfacet
  facet normal 0 -1 0
    outer loop
      vertex 155.445 -95 -86.4586
      vertex 135.582 -95 -72.1986
      vertex 133.042 -95 -75.0416
    endloop
  endfacet
  facet normal 0 -1 0
    outer loop
      vertex 139.633 -95 -65.752
      vertex 158.847 -95 -76.736
      vertex 159.711 -95 -71.6504
    endloop
  endfacet
  facet normal 0 -1 0
    outer loop
      vertex 155.445 -95 -86.4586
      vertex 133.042 -95 -75.0416
      vertex 130.199 -95 -77.5823
    endloop
  endfacet
  facet normal 0 -1 0
    outer loop
      vertex 155.445 -95 -86.4586
      vertex 130.199 -95 -77.5823
      vertex 127.089 -95 -79.7886
    endloop
  endfacet
  facet normal 0 -1 0
    outer loop
      vertex 155.445 -95 -86.4586
      vertex 127.089 -95 -79.7886
      vertex 123.752 -95 -81.6329
    endloop
  endfacet
  facet normal 0 -1 0
    outer loop
      vertex 137.789 -95 -69.0891
      vertex 157.419 -95 -81.6928
      vertex 158.847 -95 -76.736
    endloop
  endfacet
  facet normal 0 -1 0
    outer loop
      vertex 155.445 -95 -86.4586
      vertex 123.752 -95 -81.6329
      vertex 120.229 -95 -83.092
    endloop
  endfacet
  facet normal 0 -1 0
    outer loop
      vertex 155.445 -95 -86.4586
      vertex 120.229 -95 -83.092
      vertex 116.566 -95 -84.1475
    endloop
  endfacet
  facet normal 0 -1 0
    outer loop
      vertex 155.445 -95 -86.4586
      vertex 116.566 -95 -84.1475
      vertex 112.807 -95 -84.7862
    endloop
  endfacet
  facet normal 0 -1 0
    outer loop
      vertex 135.582 -95 -72.1986
      vertex 155.445 -95 -86.4586
      vertex 157.419 -95 -81.6928
    endloop
  endfacet
  facet normal 0 -1 0
    outer loop
      vertex 155.445 -95 -86.4586
      vertex 112.807 -95 -84.7862
      vertex 109 -95 -85
    endloop
  endfacet
  facet normal 0.167479 0 0.985876
    outer loop
      vertex 119.15 0 112.211
      vertex 124.236 -95 111.347
      vertex 124.236 0 111.347
    endloop
  endfacet
  facet normal 0.167479 0 0.985876
    outer loop
      vertex 124.236 -95 111.347
      vertex 119.15 0 112.211
      vertex 119.15 -95 112.211
    endloop
  endfacet
  facet normal 0.815563 -0 0.578668
    outer loop
      vertex 149.964 -95 95.1805
      vertex 152.949 0 90.9735
      vertex 149.964 0 95.1805
    endloop
  endfacet
  facet normal 0.815563 0 0.578668
    outer loop
      vertex 152.949 0 90.9735
      vertex 149.964 -95 95.1805
      vertex 152.949 -95 90.9735
    endloop
  endfacet
  facet normal 0.875166 -0 0.483823
    outer loop
      vertex 152.949 -95 90.9735
      vertex 155.445 0 86.4586
      vertex 152.949 0 90.9735
    endloop
  endfacet
  facet normal 0.875166 0 0.483823
    outer loop
      vertex 155.445 0 86.4586
      vertex 152.949 -95 90.9735
      vertex 155.445 -95 86.4586
    endloop
  endfacet
  facet normal 0.0560284 0 0.998429
    outer loop
      vertex 114 0 112.5
      vertex 119.15 -95 112.211
      vertex 119.15 0 112.211
    endloop
  endfacet
  facet normal 0.0560284 0 0.998429
    outer loop
      vertex 119.15 -95 112.211
      vertex 114 0 112.5
      vertex 114 -95 112.5
    endloop
  endfacet
  facet normal 1 -0 0
    outer loop
      vertex 160 -95 66.5
      vertex 160 0 -66.5
      vertex 160 0 66.5
    endloop
  endfacet
  facet normal 1 0 0
    outer loop
      vertex 160 0 -66.5
      vertex 160 -95 66.5
      vertex 160 -95 -66.5
    endloop
  endfacet
  facet normal 0.998429 -0 0.056024
    outer loop
      vertex 159.711 -95 71.6504
      vertex 160 0 66.5
      vertex 159.711 0 71.6504
    endloop
  endfacet
  facet normal 0.998429 0 0.056024
    outer loop
      vertex 160 0 66.5
      vertex 159.711 -95 71.6504
      vertex 160 -95 66.5
    endloop
  endfacet
  facet normal 0.815563 0 -0.578668
    outer loop
      vertex 152.949 -95 -90.9735
      vertex 149.964 0 -95.1805
      vertex 152.949 0 -90.9735
    endloop
  endfacet
  facet normal 0.815563 0 -0.578668
    outer loop
      vertex 149.964 0 -95.1805
      vertex 152.949 -95 -90.9735
      vertex 149.964 -95 -95.1805
    endloop
  endfacet
  facet normal 0.167479 0 -0.985876
    outer loop
      vertex 119.15 -95 -112.211
      vertex 124.236 0 -111.347
      vertex 124.236 -95 -111.347
    endloop
  endfacet
  facet normal 0.167479 0 -0.985876
    outer loop
      vertex 124.236 0 -111.347
      vertex 119.15 -95 -112.211
      vertex 119.15 0 -112.211
    endloop
  endfacet
  facet normal 0 0 -1
    outer loop
      vertex 0 -95 -112.5
      vertex 114 0 -112.5
      vertex 114 -95 -112.5
    endloop
  endfacet
  facet normal -0 0 -1
    outer loop
      vertex 114 0 -112.5
      vertex 0 -95 -112.5
      vertex 0 0 -112.5
    endloop
  endfacet
  facet normal 0.27682 0 0.960922
    outer loop
      vertex 124.236 0 111.347
      vertex 129.193 -95 109.919
      vertex 129.193 0 109.919
    endloop
  endfacet
  facet normal 0.27682 0 0.960922
    outer loop
      vertex 129.193 -95 109.919
      vertex 124.236 0 111.347
      vertex 124.236 -95 111.347
    endloop
  endfacet
  facet normal 0.578577 0 0.815628
    outer loop
      vertex 138.473 0 105.449
      vertex 142.681 -95 102.464
      vertex 142.681 0 102.464
    endloop
  endfacet
  facet normal 0.578577 0 0.815628
    outer loop
      vertex 142.681 -95 102.464
      vertex 138.473 0 105.449
      vertex 138.473 -95 105.449
    endloop
  endfacet
  facet normal 0.666358 0 0.745632
    outer loop
      vertex 142.681 0 102.464
      vertex 146.527 -95 99.0269
      vertex 146.527 0 99.0269
    endloop
  endfacet
  facet normal 0.666358 0 0.745632
    outer loop
      vertex 146.527 -95 99.0269
      vertex 142.681 0 102.464
      vertex 142.681 -95 102.464
    endloop
  endfacet
  facet normal 0.745676 -0 0.666309
    outer loop
      vertex 146.527 -95 99.0269
      vertex 149.964 0 95.1805
      vertex 146.527 0 99.0269
    endloop
  endfacet
  facet normal 0.745676 0 0.666309
    outer loop
      vertex 149.964 0 95.1805
      vertex 146.527 -95 99.0269
      vertex 149.964 -95 95.1805
    endloop
  endfacet
  facet normal 0.923884 -0 0.382674
    outer loop
      vertex 155.445 -95 86.4586
      vertex 157.419 0 81.6928
      vertex 155.445 0 86.4586
    endloop
  endfacet
  facet normal 0.923884 0 0.382674
    outer loop
      vertex 157.419 0 81.6928
      vertex 155.445 -95 86.4586
      vertex 157.419 -95 81.6928
    endloop
  endfacet
  facet normal 0.960919 0 -0.27683
    outer loop
      vertex 158.847 -95 -76.736
      vertex 157.419 0 -81.6928
      vertex 158.847 0 -76.736
    endloop
  endfacet
  facet normal 0.960919 0 -0.27683
    outer loop
      vertex 157.419 0 -81.6928
      vertex 158.847 -95 -76.736
      vertex 157.419 -95 -81.6928
    endloop
  endfacet
  facet normal 0.27682 0 -0.960922
    outer loop
      vertex 124.236 -95 -111.347
      vertex 129.193 0 -109.919
      vertex 129.193 -95 -109.919
    endloop
  endfacet
  facet normal 0.27682 0 -0.960922
    outer loop
      vertex 129.193 0 -109.919
      vertex 124.236 -95 -111.347
      vertex 124.236 0 -111.347
    endloop
  endfacet
  facet normal 0.38266 0 -0.923889
    outer loop
      vertex 129.193 -95 -109.919
      vertex 133.959 0 -107.945
      vertex 133.959 -95 -107.945
    endloop
  endfacet
  facet normal 0.38266 0 -0.923889
    outer loop
      vertex 133.959 0 -107.945
      vertex 129.193 -95 -109.919
      vertex 129.193 0 -109.919
    endloop
  endfacet
  facet normal 0.578577 0 -0.815628
    outer loop
      vertex 138.473 -95 -105.449
      vertex 142.681 0 -102.464
      vertex 142.681 -95 -102.464
    endloop
  endfacet
  facet normal 0.578577 0 -0.815628
    outer loop
      vertex 142.681 0 -102.464
      vertex 138.473 -95 -105.449
      vertex 138.473 0 -105.449
    endloop
  endfacet
  facet normal 0.875166 0 -0.483823
    outer loop
      vertex 155.445 -95 -86.4586
      vertex 152.949 0 -90.9735
      vertex 155.445 0 -86.4586
    endloop
  endfacet
  facet normal 0.875166 0 -0.483823
    outer loop
      vertex 152.949 0 -90.9735
      vertex 155.445 -95 -86.4586
      vertex 152.949 -95 -90.9735
    endloop
  endfacet
  facet normal 0.923884 0 -0.382674
    outer loop
      vertex 157.419 -95 -81.6928
      vertex 155.445 0 -86.4586
      vertex 157.419 0 -81.6928
    endloop
  endfacet
  facet normal 0.923884 0 -0.382674
    outer loop
      vertex 155.445 0 -86.4586
      vertex 157.419 -95 -81.6928
      vertex 155.445 -95 -86.4586
    endloop
  endfacet
  facet normal 0.483897 0 -0.875125
    outer loop
      vertex 133.959 -95 -107.945
      vertex 138.473 0 -105.449
      vertex 138.473 -95 -105.449
    endloop
  endfacet
  facet normal 0.483897 0 -0.875125
    outer loop
      vertex 138.473 0 -105.449
      vertex 133.959 -95 -107.945
      vertex 133.959 0 -107.945
    endloop
  endfacet
  facet normal 0.38266 0 0.923889
    outer loop
      vertex 129.193 0 109.919
      vertex 133.959 -95 107.945
      vertex 133.959 0 107.945
    endloop
  endfacet
  facet normal 0.38266 0 0.923889
    outer loop
      vertex 133.959 -95 107.945
      vertex 129.193 0 109.919
      vertex 129.193 -95 109.919
    endloop
  endfacet
  facet normal 0.666358 0 -0.745632
    outer loop
      vertex 142.681 -95 -102.464
      vertex 146.527 0 -99.0269
      vertex 146.527 -95 -99.0269
    endloop
  endfacet
  facet normal 0.666358 0 -0.745632
    outer loop
      vertex 146.527 0 -99.0269
      vertex 142.681 -95 -102.464
      vertex 142.681 0 -102.464
    endloop
  endfacet
  facet normal 0.745676 0 -0.666309
    outer loop
      vertex 149.964 -95 -95.1805
      vertex 146.527 0 -99.0269
      vertex 149.964 0 -95.1805
    endloop
  endfacet
  facet normal 0.745676 0 -0.666309
    outer loop
      vertex 146.527 0 -99.0269
      vertex 149.964 -95 -95.1805
      vertex 146.527 -95 -99.0269
    endloop
  endfacet
  facet normal -0.48359 0 -0.875295
    outer loop
      vertex 132.57 -91.8 105.061
      vertex 136.771 0 102.74
      vertex 136.771 -91.8 102.74
    endloop
  endfacet
  facet normal -0.48359 0 -0.875295
    outer loop
      vertex 136.771 0 102.74
      vertex 132.57 -91.8 105.061
      vertex 132.57 0 105.061
    endloop
  endfacet
  facet normal 0 0 -1
    outer loop
      vertex 0 -91.8 109.3
      vertex 114 0 109.3
      vertex 114 -91.8 109.3
    endloop
  endfacet
  facet normal -0 0 -1
    outer loop
      vertex 114 0 109.3
      vertex 0 -91.8 109.3
      vertex 0 0 109.3
    endloop
  endfacet
  facet normal -0.98587 0 -0.167513
    outer loop
      vertex 156.531 -91.8 71.2921
      vertex 155.727 0 76.0239
      vertex 156.531 0 71.2921
    endloop
  endfacet
  facet normal -0.98587 -0 -0.167513
    outer loop
      vertex 155.727 0 76.0239
      vertex 156.531 -91.8 71.2921
      vertex 155.727 -91.8 76.0239
    endloop
  endfacet
  facet normal -0.98587 0 0.167513
    outer loop
      vertex 155.727 -91.8 -76.0239
      vertex 156.531 0 -71.2921
      vertex 155.727 0 -76.0239
    endloop
  endfacet
  facet normal -0.98587 0 0.167513
    outer loop
      vertex 156.531 0 -71.2921
      vertex 155.727 -91.8 -76.0239
      vertex 156.531 -91.8 -71.2921
    endloop
  endfacet
  facet normal -0.998428 0 0.0560458
    outer loop
      vertex 156.531 -91.8 -71.2921
      vertex 156.8 0 -66.5
      vertex 156.531 0 -71.2921
    endloop
  endfacet
  facet normal -0.998428 0 0.0560458
    outer loop
      vertex 156.8 0 -66.5
      vertex 156.531 -91.8 -71.2921
      vertex 156.8 -91.8 -66.5
    endloop
  endfacet
  facet normal -0.056047 0 0.998428
    outer loop
      vertex 114 0 -109.3
      vertex 118.792 -91.8 -109.031
      vertex 118.792 0 -109.031
    endloop
  endfacet
  facet normal -0.056047 0 0.998428
    outer loop
      vertex 118.792 -91.8 -109.031
      vertex 114 0 -109.3
      vertex 114 -91.8 -109.3
    endloop
  endfacet
  facet normal 0 1 0
    outer loop
      vertex 114 -91.8 109.3
      vertex 112.807 -91.8 84.7862
      vertex 109 -91.8 85
    endloop
  endfacet
  facet normal 0 1 0
    outer loop
      vertex 150.24 -91.8 89.271
      vertex 116.566 -91.8 84.1475
      vertex 112.807 -91.8 84.7862
    endloop
  endfacet
  facet normal 0 1 0
    outer loop
      vertex 150.24 -91.8 89.271
      vertex 120.229 -91.8 83.092
      vertex 116.566 -91.8 84.1475
    endloop
  endfacet
  facet normal 0 1 0
    outer loop
      vertex 150.24 -91.8 89.271
      vertex 123.752 -91.8 81.6329
      vertex 120.229 -91.8 83.092
    endloop
  endfacet
  facet normal 0 1 0
    outer loop
      vertex 135.582 -91.8 72.1986
      vertex 152.561 -91.8 85.0702
      vertex 154.398 -91.8 80.6359
    endloop
  endfacet
  facet normal 0 1 0
    outer loop
      vertex 150.24 -91.8 89.271
      vertex 127.089 -91.8 79.7886
      vertex 123.752 -91.8 81.6329
    endloop
  endfacet
  facet normal 0 1 0
    outer loop
      vertex 150.24 -91.8 89.271
      vertex 130.199 -91.8 77.5823
      vertex 127.089 -91.8 79.7886
    endloop
  endfacet
  facet normal 0 1 0
    outer loop
      vertex 137.789 -91.8 69.0891
      vertex 154.398 -91.8 80.6359
      vertex 155.727 -91.8 76.0239
    endloop
  endfacet
  facet normal 0 1 0
    outer loop
      vertex 150.24 -91.8 89.271
      vertex 133.042 -91.8 75.0416
      vertex 130.199 -91.8 77.5823
    endloop
  endfacet
  facet normal 0 1 0
    outer loop
      vertex 152.561 -91.8 85.0702
      vertex 135.582 -91.8 72.1986
      vertex 133.042 -91.8 75.0416
    endloop
  endfacet
  facet normal 0 1 0
    outer loop
      vertex 137.789 -91.8 69.0891
      vertex 155.727 -91.8 76.0239
      vertex 156.531 -91.8 71.2921
    endloop
  endfacet
  facet normal 0 1 0
    outer loop
      vertex 154.398 -91.8 80.6359
      vertex 137.789 -91.8 69.0891
      vertex 135.582 -91.8 72.1986
    endloop
  endfacet
  facet normal 0 1 0
    outer loop
      vertex 139.633 -91.8 65.752
      vertex 156.531 -91.8 71.2921
      vertex 156.8 -91.8 66.5
    endloop
  endfacet
  facet normal 0 1 0
    outer loop
      vertex 156.531 -91.8 71.2921
      vertex 139.633 -91.8 65.752
      vertex 137.789 -91.8 69.0891
    endloop
  endfacet
  facet normal 0 1 0
    outer loop
      vertex 156.8 -91.8 66.5
      vertex 141.092 -91.8 62.2295
      vertex 139.633 -91.8 65.752
    endloop
  endfacet
  facet normal 0 1 0
    outer loop
      vertex 156.8 -91.8 66.5
      vertex 142.148 -91.8 58.5657
      vertex 141.092 -91.8 62.2295
    endloop
  endfacet
  facet normal 0 1 0
    outer loop
      vertex 156.8 -91.8 66.5
      vertex 142.786 -91.8 54.8068
      vertex 142.148 -91.8 58.5657
    endloop
  endfacet
  facet normal 0 1 0
    outer loop
      vertex 156.8 -91.8 66.5
      vertex 143 -91.8 51
      vertex 142.786 -91.8 54.8068
    endloop
  endfacet
  facet normal 0 1 0
    outer loop
      vertex 156.8 -91.8 66.5
      vertex 143 -91.8 -51
      vertex 143 -91.8 51
    endloop
  endfacet
  facet normal 0 1 -0
    outer loop
      vertex 156.8 -91.8 -66.5
      vertex 143 -91.8 -51
      vertex 156.8 -91.8 66.5
    endloop
  endfacet
  facet normal 0 1 0
    outer loop
      vertex 143 -91.8 -51
      vertex 156.8 -91.8 -66.5
      vertex 142.786 -91.8 -54.8068
    endloop
  endfacet
  facet normal 0 1 0
    outer loop
      vertex 156.8 -91.8 -66.5
      vertex 142.148 -91.8 -58.5657
      vertex 142.786 -91.8 -54.8068
    endloop
  endfacet
  facet normal 0 1 0
    outer loop
      vertex 156.8 -91.8 -66.5
      vertex 141.092 -91.8 -62.2295
      vertex 142.148 -91.8 -58.5657
    endloop
  endfacet
  facet normal 0 1 0
    outer loop
      vertex 156.8 -91.8 -66.5
      vertex 139.633 -91.8 -65.752
      vertex 141.092 -91.8 -62.2295
    endloop
  endfacet
  facet normal 0 1 -0
    outer loop
      vertex 156.531 -91.8 -71.2921
      vertex 139.633 -91.8 -65.752
      vertex 156.8 -91.8 -66.5
    endloop
  endfacet
  facet normal 0 1 0
    outer loop
      vertex 139.633 -91.8 -65.752
      vertex 156.531 -91.8 -71.2921
      vertex 137.789 -91.8 -69.0891
    endloop
  endfacet
  facet normal 0 1 -0
    outer loop
      vertex 155.727 -91.8 -76.0239
      vertex 137.789 -91.8 -69.0891
      vertex 156.531 -91.8 -71.2921
    endloop
  endfacet
  facet normal 0 1 -0
    outer loop
      vertex 154.398 -91.8 -80.6359
      vertex 137.789 -91.8 -69.0891
      vertex 155.727 -91.8 -76.0239
    endloop
  endfacet
  facet normal 0 1 0
    outer loop
      vertex 137.789 -91.8 -69.0891
      vertex 154.398 -91.8 -80.6359
      vertex 135.582 -91.8 -72.1986
    endloop
  endfacet
  facet normal 0 1 -0
    outer loop
      vertex 152.561 -91.8 -85.0702
      vertex 135.582 -91.8 -72.1986
      vertex 154.398 -91.8 -80.6359
    endloop
  endfacet
  facet normal 0 1 0
    outer loop
      vertex 135.582 -91.8 -72.1986
      vertex 152.561 -91.8 -85.0702
      vertex 133.042 -91.8 -75.0416
    endloop
  endfacet
  facet normal 0 1 -0
    outer loop
      vertex 150.24 -91.8 -89.271
      vertex 133.042 -91.8 -75.0416
      vertex 152.561 -91.8 -85.0702
    endloop
  endfacet
  facet normal 0 1 -0
    outer loop
      vertex 147.462 -91.8 -93.1853
      vertex 133.042 -91.8 -75.0416
      vertex 150.24 -91.8 -89.271
    endloop
  endfacet
  facet normal 0 1 0
    outer loop
      vertex 133.042 -91.8 -75.0416
      vertex 147.462 -91.8 -93.1853
      vertex 130.199 -91.8 -77.5823
    endloop
  endfacet
  facet normal 0 1 -0
    outer loop
      vertex 144.264 -91.8 -96.7642
      vertex 130.199 -91.8 -77.5823
      vertex 147.462 -91.8 -93.1853
    endloop
  endfacet
  facet normal 0 1 0
    outer loop
      vertex 130.199 -91.8 -77.5823
      vertex 144.264 -91.8 -96.7642
      vertex 127.089 -91.8 -79.7886
    endloop
  endfacet
  facet normal 0 1 -0
    outer loop
      vertex 140.685 -91.8 -99.9624
      vertex 127.089 -91.8 -79.7886
      vertex 144.264 -91.8 -96.7642
    endloop
  endfacet
  facet normal 0 1 -0
    outer loop
      vertex 136.771 -91.8 -102.74
      vertex 127.089 -91.8 -79.7886
      vertex 140.685 -91.8 -99.9624
    endloop
  endfacet
  facet normal 0 1 0
    outer loop
      vertex 127.089 -91.8 -79.7886
      vertex 136.771 -91.8 -102.74
      vertex 123.752 -91.8 -81.6329
    endloop
  endfacet
  facet normal 0 1 -0
    outer loop
      vertex 132.57 -91.8 -105.061
      vertex 123.752 -91.8 -81.6329
      vertex 136.771 -91.8 -102.74
    endloop
  endfacet
  facet normal 0 1 0
    outer loop
      vertex 123.752 -91.8 -81.6329
      vertex 132.57 -91.8 -105.061
      vertex 120.229 -91.8 -83.092
    endloop
  endfacet
  facet normal 0 1 -0
    outer loop
      vertex 128.136 -91.8 -106.898
      vertex 120.229 -91.8 -83.092
      vertex 132.57 -91.8 -105.061
    endloop
  endfacet
  facet normal 0 1 -0
    outer loop
      vertex 123.524 -91.8 -108.227
      vertex 120.229 -91.8 -83.092
      vertex 128.136 -91.8 -106.898
    endloop
  endfacet
  facet normal 0 1 0
    outer loop
      vertex 120.229 -91.8 -83.092
      vertex 123.524 -91.8 -108.227
      vertex 116.566 -91.8 -84.1475
    endloop
  endfacet
  facet normal 0 1 -0
    outer loop
      vertex 118.792 -91.8 -109.031
      vertex 116.566 -91.8 -84.1475
      vertex 123.524 -91.8 -108.227
    endloop
  endfacet
  facet normal 0 1 0
    outer loop
      vertex 116.566 -91.8 -84.1475
      vertex 118.792 -91.8 -109.031
      vertex 112.807 -91.8 -84.7862
    endloop
  endfacet
  facet normal 0 1 -0
    outer loop
      vertex 114 -91.8 -109.3
      vertex 112.807 -91.8 -84.7862
      vertex 118.792 -91.8 -109.031
    endloop
  endfacet
  facet normal 0 1 0
    outer loop
      vertex 112.807 -91.8 -84.7862
      vertex 114 -91.8 -109.3
      vertex 109 -91.8 -85
    endloop
  endfacet
  facet normal 0 1 0
    outer loop
      vertex 0 -91.8 -109.3
      vertex 109 -91.8 -85
      vertex 114 -91.8 -109.3
    endloop
  endfacet
  facet normal 0 1 0
    outer loop
      vertex 109 -91.8 -85
      vertex 0 -91.8 -109.3
      vertex 0 -91.8 -85
    endloop
  endfacet
  facet normal 0 1 0
    outer loop
      vertex 112.807 -91.8 84.7862
      vertex 114 -91.8 109.3
      vertex 118.792 -91.8 109.031
    endloop
  endfacet
  facet normal 0 1 0
    outer loop
      vertex 112.807 -91.8 84.7862
      vertex 118.792 -91.8 109.031
      vertex 123.524 -91.8 108.227
    endloop
  endfacet
  facet normal 0 1 0
    outer loop
      vertex 112.807 -91.8 84.7862
      vertex 123.524 -91.8 108.227
      vertex 128.136 -91.8 106.898
    endloop
  endfacet
  facet normal 0 1 0
    outer loop
      vertex 112.807 -91.8 84.7862
      vertex 128.136 -91.8 106.898
      vertex 132.57 -91.8 105.061
    endloop
  endfacet
  facet normal 0 1 0
    outer loop
      vertex 112.807 -91.8 84.7862
      vertex 132.57 -91.8 105.061
      vertex 136.771 -91.8 102.74
    endloop
  endfacet
  facet normal 0 1 0
    outer loop
      vertex 112.807 -91.8 84.7862
      vertex 136.771 -91.8 102.74
      vertex 140.685 -91.8 99.9624
    endloop
  endfacet
  facet normal 0 1 0
    outer loop
      vertex 112.807 -91.8 84.7862
      vertex 140.685 -91.8 99.9624
      vertex 144.264 -91.8 96.7642
    endloop
  endfacet
  facet normal 0 1 0
    outer loop
      vertex 112.807 -91.8 84.7862
      vertex 144.264 -91.8 96.7642
      vertex 147.462 -91.8 93.1853
    endloop
  endfacet
  facet normal 0 1 0
    outer loop
      vertex 112.807 -91.8 84.7862
      vertex 147.462 -91.8 93.1853
      vertex 150.24 -91.8 89.271
    endloop
  endfacet
  facet normal 0 1 0
    outer loop
      vertex 133.042 -91.8 75.0416
      vertex 150.24 -91.8 89.271
      vertex 152.561 -91.8 85.0702
    endloop
  endfacet
  facet normal 0 1 0
    outer loop
      vertex 114 -91.8 109.3
      vertex 109 -91.8 85
      vertex 0 -91.8 109.3
    endloop
  endfacet
  facet normal 0 1 0
    outer loop
      vertex 0 -91.8 109.3
      vertex 109 -91.8 85
      vertex 0 -91.8 85
    endloop
  endfacet
  facet normal -0.167506 0 -0.985871
    outer loop
      vertex 118.792 -91.8 109.031
      vertex 123.524 0 108.227
      vertex 123.524 -91.8 108.227
    endloop
  endfacet
  facet normal -0.167506 0 -0.985871
    outer loop
      vertex 123.524 0 108.227
      vertex 118.792 -91.8 109.031
      vertex 118.792 0 109.031
    endloop
  endfacet
  facet normal -0.815496 0 -0.578762
    outer loop
      vertex 150.24 -91.8 89.271
      vertex 147.462 0 93.1853
      vertex 150.24 0 89.271
    endloop
  endfacet
  facet normal -0.815496 -0 -0.578762
    outer loop
      vertex 147.462 0 93.1853
      vertex 150.24 -91.8 89.271
      vertex 147.462 -91.8 93.1853
    endloop
  endfacet
  facet normal -0.875285 0 -0.483607
    outer loop
      vertex 152.561 -91.8 85.0702
      vertex 150.24 0 89.271
      vertex 152.561 0 85.0702
    endloop
  endfacet
  facet normal -0.875285 -0 -0.483607
    outer loop
      vertex 150.24 0 89.271
      vertex 152.561 -91.8 85.0702
      vertex 150.24 -91.8 89.271
    endloop
  endfacet
  facet normal -0.056047 0 -0.998428
    outer loop
      vertex 114 -91.8 109.3
      vertex 118.792 0 109.031
      vertex 118.792 -91.8 109.031
    endloop
  endfacet
  facet normal -0.056047 0 -0.998428
    outer loop
      vertex 118.792 0 109.031
      vertex 114 -91.8 109.3
      vertex 114 0 109.3
    endloop
  endfacet
  facet normal -0.48359 0 0.875295
    outer loop
      vertex 132.57 0 -105.061
      vertex 136.771 -91.8 -102.74
      vertex 136.771 0 -102.74
    endloop
  endfacet
  facet normal -0.48359 0 0.875295
    outer loop
      vertex 136.771 -91.8 -102.74
      vertex 132.57 0 -105.061
      vertex 132.57 -91.8 -105.061
    endloop
  endfacet
  facet normal -1 0 0
    outer loop
      vertex 156.8 -91.8 -66.5
      vertex 156.8 0 66.5
      vertex 156.8 0 -66.5
    endloop
  endfacet
  facet normal -1 -0 0
    outer loop
      vertex 156.8 0 66.5
      vertex 156.8 -91.8 -66.5
      vertex 156.8 -91.8 66.5
    endloop
  endfacet
  facet normal -0.998428 0 -0.0560458
    outer loop
      vertex 156.8 -91.8 66.5
      vertex 156.531 0 71.2921
      vertex 156.8 0 66.5
    endloop
  endfacet
  facet normal -0.998428 -0 -0.0560458
    outer loop
      vertex 156.531 0 71.2921
      vertex 156.8 -91.8 66.5
      vertex 156.531 -91.8 71.2921
    endloop
  endfacet
  facet normal -0 0 1
    outer loop
      vertex 0 0 -109.3
      vertex 114 -91.8 -109.3
      vertex 114 0 -109.3
    endloop
  endfacet
  facet normal 0 0 1
    outer loop
      vertex 114 -91.8 -109.3
      vertex 0 0 -109.3
      vertex 0 -91.8 -109.3
    endloop
  endfacet
  facet normal -0.276894 0 -0.9609
    outer loop
      vertex 123.524 -91.8 108.227
      vertex 128.136 0 106.898
      vertex 128.136 -91.8 106.898
    endloop
  endfacet
  facet normal -0.276894 0 -0.9609
    outer loop
      vertex 128.136 0 106.898
      vertex 123.524 -91.8 108.227
      vertex 123.524 0 108.227
    endloop
  endfacet
  facet normal -0.578736 0 -0.815515
    outer loop
      vertex 136.771 -91.8 102.74
      vertex 140.685 0 99.9624
      vertex 140.685 -91.8 99.9624
    endloop
  endfacet
  facet normal -0.578736 0 -0.815515
    outer loop
      vertex 140.685 0 99.9624
      vertex 136.771 -91.8 102.74
      vertex 136.771 0 102.74
    endloop
  endfacet
  facet normal -0.666325 0 -0.745662
    outer loop
      vertex 140.685 -91.8 99.9624
      vertex 144.264 0 96.7642
      vertex 144.264 -91.8 96.7642
    endloop
  endfacet
  facet normal -0.666325 0 -0.745662
    outer loop
      vertex 144.264 0 96.7642
      vertex 140.685 -91.8 99.9624
      vertex 140.685 0 99.9624
    endloop
  endfacet
  facet normal -0.745673 0 -0.666312
    outer loop
      vertex 147.462 -91.8 93.1853
      vertex 144.264 0 96.7642
      vertex 147.462 0 93.1853
    endloop
  endfacet
  facet normal -0.745673 -0 -0.666312
    outer loop
      vertex 144.264 0 96.7642
      vertex 147.462 -91.8 93.1853
      vertex 144.264 -91.8 96.7642
    endloop
  endfacet
  facet normal -0.923861 0 -0.382728
    outer loop
      vertex 154.398 -91.8 80.6359
      vertex 152.561 0 85.0702
      vertex 154.398 0 80.6359
    endloop
  endfacet
  facet normal -0.923861 -0 -0.382728
    outer loop
      vertex 152.561 0 85.0702
      vertex 154.398 -91.8 80.6359
      vertex 152.561 -91.8 85.0702
    endloop
  endfacet
  facet normal -0.9609 0 0.276894
    outer loop
      vertex 154.398 -91.8 -80.6359
      vertex 155.727 0 -76.0239
      vertex 154.398 0 -80.6359
    endloop
  endfacet
  facet normal -0.9609 0 0.276894
    outer loop
      vertex 155.727 0 -76.0239
      vertex 154.398 -91.8 -80.6359
      vertex 155.727 -91.8 -76.0239
    endloop
  endfacet
  facet normal -0.38275 0 -0.923852
    outer loop
      vertex 128.136 -91.8 106.898
      vertex 132.57 0 105.061
      vertex 132.57 -91.8 105.061
    endloop
  endfacet
  facet normal -0.38275 0 -0.923852
    outer loop
      vertex 132.57 0 105.061
      vertex 128.136 -91.8 106.898
      vertex 128.136 0 106.898
    endloop
  endfacet
  facet normal -0.9609 0 -0.276894
    outer loop
      vertex 155.727 -91.8 76.0239
      vertex 154.398 0 80.6359
      vertex 155.727 0 76.0239
    endloop
  endfacet
  facet normal -0.9609 -0 -0.276894
    outer loop
      vertex 154.398 0 80.6359
      vertex 155.727 -91.8 76.0239
      vertex 154.398 -91.8 80.6359
    endloop
  endfacet
  facet normal -0.276894 0 0.9609
    outer loop
      vertex 123.524 0 -108.227
      vertex 128.136 -91.8 -106.898
      vertex 128.136 0 -106.898
    endloop
  endfacet
  facet normal -0.276894 0 0.9609
    outer loop
      vertex 128.136 -91.8 -106.898
      vertex 123.524 0 -108.227
      vertex 123.524 -91.8 -108.227
    endloop
  endfacet
  facet normal -0.38275 0 0.923852
    outer loop
      vertex 128.136 0 -106.898
      vertex 132.57 -91.8 -105.061
      vertex 132.57 0 -105.061
    endloop
  endfacet
  facet normal -0.38275 0 0.923852
    outer loop
      vertex 132.57 -91.8 -105.061
      vertex 128.136 0 -106.898
      vertex 128.136 -91.8 -106.898
    endloop
  endfacet
  facet normal -0.167506 0 0.985871
    outer loop
      vertex 118.792 0 -109.031
      vertex 123.524 -91.8 -108.227
      vertex 123.524 0 -108.227
    endloop
  endfacet
  facet normal -0.167506 0 0.985871
    outer loop
      vertex 123.524 -91.8 -108.227
      vertex 118.792 0 -109.031
      vertex 118.792 -91.8 -109.031
    endloop
  endfacet
  facet normal -0.875285 0 0.483607
    outer loop
      vertex 150.24 -91.8 -89.271
      vertex 152.561 0 -85.0702
      vertex 150.24 0 -89.271
    endloop
  endfacet
  facet normal -0.875285 0 0.483607
    outer loop
      vertex 152.561 0 -85.0702
      vertex 150.24 -91.8 -89.271
      vertex 152.561 -91.8 -85.0702
    endloop
  endfacet
  facet normal -0.923861 0 0.382728
    outer loop
      vertex 152.561 -91.8 -85.0702
      vertex 154.398 0 -80.6359
      vertex 152.561 0 -85.0702
    endloop
  endfacet
  facet normal -0.923861 0 0.382728
    outer loop
      vertex 154.398 0 -80.6359
      vertex 152.561 -91.8 -85.0702
      vertex 154.398 -91.8 -80.6359
    endloop
  endfacet
  facet normal -0.578736 0 0.815515
    outer loop
      vertex 136.771 0 -102.74
      vertex 140.685 -91.8 -99.9624
      vertex 140.685 0 -99.9624
    endloop
  endfacet
  facet normal -0.578736 0 0.815515
    outer loop
      vertex 140.685 -91.8 -99.9624
      vertex 136.771 0 -102.74
      vertex 136.771 -91.8 -102.74
    endloop
  endfacet
  facet normal -0.815496 0 0.578762
    outer loop
      vertex 147.462 -91.8 -93.1853
      vertex 150.24 0 -89.271
      vertex 147.462 0 -93.1853
    endloop
  endfacet
  facet normal -0.815496 0 0.578762
    outer loop
      vertex 150.24 0 -89.271
      vertex 147.462 -91.8 -93.1853
      vertex 150.24 -91.8 -89.271
    endloop
  endfacet
  facet normal -0.666325 0 0.745662
    outer loop
      vertex 140.685 0 -99.9624
      vertex 144.264 -91.8 -96.7642
      vertex 144.264 0 -96.7642
    endloop
  endfacet
  facet normal -0.666325 0 0.745662
    outer loop
      vertex 144.264 -91.8 -96.7642
      vertex 140.685 0 -99.9624
      vertex 140.685 -91.8 -99.9624
    endloop
  endfacet
  facet normal -0.745673 0 0.666312
    outer loop
      vertex 144.264 -91.8 -96.7642
      vertex 147.462 0 -93.1853
      vertex 144.264 0 -96.7642
    endloop
  endfacet
  facet normal -0.745673 0 0.666312
    outer loop
      vertex 147.462 0 -93.1853
      vertex 144.264 -91.8 -96.7642
      vertex 147.462 -91.8 -93.1853
    endloop
  endfacet
  facet normal 0 0 -1
    outer loop
      vertex 0 -95 85
      vertex 109 -91.8 85
      vertex 109 -95 85
    endloop
  endfacet
  facet normal -0 0 -1
    outer loop
      vertex 109 -91.8 85
      vertex 0 -95 85
      vertex 0 -91.8 85
    endloop
  endfacet
  facet normal -0.578608 0 -0.815606
    outer loop
      vertex 127.089 -95 79.7886
      vertex 130.199 -91.8 77.5823
      vertex 130.199 -95 77.5823
    endloop
  endfacet
  facet normal -0.578608 0 -0.815606
    outer loop
      vertex 130.199 -91.8 77.5823
      vertex 127.089 -95 79.7886
      vertex 127.089 -91.8 79.7886
    endloop
  endfacet
  facet normal -0.998424 0 -0.0561266
    outer loop
      vertex 143 -95 51
      vertex 142.786 -91.8 54.8068
      vertex 143 -91.8 51
    endloop
  endfacet
  facet normal -0.998424 -0 -0.0561266
    outer loop
      vertex 142.786 -91.8 54.8068
      vertex 143 -95 51
      vertex 142.786 -95 54.8068
    endloop
  endfacet
  facet normal -0.666352 0 0.745637
    outer loop
      vertex 130.199 -91.8 -77.5823
      vertex 133.042 -95 -75.0416
      vertex 133.042 -91.8 -75.0416
    endloop
  endfacet
  facet normal -0.666352 0 0.745637
    outer loop
      vertex 133.042 -95 -75.0416
      vertex 130.199 -91.8 -77.5823
      vertex 130.199 -95 -77.5823
    endloop
  endfacet
  facet normal -0 0 1
    outer loop
      vertex 0 -91.8 -85
      vertex 109 -95 -85
      vertex 109 -91.8 -85
    endloop
  endfacet
  facet normal 0 0 1
    outer loop
      vertex 109 -95 -85
      vertex 0 -91.8 -85
      vertex 0 -95 -85
    endloop
  endfacet
  facet normal -0.875262 0 -0.483649
    outer loop
      vertex 139.633 -95 65.752
      vertex 137.789 -91.8 69.0891
      vertex 139.633 -91.8 65.752
    endloop
  endfacet
  facet normal -0.875262 -0 -0.483649
    outer loop
      vertex 137.789 -91.8 69.0891
      vertex 139.633 -95 65.752
      vertex 137.789 -95 69.0891
    endloop
  endfacet
  facet normal -0.0560714 0 -0.998427
    outer loop
      vertex 109 -95 85
      vertex 112.807 -91.8 84.7862
      vertex 112.807 -95 84.7862
    endloop
  endfacet
  facet normal -0.0560714 0 -0.998427
    outer loop
      vertex 112.807 -91.8 84.7862
      vertex 109 -95 85
      vertex 109 -91.8 85
    endloop
  endfacet
  facet normal -0.276886 0 -0.960903
    outer loop
      vertex 116.566 -95 84.1475
      vertex 120.229 -91.8 83.092
      vertex 120.229 -95 83.092
    endloop
  endfacet
  facet normal -0.276886 0 -0.960903
    outer loop
      vertex 120.229 -91.8 83.092
      vertex 116.566 -95 84.1475
      vertex 116.566 -91.8 84.1475
    endloop
  endfacet
  facet normal -0.923886 0 -0.382668
    outer loop
      vertex 141.092 -95 62.2295
      vertex 139.633 -91.8 65.752
      vertex 141.092 -91.8 62.2295
    endloop
  endfacet
  facet normal -0.923886 -0 -0.382668
    outer loop
      vertex 139.633 -91.8 65.752
      vertex 141.092 -95 62.2295
      vertex 139.633 -95 65.752
    endloop
  endfacet
  facet normal -1 0 0
    outer loop
      vertex 143 -95 -51
      vertex 143 -91.8 51
      vertex 143 -91.8 -51
    endloop
  endfacet
  facet normal -1 -0 0
    outer loop
      vertex 143 -91.8 51
      vertex 143 -95 -51
      vertex 143 -95 51
    endloop
  endfacet
  facet normal -0.815475 0 0.578792
    outer loop
      vertex 135.582 -95 -72.1986
      vertex 137.789 -91.8 -69.0891
      vertex 135.582 -91.8 -72.1986
    endloop
  endfacet
  facet normal -0.815475 0 0.578792
    outer loop
      vertex 137.789 -91.8 -69.0891
      vertex 135.582 -95 -72.1986
      vertex 137.789 -95 -69.0891
    endloop
  endfacet
  facet normal -0.745728 0 0.66625
    outer loop
      vertex 133.042 -95 -75.0416
      vertex 135.582 -91.8 -72.1986
      vertex 133.042 -91.8 -75.0416
    endloop
  endfacet
  facet normal -0.745728 0 0.66625
    outer loop
      vertex 135.582 -91.8 -72.1986
      vertex 133.042 -95 -75.0416
      vertex 135.582 -95 -72.1986
    endloop
  endfacet
  facet normal -0.48372 0 0.875223
    outer loop
      vertex 123.752 -91.8 -81.6329
      vertex 127.089 -95 -79.7886
      vertex 127.089 -91.8 -79.7886
    endloop
  endfacet
  facet normal -0.48372 0 0.875223
    outer loop
      vertex 127.089 -95 -79.7886
      vertex 123.752 -91.8 -81.6329
      vertex 123.752 -95 -81.6329
    endloop
  endfacet
  facet normal -0.0560714 0 0.998427
    outer loop
      vertex 109 -91.8 -85
      vertex 112.807 -95 -84.7862
      vertex 112.807 -91.8 -84.7862
    endloop
  endfacet
  facet normal -0.0560714 0 0.998427
    outer loop
      vertex 112.807 -95 -84.7862
      vertex 109 -91.8 -85
      vertex 109 -95 -85
    endloop
  endfacet
  facet normal -0.745728 0 -0.66625
    outer loop
      vertex 135.582 -95 72.1986
      vertex 133.042 -91.8 75.0416
      vertex 135.582 -91.8 72.1986
    endloop
  endfacet
  facet normal -0.745728 -0 -0.66625
    outer loop
      vertex 133.042 -91.8 75.0416
      vertex 135.582 -95 72.1986
      vertex 133.042 -95 75.0416
    endloop
  endfacet
  facet normal -0.48372 0 -0.875223
    outer loop
      vertex 123.752 -95 81.6329
      vertex 127.089 -91.8 79.7886
      vertex 127.089 -95 79.7886
    endloop
  endfacet
  facet normal -0.48372 0 -0.875223
    outer loop
      vertex 127.089 -91.8 79.7886
      vertex 123.752 -95 81.6329
      vertex 123.752 -91.8 81.6329
    endloop
  endfacet
  facet normal -0.382644 0 -0.923896
    outer loop
      vertex 120.229 -95 83.092
      vertex 123.752 -91.8 81.6329
      vertex 123.752 -95 81.6329
    endloop
  endfacet
  facet normal -0.382644 0 -0.923896
    outer loop
      vertex 123.752 -91.8 81.6329
      vertex 120.229 -95 83.092
      vertex 120.229 -91.8 83.092
    endloop
  endfacet
  facet normal -0.666352 0 -0.745637
    outer loop
      vertex 130.199 -95 77.5823
      vertex 133.042 -91.8 75.0416
      vertex 133.042 -95 75.0416
    endloop
  endfacet
  facet normal -0.666352 0 -0.745637
    outer loop
      vertex 133.042 -91.8 75.0416
      vertex 130.199 -95 77.5823
      vertex 130.199 -91.8 77.5823
    endloop
  endfacet
  facet normal -0.815475 0 -0.578792
    outer loop
      vertex 137.789 -95 69.0891
      vertex 135.582 -91.8 72.1986
      vertex 137.789 -91.8 69.0891
    endloop
  endfacet
  facet normal -0.815475 -0 -0.578792
    outer loop
      vertex 135.582 -91.8 72.1986
      vertex 137.789 -95 69.0891
      vertex 135.582 -95 72.1986
    endloop
  endfacet
  facet normal -0.167511 0 -0.98587
    outer loop
      vertex 112.807 -95 84.7862
      vertex 116.566 -91.8 84.1475
      vertex 116.566 -95 84.1475
    endloop
  endfacet
  facet normal -0.167511 0 -0.98587
    outer loop
      vertex 116.566 -91.8 84.1475
      vertex 112.807 -95 84.7862
      vertex 112.807 -91.8 84.7862
    endloop
  endfacet
  facet normal -0.875262 0 0.483649
    outer loop
      vertex 137.789 -95 -69.0891
      vertex 139.633 -91.8 -65.752
      vertex 137.789 -91.8 -69.0891
    endloop
  endfacet
  facet normal -0.875262 0 0.483649
    outer loop
      vertex 139.633 -91.8 -65.752
      vertex 137.789 -95 -69.0891
      vertex 139.633 -95 -65.752
    endloop
  endfacet
  facet normal -0.578608 0 0.815606
    outer loop
      vertex 127.089 -91.8 -79.7886
      vertex 130.199 -95 -77.5823
      vertex 130.199 -91.8 -77.5823
    endloop
  endfacet
  facet normal -0.578608 0 0.815606
    outer loop
      vertex 130.199 -95 -77.5823
      vertex 127.089 -91.8 -79.7886
      vertex 127.089 -95 -79.7886
    endloop
  endfacet
  facet normal -0.382644 0 0.923896
    outer loop
      vertex 120.229 -91.8 -83.092
      vertex 123.752 -95 -81.6329
      vertex 123.752 -91.8 -81.6329
    endloop
  endfacet
  facet normal -0.382644 0 0.923896
    outer loop
      vertex 123.752 -95 -81.6329
      vertex 120.229 -91.8 -83.092
      vertex 120.229 -95 -83.092
    endloop
  endfacet
  facet normal -0.276886 0 0.960903
    outer loop
      vertex 116.566 -91.8 -84.1475
      vertex 120.229 -95 -83.092
      vertex 120.229 -91.8 -83.092
    endloop
  endfacet
  facet normal -0.276886 0 0.960903
    outer loop
      vertex 120.229 -95 -83.092
      vertex 116.566 -91.8 -84.1475
      vertex 116.566 -95 -84.1475
    endloop
  endfacet
  facet normal -0.167511 0 0.98587
    outer loop
      vertex 112.807 -91.8 -84.7862
      vertex 116.566 -95 -84.1475
      vertex 116.566 -91.8 -84.1475
    endloop
  endfacet
  facet normal -0.167511 0 0.98587
    outer loop
      vertex 116.566 -95 -84.1475
      vertex 112.807 -91.8 -84.7862
      vertex 112.807 -95 -84.7862
    endloop
  endfacet
  facet normal -0.923886 0 0.382668
    outer loop
      vertex 139.633 -95 -65.752
      vertex 141.092 -91.8 -62.2295
      vertex 139.633 -91.8 -65.752
    endloop
  endfacet
  facet normal -0.923886 0 0.382668
    outer loop
      vertex 141.092 -91.8 -62.2295
      vertex 139.633 -95 -65.752
      vertex 141.092 -95 -62.2295
    endloop
  endfacet
  facet normal -0.960884 0 -0.276951
    outer loop
      vertex 142.148 -95 58.5657
      vertex 141.092 -91.8 62.2295
      vertex 142.148 -91.8 58.5657
    endloop
  endfacet
  facet normal -0.960884 -0 -0.276951
    outer loop
      vertex 141.092 -91.8 62.2295
      vertex 142.148 -95 58.5657
      vertex 141.092 -95 62.2295
    endloop
  endfacet
  facet normal -0.9859 0 -0.167337
    outer loop
      vertex 142.786 -95 54.8068
      vertex 142.148 -91.8 58.5657
      vertex 142.786 -91.8 54.8068
    endloop
  endfacet
  facet normal -0.9859 -0 -0.167337
    outer loop
      vertex 142.148 -91.8 58.5657
      vertex 142.786 -95 54.8068
      vertex 142.148 -95 58.5657
    endloop
  endfacet
  facet normal -0.960884 0 0.276951
    outer loop
      vertex 141.092 -95 -62.2295
      vertex 142.148 -91.8 -58.5657
      vertex 141.092 -91.8 -62.2295
    endloop
  endfacet
  facet normal -0.960884 0 0.276951
    outer loop
      vertex 142.148 -91.8 -58.5657
      vertex 141.092 -95 -62.2295
      vertex 142.148 -95 -58.5657
    endloop
  endfacet
  facet normal -0.9859 0 0.167337
    outer loop
      vertex 142.148 -95 -58.5657
      vertex 142.786 -91.8 -54.8068
      vertex 142.148 -91.8 -58.5657
    endloop
  endfacet
  facet normal -0.9859 0 0.167337
    outer loop
      vertex 142.786 -91.8 -54.8068
      vertex 142.148 -95 -58.5657
      vertex 142.786 -95 -54.8068
    endloop
  endfacet
  facet normal -0.998424 0 0.0561266
    outer loop
      vertex 142.786 -95 -54.8068
      vertex 143 -91.8 -51
      vertex 142.786 -91.8 -54.8068
    endloop
  endfacet
  facet normal -0.998424 0 0.0561266
    outer loop
      vertex 143 -91.8 -51
      vertex 142.786 -95 -54.8068
      vertex 143 -95 -51
    endloop
  endfacet
  facet normal 0 1 0
    outer loop
      vertex 119.15 0 112.211
      vertex 118.792 0 109.031
      vertex 114 0 109.3
    endloop
  endfacet
  facet normal 0 1 0
    outer loop
      vertex 124.236 0 111.347
      vertex 123.524 0 108.227
      vertex 118.792 0 109.031
    endloop
  endfacet
  facet normal 0 1 0
    outer loop
      vertex 128.136 0 106.898
      vertex 129.193 0 109.919
      vertex 133.959 0 107.945
    endloop
  endfacet
  facet normal 0 1 0
    outer loop
      vertex 129.193 0 109.919
      vertex 128.136 0 106.898
      vertex 123.524 0 108.227
    endloop
  endfacet
  facet normal 0 1 0
    outer loop
      vertex 132.57 0 105.061
      vertex 133.959 0 107.945
      vertex 138.473 0 105.449
    endloop
  endfacet
  facet normal 0 1 0
    outer loop
      vertex 133.959 0 107.945
      vertex 132.57 0 105.061
      vertex 128.136 0 106.898
    endloop
  endfacet
  facet normal 0 1 0
    outer loop
      vertex 138.473 0 105.449
      vertex 136.771 0 102.74
      vertex 132.57 0 105.061
    endloop
  endfacet
  facet normal 0 1 0
    outer loop
      vertex 142.681 0 102.464
      vertex 136.771 0 102.74
      vertex 138.473 0 105.449
    endloop
  endfacet
  facet normal 0 1 0
    outer loop
      vertex 142.681 0 102.464
      vertex 140.685 0 99.9624
      vertex 136.771 0 102.74
    endloop
  endfacet
  facet normal 0 1 0
    outer loop
      vertex 146.527 0 99.0269
      vertex 140.685 0 99.9624
      vertex 142.681 0 102.464
    endloop
  endfacet
  facet normal 0 1 0
    outer loop
      vertex 146.527 0 99.0269
      vertex 144.264 0 96.7642
      vertex 140.685 0 99.9624
    endloop
  endfacet
  facet normal 0 1 0
    outer loop
      vertex 149.964 0 95.1805
      vertex 144.264 0 96.7642
      vertex 146.527 0 99.0269
    endloop
  endfacet
  facet normal 0 1 0
    outer loop
      vertex 149.964 0 95.1805
      vertex 147.462 0 93.1853
      vertex 144.264 0 96.7642
    endloop
  endfacet
  facet normal 0 1 0
    outer loop
      vertex 152.949 0 90.9735
      vertex 147.462 0 93.1853
      vertex 149.964 0 95.1805
    endloop
  endfacet
  facet normal 0 1 0
    outer loop
      vertex 152.949 0 90.9735
      vertex 150.24 0 89.271
      vertex 147.462 0 93.1853
    endloop
  endfacet
  facet normal 0 1 0
    outer loop
      vertex 155.445 0 86.4586
      vertex 150.24 0 89.271
      vertex 152.949 0 90.9735
    endloop
  endfacet
  facet normal 0 1 0
    outer loop
      vertex 155.445 0 86.4586
      vertex 152.561 0 85.0702
      vertex 150.24 0 89.271
    endloop
  endfacet
  facet normal 0 1 0
    outer loop
      vertex 157.419 0 81.6928
      vertex 152.561 0 85.0702
      vertex 155.445 0 86.4586
    endloop
  endfacet
  facet normal 0 1 0
    outer loop
      vertex 157.419 0 81.6928
      vertex 154.398 0 80.6359
      vertex 152.561 0 85.0702
    endloop
  endfacet
  facet normal 0 1 0
    outer loop
      vertex 158.847 0 76.736
      vertex 154.398 0 80.6359
      vertex 157.419 0 81.6928
    endloop
  endfacet
  facet normal 0 1 0
    outer loop
      vertex 158.847 0 76.736
      vertex 155.727 0 76.0239
      vertex 154.398 0 80.6359
    endloop
  endfacet
  facet normal 0 1 0
    outer loop
      vertex 159.711 0 71.6504
      vertex 155.727 0 76.0239
      vertex 158.847 0 76.736
    endloop
  endfacet
  facet normal 0 1 0
    outer loop
      vertex 159.711 0 71.6504
      vertex 156.531 0 71.2921
      vertex 155.727 0 76.0239
    endloop
  endfacet
  facet normal 0 1 0
    outer loop
      vertex 160 0 66.5
      vertex 156.531 0 71.2921
      vertex 159.711 0 71.6504
    endloop
  endfacet
  facet normal 0 1 0
    outer loop
      vertex 160 0 66.5
      vertex 156.8 0 66.5
      vertex 156.531 0 71.2921
    endloop
  endfacet
  facet normal 0 1 -0
    outer loop
      vertex 160 0 -66.5
      vertex 156.8 0 66.5
      vertex 160 0 66.5
    endloop
  endfacet
  facet normal 0 1 0
    outer loop
      vertex 160 0 -66.5
      vertex 156.8 0 -66.5
      vertex 156.8 0 66.5
    endloop
  endfacet
  facet normal 0 1 0
    outer loop
      vertex 160 0 -66.5
      vertex 156.531 0 -71.2921
      vertex 156.8 0 -66.5
    endloop
  endfacet
  facet normal 0 1 -0
    outer loop
      vertex 159.711 0 -71.6504
      vertex 156.531 0 -71.2921
      vertex 160 0 -66.5
    endloop
  endfacet
  facet normal 0 1 0
    outer loop
      vertex 159.711 0 -71.6504
      vertex 155.727 0 -76.0239
      vertex 156.531 0 -71.2921
    endloop
  endfacet
  facet normal 0 1 -0
    outer loop
      vertex 158.847 0 -76.736
      vertex 155.727 0 -76.0239
      vertex 159.711 0 -71.6504
    endloop
  endfacet
  facet normal 0 1 0
    outer loop
      vertex 158.847 0 -76.736
      vertex 154.398 0 -80.6359
      vertex 155.727 0 -76.0239
    endloop
  endfacet
  facet normal 0 1 -0
    outer loop
      vertex 157.419 0 -81.6928
      vertex 154.398 0 -80.6359
      vertex 158.847 0 -76.736
    endloop
  endfacet
  facet normal 0 1 0
    outer loop
      vertex 157.419 0 -81.6928
      vertex 152.561 0 -85.0702
      vertex 154.398 0 -80.6359
    endloop
  endfacet
  facet normal 0 1 -0
    outer loop
      vertex 155.445 0 -86.4586
      vertex 152.561 0 -85.0702
      vertex 157.419 0 -81.6928
    endloop
  endfacet
  facet normal 0 1 0
    outer loop
      vertex 155.445 0 -86.4586
      vertex 150.24 0 -89.271
      vertex 152.561 0 -85.0702
    endloop
  endfacet
  facet normal 0 1 -0
    outer loop
      vertex 152.949 0 -90.9735
      vertex 150.24 0 -89.271
      vertex 155.445 0 -86.4586
    endloop
  endfacet
  facet normal 0 1 0
    outer loop
      vertex 152.949 0 -90.9735
      vertex 147.462 0 -93.1853
      vertex 150.24 0 -89.271
    endloop
  endfacet
  facet normal 0 1 -0
    outer loop
      vertex 149.964 0 -95.1805
      vertex 147.462 0 -93.1853
      vertex 152.949 0 -90.9735
    endloop
  endfacet
  facet normal 0 1 0
    outer loop
      vertex 149.964 0 -95.1805
      vertex 144.264 0 -96.7642
      vertex 147.462 0 -93.1853
    endloop
  endfacet
  facet normal 0 1 -0
    outer loop
      vertex 146.527 0 -99.0269
      vertex 144.264 0 -96.7642
      vertex 149.964 0 -95.1805
    endloop
  endfacet
  facet normal 0 1 0
    outer loop
      vertex 146.527 0 -99.0269
      vertex 140.685 0 -99.9624
      vertex 144.264 0 -96.7642
    endloop
  endfacet
  facet normal 0 1 -0
    outer loop
      vertex 142.681 0 -102.464
      vertex 140.685 0 -99.9624
      vertex 146.527 0 -99.0269
    endloop
  endfacet
  facet normal 0 1 0
    outer loop
      vertex 142.681 0 -102.464
      vertex 136.771 0 -102.74
      vertex 140.685 0 -99.9624
    endloop
  endfacet
  facet normal 0 1 -0
    outer loop
      vertex 138.473 0 -105.449
      vertex 136.771 0 -102.74
      vertex 142.681 0 -102.464
    endloop
  endfacet
  facet normal 0 1 0
    outer loop
      vertex 136.771 0 -102.74
      vertex 138.473 0 -105.449
      vertex 132.57 0 -105.061
    endloop
  endfacet
  facet normal 0 1 -0
    outer loop
      vertex 133.959 0 -107.945
      vertex 132.57 0 -105.061
      vertex 138.473 0 -105.449
    endloop
  endfacet
  facet normal 0 1 0
    outer loop
      vertex 132.57 0 -105.061
      vertex 133.959 0 -107.945
      vertex 128.136 0 -106.898
    endloop
  endfacet
  facet normal 0 1 -0
    outer loop
      vertex 129.193 0 -109.919
      vertex 128.136 0 -106.898
      vertex 133.959 0 -107.945
    endloop
  endfacet
  facet normal 0 1 0
    outer loop
      vertex 128.136 0 -106.898
      vertex 129.193 0 -109.919
      vertex 123.524 0 -108.227
    endloop
  endfacet
  facet normal 0 1 -0
    outer loop
      vertex 124.236 0 -111.347
      vertex 123.524 0 -108.227
      vertex 129.193 0 -109.919
    endloop
  endfacet
  facet normal 0 1 0
    outer loop
      vertex 123.524 0 -108.227
      vertex 124.236 0 -111.347
      vertex 118.792 0 -109.031
    endloop
  endfacet
  facet normal 0 1 -0
    outer loop
      vertex 119.15 0 -112.211
      vertex 118.792 0 -109.031
      vertex 124.236 0 -111.347
    endloop
  endfacet
  facet normal 0 1 0
    outer loop
      vertex 118.792 0 -109.031
      vertex 119.15 0 -112.211
      vertex 114 0 -109.3
    endloop
  endfacet
  facet normal 0 1 0
    outer loop
      vertex 114 0 -109.3
      vertex 119.15 0 -112.211
      vertex 114 0 -112.5
    endloop
  endfacet
  facet normal 0 1 0
    outer loop
      vertex 114 0 -109.3
      vertex 114 0 -112.5
      vertex 0 0 -109.3
    endloop
  endfacet
  facet normal 0 1 0
    outer loop
      vertex 0 0 -109.3
      vertex 114 0 -112.5
      vertex 0 0 -112.5
    endloop
  endfacet
  facet normal 0 1 0
    outer loop
      vertex 114 0 109.3
      vertex 114 0 112.5
      vertex 119.15 0 112.211
    endloop
  endfacet
  facet normal 0 1 0
    outer loop
      vertex 118.792 0 109.031
      vertex 119.15 0 112.211
      vertex 124.236 0 111.347
    endloop
  endfacet
  facet normal 0 1 0
    outer loop
      vertex 123.524 0 108.227
      vertex 124.236 0 111.347
      vertex 129.193 0 109.919
    endloop
  endfacet
  facet normal 0 1 0
    outer loop
      vertex 114 0 112.5
      vertex 114 0 109.3
      vertex 0 0 112.5
    endloop
  endfacet
  facet normal 0 1 0
    outer loop
      vertex 0 0 112.5
      vertex 114 0 109.3
      vertex 0 0 109.3
    endloop
  endfacet
  facet normal -1 0 0
    outer loop
      vertex 0 -91.8 85
      vertex 0 -95 85
      vertex 0 -91.8 109.3
    endloop
  endfacet
  facet normal -1 0 0
    outer loop
      vertex 0 -91.8 109.3
      vertex 0 0 112.5
      vertex 0 0 109.3
    endloop
  endfacet
  facet normal -1 0 0
    outer loop
      vertex 0 -91.8 109.3
      vertex 0 -95 112.5
      vertex 0 0 112.5
    endloop
  endfacet
  facet normal -1 0 0
    outer loop
      vertex 0 -95 112.5
      vertex 0 -91.8 109.3
      vertex 0 -95 85
    endloop
  endfacet
  facet normal -1 0 0
    outer loop
      vertex 0 0 -112.5
      vertex 0 -91.8 -109.3
      vertex 0 0 -109.3
    endloop
  endfacet
  facet normal -1 0 0
    outer loop
      vertex 0 -95 -112.5
      vertex 0 -91.8 -109.3
      vertex 0 0 -112.5
    endloop
  endfacet
  facet normal -1 0 0
    outer loop
      vertex 0 -95 -85
      vertex 0 -91.8 -109.3
      vertex 0 -95 -112.5
    endloop
  endfacet
  facet normal -1 0 0
    outer loop
      vertex 0 -91.8 -109.3
      vertex 0 -95 -85
      vertex 0 -91.8 -85
    endloop
  endfacet
endsolid OpenSCAD_Model
