solid OpenSCAD_Model
  facet normal -0.707131 0.707083 0
    outer loop
      vertex 165.944 83.9194 12
      vertex 168.908 86.8836 157
      vertex 168.908 86.8836 12
    endloop
  endfacet
  facet normal -0.707131 0.707083 0
    outer loop
      vertex 168.908 86.8836 157
      vertex 165.944 83.9194 12
      vertex 165.944 83.9194 157
    endloop
  endfacet
  facet normal 0.707083 -0.707131 0
    outer loop
      vertex 83.9194 165.944 157
      vertex 86.8836 168.908 12
      vertex 86.8836 168.908 157
    endloop
  endfacet
  facet normal 0.707083 -0.707131 0
    outer loop
      vertex 86.8836 168.908 12
      vertex 83.9194 165.944 157
      vertex 83.9194 165.944 12
    endloop
  endfacet
  facet normal 0 0 -1
    outer loop
      vertex 165.727 84.4422 157
      vertex 168.908 86.8836 157
      vertex 165.944 83.9194 157
    endloop
  endfacet
  facet normal 0 0 -1
    outer loop
      vertex 150.477 109.328 157
      vertex 168.908 86.8836 157
      vertex 165.727 84.4422 157
    endloop
  endfacet
  facet normal 0 0 -1
    outer loop
      vertex 168.908 86.8836 157
      vertex 150.477 109.328 157
      vertex 153.713 111.679 157
    endloop
  endfacet
  facet normal 0 0 -1
    outer loop
      vertex 150.477 109.328 157
      vertex 134.35 134.35 157
      vertex 153.713 111.679 157
    endloop
  endfacet
  facet normal 0 0 -1
    outer loop
      vertex 131.522 131.522 157
      vertex 134.35 134.35 157
      vertex 150.477 109.328 157
    endloop
  endfacet
  facet normal 0 0 -1
    outer loop
      vertex 131.522 131.522 157
      vertex 111.679 153.713 157
      vertex 134.35 134.35 157
    endloop
  endfacet
  facet normal 0 0 -1
    outer loop
      vertex 109.328 150.477 157
      vertex 111.679 153.713 157
      vertex 131.522 131.522 157
    endloop
  endfacet
  facet normal 0 0 -1
    outer loop
      vertex 109.328 150.477 157
      vertex 86.8836 168.908 157
      vertex 111.679 153.713 157
    endloop
  endfacet
  facet normal 0 0 -1
    outer loop
      vertex 84.4422 165.727 157
      vertex 86.8836 168.908 157
      vertex 109.328 150.477 157
    endloop
  endfacet
  facet normal 0 0 -1
    outer loop
      vertex 86.8836 168.908 157
      vertex 84.4422 165.727 157
      vertex 83.9194 165.944 157
    endloop
  endfacet
  facet normal 0.996918 0.078452 0
    outer loop
      vertex 190 0 160
      vertex 187.661 29.7225 12
      vertex 187.661 29.7225 160
    endloop
  endfacet
  facet normal 0.996918 0.078452 0
    outer loop
      vertex 187.661 29.7225 12
      vertex 190 0 160
      vertex 190 0 12
    endloop
  endfacet
  facet normal 0.078452 0.996918 -0
    outer loop
      vertex 29.7225 187.661 12
      vertex 0 190 160
      vertex 29.7225 187.661 160
    endloop
  endfacet
  facet normal 0.078452 0.996918 0
    outer loop
      vertex 0 190 160
      vertex 29.7225 187.661 12
      vertex 0 190 12
    endloop
  endfacet
  facet normal 0.760404 0.649451 0
    outer loop
      vertex 153.713 111.679 160
      vertex 134.35 134.35 157
      vertex 134.35 134.35 160
    endloop
  endfacet
  facet normal 0.760404 0.649451 0
    outer loop
      vertex 134.35 134.35 157
      vertex 153.713 111.679 160
      vertex 153.713 111.679 157
    endloop
  endfacet
  facet normal 0 0 -1
    outer loop
      vertex 186 0 12
      vertex 187.661 29.7225 12
      vertex 190 0 12
    endloop
  endfacet
  facet normal 0 0 -1
    outer loop
      vertex 183.71 29.0968 12
      vertex 187.661 29.7225 12
      vertex 186 0 12
    endloop
  endfacet
  facet normal 0 0 -1
    outer loop
      vertex 183.71 29.0968 12
      vertex 180.701 58.7132 12
      vertex 187.661 29.7225 12
    endloop
  endfacet
  facet normal 0 0 -1
    outer loop
      vertex 176.897 57.4772 12
      vertex 180.701 58.7132 12
      vertex 183.71 29.0968 12
    endloop
  endfacet
  facet normal 0 0 -1
    outer loop
      vertex 165.944 83.9194 12
      vertex 180.701 58.7132 12
      vertex 176.897 57.4772 12
    endloop
  endfacet
  facet normal 0 0 -1
    outer loop
      vertex 180.701 58.7132 12
      vertex 165.944 83.9194 12
      vertex 169.291 86.2582 12
    endloop
  endfacet
  facet normal -0 0 -1
    outer loop
      vertex 169.291 86.2582 12
      vertex 165.944 83.9194 12
      vertex 168.908 86.8836 12
    endloop
  endfacet
  facet normal 0 0 -1
    outer loop
      vertex 83.9194 165.944 12
      vertex 86.2582 169.291 12
      vertex 86.8836 168.908 12
    endloop
  endfacet
  facet normal 0 0 -1
    outer loop
      vertex 83.9194 165.944 12
      vertex 58.7132 180.701 12
      vertex 86.2582 169.291 12
    endloop
  endfacet
  facet normal 0 0 -1
    outer loop
      vertex 57.4772 176.897 12
      vertex 58.7132 180.701 12
      vertex 83.9194 165.944 12
    endloop
  endfacet
  facet normal 0 0 -1
    outer loop
      vertex 57.4772 176.897 12
      vertex 29.7225 187.661 12
      vertex 58.7132 180.701 12
    endloop
  endfacet
  facet normal 0 0 -1
    outer loop
      vertex 29.0968 183.71 12
      vertex 29.7225 187.661 12
      vertex 57.4772 176.897 12
    endloop
  endfacet
  facet normal 0 0 -1
    outer loop
      vertex 0 186 12
      vertex 29.7225 187.661 12
      vertex 29.0968 183.71 12
    endloop
  endfacet
  facet normal -0 0 -1
    outer loop
      vertex 29.7225 187.661 12
      vertex 0 186 12
      vertex 0 190 12
    endloop
  endfacet
  facet normal 0.923874 0.382697 0
    outer loop
      vertex 180.701 58.7132 160
      vertex 169.291 86.2582 12
      vertex 169.291 86.2582 160
    endloop
  endfacet
  facet normal 0.923874 0.382697 0
    outer loop
      vertex 169.291 86.2582 12
      vertex 180.701 58.7132 160
      vertex 180.701 58.7132 12
    endloop
  endfacet
  facet normal 0.97237 0.233444 0
    outer loop
      vertex 187.661 29.7225 160
      vertex 180.701 58.7132 12
      vertex 180.701 58.7132 160
    endloop
  endfacet
  facet normal 0.97237 0.233444 0
    outer loop
      vertex 180.701 58.7132 12
      vertex 187.661 29.7225 160
      vertex 187.661 29.7225 12
    endloop
  endfacet
  facet normal 0.852635 0.522508 0
    outer loop
      vertex 153.713 111.679 160
      vertex 168.908 86.8836 157
      vertex 153.713 111.679 157
    endloop
  endfacet
  facet normal 0.852638 0.522501 7.06015e-05
    outer loop
      vertex 169.291 86.2582 160
      vertex 168.908 86.8836 157
      vertex 153.713 111.679 160
    endloop
  endfacet
  facet normal 0.852789 0.522255 -0
    outer loop
      vertex 169.291 86.2582 12
      vertex 168.908 86.8836 157
      vertex 169.291 86.2582 160
    endloop
  endfacet
  facet normal 0.852789 0.522255 0
    outer loop
      vertex 168.908 86.8836 157
      vertex 169.291 86.2582 12
      vertex 168.908 86.8836 12
    endloop
  endfacet
  facet normal 0.382697 0.923874 -0
    outer loop
      vertex 86.2582 169.291 12
      vertex 58.7132 180.701 160
      vertex 86.2582 169.291 160
    endloop
  endfacet
  facet normal 0.382697 0.923874 0
    outer loop
      vertex 58.7132 180.701 160
      vertex 86.2582 169.291 12
      vertex 58.7132 180.701 12
    endloop
  endfacet
  facet normal 0.233444 0.97237 -0
    outer loop
      vertex 58.7132 180.701 12
      vertex 29.7225 187.661 160
      vertex 58.7132 180.701 160
    endloop
  endfacet
  facet normal 0.233444 0.97237 0
    outer loop
      vertex 29.7225 187.661 160
      vertex 58.7132 180.701 12
      vertex 29.7225 187.661 12
    endloop
  endfacet
  facet normal 0.522508 0.852635 0
    outer loop
      vertex 86.8836 168.908 157
      vertex 111.679 153.713 160
      vertex 111.679 153.713 157
    endloop
  endfacet
  facet normal 0.522501 0.852638 7.06015e-05
    outer loop
      vertex 111.679 153.713 160
      vertex 86.8836 168.908 157
      vertex 86.2582 169.291 160
    endloop
  endfacet
  facet normal 0.522255 0.852789 0
    outer loop
      vertex 86.2582 169.291 12
      vertex 86.8836 168.908 157
      vertex 86.8836 168.908 12
    endloop
  endfacet
  facet normal 0.522255 0.852789 0
    outer loop
      vertex 86.8836 168.908 157
      vertex 86.2582 169.291 12
      vertex 86.2582 169.291 160
    endloop
  endfacet
  facet normal 0 0 1
    outer loop
      vertex 187.661 29.7225 160
      vertex 186 0 160
      vertex 190 0 160
    endloop
  endfacet
  facet normal 0 0 1
    outer loop
      vertex 187.661 29.7225 160
      vertex 183.71 29.0968 160
      vertex 186 0 160
    endloop
  endfacet
  facet normal 0 0 1
    outer loop
      vertex 180.701 58.7132 160
      vertex 183.71 29.0968 160
      vertex 187.661 29.7225 160
    endloop
  endfacet
  facet normal 0 0 1
    outer loop
      vertex 180.701 58.7132 160
      vertex 176.897 57.4772 160
      vertex 183.71 29.0968 160
    endloop
  endfacet
  facet normal 0 0 1
    outer loop
      vertex 169.291 86.2582 160
      vertex 176.897 57.4772 160
      vertex 180.701 58.7132 160
    endloop
  endfacet
  facet normal 0 0 1
    outer loop
      vertex 169.291 86.2582 160
      vertex 165.727 84.4422 160
      vertex 176.897 57.4772 160
    endloop
  endfacet
  facet normal 0 0 1
    outer loop
      vertex 153.713 111.679 160
      vertex 165.727 84.4422 160
      vertex 169.291 86.2582 160
    endloop
  endfacet
  facet normal 0 0 1
    outer loop
      vertex 153.713 111.679 160
      vertex 150.477 109.328 160
      vertex 165.727 84.4422 160
    endloop
  endfacet
  facet normal 0 0 1
    outer loop
      vertex 134.35 134.35 160
      vertex 150.477 109.328 160
      vertex 153.713 111.679 160
    endloop
  endfacet
  facet normal 0 0 1
    outer loop
      vertex 134.35 134.35 160
      vertex 131.522 131.522 160
      vertex 150.477 109.328 160
    endloop
  endfacet
  facet normal 0 0 1
    outer loop
      vertex 111.679 153.713 160
      vertex 131.522 131.522 160
      vertex 134.35 134.35 160
    endloop
  endfacet
  facet normal 0 0 1
    outer loop
      vertex 111.679 153.713 160
      vertex 109.328 150.477 160
      vertex 131.522 131.522 160
    endloop
  endfacet
  facet normal 0 0 1
    outer loop
      vertex 86.2582 169.291 160
      vertex 109.328 150.477 160
      vertex 111.679 153.713 160
    endloop
  endfacet
  facet normal 0 0 1
    outer loop
      vertex 86.2582 169.291 160
      vertex 84.4422 165.727 160
      vertex 109.328 150.477 160
    endloop
  endfacet
  facet normal 0 0 1
    outer loop
      vertex 58.7132 180.701 160
      vertex 84.4422 165.727 160
      vertex 86.2582 169.291 160
    endloop
  endfacet
  facet normal 0 0 1
    outer loop
      vertex 58.7132 180.701 160
      vertex 57.4772 176.897 160
      vertex 84.4422 165.727 160
    endloop
  endfacet
  facet normal 0 0 1
    outer loop
      vertex 29.7225 187.661 160
      vertex 57.4772 176.897 160
      vertex 58.7132 180.701 160
    endloop
  endfacet
  facet normal 0 0 1
    outer loop
      vertex 29.7225 187.661 160
      vertex 29.0968 183.71 160
      vertex 57.4772 176.897 160
    endloop
  endfacet
  facet normal 0 0 1
    outer loop
      vertex 0 190 160
      vertex 29.0968 183.71 160
      vertex 29.7225 187.661 160
    endloop
  endfacet
  facet normal 0 0 1
    outer loop
      vertex 29.0968 183.71 160
      vertex 0 190 160
      vertex 0 186 160
    endloop
  endfacet
  facet normal 0.649451 0.760404 -0
    outer loop
      vertex 134.35 134.35 157
      vertex 111.679 153.713 160
      vertex 134.35 134.35 160
    endloop
  endfacet
  facet normal 0.649451 0.760404 0
    outer loop
      vertex 111.679 153.713 160
      vertex 134.35 134.35 157
      vertex 111.679 153.713 157
    endloop
  endfacet
  facet normal -0.996917 -0.0784602 0
    outer loop
      vertex 186 0 12
      vertex 183.71 29.0968 160
      vertex 183.71 29.0968 12
    endloop
  endfacet
  facet normal -0.996917 -0.0784602 0
    outer loop
      vertex 183.71 29.0968 160
      vertex 186 0 12
      vertex 186 0 160
    endloop
  endfacet
  facet normal -0.0784602 -0.996917 0
    outer loop
      vertex 0 186 12
      vertex 29.0968 183.71 160
      vertex 0 186 160
    endloop
  endfacet
  facet normal -0.0784602 -0.996917 -0
    outer loop
      vertex 29.0968 183.71 160
      vertex 0 186 12
      vertex 29.0968 183.71 12
    endloop
  endfacet
  facet normal -0.760414 -0.649439 0
    outer loop
      vertex 150.477 109.328 157
      vertex 131.522 131.522 160
      vertex 131.522 131.522 157
    endloop
  endfacet
  facet normal -0.760414 -0.649439 0
    outer loop
      vertex 131.522 131.522 160
      vertex 150.477 109.328 157
      vertex 150.477 109.328 160
    endloop
  endfacet
  facet normal -0.923599 -0.383361 0
    outer loop
      vertex 165.944 83.9194 157
      vertex 165.727 84.4422 160
      vertex 165.727 84.4422 157
    endloop
  endfacet
  facet normal -0.923876 -0.382692 -0
    outer loop
      vertex 176.897 57.4772 160
      vertex 165.944 83.9194 157
      vertex 176.897 57.4772 12
    endloop
  endfacet
  facet normal -0.923871 -0.382705 -0.000133952
    outer loop
      vertex 165.944 83.9194 157
      vertex 176.897 57.4772 160
      vertex 165.727 84.4422 160
    endloop
  endfacet
  facet normal -0.923876 -0.382692 0
    outer loop
      vertex 165.944 83.9194 12
      vertex 176.897 57.4772 12
      vertex 165.944 83.9194 157
    endloop
  endfacet
  facet normal -0.972374 -0.233428 0
    outer loop
      vertex 183.71 29.0968 12
      vertex 176.897 57.4772 160
      vertex 176.897 57.4772 12
    endloop
  endfacet
  facet normal -0.972374 -0.233428 0
    outer loop
      vertex 176.897 57.4772 160
      vertex 183.71 29.0968 12
      vertex 183.71 29.0968 160
    endloop
  endfacet
  facet normal -0.852641 -0.522498 0
    outer loop
      vertex 165.727 84.4422 157
      vertex 150.477 109.328 160
      vertex 150.477 109.328 157
    endloop
  endfacet
  facet normal -0.852641 -0.522498 0
    outer loop
      vertex 150.477 109.328 160
      vertex 165.727 84.4422 157
      vertex 165.727 84.4422 160
    endloop
  endfacet
  facet normal -0.522498 -0.852641 0
    outer loop
      vertex 84.4422 165.727 157
      vertex 109.328 150.477 160
      vertex 84.4422 165.727 160
    endloop
  endfacet
  facet normal -0.522498 -0.852641 -0
    outer loop
      vertex 109.328 150.477 160
      vertex 84.4422 165.727 157
      vertex 109.328 150.477 157
    endloop
  endfacet
  facet normal -0.382705 -0.923871 -0.000133952
    outer loop
      vertex 57.4772 176.897 160
      vertex 83.9194 165.944 157
      vertex 84.4422 165.727 160
    endloop
  endfacet
  facet normal -0.382692 -0.923876 0
    outer loop
      vertex 57.4772 176.897 12
      vertex 83.9194 165.944 157
      vertex 57.4772 176.897 160
    endloop
  endfacet
  facet normal -0.382692 -0.923876 -0
    outer loop
      vertex 83.9194 165.944 157
      vertex 57.4772 176.897 12
      vertex 83.9194 165.944 12
    endloop
  endfacet
  facet normal -0.383361 -0.923599 -0
    outer loop
      vertex 84.4422 165.727 160
      vertex 83.9194 165.944 157
      vertex 84.4422 165.727 157
    endloop
  endfacet
  facet normal -0.649439 -0.760414 0
    outer loop
      vertex 109.328 150.477 157
      vertex 131.522 131.522 160
      vertex 109.328 150.477 160
    endloop
  endfacet
  facet normal -0.649439 -0.760414 -0
    outer loop
      vertex 131.522 131.522 160
      vertex 109.328 150.477 157
      vertex 131.522 131.522 157
    endloop
  endfacet
  facet normal -0.233428 -0.972374 0
    outer loop
      vertex 29.0968 183.71 12
      vertex 57.4772 176.897 160
      vertex 29.0968 183.71 160
    endloop
  endfacet
  facet normal -0.233428 -0.972374 -0
    outer loop
      vertex 57.4772 176.897 160
      vertex 29.0968 183.71 12
      vertex 57.4772 176.897 12
    endloop
  endfacet
  facet normal -1 0 0
    outer loop
      vertex 0 186 12
      vertex 0 190 160
      vertex 0 190 12
    endloop
  endfacet
  facet normal -1 -0 0
    outer loop
      vertex 0 190 160
      vertex 0 186 12
      vertex 0 186 160
    endloop
  endfacet
  facet normal 0 -1 0
    outer loop
      vertex 186 0 12
      vertex 190 0 160
      vertex 186 0 160
    endloop
  endfacet
  facet normal 0 -1 -0
    outer loop
      vertex 190 0 160
      vertex 186 0 12
      vertex 190 0 12
    endloop
  endfacet
endsolid OpenSCAD_Model
