solid OpenSCAD_Model
  facet normal 0 0.0654029 -0.997859
    outer loop
      vertex -6 0 -49
      vertex 6 6.39578 -48.5808
      vertex 6 0 -49
    endloop
  endfacet
  facet normal 0 0.0654029 -0.997859
    outer loop
      vertex 6 6.39578 -48.5808
      vertex -6 0 -49
      vertex -6 6.39578 -48.5808
    endloop
  endfacet
  facet normal -0 0.0654029 0.997859
    outer loop
      vertex -6 6.39578 48.5808
      vertex 6 0 49
      vertex 6 6.39578 48.5808
    endloop
  endfacet
  facet normal 0 0.0654029 0.997859
    outer loop
      vertex 6 0 49
      vertex -6 6.39578 48.5808
      vertex -6 0 49
    endloop
  endfacet
  facet normal 0 0.997859 -0.0654029
    outer loop
      vertex 6 48.5808 -6.39578
      vertex -6 49 0
      vertex 6 49 0
    endloop
  endfacet
  facet normal 0 0.997859 -0.0654029
    outer loop
      vertex -6 49 0
      vertex 6 48.5808 -6.39578
      vertex -6 48.5808 -6.39578
    endloop
  endfacet
  facet normal 0 0.751837 -0.659349
    outer loop
      vertex 6 34.6482 -34.6482
      vertex -6 38.8743 -29.8293
      vertex 6 38.8743 -29.8293
    endloop
  endfacet
  facet normal 0 0.751837 -0.659349
    outer loop
      vertex -6 38.8743 -29.8293
      vertex 6 34.6482 -34.6482
      vertex -6 34.6482 -34.6482
    endloop
  endfacet
  facet normal 0 0.751837 0.659349
    outer loop
      vertex 6 38.8743 29.8293
      vertex -6 34.6482 34.6482
      vertex 6 34.6482 34.6482
    endloop
  endfacet
  facet normal 0 0.751837 0.659349
    outer loop
      vertex -6 34.6482 34.6482
      vertex 6 38.8743 29.8293
      vertex -6 38.8743 29.8293
    endloop
  endfacet
  facet normal 0 0.946929 0.321442
    outer loop
      vertex 6 47.3304 12.6821
      vertex -6 45.2701 18.7515
      vertex 6 45.2701 18.7515
    endloop
  endfacet
  facet normal 0 0.946929 0.321442
    outer loop
      vertex -6 45.2701 18.7515
      vertex 6 47.3304 12.6821
      vertex -6 47.3304 12.6821
    endloop
  endfacet
  facet normal -1 0 0
    outer loop
      vertex -6 17 0
      vertex -6 49 0
      vertex -6 48.5808 -6.39578
    endloop
  endfacet
  facet normal -1 0 0
    outer loop
      vertex -6 16.8546 -2.21894
      vertex -6 48.5808 -6.39578
      vertex -6 47.3304 -12.6821
    endloop
  endfacet
  facet normal -1 0 0
    outer loop
      vertex -6 49 0
      vertex -6 17 0
      vertex -6 48.5808 6.39578
    endloop
  endfacet
  facet normal -1 0 0
    outer loop
      vertex -6 16.4207 -4.39992
      vertex -6 47.3304 -12.6821
      vertex -6 45.2701 -18.7515
    endloop
  endfacet
  facet normal -1 0 0
    outer loop
      vertex -6 16.8546 2.21894
      vertex -6 48.5808 6.39578
      vertex -6 17 0
    endloop
  endfacet
  facet normal -1 0 0
    outer loop
      vertex -6 15.706 -6.50562
      vertex -6 45.2701 -18.7515
      vertex -6 42.4352 -24.5
    endloop
  endfacet
  facet normal -1 -0 0
    outer loop
      vertex -6 48.5808 6.39578
      vertex -6 16.8546 2.21894
      vertex -6 47.3304 12.6821
    endloop
  endfacet
  facet normal -1 0 0
    outer loop
      vertex -6 14.7224 -8.5
      vertex -6 42.4352 -24.5
      vertex -6 38.8743 -29.8293
    endloop
  endfacet
  facet normal -1 0 0
    outer loop
      vertex -6 16.4207 4.39992
      vertex -6 47.3304 12.6821
      vertex -6 16.8546 2.21894
    endloop
  endfacet
  facet normal -1 0 0
    outer loop
      vertex -6 13.487 -10.3489
      vertex -6 38.8743 -29.8293
      vertex -6 34.6482 -34.6482
    endloop
  endfacet
  facet normal -1 -0 0
    outer loop
      vertex -6 47.3304 12.6821
      vertex -6 16.4207 4.39992
      vertex -6 45.2701 18.7515
    endloop
  endfacet
  facet normal -1 0 0
    outer loop
      vertex -6 12.0208 -12.0208
      vertex -6 34.6482 -34.6482
      vertex -6 29.8293 -38.8743
    endloop
  endfacet
  facet normal -1 0 0
    outer loop
      vertex -6 15.706 6.50562
      vertex -6 45.2701 18.7515
      vertex -6 16.4207 4.39992
    endloop
  endfacet
  facet normal -1 0 0
    outer loop
      vertex -6 10.3489 -13.487
      vertex -6 29.8293 -38.8743
      vertex -6 24.5 -42.4352
    endloop
  endfacet
  facet normal -1 -0 0
    outer loop
      vertex -6 45.2701 18.7515
      vertex -6 15.706 6.50562
      vertex -6 42.4352 24.5
    endloop
  endfacet
  facet normal -1 0 0
    outer loop
      vertex -6 8.5 -14.7224
      vertex -6 24.5 -42.4352
      vertex -6 18.7515 -45.2701
    endloop
  endfacet
  facet normal -1 0 0
    outer loop
      vertex -6 14.7224 8.5
      vertex -6 42.4352 24.5
      vertex -6 15.706 6.50562
    endloop
  endfacet
  facet normal -1 -0 0
    outer loop
      vertex -6 42.4352 24.5
      vertex -6 14.7224 8.5
      vertex -6 38.8743 29.8293
    endloop
  endfacet
  facet normal -1 0 0
    outer loop
      vertex -6 48.5808 -6.39578
      vertex -6 16.8546 -2.21894
      vertex -6 17 0
    endloop
  endfacet
  facet normal -1 0 0
    outer loop
      vertex -6 47.3304 -12.6821
      vertex -6 16.4207 -4.39992
      vertex -6 16.8546 -2.21894
    endloop
  endfacet
  facet normal -1 0 0
    outer loop
      vertex -6 45.2701 -18.7515
      vertex -6 15.706 -6.50562
      vertex -6 16.4207 -4.39992
    endloop
  endfacet
  facet normal -1 0 0
    outer loop
      vertex -6 42.4352 -24.5
      vertex -6 14.7224 -8.5
      vertex -6 15.706 -6.50562
    endloop
  endfacet
  facet normal -1 0 0
    outer loop
      vertex -6 38.8743 -29.8293
      vertex -6 13.487 -10.3489
      vertex -6 14.7224 -8.5
    endloop
  endfacet
  facet normal -1 0 0
    outer loop
      vertex -6 6.50562 -15.706
      vertex -6 18.7515 -45.2701
      vertex -6 12.6821 -47.3304
    endloop
  endfacet
  facet normal -1 0 0
    outer loop
      vertex -6 34.6482 -34.6482
      vertex -6 12.0208 -12.0208
      vertex -6 13.487 -10.3489
    endloop
  endfacet
  facet normal -1 0 0
    outer loop
      vertex -6 29.8293 -38.8743
      vertex -6 10.3489 -13.487
      vertex -6 12.0208 -12.0208
    endloop
  endfacet
  facet normal -1 0 0
    outer loop
      vertex -6 24.5 -42.4352
      vertex -6 8.5 -14.7224
      vertex -6 10.3489 -13.487
    endloop
  endfacet
  facet normal -1 0 0
    outer loop
      vertex -6 18.7515 -45.2701
      vertex -6 6.50562 -15.706
      vertex -6 8.5 -14.7224
    endloop
  endfacet
  facet normal -1 0 0
    outer loop
      vertex -6 4.39992 -16.4207
      vertex -6 12.6821 -47.3304
      vertex -6 6.39578 -48.5808
    endloop
  endfacet
  facet normal -1 0 0
    outer loop
      vertex -6 12.6821 -47.3304
      vertex -6 4.39992 -16.4207
      vertex -6 6.50562 -15.706
    endloop
  endfacet
  facet normal -1 0 0
    outer loop
      vertex -6 6.39578 -48.5808
      vertex -6 2.21894 -16.8546
      vertex -6 4.39992 -16.4207
    endloop
  endfacet
  facet normal -1 0 0
    outer loop
      vertex -6 0 -49
      vertex -6 2.21894 -16.8546
      vertex -6 6.39578 -48.5808
    endloop
  endfacet
  facet normal -1 0 0
    outer loop
      vertex -6 0 -49
      vertex -6 0 -17
      vertex -6 2.21894 -16.8546
    endloop
  endfacet
  facet normal -1 0 0
    outer loop
      vertex -6 0 -49
      vertex -6 -2.21894 -16.8546
      vertex -6 0 -17
    endloop
  endfacet
  facet normal -1 0 0
    outer loop
      vertex -6 -6.39578 -48.5808
      vertex -6 -2.21894 -16.8546
      vertex -6 0 -49
    endloop
  endfacet
  facet normal -1 -0 0
    outer loop
      vertex -6 -2.21894 -16.8546
      vertex -6 -6.39578 -48.5808
      vertex -6 -4.39992 -16.4207
    endloop
  endfacet
  facet normal -1 0 0
    outer loop
      vertex -6 -12.6821 -47.3304
      vertex -6 -4.39992 -16.4207
      vertex -6 -6.39578 -48.5808
    endloop
  endfacet
  facet normal -1 -0 0
    outer loop
      vertex -6 -4.39992 -16.4207
      vertex -6 -12.6821 -47.3304
      vertex -6 -6.50562 -15.706
    endloop
  endfacet
  facet normal -1 0 0
    outer loop
      vertex -6 -18.7515 -45.2701
      vertex -6 -6.50562 -15.706
      vertex -6 -12.6821 -47.3304
    endloop
  endfacet
  facet normal -1 -0 0
    outer loop
      vertex -6 -6.50562 -15.706
      vertex -6 -18.7515 -45.2701
      vertex -6 -8.5 -14.7224
    endloop
  endfacet
  facet normal -1 0 0
    outer loop
      vertex -6 -24.5 -42.4352
      vertex -6 -8.5 -14.7224
      vertex -6 -18.7515 -45.2701
    endloop
  endfacet
  facet normal -1 -0 0
    outer loop
      vertex -6 -8.5 -14.7224
      vertex -6 -24.5 -42.4352
      vertex -6 -10.3489 -13.487
    endloop
  endfacet
  facet normal -1 0 0
    outer loop
      vertex -6 -29.8293 -38.8743
      vertex -6 -10.3489 -13.487
      vertex -6 -24.5 -42.4352
    endloop
  endfacet
  facet normal -1 -0 0
    outer loop
      vertex -6 -10.3489 -13.487
      vertex -6 -29.8293 -38.8743
      vertex -6 -12.0208 -12.0208
    endloop
  endfacet
  facet normal -1 0 0
    outer loop
      vertex -6 -34.6482 -34.6482
      vertex -6 -12.0208 -12.0208
      vertex -6 -29.8293 -38.8743
    endloop
  endfacet
  facet normal -1 -0 0
    outer loop
      vertex -6 -12.0208 -12.0208
      vertex -6 -34.6482 -34.6482
      vertex -6 -13.487 -10.3489
    endloop
  endfacet
  facet normal -1 -0 0
    outer loop
      vertex -6 -13.487 -10.3489
      vertex -6 -38.8743 -29.8293
      vertex -6 -14.7224 -8.5
    endloop
  endfacet
  facet normal -1 0 0
    outer loop
      vertex -6 -38.8743 -29.8293
      vertex -6 -13.487 -10.3489
      vertex -6 -34.6482 -34.6482
    endloop
  endfacet
  facet normal -1 0 0
    outer loop
      vertex -6 13.487 10.3489
      vertex -6 38.8743 29.8293
      vertex -6 14.7224 8.5
    endloop
  endfacet
  facet normal -1 -0 0
    outer loop
      vertex -6 38.8743 29.8293
      vertex -6 13.487 10.3489
      vertex -6 34.6482 34.6482
    endloop
  endfacet
  facet normal -1 0 0
    outer loop
      vertex -6 12.0208 12.0208
      vertex -6 34.6482 34.6482
      vertex -6 13.487 10.3489
    endloop
  endfacet
  facet normal -1 -0 0
    outer loop
      vertex -6 34.6482 34.6482
      vertex -6 12.0208 12.0208
      vertex -6 29.8293 38.8743
    endloop
  endfacet
  facet normal -1 0 0
    outer loop
      vertex -6 10.3489 13.487
      vertex -6 29.8293 38.8743
      vertex -6 12.0208 12.0208
    endloop
  endfacet
  facet normal -1 -0 0
    outer loop
      vertex -6 29.8293 38.8743
      vertex -6 10.3489 13.487
      vertex -6 24.5 42.4352
    endloop
  endfacet
  facet normal -1 0 0
    outer loop
      vertex -6 8.5 14.7224
      vertex -6 24.5 42.4352
      vertex -6 10.3489 13.487
    endloop
  endfacet
  facet normal -1 -0 0
    outer loop
      vertex -6 24.5 42.4352
      vertex -6 8.5 14.7224
      vertex -6 18.7515 45.2701
    endloop
  endfacet
  facet normal -1 0 0
    outer loop
      vertex -6 6.50562 15.706
      vertex -6 18.7515 45.2701
      vertex -6 8.5 14.7224
    endloop
  endfacet
  facet normal -1 -0 0
    outer loop
      vertex -6 18.7515 45.2701
      vertex -6 6.50562 15.706
      vertex -6 12.6821 47.3304
    endloop
  endfacet
  facet normal -1 0 0
    outer loop
      vertex -6 4.39992 16.4207
      vertex -6 12.6821 47.3304
      vertex -6 6.50562 15.706
    endloop
  endfacet
  facet normal -1 -0 0
    outer loop
      vertex -6 12.6821 47.3304
      vertex -6 4.39992 16.4207
      vertex -6 6.39578 48.5808
    endloop
  endfacet
  facet normal -1 0 0
    outer loop
      vertex -6 2.21894 16.8546
      vertex -6 6.39578 48.5808
      vertex -6 4.39992 16.4207
    endloop
  endfacet
  facet normal -1 0 0
    outer loop
      vertex -6 0 17
      vertex -6 6.39578 48.5808
      vertex -6 2.21894 16.8546
    endloop
  endfacet
  facet normal -1 0 0
    outer loop
      vertex -6 0 17
      vertex -6 0 49
      vertex -6 6.39578 48.5808
    endloop
  endfacet
  facet normal -1 0 0
    outer loop
      vertex -6 -2.21894 16.8546
      vertex -6 0 49
      vertex -6 0 17
    endloop
  endfacet
  facet normal -1 0 0
    outer loop
      vertex -6 -6.39578 48.5808
      vertex -6 -2.21894 16.8546
      vertex -6 -4.39992 16.4207
    endloop
  endfacet
  facet normal -1 0 0
    outer loop
      vertex -6 -2.21894 16.8546
      vertex -6 -6.39578 48.5808
      vertex -6 0 49
    endloop
  endfacet
  facet normal -1 0 0
    outer loop
      vertex -6 -12.6821 47.3304
      vertex -6 -4.39992 16.4207
      vertex -6 -6.50562 15.706
    endloop
  endfacet
  facet normal -1 0 0
    outer loop
      vertex -6 -18.7515 45.2701
      vertex -6 -6.50562 15.706
      vertex -6 -8.5 14.7224
    endloop
  endfacet
  facet normal -1 0 0
    outer loop
      vertex -6 -24.5 42.4352
      vertex -6 -8.5 14.7224
      vertex -6 -10.3489 13.487
    endloop
  endfacet
  facet normal -1 0 0
    outer loop
      vertex -6 -29.8293 38.8743
      vertex -6 -10.3489 13.487
      vertex -6 -12.0208 12.0208
    endloop
  endfacet
  facet normal -1 0 0
    outer loop
      vertex -6 -4.39992 16.4207
      vertex -6 -12.6821 47.3304
      vertex -6 -6.39578 48.5808
    endloop
  endfacet
  facet normal -1 0 0
    outer loop
      vertex -6 -34.6482 34.6482
      vertex -6 -12.0208 12.0208
      vertex -6 -13.487 10.3489
    endloop
  endfacet
  facet normal -1 0 0
    outer loop
      vertex -6 -38.8743 29.8293
      vertex -6 -13.487 10.3489
      vertex -6 -14.7224 8.5
    endloop
  endfacet
  facet normal -1 0 0
    outer loop
      vertex -6 -42.4352 24.5
      vertex -6 -14.7224 8.5
      vertex -6 -15.706 6.50562
    endloop
  endfacet
  facet normal -1 0 0
    outer loop
      vertex -6 -45.2701 18.7515
      vertex -6 -15.706 6.50562
      vertex -6 -16.4207 4.39992
    endloop
  endfacet
  facet normal -1 0 0
    outer loop
      vertex -6 -47.3304 12.6821
      vertex -6 -16.4207 4.39992
      vertex -6 -16.8546 2.21894
    endloop
  endfacet
  facet normal -1 0 0
    outer loop
      vertex -6 -6.50562 15.706
      vertex -6 -18.7515 45.2701
      vertex -6 -12.6821 47.3304
    endloop
  endfacet
  facet normal -1 0 0
    outer loop
      vertex -6 -48.5808 6.39578
      vertex -6 -16.8546 2.21894
      vertex -6 -17 0
    endloop
  endfacet
  facet normal -1 0 0
    outer loop
      vertex -6 -42.4352 -24.5
      vertex -6 -14.7224 -8.5
      vertex -6 -38.8743 -29.8293
    endloop
  endfacet
  facet normal -1 -0 0
    outer loop
      vertex -6 -14.7224 -8.5
      vertex -6 -42.4352 -24.5
      vertex -6 -15.706 -6.50562
    endloop
  endfacet
  facet normal -1 0 0
    outer loop
      vertex -6 -8.5 14.7224
      vertex -6 -24.5 42.4352
      vertex -6 -18.7515 45.2701
    endloop
  endfacet
  facet normal -1 0 0
    outer loop
      vertex -6 -45.2701 -18.7515
      vertex -6 -15.706 -6.50562
      vertex -6 -42.4352 -24.5
    endloop
  endfacet
  facet normal -1 0 0
    outer loop
      vertex -6 -10.3489 13.487
      vertex -6 -29.8293 38.8743
      vertex -6 -24.5 42.4352
    endloop
  endfacet
  facet normal -1 -0 0
    outer loop
      vertex -6 -15.706 -6.50562
      vertex -6 -45.2701 -18.7515
      vertex -6 -16.4207 -4.39992
    endloop
  endfacet
  facet normal -1 0 0
    outer loop
      vertex -6 -12.0208 12.0208
      vertex -6 -34.6482 34.6482
      vertex -6 -29.8293 38.8743
    endloop
  endfacet
  facet normal -1 0 0
    outer loop
      vertex -6 -47.3304 -12.6821
      vertex -6 -16.4207 -4.39992
      vertex -6 -45.2701 -18.7515
    endloop
  endfacet
  facet normal -1 0 0
    outer loop
      vertex -6 -13.487 10.3489
      vertex -6 -38.8743 29.8293
      vertex -6 -34.6482 34.6482
    endloop
  endfacet
  facet normal -1 -0 0
    outer loop
      vertex -6 -16.4207 -4.39992
      vertex -6 -47.3304 -12.6821
      vertex -6 -16.8546 -2.21894
    endloop
  endfacet
  facet normal -1 0 0
    outer loop
      vertex -6 -14.7224 8.5
      vertex -6 -42.4352 24.5
      vertex -6 -38.8743 29.8293
    endloop
  endfacet
  facet normal -1 0 0
    outer loop
      vertex -6 -48.5808 -6.39578
      vertex -6 -16.8546 -2.21894
      vertex -6 -47.3304 -12.6821
    endloop
  endfacet
  facet normal -1 0 0
    outer loop
      vertex -6 -15.706 6.50562
      vertex -6 -45.2701 18.7515
      vertex -6 -42.4352 24.5
    endloop
  endfacet
  facet normal -1 -0 0
    outer loop
      vertex -6 -16.8546 -2.21894
      vertex -6 -48.5808 -6.39578
      vertex -6 -17 0
    endloop
  endfacet
  facet normal -1 0 0
    outer loop
      vertex -6 -16.4207 4.39992
      vertex -6 -47.3304 12.6821
      vertex -6 -45.2701 18.7515
    endloop
  endfacet
  facet normal -1 0 0
    outer loop
      vertex -6 -49 0
      vertex -6 -17 0
      vertex -6 -48.5808 -6.39578
    endloop
  endfacet
  facet normal -1 0 0
    outer loop
      vertex -6 -16.8546 2.21894
      vertex -6 -48.5808 6.39578
      vertex -6 -47.3304 12.6821
    endloop
  endfacet
  facet normal -1 0 0
    outer loop
      vertex -6 -17 0
      vertex -6 -49 0
      vertex -6 -48.5808 6.39578
    endloop
  endfacet
  facet normal 0 0.442295 -0.896869
    outer loop
      vertex -6 18.7515 -45.2701
      vertex 6 24.5 -42.4352
      vertex 6 18.7515 -45.2701
    endloop
  endfacet
  facet normal 0 0.442295 -0.896869
    outer loop
      vertex 6 24.5 -42.4352
      vertex -6 18.7515 -45.2701
      vertex -6 24.5 -42.4352
    endloop
  endfacet
  facet normal 0 0.195086 -0.980786
    outer loop
      vertex -6 6.39578 -48.5808
      vertex 6 12.6821 -47.3304
      vertex 6 6.39578 -48.5808
    endloop
  endfacet
  facet normal 0 0.195086 -0.980786
    outer loop
      vertex 6 12.6821 -47.3304
      vertex -6 6.39578 -48.5808
      vertex -6 12.6821 -47.3304
    endloop
  endfacet
  facet normal 0 0.555568 -0.831471
    outer loop
      vertex -6 24.5 -42.4352
      vertex 6 29.8293 -38.8743
      vertex 6 24.5 -42.4352
    endloop
  endfacet
  facet normal 0 0.555568 -0.831471
    outer loop
      vertex 6 29.8293 -38.8743
      vertex -6 24.5 -42.4352
      vertex -6 29.8293 -38.8743
    endloop
  endfacet
  facet normal 0 0.896869 -0.442295
    outer loop
      vertex 6 42.4352 -24.5
      vertex -6 45.2701 -18.7515
      vertex 6 45.2701 -18.7515
    endloop
  endfacet
  facet normal 0 0.896869 -0.442295
    outer loop
      vertex -6 45.2701 -18.7515
      vertex 6 42.4352 -24.5
      vertex -6 42.4352 -24.5
    endloop
  endfacet
  facet normal 0 0.831471 -0.555568
    outer loop
      vertex 6 38.8743 -29.8293
      vertex -6 42.4352 -24.5
      vertex 6 42.4352 -24.5
    endloop
  endfacet
  facet normal 0 0.831471 -0.555568
    outer loop
      vertex -6 42.4352 -24.5
      vertex 6 38.8743 -29.8293
      vertex -6 38.8743 -29.8293
    endloop
  endfacet
  facet normal -0 0.442295 0.896869
    outer loop
      vertex -6 24.5 42.4352
      vertex 6 18.7515 45.2701
      vertex 6 24.5 42.4352
    endloop
  endfacet
  facet normal 0 0.442295 0.896869
    outer loop
      vertex 6 18.7515 45.2701
      vertex -6 24.5 42.4352
      vertex -6 18.7515 45.2701
    endloop
  endfacet
  facet normal 1 0 0
    outer loop
      vertex 6 17 0
      vertex 6 49 0
      vertex 6 48.5808 6.39578
    endloop
  endfacet
  facet normal 1 0 0
    outer loop
      vertex 6 16.8546 2.21894
      vertex 6 48.5808 6.39578
      vertex 6 47.3304 12.6821
    endloop
  endfacet
  facet normal 1 0 0
    outer loop
      vertex 6 49 0
      vertex 6 17 0
      vertex 6 48.5808 -6.39578
    endloop
  endfacet
  facet normal 1 0 0
    outer loop
      vertex 6 16.4207 4.39992
      vertex 6 47.3304 12.6821
      vertex 6 45.2701 18.7515
    endloop
  endfacet
  facet normal 1 -0 0
    outer loop
      vertex 6 16.8546 -2.21894
      vertex 6 48.5808 -6.39578
      vertex 6 17 0
    endloop
  endfacet
  facet normal 1 0 0
    outer loop
      vertex 6 15.706 6.50562
      vertex 6 45.2701 18.7515
      vertex 6 42.4352 24.5
    endloop
  endfacet
  facet normal 1 0 0
    outer loop
      vertex 6 48.5808 -6.39578
      vertex 6 16.8546 -2.21894
      vertex 6 47.3304 -12.6821
    endloop
  endfacet
  facet normal 1 0 0
    outer loop
      vertex 6 14.7224 8.5
      vertex 6 42.4352 24.5
      vertex 6 38.8743 29.8293
    endloop
  endfacet
  facet normal 1 -0 0
    outer loop
      vertex 6 16.4207 -4.39992
      vertex 6 47.3304 -12.6821
      vertex 6 16.8546 -2.21894
    endloop
  endfacet
  facet normal 1 0 0
    outer loop
      vertex 6 13.487 10.3489
      vertex 6 38.8743 29.8293
      vertex 6 34.6482 34.6482
    endloop
  endfacet
  facet normal 1 0 0
    outer loop
      vertex 6 47.3304 -12.6821
      vertex 6 16.4207 -4.39992
      vertex 6 45.2701 -18.7515
    endloop
  endfacet
  facet normal 1 0 0
    outer loop
      vertex 6 12.0208 12.0208
      vertex 6 34.6482 34.6482
      vertex 6 29.8293 38.8743
    endloop
  endfacet
  facet normal 1 -0 0
    outer loop
      vertex 6 15.706 -6.50562
      vertex 6 45.2701 -18.7515
      vertex 6 16.4207 -4.39992
    endloop
  endfacet
  facet normal 1 0 0
    outer loop
      vertex 6 10.3489 13.487
      vertex 6 29.8293 38.8743
      vertex 6 24.5 42.4352
    endloop
  endfacet
  facet normal 1 0 0
    outer loop
      vertex 6 45.2701 -18.7515
      vertex 6 15.706 -6.50562
      vertex 6 42.4352 -24.5
    endloop
  endfacet
  facet normal 1 0 0
    outer loop
      vertex 6 8.5 14.7224
      vertex 6 24.5 42.4352
      vertex 6 18.7515 45.2701
    endloop
  endfacet
  facet normal 1 -0 0
    outer loop
      vertex 6 14.7224 -8.5
      vertex 6 42.4352 -24.5
      vertex 6 15.706 -6.50562
    endloop
  endfacet
  facet normal 1 0 0
    outer loop
      vertex 6 42.4352 -24.5
      vertex 6 14.7224 -8.5
      vertex 6 38.8743 -29.8293
    endloop
  endfacet
  facet normal 1 0 0
    outer loop
      vertex 6 48.5808 6.39578
      vertex 6 16.8546 2.21894
      vertex 6 17 0
    endloop
  endfacet
  facet normal 1 0 0
    outer loop
      vertex 6 47.3304 12.6821
      vertex 6 16.4207 4.39992
      vertex 6 16.8546 2.21894
    endloop
  endfacet
  facet normal 1 0 0
    outer loop
      vertex 6 45.2701 18.7515
      vertex 6 15.706 6.50562
      vertex 6 16.4207 4.39992
    endloop
  endfacet
  facet normal 1 0 0
    outer loop
      vertex 6 42.4352 24.5
      vertex 6 14.7224 8.5
      vertex 6 15.706 6.50562
    endloop
  endfacet
  facet normal 1 0 0
    outer loop
      vertex 6 38.8743 29.8293
      vertex 6 13.487 10.3489
      vertex 6 14.7224 8.5
    endloop
  endfacet
  facet normal 1 0 0
    outer loop
      vertex 6 6.50562 15.706
      vertex 6 18.7515 45.2701
      vertex 6 12.6821 47.3304
    endloop
  endfacet
  facet normal 1 0 0
    outer loop
      vertex 6 34.6482 34.6482
      vertex 6 12.0208 12.0208
      vertex 6 13.487 10.3489
    endloop
  endfacet
  facet normal 1 0 0
    outer loop
      vertex 6 29.8293 38.8743
      vertex 6 10.3489 13.487
      vertex 6 12.0208 12.0208
    endloop
  endfacet
  facet normal 1 0 0
    outer loop
      vertex 6 24.5 42.4352
      vertex 6 8.5 14.7224
      vertex 6 10.3489 13.487
    endloop
  endfacet
  facet normal 1 0 0
    outer loop
      vertex 6 18.7515 45.2701
      vertex 6 6.50562 15.706
      vertex 6 8.5 14.7224
    endloop
  endfacet
  facet normal 1 0 0
    outer loop
      vertex 6 4.39992 16.4207
      vertex 6 12.6821 47.3304
      vertex 6 6.39578 48.5808
    endloop
  endfacet
  facet normal 1 0 0
    outer loop
      vertex 6 12.6821 47.3304
      vertex 6 4.39992 16.4207
      vertex 6 6.50562 15.706
    endloop
  endfacet
  facet normal 1 0 0
    outer loop
      vertex 6 6.39578 48.5808
      vertex 6 2.21894 16.8546
      vertex 6 4.39992 16.4207
    endloop
  endfacet
  facet normal 1 0 0
    outer loop
      vertex 6 0 49
      vertex 6 2.21894 16.8546
      vertex 6 6.39578 48.5808
    endloop
  endfacet
  facet normal 1 0 0
    outer loop
      vertex 6 0 49
      vertex 6 0 17
      vertex 6 2.21894 16.8546
    endloop
  endfacet
  facet normal 1 0 0
    outer loop
      vertex 6 0 49
      vertex 6 -2.21894 16.8546
      vertex 6 0 17
    endloop
  endfacet
  facet normal 1 -0 0
    outer loop
      vertex 6 -6.39578 48.5808
      vertex 6 -2.21894 16.8546
      vertex 6 0 49
    endloop
  endfacet
  facet normal 1 0 0
    outer loop
      vertex 6 -2.21894 16.8546
      vertex 6 -6.39578 48.5808
      vertex 6 -4.39992 16.4207
    endloop
  endfacet
  facet normal 1 -0 0
    outer loop
      vertex 6 -12.6821 47.3304
      vertex 6 -4.39992 16.4207
      vertex 6 -6.39578 48.5808
    endloop
  endfacet
  facet normal 1 0 0
    outer loop
      vertex 6 -4.39992 16.4207
      vertex 6 -12.6821 47.3304
      vertex 6 -6.50562 15.706
    endloop
  endfacet
  facet normal 1 -0 0
    outer loop
      vertex 6 -18.7515 45.2701
      vertex 6 -6.50562 15.706
      vertex 6 -12.6821 47.3304
    endloop
  endfacet
  facet normal 1 0 0
    outer loop
      vertex 6 -6.50562 15.706
      vertex 6 -18.7515 45.2701
      vertex 6 -8.5 14.7224
    endloop
  endfacet
  facet normal 1 -0 0
    outer loop
      vertex 6 -24.5 42.4352
      vertex 6 -8.5 14.7224
      vertex 6 -18.7515 45.2701
    endloop
  endfacet
  facet normal 1 0 0
    outer loop
      vertex 6 -8.5 14.7224
      vertex 6 -24.5 42.4352
      vertex 6 -10.3489 13.487
    endloop
  endfacet
  facet normal 1 -0 0
    outer loop
      vertex 6 -29.8293 38.8743
      vertex 6 -10.3489 13.487
      vertex 6 -24.5 42.4352
    endloop
  endfacet
  facet normal 1 0 0
    outer loop
      vertex 6 -10.3489 13.487
      vertex 6 -29.8293 38.8743
      vertex 6 -12.0208 12.0208
    endloop
  endfacet
  facet normal 1 -0 0
    outer loop
      vertex 6 -34.6482 34.6482
      vertex 6 -12.0208 12.0208
      vertex 6 -29.8293 38.8743
    endloop
  endfacet
  facet normal 1 0 0
    outer loop
      vertex 6 -12.0208 12.0208
      vertex 6 -34.6482 34.6482
      vertex 6 -13.487 10.3489
    endloop
  endfacet
  facet normal 1 0 0
    outer loop
      vertex 6 -13.487 10.3489
      vertex 6 -38.8743 29.8293
      vertex 6 -14.7224 8.5
    endloop
  endfacet
  facet normal 1 -0 0
    outer loop
      vertex 6 -38.8743 29.8293
      vertex 6 -13.487 10.3489
      vertex 6 -34.6482 34.6482
    endloop
  endfacet
  facet normal 1 -0 0
    outer loop
      vertex 6 13.487 -10.3489
      vertex 6 38.8743 -29.8293
      vertex 6 14.7224 -8.5
    endloop
  endfacet
  facet normal 1 0 0
    outer loop
      vertex 6 38.8743 -29.8293
      vertex 6 13.487 -10.3489
      vertex 6 34.6482 -34.6482
    endloop
  endfacet
  facet normal 1 -0 0
    outer loop
      vertex 6 12.0208 -12.0208
      vertex 6 34.6482 -34.6482
      vertex 6 13.487 -10.3489
    endloop
  endfacet
  facet normal 1 0 0
    outer loop
      vertex 6 34.6482 -34.6482
      vertex 6 12.0208 -12.0208
      vertex 6 29.8293 -38.8743
    endloop
  endfacet
  facet normal 1 -0 0
    outer loop
      vertex 6 10.3489 -13.487
      vertex 6 29.8293 -38.8743
      vertex 6 12.0208 -12.0208
    endloop
  endfacet
  facet normal 1 0 0
    outer loop
      vertex 6 29.8293 -38.8743
      vertex 6 10.3489 -13.487
      vertex 6 24.5 -42.4352
    endloop
  endfacet
  facet normal 1 -0 0
    outer loop
      vertex 6 8.5 -14.7224
      vertex 6 24.5 -42.4352
      vertex 6 10.3489 -13.487
    endloop
  endfacet
  facet normal 1 0 0
    outer loop
      vertex 6 24.5 -42.4352
      vertex 6 8.5 -14.7224
      vertex 6 18.7515 -45.2701
    endloop
  endfacet
  facet normal 1 -0 0
    outer loop
      vertex 6 6.50562 -15.706
      vertex 6 18.7515 -45.2701
      vertex 6 8.5 -14.7224
    endloop
  endfacet
  facet normal 1 0 0
    outer loop
      vertex 6 18.7515 -45.2701
      vertex 6 6.50562 -15.706
      vertex 6 12.6821 -47.3304
    endloop
  endfacet
  facet normal 1 -0 0
    outer loop
      vertex 6 4.39992 -16.4207
      vertex 6 12.6821 -47.3304
      vertex 6 6.50562 -15.706
    endloop
  endfacet
  facet normal 1 0 0
    outer loop
      vertex 6 12.6821 -47.3304
      vertex 6 4.39992 -16.4207
      vertex 6 6.39578 -48.5808
    endloop
  endfacet
  facet normal 1 -0 0
    outer loop
      vertex 6 2.21894 -16.8546
      vertex 6 6.39578 -48.5808
      vertex 6 4.39992 -16.4207
    endloop
  endfacet
  facet normal 1 -0 0
    outer loop
      vertex 6 0 -17
      vertex 6 6.39578 -48.5808
      vertex 6 2.21894 -16.8546
    endloop
  endfacet
  facet normal 1 0 0
    outer loop
      vertex 6 0 -17
      vertex 6 0 -49
      vertex 6 6.39578 -48.5808
    endloop
  endfacet
  facet normal 1 0 0
    outer loop
      vertex 6 -2.21894 -16.8546
      vertex 6 0 -49
      vertex 6 0 -17
    endloop
  endfacet
  facet normal 1 0 0
    outer loop
      vertex 6 -6.39578 -48.5808
      vertex 6 -2.21894 -16.8546
      vertex 6 -4.39992 -16.4207
    endloop
  endfacet
  facet normal 1 0 0
    outer loop
      vertex 6 -2.21894 -16.8546
      vertex 6 -6.39578 -48.5808
      vertex 6 0 -49
    endloop
  endfacet
  facet normal 1 0 0
    outer loop
      vertex 6 -12.6821 -47.3304
      vertex 6 -4.39992 -16.4207
      vertex 6 -6.50562 -15.706
    endloop
  endfacet
  facet normal 1 0 0
    outer loop
      vertex 6 -18.7515 -45.2701
      vertex 6 -6.50562 -15.706
      vertex 6 -8.5 -14.7224
    endloop
  endfacet
  facet normal 1 0 0
    outer loop
      vertex 6 -24.5 -42.4352
      vertex 6 -8.5 -14.7224
      vertex 6 -10.3489 -13.487
    endloop
  endfacet
  facet normal 1 0 0
    outer loop
      vertex 6 -29.8293 -38.8743
      vertex 6 -10.3489 -13.487
      vertex 6 -12.0208 -12.0208
    endloop
  endfacet
  facet normal 1 0 0
    outer loop
      vertex 6 -4.39992 -16.4207
      vertex 6 -12.6821 -47.3304
      vertex 6 -6.39578 -48.5808
    endloop
  endfacet
  facet normal 1 0 0
    outer loop
      vertex 6 -34.6482 -34.6482
      vertex 6 -12.0208 -12.0208
      vertex 6 -13.487 -10.3489
    endloop
  endfacet
  facet normal 1 0 0
    outer loop
      vertex 6 -38.8743 -29.8293
      vertex 6 -13.487 -10.3489
      vertex 6 -14.7224 -8.5
    endloop
  endfacet
  facet normal 1 0 0
    outer loop
      vertex 6 -42.4352 -24.5
      vertex 6 -14.7224 -8.5
      vertex 6 -15.706 -6.50562
    endloop
  endfacet
  facet normal 1 0 0
    outer loop
      vertex 6 -45.2701 -18.7515
      vertex 6 -15.706 -6.50562
      vertex 6 -16.4207 -4.39992
    endloop
  endfacet
  facet normal 1 0 0
    outer loop
      vertex 6 -47.3304 -12.6821
      vertex 6 -16.4207 -4.39992
      vertex 6 -16.8546 -2.21894
    endloop
  endfacet
  facet normal 1 0 0
    outer loop
      vertex 6 -6.50562 -15.706
      vertex 6 -18.7515 -45.2701
      vertex 6 -12.6821 -47.3304
    endloop
  endfacet
  facet normal 1 0 0
    outer loop
      vertex 6 -48.5808 -6.39578
      vertex 6 -16.8546 -2.21894
      vertex 6 -17 0
    endloop
  endfacet
  facet normal 1 -0 0
    outer loop
      vertex 6 -42.4352 24.5
      vertex 6 -14.7224 8.5
      vertex 6 -38.8743 29.8293
    endloop
  endfacet
  facet normal 1 0 0
    outer loop
      vertex 6 -14.7224 8.5
      vertex 6 -42.4352 24.5
      vertex 6 -15.706 6.50562
    endloop
  endfacet
  facet normal 1 0 0
    outer loop
      vertex 6 -8.5 -14.7224
      vertex 6 -24.5 -42.4352
      vertex 6 -18.7515 -45.2701
    endloop
  endfacet
  facet normal 1 -0 0
    outer loop
      vertex 6 -45.2701 18.7515
      vertex 6 -15.706 6.50562
      vertex 6 -42.4352 24.5
    endloop
  endfacet
  facet normal 1 0 0
    outer loop
      vertex 6 -10.3489 -13.487
      vertex 6 -29.8293 -38.8743
      vertex 6 -24.5 -42.4352
    endloop
  endfacet
  facet normal 1 0 0
    outer loop
      vertex 6 -15.706 6.50562
      vertex 6 -45.2701 18.7515
      vertex 6 -16.4207 4.39992
    endloop
  endfacet
  facet normal 1 0 0
    outer loop
      vertex 6 -12.0208 -12.0208
      vertex 6 -34.6482 -34.6482
      vertex 6 -29.8293 -38.8743
    endloop
  endfacet
  facet normal 1 -0 0
    outer loop
      vertex 6 -47.3304 12.6821
      vertex 6 -16.4207 4.39992
      vertex 6 -45.2701 18.7515
    endloop
  endfacet
  facet normal 1 0 0
    outer loop
      vertex 6 -13.487 -10.3489
      vertex 6 -38.8743 -29.8293
      vertex 6 -34.6482 -34.6482
    endloop
  endfacet
  facet normal 1 0 0
    outer loop
      vertex 6 -16.4207 4.39992
      vertex 6 -47.3304 12.6821
      vertex 6 -16.8546 2.21894
    endloop
  endfacet
  facet normal 1 0 0
    outer loop
      vertex 6 -14.7224 -8.5
      vertex 6 -42.4352 -24.5
      vertex 6 -38.8743 -29.8293
    endloop
  endfacet
  facet normal 1 -0 0
    outer loop
      vertex 6 -48.5808 6.39578
      vertex 6 -16.8546 2.21894
      vertex 6 -47.3304 12.6821
    endloop
  endfacet
  facet normal 1 0 0
    outer loop
      vertex 6 -15.706 -6.50562
      vertex 6 -45.2701 -18.7515
      vertex 6 -42.4352 -24.5
    endloop
  endfacet
  facet normal 1 0 0
    outer loop
      vertex 6 -16.8546 2.21894
      vertex 6 -48.5808 6.39578
      vertex 6 -17 0
    endloop
  endfacet
  facet normal 1 0 0
    outer loop
      vertex 6 -16.4207 -4.39992
      vertex 6 -47.3304 -12.6821
      vertex 6 -45.2701 -18.7515
    endloop
  endfacet
  facet normal 1 0 0
    outer loop
      vertex 6 -49 0
      vertex 6 -17 0
      vertex 6 -48.5808 6.39578
    endloop
  endfacet
  facet normal 1 0 0
    outer loop
      vertex 6 -16.8546 -2.21894
      vertex 6 -48.5808 -6.39578
      vertex 6 -47.3304 -12.6821
    endloop
  endfacet
  facet normal 1 0 0
    outer loop
      vertex 6 -17 0
      vertex 6 -49 0
      vertex 6 -48.5808 -6.39578
    endloop
  endfacet
  facet normal 0 0.896869 0.442295
    outer loop
      vertex 6 45.2701 18.7515
      vertex -6 42.4352 24.5
      vertex 6 42.4352 24.5
    endloop
  endfacet
  facet normal 0 0.896869 0.442295
    outer loop
      vertex -6 42.4352 24.5
      vertex 6 45.2701 18.7515
      vertex -6 45.2701 18.7515
    endloop
  endfacet
  facet normal 0 0.997859 0.0654029
    outer loop
      vertex 6 49 0
      vertex -6 48.5808 6.39578
      vertex 6 48.5808 6.39578
    endloop
  endfacet
  facet normal 0 0.997859 0.0654029
    outer loop
      vertex -6 48.5808 6.39578
      vertex 6 49 0
      vertex -6 49 0
    endloop
  endfacet
  facet normal 0 -0.831471 -0.555568
    outer loop
      vertex -6 -38.8743 -29.8293
      vertex 6 -42.4352 -24.5
      vertex -6 -42.4352 -24.5
    endloop
  endfacet
  facet normal 0 -0.831471 -0.555568
    outer loop
      vertex 6 -42.4352 -24.5
      vertex -6 -38.8743 -29.8293
      vertex 6 -38.8743 -29.8293
    endloop
  endfacet
  facet normal 0 -0.555568 -0.831471
    outer loop
      vertex -6 -29.8293 -38.8743
      vertex 6 -24.5 -42.4352
      vertex 6 -29.8293 -38.8743
    endloop
  endfacet
  facet normal -0 -0.555568 -0.831471
    outer loop
      vertex 6 -24.5 -42.4352
      vertex -6 -29.8293 -38.8743
      vertex -6 -24.5 -42.4352
    endloop
  endfacet
  facet normal 0 -0.195086 -0.980786
    outer loop
      vertex -6 -12.6821 -47.3304
      vertex 6 -6.39578 -48.5808
      vertex 6 -12.6821 -47.3304
    endloop
  endfacet
  facet normal -0 -0.195086 -0.980786
    outer loop
      vertex 6 -6.39578 -48.5808
      vertex -6 -12.6821 -47.3304
      vertex -6 -6.39578 -48.5808
    endloop
  endfacet
  facet normal 0 -0.442295 0.896869
    outer loop
      vertex -6 -18.7515 45.2701
      vertex 6 -24.5 42.4352
      vertex 6 -18.7515 45.2701
    endloop
  endfacet
  facet normal 0 -0.442295 0.896869
    outer loop
      vertex 6 -24.5 42.4352
      vertex -6 -18.7515 45.2701
      vertex -6 -24.5 42.4352
    endloop
  endfacet
  facet normal 0 -0.0654029 0.997859
    outer loop
      vertex -6 0 49
      vertex 6 -6.39578 48.5808
      vertex 6 0 49
    endloop
  endfacet
  facet normal 0 -0.0654029 0.997859
    outer loop
      vertex 6 -6.39578 48.5808
      vertex -6 0 49
      vertex -6 -6.39578 48.5808
    endloop
  endfacet
  facet normal 0 0.321442 -0.946929
    outer loop
      vertex -6 12.6821 -47.3304
      vertex 6 18.7515 -45.2701
      vertex 6 12.6821 -47.3304
    endloop
  endfacet
  facet normal 0 0.321442 -0.946929
    outer loop
      vertex 6 18.7515 -45.2701
      vertex -6 12.6821 -47.3304
      vertex -6 18.7515 -45.2701
    endloop
  endfacet
  facet normal 0 0.659349 -0.751837
    outer loop
      vertex -6 29.8293 -38.8743
      vertex 6 34.6482 -34.6482
      vertex 6 29.8293 -38.8743
    endloop
  endfacet
  facet normal 0 0.659349 -0.751837
    outer loop
      vertex 6 34.6482 -34.6482
      vertex -6 29.8293 -38.8743
      vertex -6 34.6482 -34.6482
    endloop
  endfacet
  facet normal 0 0.946929 -0.321442
    outer loop
      vertex 6 45.2701 -18.7515
      vertex -6 47.3304 -12.6821
      vertex 6 47.3304 -12.6821
    endloop
  endfacet
  facet normal 0 0.946929 -0.321442
    outer loop
      vertex -6 47.3304 -12.6821
      vertex 6 45.2701 -18.7515
      vertex -6 45.2701 -18.7515
    endloop
  endfacet
  facet normal 0 0.980786 -0.195086
    outer loop
      vertex 6 47.3304 -12.6821
      vertex -6 48.5808 -6.39578
      vertex 6 48.5808 -6.39578
    endloop
  endfacet
  facet normal 0 0.980786 -0.195086
    outer loop
      vertex -6 48.5808 -6.39578
      vertex 6 47.3304 -12.6821
      vertex -6 47.3304 -12.6821
    endloop
  endfacet
  facet normal -0 0.555568 0.831471
    outer loop
      vertex -6 29.8293 38.8743
      vertex 6 24.5 42.4352
      vertex 6 29.8293 38.8743
    endloop
  endfacet
  facet normal 0 0.555568 0.831471
    outer loop
      vertex 6 24.5 42.4352
      vertex -6 29.8293 38.8743
      vertex -6 24.5 42.4352
    endloop
  endfacet
  facet normal -0 0.659349 0.751837
    outer loop
      vertex -6 34.6482 34.6482
      vertex 6 29.8293 38.8743
      vertex 6 34.6482 34.6482
    endloop
  endfacet
  facet normal 0 0.659349 0.751837
    outer loop
      vertex 6 29.8293 38.8743
      vertex -6 34.6482 34.6482
      vertex -6 29.8293 38.8743
    endloop
  endfacet
  facet normal -0 0.321442 0.946929
    outer loop
      vertex -6 18.7515 45.2701
      vertex 6 12.6821 47.3304
      vertex 6 18.7515 45.2701
    endloop
  endfacet
  facet normal 0 0.321442 0.946929
    outer loop
      vertex 6 12.6821 47.3304
      vertex -6 18.7515 45.2701
      vertex -6 12.6821 47.3304
    endloop
  endfacet
  facet normal -0 0.195086 0.980786
    outer loop
      vertex -6 12.6821 47.3304
      vertex 6 6.39578 48.5808
      vertex 6 12.6821 47.3304
    endloop
  endfacet
  facet normal 0 0.195086 0.980786
    outer loop
      vertex 6 6.39578 48.5808
      vertex -6 12.6821 47.3304
      vertex -6 6.39578 48.5808
    endloop
  endfacet
  facet normal 0 0.831471 0.555568
    outer loop
      vertex 6 42.4352 24.5
      vertex -6 38.8743 29.8293
      vertex 6 38.8743 29.8293
    endloop
  endfacet
  facet normal 0 0.831471 0.555568
    outer loop
      vertex -6 38.8743 29.8293
      vertex 6 42.4352 24.5
      vertex -6 42.4352 24.5
    endloop
  endfacet
  facet normal 0 0.980786 0.195086
    outer loop
      vertex 6 48.5808 6.39578
      vertex -6 47.3304 12.6821
      vertex 6 47.3304 12.6821
    endloop
  endfacet
  facet normal 0 0.980786 0.195086
    outer loop
      vertex -6 47.3304 12.6821
      vertex 6 48.5808 6.39578
      vertex -6 48.5808 6.39578
    endloop
  endfacet
  facet normal 0 -0.0654029 -0.997859
    outer loop
      vertex -6 -6.39578 -48.5808
      vertex 6 0 -49
      vertex 6 -6.39578 -48.5808
    endloop
  endfacet
  facet normal -0 -0.0654029 -0.997859
    outer loop
      vertex 6 0 -49
      vertex -6 -6.39578 -48.5808
      vertex -6 0 -49
    endloop
  endfacet
  facet normal 0 -0.997859 -0.0654029
    outer loop
      vertex -6 -48.5808 -6.39578
      vertex 6 -49 0
      vertex -6 -49 0
    endloop
  endfacet
  facet normal 0 -0.997859 -0.0654029
    outer loop
      vertex 6 -49 0
      vertex -6 -48.5808 -6.39578
      vertex 6 -48.5808 -6.39578
    endloop
  endfacet
  facet normal 0 -0.946929 -0.321442
    outer loop
      vertex -6 -45.2701 -18.7515
      vertex 6 -47.3304 -12.6821
      vertex -6 -47.3304 -12.6821
    endloop
  endfacet
  facet normal 0 -0.946929 -0.321442
    outer loop
      vertex 6 -47.3304 -12.6821
      vertex -6 -45.2701 -18.7515
      vertex 6 -45.2701 -18.7515
    endloop
  endfacet
  facet normal 0 -0.751837 -0.659349
    outer loop
      vertex -6 -34.6482 -34.6482
      vertex 6 -38.8743 -29.8293
      vertex -6 -38.8743 -29.8293
    endloop
  endfacet
  facet normal 0 -0.751837 -0.659349
    outer loop
      vertex 6 -38.8743 -29.8293
      vertex -6 -34.6482 -34.6482
      vertex 6 -34.6482 -34.6482
    endloop
  endfacet
  facet normal 0 -0.442295 -0.896869
    outer loop
      vertex -6 -24.5 -42.4352
      vertex 6 -18.7515 -45.2701
      vertex 6 -24.5 -42.4352
    endloop
  endfacet
  facet normal -0 -0.442295 -0.896869
    outer loop
      vertex 6 -18.7515 -45.2701
      vertex -6 -24.5 -42.4352
      vertex -6 -18.7515 -45.2701
    endloop
  endfacet
  facet normal 0 -0.751837 0.659349
    outer loop
      vertex -6 -38.8743 29.8293
      vertex 6 -34.6482 34.6482
      vertex -6 -34.6482 34.6482
    endloop
  endfacet
  facet normal 0 -0.751837 0.659349
    outer loop
      vertex 6 -34.6482 34.6482
      vertex -6 -38.8743 29.8293
      vertex 6 -38.8743 29.8293
    endloop
  endfacet
  facet normal 0 -0.896869 0.442295
    outer loop
      vertex -6 -45.2701 18.7515
      vertex 6 -42.4352 24.5
      vertex -6 -42.4352 24.5
    endloop
  endfacet
  facet normal 0 -0.896869 0.442295
    outer loop
      vertex 6 -42.4352 24.5
      vertex -6 -45.2701 18.7515
      vertex 6 -45.2701 18.7515
    endloop
  endfacet
  facet normal 0 -0.946929 0.321442
    outer loop
      vertex -6 -47.3304 12.6821
      vertex 6 -45.2701 18.7515
      vertex -6 -45.2701 18.7515
    endloop
  endfacet
  facet normal 0 -0.946929 0.321442
    outer loop
      vertex 6 -45.2701 18.7515
      vertex -6 -47.3304 12.6821
      vertex 6 -47.3304 12.6821
    endloop
  endfacet
  facet normal 0 -0.997859 0.0654029
    outer loop
      vertex -6 -49 0
      vertex 6 -48.5808 6.39578
      vertex -6 -48.5808 6.39578
    endloop
  endfacet
  facet normal 0 -0.997859 0.0654029
    outer loop
      vertex 6 -48.5808 6.39578
      vertex -6 -49 0
      vertex 6 -49 0
    endloop
  endfacet
  facet normal 0 -0.555568 0.831471
    outer loop
      vertex -6 -24.5 42.4352
      vertex 6 -29.8293 38.8743
      vertex 6 -24.5 42.4352
    endloop
  endfacet
  facet normal 0 -0.555568 0.831471
    outer loop
      vertex 6 -29.8293 38.8743
      vertex -6 -24.5 42.4352
      vertex -6 -29.8293 38.8743
    endloop
  endfacet
  facet normal 0 -0.195086 0.980786
    outer loop
      vertex -6 -6.39578 48.5808
      vertex 6 -12.6821 47.3304
      vertex 6 -6.39578 48.5808
    endloop
  endfacet
  facet normal 0 -0.195086 0.980786
    outer loop
      vertex 6 -12.6821 47.3304
      vertex -6 -6.39578 48.5808
      vertex -6 -12.6821 47.3304
    endloop
  endfacet
  facet normal 0 -0.980786 -0.195086
    outer loop
      vertex -6 -47.3304 -12.6821
      vertex 6 -48.5808 -6.39578
      vertex -6 -48.5808 -6.39578
    endloop
  endfacet
  facet normal 0 -0.980786 -0.195086
    outer loop
      vertex 6 -48.5808 -6.39578
      vertex -6 -47.3304 -12.6821
      vertex 6 -47.3304 -12.6821
    endloop
  endfacet
  facet normal 0 -0.896869 -0.442295
    outer loop
      vertex -6 -42.4352 -24.5
      vertex 6 -45.2701 -18.7515
      vertex -6 -45.2701 -18.7515
    endloop
  endfacet
  facet normal 0 -0.896869 -0.442295
    outer loop
      vertex 6 -45.2701 -18.7515
      vertex -6 -42.4352 -24.5
      vertex 6 -42.4352 -24.5
    endloop
  endfacet
  facet normal 0 -0.659349 -0.751837
    outer loop
      vertex -6 -34.6482 -34.6482
      vertex 6 -29.8293 -38.8743
      vertex 6 -34.6482 -34.6482
    endloop
  endfacet
  facet normal -0 -0.659349 -0.751837
    outer loop
      vertex 6 -29.8293 -38.8743
      vertex -6 -34.6482 -34.6482
      vertex -6 -29.8293 -38.8743
    endloop
  endfacet
  facet normal 0 -0.321442 -0.946929
    outer loop
      vertex -6 -18.7515 -45.2701
      vertex 6 -12.6821 -47.3304
      vertex 6 -18.7515 -45.2701
    endloop
  endfacet
  facet normal -0 -0.321442 -0.946929
    outer loop
      vertex 6 -12.6821 -47.3304
      vertex -6 -18.7515 -45.2701
      vertex -6 -12.6821 -47.3304
    endloop
  endfacet
  facet normal 0 -0.831471 0.555568
    outer loop
      vertex -6 -42.4352 24.5
      vertex 6 -38.8743 29.8293
      vertex -6 -38.8743 29.8293
    endloop
  endfacet
  facet normal 0 -0.831471 0.555568
    outer loop
      vertex 6 -38.8743 29.8293
      vertex -6 -42.4352 24.5
      vertex 6 -42.4352 24.5
    endloop
  endfacet
  facet normal 0 -0.980786 0.195086
    outer loop
      vertex -6 -48.5808 6.39578
      vertex 6 -47.3304 12.6821
      vertex -6 -47.3304 12.6821
    endloop
  endfacet
  facet normal 0 -0.980786 0.195086
    outer loop
      vertex 6 -47.3304 12.6821
      vertex -6 -48.5808 6.39578
      vertex 6 -48.5808 6.39578
    endloop
  endfacet
  facet normal 0 -0.659349 0.751837
    outer loop
      vertex -6 -29.8293 38.8743
      vertex 6 -34.6482 34.6482
      vertex 6 -29.8293 38.8743
    endloop
  endfacet
  facet normal 0 -0.659349 0.751837
    outer loop
      vertex 6 -34.6482 34.6482
      vertex -6 -29.8293 38.8743
      vertex -6 -34.6482 34.6482
    endloop
  endfacet
  facet normal 0 -0.321442 0.946929
    outer loop
      vertex -6 -12.6821 47.3304
      vertex 6 -18.7515 45.2701
      vertex 6 -12.6821 47.3304
    endloop
  endfacet
  facet normal 0 -0.321442 0.946929
    outer loop
      vertex 6 -18.7515 45.2701
      vertex -6 -12.6821 47.3304
      vertex -6 -18.7515 45.2701
    endloop
  endfacet
  facet normal 0 -0.0653866 0.99786
    outer loop
      vertex -6 2.21894 -16.8546
      vertex 6 0 -17
      vertex 6 2.21894 -16.8546
    endloop
  endfacet
  facet normal 0 -0.0653866 0.99786
    outer loop
      vertex 6 0 -17
      vertex -6 2.21894 -16.8546
      vertex -6 0 -17
    endloop
  endfacet
  facet normal 0 -0.0653866 -0.99786
    outer loop
      vertex -6 0 17
      vertex 6 2.21894 16.8546
      vertex 6 0 17
    endloop
  endfacet
  facet normal -0 -0.0653866 -0.99786
    outer loop
      vertex 6 2.21894 16.8546
      vertex -6 0 17
      vertex -6 2.21894 16.8546
    endloop
  endfacet
  facet normal 0 -0.99786 0.0653866
    outer loop
      vertex -6 16.8546 -2.21894
      vertex 6 17 0
      vertex -6 17 0
    endloop
  endfacet
  facet normal 0 -0.99786 0.0653866
    outer loop
      vertex 6 17 0
      vertex -6 16.8546 -2.21894
      vertex 6 16.8546 -2.21894
    endloop
  endfacet
  facet normal 0 -0.659342 0.751844
    outer loop
      vertex -6 12.0208 -12.0208
      vertex 6 10.3489 -13.487
      vertex 6 12.0208 -12.0208
    endloop
  endfacet
  facet normal 0 -0.659342 0.751844
    outer loop
      vertex 6 10.3489 -13.487
      vertex -6 12.0208 -12.0208
      vertex -6 10.3489 -13.487
    endloop
  endfacet
  facet normal 0 -0.751844 -0.659342
    outer loop
      vertex -6 13.487 10.3489
      vertex 6 12.0208 12.0208
      vertex -6 12.0208 12.0208
    endloop
  endfacet
  facet normal 0 -0.751844 -0.659342
    outer loop
      vertex 6 12.0208 12.0208
      vertex -6 13.487 10.3489
      vertex 6 13.487 10.3489
    endloop
  endfacet
  facet normal 0 -0.946942 -0.321404
    outer loop
      vertex -6 16.4207 4.39992
      vertex 6 15.706 6.50562
      vertex -6 15.706 6.50562
    endloop
  endfacet
  facet normal 0 -0.946942 -0.321404
    outer loop
      vertex 6 15.706 6.50562
      vertex -6 16.4207 4.39992
      vertex 6 16.4207 4.39992
    endloop
  endfacet
  facet normal 0 0.555572 -0.831469
    outer loop
      vertex -6 -10.3489 13.487
      vertex 6 -8.5 14.7224
      vertex 6 -10.3489 13.487
    endloop
  endfacet
  facet normal 0 0.555572 -0.831469
    outer loop
      vertex 6 -8.5 14.7224
      vertex -6 -10.3489 13.487
      vertex -6 -8.5 14.7224
    endloop
  endfacet
  facet normal 0 -0.321404 0.946942
    outer loop
      vertex -6 6.50562 -15.706
      vertex 6 4.39992 -16.4207
      vertex 6 6.50562 -15.706
    endloop
  endfacet
  facet normal 0 -0.321404 0.946942
    outer loop
      vertex 6 4.39992 -16.4207
      vertex -6 6.50562 -15.706
      vertex -6 4.39992 -16.4207
    endloop
  endfacet
  facet normal 0 -0.195123 0.980779
    outer loop
      vertex -6 4.39992 -16.4207
      vertex 6 2.21894 -16.8546
      vertex 6 4.39992 -16.4207
    endloop
  endfacet
  facet normal 0 -0.195123 0.980779
    outer loop
      vertex 6 2.21894 -16.8546
      vertex -6 4.39992 -16.4207
      vertex -6 2.21894 -16.8546
    endloop
  endfacet
  facet normal 0 -0.442318 0.896858
    outer loop
      vertex -6 8.5 -14.7224
      vertex 6 6.50562 -15.706
      vertex 6 8.5 -14.7224
    endloop
  endfacet
  facet normal 0 -0.442318 0.896858
    outer loop
      vertex 6 6.50562 -15.706
      vertex -6 8.5 -14.7224
      vertex -6 6.50562 -15.706
    endloop
  endfacet
  facet normal 0 -0.896858 0.442318
    outer loop
      vertex -6 14.7224 -8.5
      vertex 6 15.706 -6.50562
      vertex -6 15.706 -6.50562
    endloop
  endfacet
  facet normal 0 -0.896858 0.442318
    outer loop
      vertex 6 15.706 -6.50562
      vertex -6 14.7224 -8.5
      vertex 6 14.7224 -8.5
    endloop
  endfacet
  facet normal 0 -0.946942 0.321404
    outer loop
      vertex -6 15.706 -6.50562
      vertex 6 16.4207 -4.39992
      vertex -6 16.4207 -4.39992
    endloop
  endfacet
  facet normal 0 -0.946942 0.321404
    outer loop
      vertex 6 16.4207 -4.39992
      vertex -6 15.706 -6.50562
      vertex 6 15.706 -6.50562
    endloop
  endfacet
  facet normal 0 -0.751844 0.659342
    outer loop
      vertex -6 12.0208 -12.0208
      vertex 6 13.487 -10.3489
      vertex -6 13.487 -10.3489
    endloop
  endfacet
  facet normal 0 -0.751844 0.659342
    outer loop
      vertex 6 13.487 -10.3489
      vertex -6 12.0208 -12.0208
      vertex 6 12.0208 -12.0208
    endloop
  endfacet
  facet normal 0 -0.442318 -0.896858
    outer loop
      vertex -6 6.50562 15.706
      vertex 6 8.5 14.7224
      vertex 6 6.50562 15.706
    endloop
  endfacet
  facet normal -0 -0.442318 -0.896858
    outer loop
      vertex 6 8.5 14.7224
      vertex -6 6.50562 15.706
      vertex -6 8.5 14.7224
    endloop
  endfacet
  facet normal 0 -0.555572 -0.831469
    outer loop
      vertex -6 8.5 14.7224
      vertex 6 10.3489 13.487
      vertex 6 8.5 14.7224
    endloop
  endfacet
  facet normal -0 -0.555572 -0.831469
    outer loop
      vertex 6 10.3489 13.487
      vertex -6 8.5 14.7224
      vertex -6 10.3489 13.487
    endloop
  endfacet
  facet normal 0 -0.321404 -0.946942
    outer loop
      vertex -6 4.39992 16.4207
      vertex 6 6.50562 15.706
      vertex 6 4.39992 16.4207
    endloop
  endfacet
  facet normal -0 -0.321404 -0.946942
    outer loop
      vertex 6 6.50562 15.706
      vertex -6 4.39992 16.4207
      vertex -6 6.50562 15.706
    endloop
  endfacet
  facet normal 0 -0.896858 -0.442318
    outer loop
      vertex -6 15.706 6.50562
      vertex 6 14.7224 8.5
      vertex -6 14.7224 8.5
    endloop
  endfacet
  facet normal 0 -0.896858 -0.442318
    outer loop
      vertex 6 14.7224 8.5
      vertex -6 15.706 6.50562
      vertex 6 15.706 6.50562
    endloop
  endfacet
  facet normal 0 -0.99786 -0.0653866
    outer loop
      vertex -6 17 0
      vertex 6 16.8546 2.21894
      vertex -6 16.8546 2.21894
    endloop
  endfacet
  facet normal 0 -0.99786 -0.0653866
    outer loop
      vertex 6 16.8546 2.21894
      vertex -6 17 0
      vertex 6 17 0
    endloop
  endfacet
  facet normal 0 0.751844 0.659342
    outer loop
      vertex 6 -12.0208 -12.0208
      vertex -6 -13.487 -10.3489
      vertex 6 -13.487 -10.3489
    endloop
  endfacet
  facet normal 0 0.751844 0.659342
    outer loop
      vertex -6 -13.487 -10.3489
      vertex 6 -12.0208 -12.0208
      vertex -6 -12.0208 -12.0208
    endloop
  endfacet
  facet normal 0 0.896858 0.442318
    outer loop
      vertex 6 -14.7224 -8.5
      vertex -6 -15.706 -6.50562
      vertex 6 -15.706 -6.50562
    endloop
  endfacet
  facet normal 0 0.896858 0.442318
    outer loop
      vertex -6 -15.706 -6.50562
      vertex 6 -14.7224 -8.5
      vertex -6 -14.7224 -8.5
    endloop
  endfacet
  facet normal -0 0.321404 0.946942
    outer loop
      vertex -6 -4.39992 -16.4207
      vertex 6 -6.50562 -15.706
      vertex 6 -4.39992 -16.4207
    endloop
  endfacet
  facet normal 0 0.321404 0.946942
    outer loop
      vertex 6 -6.50562 -15.706
      vertex -6 -4.39992 -16.4207
      vertex -6 -6.50562 -15.706
    endloop
  endfacet
  facet normal 0 0.946942 -0.321404
    outer loop
      vertex 6 -16.4207 4.39992
      vertex -6 -15.706 6.50562
      vertex 6 -15.706 6.50562
    endloop
  endfacet
  facet normal 0 0.946942 -0.321404
    outer loop
      vertex -6 -15.706 6.50562
      vertex 6 -16.4207 4.39992
      vertex -6 -16.4207 4.39992
    endloop
  endfacet
  facet normal 0 0.896858 -0.442318
    outer loop
      vertex 6 -15.706 6.50562
      vertex -6 -14.7224 8.5
      vertex 6 -14.7224 8.5
    endloop
  endfacet
  facet normal 0 0.896858 -0.442318
    outer loop
      vertex -6 -14.7224 8.5
      vertex 6 -15.706 6.50562
      vertex -6 -15.706 6.50562
    endloop
  endfacet
  facet normal 0 0.442318 -0.896858
    outer loop
      vertex -6 -8.5 14.7224
      vertex 6 -6.50562 15.706
      vertex 6 -8.5 14.7224
    endloop
  endfacet
  facet normal 0 0.442318 -0.896858
    outer loop
      vertex 6 -6.50562 15.706
      vertex -6 -8.5 14.7224
      vertex -6 -6.50562 15.706
    endloop
  endfacet
  facet normal 0 0.321404 -0.946942
    outer loop
      vertex -6 -6.50562 15.706
      vertex 6 -4.39992 16.4207
      vertex 6 -6.50562 15.706
    endloop
  endfacet
  facet normal 0 0.321404 -0.946942
    outer loop
      vertex 6 -4.39992 16.4207
      vertex -6 -6.50562 15.706
      vertex -6 -4.39992 16.4207
    endloop
  endfacet
  facet normal 0 -0.831469 0.555572
    outer loop
      vertex -6 13.487 -10.3489
      vertex 6 14.7224 -8.5
      vertex -6 14.7224 -8.5
    endloop
  endfacet
  facet normal 0 -0.831469 0.555572
    outer loop
      vertex 6 14.7224 -8.5
      vertex -6 13.487 -10.3489
      vertex 6 13.487 -10.3489
    endloop
  endfacet
  facet normal 0 -0.980779 -0.195123
    outer loop
      vertex -6 16.8546 2.21894
      vertex 6 16.4207 4.39992
      vertex -6 16.4207 4.39992
    endloop
  endfacet
  facet normal 0 -0.980779 -0.195123
    outer loop
      vertex 6 16.4207 4.39992
      vertex -6 16.8546 2.21894
      vertex 6 16.8546 2.21894
    endloop
  endfacet
  facet normal 0 0.946942 0.321404
    outer loop
      vertex 6 -15.706 -6.50562
      vertex -6 -16.4207 -4.39992
      vertex 6 -16.4207 -4.39992
    endloop
  endfacet
  facet normal 0 0.946942 0.321404
    outer loop
      vertex -6 -16.4207 -4.39992
      vertex 6 -15.706 -6.50562
      vertex -6 -15.706 -6.50562
    endloop
  endfacet
  facet normal 0 0.99786 0.0653866
    outer loop
      vertex 6 -16.8546 -2.21894
      vertex -6 -17 0
      vertex 6 -17 0
    endloop
  endfacet
  facet normal 0 0.99786 0.0653866
    outer loop
      vertex -6 -17 0
      vertex 6 -16.8546 -2.21894
      vertex -6 -16.8546 -2.21894
    endloop
  endfacet
  facet normal 0 0.980779 0.195123
    outer loop
      vertex 6 -16.4207 -4.39992
      vertex -6 -16.8546 -2.21894
      vertex 6 -16.8546 -2.21894
    endloop
  endfacet
  facet normal 0 0.980779 0.195123
    outer loop
      vertex -6 -16.8546 -2.21894
      vertex 6 -16.4207 -4.39992
      vertex -6 -16.4207 -4.39992
    endloop
  endfacet
  facet normal 0 0.831469 0.555572
    outer loop
      vertex 6 -13.487 -10.3489
      vertex -6 -14.7224 -8.5
      vertex 6 -14.7224 -8.5
    endloop
  endfacet
  facet normal 0 0.831469 0.555572
    outer loop
      vertex -6 -14.7224 -8.5
      vertex 6 -13.487 -10.3489
      vertex -6 -13.487 -10.3489
    endloop
  endfacet
  facet normal -0 0.442318 0.896858
    outer loop
      vertex -6 -6.50562 -15.706
      vertex 6 -8.5 -14.7224
      vertex 6 -6.50562 -15.706
    endloop
  endfacet
  facet normal 0 0.442318 0.896858
    outer loop
      vertex 6 -8.5 -14.7224
      vertex -6 -6.50562 -15.706
      vertex -6 -8.5 -14.7224
    endloop
  endfacet
  facet normal -0 0.659342 0.751844
    outer loop
      vertex -6 -10.3489 -13.487
      vertex 6 -12.0208 -12.0208
      vertex 6 -10.3489 -13.487
    endloop
  endfacet
  facet normal 0 0.659342 0.751844
    outer loop
      vertex 6 -12.0208 -12.0208
      vertex -6 -10.3489 -13.487
      vertex -6 -12.0208 -12.0208
    endloop
  endfacet
  facet normal -0 0.555572 0.831469
    outer loop
      vertex -6 -8.5 -14.7224
      vertex 6 -10.3489 -13.487
      vertex 6 -8.5 -14.7224
    endloop
  endfacet
  facet normal 0 0.555572 0.831469
    outer loop
      vertex 6 -10.3489 -13.487
      vertex -6 -8.5 -14.7224
      vertex -6 -10.3489 -13.487
    endloop
  endfacet
  facet normal 0 0.980779 -0.195123
    outer loop
      vertex 6 -16.8546 2.21894
      vertex -6 -16.4207 4.39992
      vertex 6 -16.4207 4.39992
    endloop
  endfacet
  facet normal 0 0.980779 -0.195123
    outer loop
      vertex -6 -16.4207 4.39992
      vertex 6 -16.8546 2.21894
      vertex -6 -16.8546 2.21894
    endloop
  endfacet
  facet normal 0 0.751844 -0.659342
    outer loop
      vertex 6 -13.487 10.3489
      vertex -6 -12.0208 12.0208
      vertex 6 -12.0208 12.0208
    endloop
  endfacet
  facet normal 0 0.751844 -0.659342
    outer loop
      vertex -6 -12.0208 12.0208
      vertex 6 -13.487 10.3489
      vertex -6 -13.487 10.3489
    endloop
  endfacet
  facet normal 0 0.99786 -0.0653866
    outer loop
      vertex 6 -17 0
      vertex -6 -16.8546 2.21894
      vertex 6 -16.8546 2.21894
    endloop
  endfacet
  facet normal 0 0.99786 -0.0653866
    outer loop
      vertex -6 -16.8546 2.21894
      vertex 6 -17 0
      vertex -6 -17 0
    endloop
  endfacet
  facet normal 0 0.831469 -0.555572
    outer loop
      vertex 6 -14.7224 8.5
      vertex -6 -13.487 10.3489
      vertex 6 -13.487 10.3489
    endloop
  endfacet
  facet normal 0 0.831469 -0.555572
    outer loop
      vertex -6 -13.487 10.3489
      vertex 6 -14.7224 8.5
      vertex -6 -14.7224 8.5
    endloop
  endfacet
  facet normal 0 0.659342 -0.751844
    outer loop
      vertex -6 -12.0208 12.0208
      vertex 6 -10.3489 13.487
      vertex 6 -12.0208 12.0208
    endloop
  endfacet
  facet normal 0 0.659342 -0.751844
    outer loop
      vertex 6 -10.3489 13.487
      vertex -6 -12.0208 12.0208
      vertex -6 -10.3489 13.487
    endloop
  endfacet
  facet normal 0 0.0653866 -0.99786
    outer loop
      vertex -6 -2.21894 16.8546
      vertex 6 0 17
      vertex 6 -2.21894 16.8546
    endloop
  endfacet
  facet normal 0 0.0653866 -0.99786
    outer loop
      vertex 6 0 17
      vertex -6 -2.21894 16.8546
      vertex -6 0 17
    endloop
  endfacet
  facet normal 0 -0.555572 0.831469
    outer loop
      vertex -6 10.3489 -13.487
      vertex 6 8.5 -14.7224
      vertex 6 10.3489 -13.487
    endloop
  endfacet
  facet normal 0 -0.555572 0.831469
    outer loop
      vertex 6 8.5 -14.7224
      vertex -6 10.3489 -13.487
      vertex -6 8.5 -14.7224
    endloop
  endfacet
  facet normal 0 -0.980779 0.195123
    outer loop
      vertex -6 16.4207 -4.39992
      vertex 6 16.8546 -2.21894
      vertex -6 16.8546 -2.21894
    endloop
  endfacet
  facet normal 0 -0.980779 0.195123
    outer loop
      vertex 6 16.8546 -2.21894
      vertex -6 16.4207 -4.39992
      vertex 6 16.4207 -4.39992
    endloop
  endfacet
  facet normal 0 -0.659342 -0.751844
    outer loop
      vertex -6 10.3489 13.487
      vertex 6 12.0208 12.0208
      vertex 6 10.3489 13.487
    endloop
  endfacet
  facet normal -0 -0.659342 -0.751844
    outer loop
      vertex 6 12.0208 12.0208
      vertex -6 10.3489 13.487
      vertex -6 12.0208 12.0208
    endloop
  endfacet
  facet normal 0 -0.195123 -0.980779
    outer loop
      vertex -6 2.21894 16.8546
      vertex 6 4.39992 16.4207
      vertex 6 2.21894 16.8546
    endloop
  endfacet
  facet normal -0 -0.195123 -0.980779
    outer loop
      vertex 6 4.39992 16.4207
      vertex -6 2.21894 16.8546
      vertex -6 4.39992 16.4207
    endloop
  endfacet
  facet normal 0 -0.831469 -0.555572
    outer loop
      vertex -6 14.7224 8.5
      vertex 6 13.487 10.3489
      vertex -6 13.487 10.3489
    endloop
  endfacet
  facet normal 0 -0.831469 -0.555572
    outer loop
      vertex 6 13.487 10.3489
      vertex -6 14.7224 8.5
      vertex 6 14.7224 8.5
    endloop
  endfacet
  facet normal -0 0.195123 0.980779
    outer loop
      vertex -6 -2.21894 -16.8546
      vertex 6 -4.39992 -16.4207
      vertex 6 -2.21894 -16.8546
    endloop
  endfacet
  facet normal 0 0.195123 0.980779
    outer loop
      vertex 6 -4.39992 -16.4207
      vertex -6 -2.21894 -16.8546
      vertex -6 -4.39992 -16.4207
    endloop
  endfacet
  facet normal -0 0.0653866 0.99786
    outer loop
      vertex -6 0 -17
      vertex 6 -2.21894 -16.8546
      vertex 6 0 -17
    endloop
  endfacet
  facet normal 0 0.0653866 0.99786
    outer loop
      vertex 6 -2.21894 -16.8546
      vertex -6 0 -17
      vertex -6 -2.21894 -16.8546
    endloop
  endfacet
  facet normal 0 0.195123 -0.980779
    outer loop
      vertex -6 -4.39992 16.4207
      vertex 6 -2.21894 16.8546
      vertex 6 -4.39992 16.4207
    endloop
  endfacet
  facet normal 0 0.195123 -0.980779
    outer loop
      vertex 6 -2.21894 16.8546
      vertex -6 -4.39992 16.4207
      vertex -6 -2.21894 16.8546
    endloop
  endfacet
endsolid OpenSCAD_Model
