solid OpenSCAD_Model
  facet normal 0 0.0654063 -0.997859
    outer loop
      vertex -26 0 -63
      vertex 26 8.22315 -62.461
      vertex 26 0 -63
    endloop
  endfacet
  facet normal 0 0.0654063 -0.997859
    outer loop
      vertex 26 8.22315 -62.461
      vertex -26 0 -63
      vertex -26 8.22315 -62.461
    endloop
  endfacet
  facet normal -0 0.0654063 0.997859
    outer loop
      vertex -26 8.22315 62.461
      vertex 26 0 63
      vertex 26 8.22315 62.461
    endloop
  endfacet
  facet normal 0 0.0654063 0.997859
    outer loop
      vertex 26 0 63
      vertex -26 8.22315 62.461
      vertex -26 0 63
    endloop
  endfacet
  facet normal 0 0.997859 -0.0654063
    outer loop
      vertex 26 62.461 -8.22315
      vertex -26 63 0
      vertex 26 63 0
    endloop
  endfacet
  facet normal 0 0.997859 -0.0654063
    outer loop
      vertex -26 63 0
      vertex 26 62.461 -8.22315
      vertex -26 62.461 -8.22315
    endloop
  endfacet
  facet normal 0 0.751833 -0.659354
    outer loop
      vertex 26 44.5477 -44.5477
      vertex -26 49.9813 -38.352
      vertex 26 49.9813 -38.352
    endloop
  endfacet
  facet normal 0 0.751833 -0.659354
    outer loop
      vertex -26 49.9813 -38.352
      vertex 26 44.5477 -44.5477
      vertex -26 44.5477 -44.5477
    endloop
  endfacet
  facet normal 0 0.751833 0.659354
    outer loop
      vertex 26 49.9813 38.352
      vertex -26 44.5477 44.5477
      vertex 26 44.5477 44.5477
    endloop
  endfacet
  facet normal 0 0.751833 0.659354
    outer loop
      vertex -26 44.5477 44.5477
      vertex 26 49.9813 38.352
      vertex -26 49.9813 38.352
    endloop
  endfacet
  facet normal 0 0.946931 0.321436
    outer loop
      vertex 26 60.8533 16.3056
      vertex -26 58.2044 24.1091
      vertex 26 58.2044 24.1091
    endloop
  endfacet
  facet normal 0 0.946931 0.321436
    outer loop
      vertex -26 58.2044 24.1091
      vertex 26 60.8533 16.3056
      vertex -26 60.8533 16.3056
    endloop
  endfacet
  facet normal 0 0.44229 -0.896872
    outer loop
      vertex -26 24.1091 -58.2044
      vertex 26 31.5 -54.5596
      vertex 26 24.1091 -58.2044
    endloop
  endfacet
  facet normal 0 0.44229 -0.896872
    outer loop
      vertex 26 31.5 -54.5596
      vertex -26 24.1091 -58.2044
      vertex -26 31.5 -54.5596
    endloop
  endfacet
  facet normal 0 0.19509 -0.980785
    outer loop
      vertex -26 8.22315 -62.461
      vertex 26 16.3056 -60.8533
      vertex 26 8.22315 -62.461
    endloop
  endfacet
  facet normal 0 0.19509 -0.980785
    outer loop
      vertex 26 16.3056 -60.8533
      vertex -26 8.22315 -62.461
      vertex -26 16.3056 -60.8533
    endloop
  endfacet
  facet normal 0 0.555565 -0.831473
    outer loop
      vertex -26 31.5 -54.5596
      vertex 26 38.352 -49.9813
      vertex 26 31.5 -54.5596
    endloop
  endfacet
  facet normal 0 0.555565 -0.831473
    outer loop
      vertex 26 38.352 -49.9813
      vertex -26 31.5 -54.5596
      vertex -26 38.352 -49.9813
    endloop
  endfacet
  facet normal 0 0.946931 -0.321436
    outer loop
      vertex 26 58.2044 -24.1091
      vertex -26 60.8533 -16.3056
      vertex 26 60.8533 -16.3056
    endloop
  endfacet
  facet normal 0 0.946931 -0.321436
    outer loop
      vertex -26 60.8533 -16.3056
      vertex 26 58.2044 -24.1091
      vertex -26 58.2044 -24.1091
    endloop
  endfacet
  facet normal 0 0.980785 -0.19509
    outer loop
      vertex 26 60.8533 -16.3056
      vertex -26 62.461 -8.22315
      vertex 26 62.461 -8.22315
    endloop
  endfacet
  facet normal 0 0.980785 -0.19509
    outer loop
      vertex -26 62.461 -8.22315
      vertex 26 60.8533 -16.3056
      vertex -26 60.8533 -16.3056
    endloop
  endfacet
  facet normal 0 0.831473 -0.555565
    outer loop
      vertex 26 49.9813 -38.352
      vertex -26 54.5596 -31.5
      vertex 26 54.5596 -31.5
    endloop
  endfacet
  facet normal 0 0.831473 -0.555565
    outer loop
      vertex -26 54.5596 -31.5
      vertex 26 49.9813 -38.352
      vertex -26 49.9813 -38.352
    endloop
  endfacet
  facet normal -0 0.44229 0.896872
    outer loop
      vertex -26 31.5 54.5596
      vertex 26 24.1091 58.2044
      vertex 26 31.5 54.5596
    endloop
  endfacet
  facet normal 0 0.44229 0.896872
    outer loop
      vertex 26 24.1091 58.2044
      vertex -26 31.5 54.5596
      vertex -26 24.1091 58.2044
    endloop
  endfacet
  facet normal -0 0.659354 0.751833
    outer loop
      vertex -26 44.5477 44.5477
      vertex 26 38.352 49.9813
      vertex 26 44.5477 44.5477
    endloop
  endfacet
  facet normal 0 0.659354 0.751833
    outer loop
      vertex 26 38.352 49.9813
      vertex -26 44.5477 44.5477
      vertex -26 38.352 49.9813
    endloop
  endfacet
  facet normal -0 0.321436 0.946931
    outer loop
      vertex -26 24.1091 58.2044
      vertex 26 16.3056 60.8533
      vertex 26 24.1091 58.2044
    endloop
  endfacet
  facet normal 0 0.321436 0.946931
    outer loop
      vertex 26 16.3056 60.8533
      vertex -26 24.1091 58.2044
      vertex -26 16.3056 60.8533
    endloop
  endfacet
  facet normal 0 0.980785 0.19509
    outer loop
      vertex 26 62.461 8.22315
      vertex -26 60.8533 16.3056
      vertex 26 60.8533 16.3056
    endloop
  endfacet
  facet normal 0 0.980785 0.19509
    outer loop
      vertex -26 60.8533 16.3056
      vertex 26 62.461 8.22315
      vertex -26 62.461 8.22315
    endloop
  endfacet
  facet normal 0 -0.831473 -0.555565
    outer loop
      vertex -26 -49.9813 -38.352
      vertex 26 -54.5596 -31.5
      vertex -26 -54.5596 -31.5
    endloop
  endfacet
  facet normal 0 -0.831473 -0.555565
    outer loop
      vertex 26 -54.5596 -31.5
      vertex -26 -49.9813 -38.352
      vertex 26 -49.9813 -38.352
    endloop
  endfacet
  facet normal 0 -0.751833 0.659354
    outer loop
      vertex -26 -49.9813 38.352
      vertex 26 -44.5477 44.5477
      vertex -26 -44.5477 44.5477
    endloop
  endfacet
  facet normal 0 -0.751833 0.659354
    outer loop
      vertex 26 -44.5477 44.5477
      vertex -26 -49.9813 38.352
      vertex 26 -49.9813 38.352
    endloop
  endfacet
  facet normal 0 -0.946931 0.321436
    outer loop
      vertex -26 -60.8533 16.3056
      vertex 26 -58.2044 24.1091
      vertex -26 -58.2044 24.1091
    endloop
  endfacet
  facet normal 0 -0.946931 0.321436
    outer loop
      vertex 26 -58.2044 24.1091
      vertex -26 -60.8533 16.3056
      vertex 26 -60.8533 16.3056
    endloop
  endfacet
  facet normal -1 0 0
    outer loop
      vertex -26 49 0
      vertex -26 63 0
      vertex -26 62.461 -8.22315
    endloop
  endfacet
  facet normal -1 0 0
    outer loop
      vertex -26 48.5808 -6.39578
      vertex -26 62.461 -8.22315
      vertex -26 60.8533 -16.3056
    endloop
  endfacet
  facet normal -1 0 0
    outer loop
      vertex -26 63 0
      vertex -26 49 0
      vertex -26 62.461 8.22315
    endloop
  endfacet
  facet normal -1 0 0
    outer loop
      vertex -26 47.3304 -12.6821
      vertex -26 60.8533 -16.3056
      vertex -26 58.2044 -24.1091
    endloop
  endfacet
  facet normal -1 0 0
    outer loop
      vertex -26 48.5808 6.39578
      vertex -26 62.461 8.22315
      vertex -26 49 0
    endloop
  endfacet
  facet normal -1 0 0
    outer loop
      vertex -26 45.2701 -18.7515
      vertex -26 58.2044 -24.1091
      vertex -26 54.5596 -31.5
    endloop
  endfacet
  facet normal -1 -0 0
    outer loop
      vertex -26 62.461 8.22315
      vertex -26 48.5808 6.39578
      vertex -26 60.8533 16.3056
    endloop
  endfacet
  facet normal -1 0 0
    outer loop
      vertex -26 42.4352 -24.5
      vertex -26 54.5596 -31.5
      vertex -26 49.9813 -38.352
    endloop
  endfacet
  facet normal -1 0 0
    outer loop
      vertex -26 47.3304 12.6821
      vertex -26 60.8533 16.3056
      vertex -26 48.5808 6.39578
    endloop
  endfacet
  facet normal -1 -0 0
    outer loop
      vertex -26 60.8533 16.3056
      vertex -26 47.3304 12.6821
      vertex -26 58.2044 24.1091
    endloop
  endfacet
  facet normal -1 0 0
    outer loop
      vertex -26 62.461 -8.22315
      vertex -26 48.5808 -6.39578
      vertex -26 49 0
    endloop
  endfacet
  facet normal -1 0 0
    outer loop
      vertex -26 60.8533 -16.3056
      vertex -26 47.3304 -12.6821
      vertex -26 48.5808 -6.39578
    endloop
  endfacet
  facet normal -1 0 0
    outer loop
      vertex -26 58.2044 -24.1091
      vertex -26 45.2701 -18.7515
      vertex -26 47.3304 -12.6821
    endloop
  endfacet
  facet normal -1 0 0
    outer loop
      vertex -26 38.8743 -29.8293
      vertex -26 49.9813 -38.352
      vertex -26 44.5477 -44.5477
    endloop
  endfacet
  facet normal -1 0 0
    outer loop
      vertex -26 54.5596 -31.5
      vertex -26 42.4352 -24.5
      vertex -26 45.2701 -18.7515
    endloop
  endfacet
  facet normal -1 0 0
    outer loop
      vertex -26 49.9813 -38.352
      vertex -26 38.8743 -29.8293
      vertex -26 42.4352 -24.5
    endloop
  endfacet
  facet normal -1 0 0
    outer loop
      vertex -26 34.6482 -34.6482
      vertex -26 44.5477 -44.5477
      vertex -26 38.352 -49.9813
    endloop
  endfacet
  facet normal -1 0 0
    outer loop
      vertex -26 44.5477 -44.5477
      vertex -26 34.6482 -34.6482
      vertex -26 38.8743 -29.8293
    endloop
  endfacet
  facet normal -1 0 0
    outer loop
      vertex -26 29.8293 -38.8743
      vertex -26 38.352 -49.9813
      vertex -26 31.5 -54.5596
    endloop
  endfacet
  facet normal -1 0 0
    outer loop
      vertex -26 38.352 -49.9813
      vertex -26 29.8293 -38.8743
      vertex -26 34.6482 -34.6482
    endloop
  endfacet
  facet normal -1 0 0
    outer loop
      vertex -26 31.5 -54.5596
      vertex -26 24.5 -42.4352
      vertex -26 29.8293 -38.8743
    endloop
  endfacet
  facet normal -1 0 0
    outer loop
      vertex -26 24.1091 -58.2044
      vertex -26 24.5 -42.4352
      vertex -26 31.5 -54.5596
    endloop
  endfacet
  facet normal -1 0 0
    outer loop
      vertex -26 24.1091 -58.2044
      vertex -26 18.7515 -45.2701
      vertex -26 24.5 -42.4352
    endloop
  endfacet
  facet normal -1 0 0
    outer loop
      vertex -26 16.3056 -60.8533
      vertex -26 18.7515 -45.2701
      vertex -26 24.1091 -58.2044
    endloop
  endfacet
  facet normal -1 0 0
    outer loop
      vertex -26 16.3056 -60.8533
      vertex -26 12.6821 -47.3304
      vertex -26 18.7515 -45.2701
    endloop
  endfacet
  facet normal -1 0 0
    outer loop
      vertex -26 8.22315 -62.461
      vertex -26 12.6821 -47.3304
      vertex -26 16.3056 -60.8533
    endloop
  endfacet
  facet normal -1 0 0
    outer loop
      vertex -26 8.22315 -62.461
      vertex -26 6.39578 -48.5808
      vertex -26 12.6821 -47.3304
    endloop
  endfacet
  facet normal -1 0 0
    outer loop
      vertex -26 0 -63
      vertex -26 6.39578 -48.5808
      vertex -26 8.22315 -62.461
    endloop
  endfacet
  facet normal -1 0 0
    outer loop
      vertex -26 0 -63
      vertex -26 0 -49
      vertex -26 6.39578 -48.5808
    endloop
  endfacet
  facet normal -1 0 0
    outer loop
      vertex -26 0 -63
      vertex -26 -6.39578 -48.5808
      vertex -26 0 -49
    endloop
  endfacet
  facet normal -1 0 0
    outer loop
      vertex -26 -8.22315 -62.461
      vertex -26 -6.39578 -48.5808
      vertex -26 0 -63
    endloop
  endfacet
  facet normal -1 0 0
    outer loop
      vertex -26 -8.22315 -62.461
      vertex -26 -12.6821 -47.3304
      vertex -26 -6.39578 -48.5808
    endloop
  endfacet
  facet normal -1 0 0
    outer loop
      vertex -26 -16.3056 -60.8533
      vertex -26 -12.6821 -47.3304
      vertex -26 -8.22315 -62.461
    endloop
  endfacet
  facet normal -1 0 0
    outer loop
      vertex -26 -16.3056 -60.8533
      vertex -26 -18.7515 -45.2701
      vertex -26 -12.6821 -47.3304
    endloop
  endfacet
  facet normal -1 0 0
    outer loop
      vertex -26 -24.1091 -58.2044
      vertex -26 -18.7515 -45.2701
      vertex -26 -16.3056 -60.8533
    endloop
  endfacet
  facet normal -1 0 0
    outer loop
      vertex -26 -24.1091 -58.2044
      vertex -26 -24.5 -42.4352
      vertex -26 -18.7515 -45.2701
    endloop
  endfacet
  facet normal -1 0 0
    outer loop
      vertex -26 -31.5 -54.5596
      vertex -26 -24.5 -42.4352
      vertex -26 -24.1091 -58.2044
    endloop
  endfacet
  facet normal -1 -0 0
    outer loop
      vertex -26 -24.5 -42.4352
      vertex -26 -31.5 -54.5596
      vertex -26 -29.8293 -38.8743
    endloop
  endfacet
  facet normal -1 0 0
    outer loop
      vertex -26 -38.352 -49.9813
      vertex -26 -29.8293 -38.8743
      vertex -26 -31.5 -54.5596
    endloop
  endfacet
  facet normal -1 -0 0
    outer loop
      vertex -26 -29.8293 -38.8743
      vertex -26 -38.352 -49.9813
      vertex -26 -34.6482 -34.6482
    endloop
  endfacet
  facet normal -1 0 0
    outer loop
      vertex -26 -44.5477 -44.5477
      vertex -26 -34.6482 -34.6482
      vertex -26 -38.352 -49.9813
    endloop
  endfacet
  facet normal -1 -0 0
    outer loop
      vertex -26 -34.6482 -34.6482
      vertex -26 -44.5477 -44.5477
      vertex -26 -38.8743 -29.8293
    endloop
  endfacet
  facet normal -1 0 0
    outer loop
      vertex -26 -49.9813 -38.352
      vertex -26 -38.8743 -29.8293
      vertex -26 -44.5477 -44.5477
    endloop
  endfacet
  facet normal -1 -0 0
    outer loop
      vertex -26 -38.8743 -29.8293
      vertex -26 -49.9813 -38.352
      vertex -26 -42.4352 -24.5
    endloop
  endfacet
  facet normal -1 0 0
    outer loop
      vertex -26 -54.5596 -31.5
      vertex -26 -42.4352 -24.5
      vertex -26 -49.9813 -38.352
    endloop
  endfacet
  facet normal -1 -0 0
    outer loop
      vertex -26 -42.4352 -24.5
      vertex -26 -54.5596 -31.5
      vertex -26 -45.2701 -18.7515
    endloop
  endfacet
  facet normal -1 -0 0
    outer loop
      vertex -26 -45.2701 -18.7515
      vertex -26 -58.2044 -24.1091
      vertex -26 -47.3304 -12.6821
    endloop
  endfacet
  facet normal -1 0 0
    outer loop
      vertex -26 -58.2044 -24.1091
      vertex -26 -45.2701 -18.7515
      vertex -26 -54.5596 -31.5
    endloop
  endfacet
  facet normal -1 0 0
    outer loop
      vertex -26 45.2701 18.7515
      vertex -26 58.2044 24.1091
      vertex -26 47.3304 12.6821
    endloop
  endfacet
  facet normal -1 -0 0
    outer loop
      vertex -26 58.2044 24.1091
      vertex -26 45.2701 18.7515
      vertex -26 54.5596 31.5
    endloop
  endfacet
  facet normal -1 0 0
    outer loop
      vertex -26 42.4352 24.5
      vertex -26 54.5596 31.5
      vertex -26 45.2701 18.7515
    endloop
  endfacet
  facet normal -1 -0 0
    outer loop
      vertex -26 54.5596 31.5
      vertex -26 42.4352 24.5
      vertex -26 49.9813 38.352
    endloop
  endfacet
  facet normal -1 0 0
    outer loop
      vertex -26 38.8743 29.8293
      vertex -26 49.9813 38.352
      vertex -26 42.4352 24.5
    endloop
  endfacet
  facet normal -1 -0 0
    outer loop
      vertex -26 49.9813 38.352
      vertex -26 38.8743 29.8293
      vertex -26 44.5477 44.5477
    endloop
  endfacet
  facet normal -1 0 0
    outer loop
      vertex -26 34.6482 34.6482
      vertex -26 44.5477 44.5477
      vertex -26 38.8743 29.8293
    endloop
  endfacet
  facet normal -1 -0 0
    outer loop
      vertex -26 44.5477 44.5477
      vertex -26 34.6482 34.6482
      vertex -26 38.352 49.9813
    endloop
  endfacet
  facet normal -1 0 0
    outer loop
      vertex -26 29.8293 38.8743
      vertex -26 38.352 49.9813
      vertex -26 34.6482 34.6482
    endloop
  endfacet
  facet normal -1 -0 0
    outer loop
      vertex -26 38.352 49.9813
      vertex -26 29.8293 38.8743
      vertex -26 31.5 54.5596
    endloop
  endfacet
  facet normal -1 0 0
    outer loop
      vertex -26 24.5 42.4352
      vertex -26 31.5 54.5596
      vertex -26 29.8293 38.8743
    endloop
  endfacet
  facet normal -1 0 0
    outer loop
      vertex -26 24.5 42.4352
      vertex -26 24.1091 58.2044
      vertex -26 31.5 54.5596
    endloop
  endfacet
  facet normal -1 0 0
    outer loop
      vertex -26 18.7515 45.2701
      vertex -26 24.1091 58.2044
      vertex -26 24.5 42.4352
    endloop
  endfacet
  facet normal -1 0 0
    outer loop
      vertex -26 18.7515 45.2701
      vertex -26 16.3056 60.8533
      vertex -26 24.1091 58.2044
    endloop
  endfacet
  facet normal -1 0 0
    outer loop
      vertex -26 12.6821 47.3304
      vertex -26 16.3056 60.8533
      vertex -26 18.7515 45.2701
    endloop
  endfacet
  facet normal -1 0 0
    outer loop
      vertex -26 12.6821 47.3304
      vertex -26 8.22315 62.461
      vertex -26 16.3056 60.8533
    endloop
  endfacet
  facet normal -1 0 0
    outer loop
      vertex -26 6.39578 48.5808
      vertex -26 8.22315 62.461
      vertex -26 12.6821 47.3304
    endloop
  endfacet
  facet normal -1 0 0
    outer loop
      vertex -26 0 49
      vertex -26 8.22315 62.461
      vertex -26 6.39578 48.5808
    endloop
  endfacet
  facet normal -1 0 0
    outer loop
      vertex -26 0 49
      vertex -26 0 63
      vertex -26 8.22315 62.461
    endloop
  endfacet
  facet normal -1 0 0
    outer loop
      vertex -26 -6.39578 48.5808
      vertex -26 0 63
      vertex -26 0 49
    endloop
  endfacet
  facet normal -1 0 0
    outer loop
      vertex -26 -6.39578 48.5808
      vertex -26 -8.22315 62.461
      vertex -26 0 63
    endloop
  endfacet
  facet normal -1 0 0
    outer loop
      vertex -26 -12.6821 47.3304
      vertex -26 -8.22315 62.461
      vertex -26 -6.39578 48.5808
    endloop
  endfacet
  facet normal -1 0 0
    outer loop
      vertex -26 -12.6821 47.3304
      vertex -26 -16.3056 60.8533
      vertex -26 -8.22315 62.461
    endloop
  endfacet
  facet normal -1 0 0
    outer loop
      vertex -26 -18.7515 45.2701
      vertex -26 -16.3056 60.8533
      vertex -26 -12.6821 47.3304
    endloop
  endfacet
  facet normal -1 0 0
    outer loop
      vertex -26 -18.7515 45.2701
      vertex -26 -24.1091 58.2044
      vertex -26 -16.3056 60.8533
    endloop
  endfacet
  facet normal -1 0 0
    outer loop
      vertex -26 -24.5 42.4352
      vertex -26 -24.1091 58.2044
      vertex -26 -18.7515 45.2701
    endloop
  endfacet
  facet normal -1 0 0
    outer loop
      vertex -26 -31.5 54.5596
      vertex -26 -24.5 42.4352
      vertex -26 -29.8293 38.8743
    endloop
  endfacet
  facet normal -1 0 0
    outer loop
      vertex -26 -24.5 42.4352
      vertex -26 -31.5 54.5596
      vertex -26 -24.1091 58.2044
    endloop
  endfacet
  facet normal -1 0 0
    outer loop
      vertex -26 -38.352 49.9813
      vertex -26 -29.8293 38.8743
      vertex -26 -34.6482 34.6482
    endloop
  endfacet
  facet normal -1 0 0
    outer loop
      vertex -26 -29.8293 38.8743
      vertex -26 -38.352 49.9813
      vertex -26 -31.5 54.5596
    endloop
  endfacet
  facet normal -1 0 0
    outer loop
      vertex -26 -44.5477 44.5477
      vertex -26 -34.6482 34.6482
      vertex -26 -38.8743 29.8293
    endloop
  endfacet
  facet normal -1 0 0
    outer loop
      vertex -26 -49.9813 38.352
      vertex -26 -38.8743 29.8293
      vertex -26 -42.4352 24.5
    endloop
  endfacet
  facet normal -1 0 0
    outer loop
      vertex -26 -34.6482 34.6482
      vertex -26 -44.5477 44.5477
      vertex -26 -38.352 49.9813
    endloop
  endfacet
  facet normal -1 0 0
    outer loop
      vertex -26 -54.5596 31.5
      vertex -26 -42.4352 24.5
      vertex -26 -45.2701 18.7515
    endloop
  endfacet
  facet normal -1 0 0
    outer loop
      vertex -26 -58.2044 24.1091
      vertex -26 -45.2701 18.7515
      vertex -26 -47.3304 12.6821
    endloop
  endfacet
  facet normal -1 0 0
    outer loop
      vertex -26 -60.8533 16.3056
      vertex -26 -47.3304 12.6821
      vertex -26 -48.5808 6.39578
    endloop
  endfacet
  facet normal -1 0 0
    outer loop
      vertex -26 -38.8743 29.8293
      vertex -26 -49.9813 38.352
      vertex -26 -44.5477 44.5477
    endloop
  endfacet
  facet normal -1 0 0
    outer loop
      vertex -26 -62.461 8.22315
      vertex -26 -48.5808 6.39578
      vertex -26 -49 0
    endloop
  endfacet
  facet normal -1 0 0
    outer loop
      vertex -26 -60.8533 -16.3056
      vertex -26 -47.3304 -12.6821
      vertex -26 -58.2044 -24.1091
    endloop
  endfacet
  facet normal -1 -0 0
    outer loop
      vertex -26 -47.3304 -12.6821
      vertex -26 -60.8533 -16.3056
      vertex -26 -48.5808 -6.39578
    endloop
  endfacet
  facet normal -1 0 0
    outer loop
      vertex -26 -42.4352 24.5
      vertex -26 -54.5596 31.5
      vertex -26 -49.9813 38.352
    endloop
  endfacet
  facet normal -1 0 0
    outer loop
      vertex -26 -62.461 -8.22315
      vertex -26 -48.5808 -6.39578
      vertex -26 -60.8533 -16.3056
    endloop
  endfacet
  facet normal -1 0 0
    outer loop
      vertex -26 -45.2701 18.7515
      vertex -26 -58.2044 24.1091
      vertex -26 -54.5596 31.5
    endloop
  endfacet
  facet normal -1 -0 0
    outer loop
      vertex -26 -48.5808 -6.39578
      vertex -26 -62.461 -8.22315
      vertex -26 -49 0
    endloop
  endfacet
  facet normal -1 0 0
    outer loop
      vertex -26 -47.3304 12.6821
      vertex -26 -60.8533 16.3056
      vertex -26 -58.2044 24.1091
    endloop
  endfacet
  facet normal -1 0 0
    outer loop
      vertex -26 -63 0
      vertex -26 -49 0
      vertex -26 -62.461 -8.22315
    endloop
  endfacet
  facet normal -1 0 0
    outer loop
      vertex -26 -48.5808 6.39578
      vertex -26 -62.461 8.22315
      vertex -26 -60.8533 16.3056
    endloop
  endfacet
  facet normal -1 0 0
    outer loop
      vertex -26 -49 0
      vertex -26 -63 0
      vertex -26 -62.461 8.22315
    endloop
  endfacet
  facet normal 0 0.321436 -0.946931
    outer loop
      vertex -26 16.3056 -60.8533
      vertex 26 24.1091 -58.2044
      vertex 26 16.3056 -60.8533
    endloop
  endfacet
  facet normal 0 0.321436 -0.946931
    outer loop
      vertex 26 24.1091 -58.2044
      vertex -26 16.3056 -60.8533
      vertex -26 24.1091 -58.2044
    endloop
  endfacet
  facet normal 0 0.659354 -0.751833
    outer loop
      vertex -26 38.352 -49.9813
      vertex 26 44.5477 -44.5477
      vertex 26 38.352 -49.9813
    endloop
  endfacet
  facet normal 0 0.659354 -0.751833
    outer loop
      vertex 26 44.5477 -44.5477
      vertex -26 38.352 -49.9813
      vertex -26 44.5477 -44.5477
    endloop
  endfacet
  facet normal 0 0.896872 -0.44229
    outer loop
      vertex 26 54.5596 -31.5
      vertex -26 58.2044 -24.1091
      vertex 26 58.2044 -24.1091
    endloop
  endfacet
  facet normal 0 0.896872 -0.44229
    outer loop
      vertex -26 58.2044 -24.1091
      vertex 26 54.5596 -31.5
      vertex -26 54.5596 -31.5
    endloop
  endfacet
  facet normal -0 0.555565 0.831473
    outer loop
      vertex -26 38.352 49.9813
      vertex 26 31.5 54.5596
      vertex 26 38.352 49.9813
    endloop
  endfacet
  facet normal 0 0.555565 0.831473
    outer loop
      vertex 26 31.5 54.5596
      vertex -26 38.352 49.9813
      vertex -26 31.5 54.5596
    endloop
  endfacet
  facet normal -0 0.19509 0.980785
    outer loop
      vertex -26 16.3056 60.8533
      vertex 26 8.22315 62.461
      vertex 26 16.3056 60.8533
    endloop
  endfacet
  facet normal 0 0.19509 0.980785
    outer loop
      vertex 26 8.22315 62.461
      vertex -26 16.3056 60.8533
      vertex -26 8.22315 62.461
    endloop
  endfacet
  facet normal 1 0 0
    outer loop
      vertex 26 49 0
      vertex 26 63 0
      vertex 26 62.461 8.22315
    endloop
  endfacet
  facet normal 1 0 0
    outer loop
      vertex 26 48.5808 6.39578
      vertex 26 62.461 8.22315
      vertex 26 60.8533 16.3056
    endloop
  endfacet
  facet normal 1 0 0
    outer loop
      vertex 26 63 0
      vertex 26 49 0
      vertex 26 62.461 -8.22315
    endloop
  endfacet
  facet normal 1 0 0
    outer loop
      vertex 26 47.3304 12.6821
      vertex 26 60.8533 16.3056
      vertex 26 58.2044 24.1091
    endloop
  endfacet
  facet normal 1 -0 0
    outer loop
      vertex 26 48.5808 -6.39578
      vertex 26 62.461 -8.22315
      vertex 26 49 0
    endloop
  endfacet
  facet normal 1 0 0
    outer loop
      vertex 26 45.2701 18.7515
      vertex 26 58.2044 24.1091
      vertex 26 54.5596 31.5
    endloop
  endfacet
  facet normal 1 0 0
    outer loop
      vertex 26 62.461 -8.22315
      vertex 26 48.5808 -6.39578
      vertex 26 60.8533 -16.3056
    endloop
  endfacet
  facet normal 1 0 0
    outer loop
      vertex 26 42.4352 24.5
      vertex 26 54.5596 31.5
      vertex 26 49.9813 38.352
    endloop
  endfacet
  facet normal 1 -0 0
    outer loop
      vertex 26 47.3304 -12.6821
      vertex 26 60.8533 -16.3056
      vertex 26 48.5808 -6.39578
    endloop
  endfacet
  facet normal 1 0 0
    outer loop
      vertex 26 60.8533 -16.3056
      vertex 26 47.3304 -12.6821
      vertex 26 58.2044 -24.1091
    endloop
  endfacet
  facet normal 1 0 0
    outer loop
      vertex 26 62.461 8.22315
      vertex 26 48.5808 6.39578
      vertex 26 49 0
    endloop
  endfacet
  facet normal 1 0 0
    outer loop
      vertex 26 60.8533 16.3056
      vertex 26 47.3304 12.6821
      vertex 26 48.5808 6.39578
    endloop
  endfacet
  facet normal 1 0 0
    outer loop
      vertex 26 58.2044 24.1091
      vertex 26 45.2701 18.7515
      vertex 26 47.3304 12.6821
    endloop
  endfacet
  facet normal 1 0 0
    outer loop
      vertex 26 38.8743 29.8293
      vertex 26 49.9813 38.352
      vertex 26 44.5477 44.5477
    endloop
  endfacet
  facet normal 1 0 0
    outer loop
      vertex 26 54.5596 31.5
      vertex 26 42.4352 24.5
      vertex 26 45.2701 18.7515
    endloop
  endfacet
  facet normal 1 0 0
    outer loop
      vertex 26 49.9813 38.352
      vertex 26 38.8743 29.8293
      vertex 26 42.4352 24.5
    endloop
  endfacet
  facet normal 1 0 0
    outer loop
      vertex 26 34.6482 34.6482
      vertex 26 44.5477 44.5477
      vertex 26 38.352 49.9813
    endloop
  endfacet
  facet normal 1 0 0
    outer loop
      vertex 26 44.5477 44.5477
      vertex 26 34.6482 34.6482
      vertex 26 38.8743 29.8293
    endloop
  endfacet
  facet normal 1 0 0
    outer loop
      vertex 26 29.8293 38.8743
      vertex 26 38.352 49.9813
      vertex 26 31.5 54.5596
    endloop
  endfacet
  facet normal 1 0 0
    outer loop
      vertex 26 38.352 49.9813
      vertex 26 29.8293 38.8743
      vertex 26 34.6482 34.6482
    endloop
  endfacet
  facet normal 1 0 0
    outer loop
      vertex 26 31.5 54.5596
      vertex 26 24.5 42.4352
      vertex 26 29.8293 38.8743
    endloop
  endfacet
  facet normal 1 0 0
    outer loop
      vertex 26 24.1091 58.2044
      vertex 26 24.5 42.4352
      vertex 26 31.5 54.5596
    endloop
  endfacet
  facet normal 1 0 0
    outer loop
      vertex 26 24.1091 58.2044
      vertex 26 18.7515 45.2701
      vertex 26 24.5 42.4352
    endloop
  endfacet
  facet normal 1 0 0
    outer loop
      vertex 26 16.3056 60.8533
      vertex 26 18.7515 45.2701
      vertex 26 24.1091 58.2044
    endloop
  endfacet
  facet normal 1 0 0
    outer loop
      vertex 26 16.3056 60.8533
      vertex 26 12.6821 47.3304
      vertex 26 18.7515 45.2701
    endloop
  endfacet
  facet normal 1 0 0
    outer loop
      vertex 26 8.22315 62.461
      vertex 26 12.6821 47.3304
      vertex 26 16.3056 60.8533
    endloop
  endfacet
  facet normal 1 0 0
    outer loop
      vertex 26 8.22315 62.461
      vertex 26 6.39578 48.5808
      vertex 26 12.6821 47.3304
    endloop
  endfacet
  facet normal 1 0 0
    outer loop
      vertex 26 0 63
      vertex 26 6.39578 48.5808
      vertex 26 8.22315 62.461
    endloop
  endfacet
  facet normal 1 0 0
    outer loop
      vertex 26 0 63
      vertex 26 0 49
      vertex 26 6.39578 48.5808
    endloop
  endfacet
  facet normal 1 0 0
    outer loop
      vertex 26 0 63
      vertex 26 -6.39578 48.5808
      vertex 26 0 49
    endloop
  endfacet
  facet normal 1 -0 0
    outer loop
      vertex 26 -8.22315 62.461
      vertex 26 -6.39578 48.5808
      vertex 26 0 63
    endloop
  endfacet
  facet normal 1 0 0
    outer loop
      vertex 26 -8.22315 62.461
      vertex 26 -12.6821 47.3304
      vertex 26 -6.39578 48.5808
    endloop
  endfacet
  facet normal 1 -0 0
    outer loop
      vertex 26 -16.3056 60.8533
      vertex 26 -12.6821 47.3304
      vertex 26 -8.22315 62.461
    endloop
  endfacet
  facet normal 1 0 0
    outer loop
      vertex 26 -16.3056 60.8533
      vertex 26 -18.7515 45.2701
      vertex 26 -12.6821 47.3304
    endloop
  endfacet
  facet normal 1 -0 0
    outer loop
      vertex 26 -24.1091 58.2044
      vertex 26 -18.7515 45.2701
      vertex 26 -16.3056 60.8533
    endloop
  endfacet
  facet normal 1 0 0
    outer loop
      vertex 26 -24.1091 58.2044
      vertex 26 -24.5 42.4352
      vertex 26 -18.7515 45.2701
    endloop
  endfacet
  facet normal 1 -0 0
    outer loop
      vertex 26 -31.5 54.5596
      vertex 26 -24.5 42.4352
      vertex 26 -24.1091 58.2044
    endloop
  endfacet
  facet normal 1 0 0
    outer loop
      vertex 26 -24.5 42.4352
      vertex 26 -31.5 54.5596
      vertex 26 -29.8293 38.8743
    endloop
  endfacet
  facet normal 1 -0 0
    outer loop
      vertex 26 -38.352 49.9813
      vertex 26 -29.8293 38.8743
      vertex 26 -31.5 54.5596
    endloop
  endfacet
  facet normal 1 0 0
    outer loop
      vertex 26 -29.8293 38.8743
      vertex 26 -38.352 49.9813
      vertex 26 -34.6482 34.6482
    endloop
  endfacet
  facet normal 1 -0 0
    outer loop
      vertex 26 -44.5477 44.5477
      vertex 26 -34.6482 34.6482
      vertex 26 -38.352 49.9813
    endloop
  endfacet
  facet normal 1 0 0
    outer loop
      vertex 26 -34.6482 34.6482
      vertex 26 -44.5477 44.5477
      vertex 26 -38.8743 29.8293
    endloop
  endfacet
  facet normal 1 -0 0
    outer loop
      vertex 26 -49.9813 38.352
      vertex 26 -38.8743 29.8293
      vertex 26 -44.5477 44.5477
    endloop
  endfacet
  facet normal 1 0 0
    outer loop
      vertex 26 -38.8743 29.8293
      vertex 26 -49.9813 38.352
      vertex 26 -42.4352 24.5
    endloop
  endfacet
  facet normal 1 -0 0
    outer loop
      vertex 26 -54.5596 31.5
      vertex 26 -42.4352 24.5
      vertex 26 -49.9813 38.352
    endloop
  endfacet
  facet normal 1 0 0
    outer loop
      vertex 26 -42.4352 24.5
      vertex 26 -54.5596 31.5
      vertex 26 -45.2701 18.7515
    endloop
  endfacet
  facet normal 1 0 0
    outer loop
      vertex 26 -45.2701 18.7515
      vertex 26 -58.2044 24.1091
      vertex 26 -47.3304 12.6821
    endloop
  endfacet
  facet normal 1 -0 0
    outer loop
      vertex 26 -58.2044 24.1091
      vertex 26 -45.2701 18.7515
      vertex 26 -54.5596 31.5
    endloop
  endfacet
  facet normal 1 -0 0
    outer loop
      vertex 26 45.2701 -18.7515
      vertex 26 58.2044 -24.1091
      vertex 26 47.3304 -12.6821
    endloop
  endfacet
  facet normal 1 0 0
    outer loop
      vertex 26 58.2044 -24.1091
      vertex 26 45.2701 -18.7515
      vertex 26 54.5596 -31.5
    endloop
  endfacet
  facet normal 1 -0 0
    outer loop
      vertex 26 42.4352 -24.5
      vertex 26 54.5596 -31.5
      vertex 26 45.2701 -18.7515
    endloop
  endfacet
  facet normal 1 0 0
    outer loop
      vertex 26 54.5596 -31.5
      vertex 26 42.4352 -24.5
      vertex 26 49.9813 -38.352
    endloop
  endfacet
  facet normal 1 -0 0
    outer loop
      vertex 26 38.8743 -29.8293
      vertex 26 49.9813 -38.352
      vertex 26 42.4352 -24.5
    endloop
  endfacet
  facet normal 1 0 0
    outer loop
      vertex 26 49.9813 -38.352
      vertex 26 38.8743 -29.8293
      vertex 26 44.5477 -44.5477
    endloop
  endfacet
  facet normal 1 -0 0
    outer loop
      vertex 26 34.6482 -34.6482
      vertex 26 44.5477 -44.5477
      vertex 26 38.8743 -29.8293
    endloop
  endfacet
  facet normal 1 0 0
    outer loop
      vertex 26 44.5477 -44.5477
      vertex 26 34.6482 -34.6482
      vertex 26 38.352 -49.9813
    endloop
  endfacet
  facet normal 1 -0 0
    outer loop
      vertex 26 29.8293 -38.8743
      vertex 26 38.352 -49.9813
      vertex 26 34.6482 -34.6482
    endloop
  endfacet
  facet normal 1 0 0
    outer loop
      vertex 26 38.352 -49.9813
      vertex 26 29.8293 -38.8743
      vertex 26 31.5 -54.5596
    endloop
  endfacet
  facet normal 1 -0 0
    outer loop
      vertex 26 24.5 -42.4352
      vertex 26 31.5 -54.5596
      vertex 26 29.8293 -38.8743
    endloop
  endfacet
  facet normal 1 0 0
    outer loop
      vertex 26 24.5 -42.4352
      vertex 26 24.1091 -58.2044
      vertex 26 31.5 -54.5596
    endloop
  endfacet
  facet normal 1 -0 0
    outer loop
      vertex 26 18.7515 -45.2701
      vertex 26 24.1091 -58.2044
      vertex 26 24.5 -42.4352
    endloop
  endfacet
  facet normal 1 0 0
    outer loop
      vertex 26 18.7515 -45.2701
      vertex 26 16.3056 -60.8533
      vertex 26 24.1091 -58.2044
    endloop
  endfacet
  facet normal 1 -0 0
    outer loop
      vertex 26 12.6821 -47.3304
      vertex 26 16.3056 -60.8533
      vertex 26 18.7515 -45.2701
    endloop
  endfacet
  facet normal 1 0 0
    outer loop
      vertex 26 12.6821 -47.3304
      vertex 26 8.22315 -62.461
      vertex 26 16.3056 -60.8533
    endloop
  endfacet
  facet normal 1 -0 0
    outer loop
      vertex 26 6.39578 -48.5808
      vertex 26 8.22315 -62.461
      vertex 26 12.6821 -47.3304
    endloop
  endfacet
  facet normal 1 -0 0
    outer loop
      vertex 26 0 -49
      vertex 26 8.22315 -62.461
      vertex 26 6.39578 -48.5808
    endloop
  endfacet
  facet normal 1 0 0
    outer loop
      vertex 26 0 -49
      vertex 26 0 -63
      vertex 26 8.22315 -62.461
    endloop
  endfacet
  facet normal 1 0 0
    outer loop
      vertex 26 -6.39578 -48.5808
      vertex 26 0 -63
      vertex 26 0 -49
    endloop
  endfacet
  facet normal 1 0 0
    outer loop
      vertex 26 -6.39578 -48.5808
      vertex 26 -8.22315 -62.461
      vertex 26 0 -63
    endloop
  endfacet
  facet normal 1 0 0
    outer loop
      vertex 26 -12.6821 -47.3304
      vertex 26 -8.22315 -62.461
      vertex 26 -6.39578 -48.5808
    endloop
  endfacet
  facet normal 1 0 0
    outer loop
      vertex 26 -12.6821 -47.3304
      vertex 26 -16.3056 -60.8533
      vertex 26 -8.22315 -62.461
    endloop
  endfacet
  facet normal 1 0 0
    outer loop
      vertex 26 -18.7515 -45.2701
      vertex 26 -16.3056 -60.8533
      vertex 26 -12.6821 -47.3304
    endloop
  endfacet
  facet normal 1 0 0
    outer loop
      vertex 26 -18.7515 -45.2701
      vertex 26 -24.1091 -58.2044
      vertex 26 -16.3056 -60.8533
    endloop
  endfacet
  facet normal 1 0 0
    outer loop
      vertex 26 -24.5 -42.4352
      vertex 26 -24.1091 -58.2044
      vertex 26 -18.7515 -45.2701
    endloop
  endfacet
  facet normal 1 0 0
    outer loop
      vertex 26 -31.5 -54.5596
      vertex 26 -24.5 -42.4352
      vertex 26 -29.8293 -38.8743
    endloop
  endfacet
  facet normal 1 0 0
    outer loop
      vertex 26 -24.5 -42.4352
      vertex 26 -31.5 -54.5596
      vertex 26 -24.1091 -58.2044
    endloop
  endfacet
  facet normal 1 0 0
    outer loop
      vertex 26 -38.352 -49.9813
      vertex 26 -29.8293 -38.8743
      vertex 26 -34.6482 -34.6482
    endloop
  endfacet
  facet normal 1 0 0
    outer loop
      vertex 26 -29.8293 -38.8743
      vertex 26 -38.352 -49.9813
      vertex 26 -31.5 -54.5596
    endloop
  endfacet
  facet normal 1 0 0
    outer loop
      vertex 26 -44.5477 -44.5477
      vertex 26 -34.6482 -34.6482
      vertex 26 -38.8743 -29.8293
    endloop
  endfacet
  facet normal 1 0 0
    outer loop
      vertex 26 -49.9813 -38.352
      vertex 26 -38.8743 -29.8293
      vertex 26 -42.4352 -24.5
    endloop
  endfacet
  facet normal 1 0 0
    outer loop
      vertex 26 -34.6482 -34.6482
      vertex 26 -44.5477 -44.5477
      vertex 26 -38.352 -49.9813
    endloop
  endfacet
  facet normal 1 0 0
    outer loop
      vertex 26 -54.5596 -31.5
      vertex 26 -42.4352 -24.5
      vertex 26 -45.2701 -18.7515
    endloop
  endfacet
  facet normal 1 0 0
    outer loop
      vertex 26 -58.2044 -24.1091
      vertex 26 -45.2701 -18.7515
      vertex 26 -47.3304 -12.6821
    endloop
  endfacet
  facet normal 1 0 0
    outer loop
      vertex 26 -60.8533 -16.3056
      vertex 26 -47.3304 -12.6821
      vertex 26 -48.5808 -6.39578
    endloop
  endfacet
  facet normal 1 0 0
    outer loop
      vertex 26 -38.8743 -29.8293
      vertex 26 -49.9813 -38.352
      vertex 26 -44.5477 -44.5477
    endloop
  endfacet
  facet normal 1 0 0
    outer loop
      vertex 26 -62.461 -8.22315
      vertex 26 -48.5808 -6.39578
      vertex 26 -49 0
    endloop
  endfacet
  facet normal 1 -0 0
    outer loop
      vertex 26 -60.8533 16.3056
      vertex 26 -47.3304 12.6821
      vertex 26 -58.2044 24.1091
    endloop
  endfacet
  facet normal 1 0 0
    outer loop
      vertex 26 -47.3304 12.6821
      vertex 26 -60.8533 16.3056
      vertex 26 -48.5808 6.39578
    endloop
  endfacet
  facet normal 1 0 0
    outer loop
      vertex 26 -42.4352 -24.5
      vertex 26 -54.5596 -31.5
      vertex 26 -49.9813 -38.352
    endloop
  endfacet
  facet normal 1 -0 0
    outer loop
      vertex 26 -62.461 8.22315
      vertex 26 -48.5808 6.39578
      vertex 26 -60.8533 16.3056
    endloop
  endfacet
  facet normal 1 0 0
    outer loop
      vertex 26 -45.2701 -18.7515
      vertex 26 -58.2044 -24.1091
      vertex 26 -54.5596 -31.5
    endloop
  endfacet
  facet normal 1 0 0
    outer loop
      vertex 26 -48.5808 6.39578
      vertex 26 -62.461 8.22315
      vertex 26 -49 0
    endloop
  endfacet
  facet normal 1 0 0
    outer loop
      vertex 26 -47.3304 -12.6821
      vertex 26 -60.8533 -16.3056
      vertex 26 -58.2044 -24.1091
    endloop
  endfacet
  facet normal 1 0 0
    outer loop
      vertex 26 -63 0
      vertex 26 -49 0
      vertex 26 -62.461 8.22315
    endloop
  endfacet
  facet normal 1 0 0
    outer loop
      vertex 26 -48.5808 -6.39578
      vertex 26 -62.461 -8.22315
      vertex 26 -60.8533 -16.3056
    endloop
  endfacet
  facet normal 1 0 0
    outer loop
      vertex 26 -49 0
      vertex 26 -63 0
      vertex 26 -62.461 -8.22315
    endloop
  endfacet
  facet normal 0 0.896872 0.44229
    outer loop
      vertex 26 58.2044 24.1091
      vertex -26 54.5596 31.5
      vertex 26 54.5596 31.5
    endloop
  endfacet
  facet normal 0 0.896872 0.44229
    outer loop
      vertex -26 54.5596 31.5
      vertex 26 58.2044 24.1091
      vertex -26 58.2044 24.1091
    endloop
  endfacet
  facet normal 0 0.831473 0.555565
    outer loop
      vertex 26 54.5596 31.5
      vertex -26 49.9813 38.352
      vertex 26 49.9813 38.352
    endloop
  endfacet
  facet normal 0 0.831473 0.555565
    outer loop
      vertex -26 49.9813 38.352
      vertex 26 54.5596 31.5
      vertex -26 54.5596 31.5
    endloop
  endfacet
  facet normal 0 0.997859 0.0654063
    outer loop
      vertex 26 63 0
      vertex -26 62.461 8.22315
      vertex 26 62.461 8.22315
    endloop
  endfacet
  facet normal 0 0.997859 0.0654063
    outer loop
      vertex -26 62.461 8.22315
      vertex 26 63 0
      vertex -26 63 0
    endloop
  endfacet
  facet normal 0 -0.0654063 -0.997859
    outer loop
      vertex -26 -8.22315 -62.461
      vertex 26 0 -63
      vertex 26 -8.22315 -62.461
    endloop
  endfacet
  facet normal -0 -0.0654063 -0.997859
    outer loop
      vertex 26 0 -63
      vertex -26 -8.22315 -62.461
      vertex -26 0 -63
    endloop
  endfacet
  facet normal 0 -0.997859 -0.0654063
    outer loop
      vertex -26 -62.461 -8.22315
      vertex 26 -63 0
      vertex -26 -63 0
    endloop
  endfacet
  facet normal 0 -0.997859 -0.0654063
    outer loop
      vertex 26 -63 0
      vertex -26 -62.461 -8.22315
      vertex 26 -62.461 -8.22315
    endloop
  endfacet
  facet normal 0 -0.946931 -0.321436
    outer loop
      vertex -26 -58.2044 -24.1091
      vertex 26 -60.8533 -16.3056
      vertex -26 -60.8533 -16.3056
    endloop
  endfacet
  facet normal 0 -0.946931 -0.321436
    outer loop
      vertex 26 -60.8533 -16.3056
      vertex -26 -58.2044 -24.1091
      vertex 26 -58.2044 -24.1091
    endloop
  endfacet
  facet normal 0 -0.751833 -0.659354
    outer loop
      vertex -26 -44.5477 -44.5477
      vertex 26 -49.9813 -38.352
      vertex -26 -49.9813 -38.352
    endloop
  endfacet
  facet normal 0 -0.751833 -0.659354
    outer loop
      vertex 26 -49.9813 -38.352
      vertex -26 -44.5477 -44.5477
      vertex 26 -44.5477 -44.5477
    endloop
  endfacet
  facet normal 0 -0.555565 -0.831473
    outer loop
      vertex -26 -38.352 -49.9813
      vertex 26 -31.5 -54.5596
      vertex 26 -38.352 -49.9813
    endloop
  endfacet
  facet normal -0 -0.555565 -0.831473
    outer loop
      vertex 26 -31.5 -54.5596
      vertex -26 -38.352 -49.9813
      vertex -26 -31.5 -54.5596
    endloop
  endfacet
  facet normal 0 -0.19509 -0.980785
    outer loop
      vertex -26 -16.3056 -60.8533
      vertex 26 -8.22315 -62.461
      vertex 26 -16.3056 -60.8533
    endloop
  endfacet
  facet normal -0 -0.19509 -0.980785
    outer loop
      vertex 26 -8.22315 -62.461
      vertex -26 -16.3056 -60.8533
      vertex -26 -8.22315 -62.461
    endloop
  endfacet
  facet normal 0 -0.831473 0.555565
    outer loop
      vertex -26 -54.5596 31.5
      vertex 26 -49.9813 38.352
      vertex -26 -49.9813 38.352
    endloop
  endfacet
  facet normal 0 -0.831473 0.555565
    outer loop
      vertex 26 -49.9813 38.352
      vertex -26 -54.5596 31.5
      vertex 26 -54.5596 31.5
    endloop
  endfacet
  facet normal 0 -0.980785 0.19509
    outer loop
      vertex -26 -62.461 8.22315
      vertex 26 -60.8533 16.3056
      vertex -26 -60.8533 16.3056
    endloop
  endfacet
  facet normal 0 -0.980785 0.19509
    outer loop
      vertex 26 -60.8533 16.3056
      vertex -26 -62.461 8.22315
      vertex 26 -62.461 8.22315
    endloop
  endfacet
  facet normal 0 -0.44229 0.896872
    outer loop
      vertex -26 -24.1091 58.2044
      vertex 26 -31.5 54.5596
      vertex 26 -24.1091 58.2044
    endloop
  endfacet
  facet normal 0 -0.44229 0.896872
    outer loop
      vertex 26 -31.5 54.5596
      vertex -26 -24.1091 58.2044
      vertex -26 -31.5 54.5596
    endloop
  endfacet
  facet normal 0 -0.659354 0.751833
    outer loop
      vertex -26 -38.352 49.9813
      vertex 26 -44.5477 44.5477
      vertex 26 -38.352 49.9813
    endloop
  endfacet
  facet normal 0 -0.659354 0.751833
    outer loop
      vertex 26 -44.5477 44.5477
      vertex -26 -38.352 49.9813
      vertex -26 -44.5477 44.5477
    endloop
  endfacet
  facet normal 0 -0.321436 0.946931
    outer loop
      vertex -26 -16.3056 60.8533
      vertex 26 -24.1091 58.2044
      vertex 26 -16.3056 60.8533
    endloop
  endfacet
  facet normal 0 -0.321436 0.946931
    outer loop
      vertex 26 -24.1091 58.2044
      vertex -26 -16.3056 60.8533
      vertex -26 -24.1091 58.2044
    endloop
  endfacet
  facet normal 0 -0.0654063 0.997859
    outer loop
      vertex -26 0 63
      vertex 26 -8.22315 62.461
      vertex 26 0 63
    endloop
  endfacet
  facet normal 0 -0.0654063 0.997859
    outer loop
      vertex 26 -8.22315 62.461
      vertex -26 0 63
      vertex -26 -8.22315 62.461
    endloop
  endfacet
  facet normal 0 -0.980785 -0.19509
    outer loop
      vertex -26 -60.8533 -16.3056
      vertex 26 -62.461 -8.22315
      vertex -26 -62.461 -8.22315
    endloop
  endfacet
  facet normal 0 -0.980785 -0.19509
    outer loop
      vertex 26 -62.461 -8.22315
      vertex -26 -60.8533 -16.3056
      vertex 26 -60.8533 -16.3056
    endloop
  endfacet
  facet normal 0 -0.896872 -0.44229
    outer loop
      vertex -26 -54.5596 -31.5
      vertex 26 -58.2044 -24.1091
      vertex -26 -58.2044 -24.1091
    endloop
  endfacet
  facet normal 0 -0.896872 -0.44229
    outer loop
      vertex 26 -58.2044 -24.1091
      vertex -26 -54.5596 -31.5
      vertex 26 -54.5596 -31.5
    endloop
  endfacet
  facet normal 0 -0.659354 -0.751833
    outer loop
      vertex -26 -44.5477 -44.5477
      vertex 26 -38.352 -49.9813
      vertex 26 -44.5477 -44.5477
    endloop
  endfacet
  facet normal -0 -0.659354 -0.751833
    outer loop
      vertex 26 -38.352 -49.9813
      vertex -26 -44.5477 -44.5477
      vertex -26 -38.352 -49.9813
    endloop
  endfacet
  facet normal 0 -0.44229 -0.896872
    outer loop
      vertex -26 -31.5 -54.5596
      vertex 26 -24.1091 -58.2044
      vertex 26 -31.5 -54.5596
    endloop
  endfacet
  facet normal -0 -0.44229 -0.896872
    outer loop
      vertex 26 -24.1091 -58.2044
      vertex -26 -31.5 -54.5596
      vertex -26 -24.1091 -58.2044
    endloop
  endfacet
  facet normal 0 -0.896872 0.44229
    outer loop
      vertex -26 -58.2044 24.1091
      vertex 26 -54.5596 31.5
      vertex -26 -54.5596 31.5
    endloop
  endfacet
  facet normal 0 -0.896872 0.44229
    outer loop
      vertex 26 -54.5596 31.5
      vertex -26 -58.2044 24.1091
      vertex 26 -58.2044 24.1091
    endloop
  endfacet
  facet normal 0 -0.997859 0.0654063
    outer loop
      vertex -26 -63 0
      vertex 26 -62.461 8.22315
      vertex -26 -62.461 8.22315
    endloop
  endfacet
  facet normal 0 -0.997859 0.0654063
    outer loop
      vertex 26 -62.461 8.22315
      vertex -26 -63 0
      vertex 26 -63 0
    endloop
  endfacet
  facet normal 0 -0.555565 0.831473
    outer loop
      vertex -26 -31.5 54.5596
      vertex 26 -38.352 49.9813
      vertex 26 -31.5 54.5596
    endloop
  endfacet
  facet normal 0 -0.555565 0.831473
    outer loop
      vertex 26 -38.352 49.9813
      vertex -26 -31.5 54.5596
      vertex -26 -38.352 49.9813
    endloop
  endfacet
  facet normal 0 -0.19509 0.980785
    outer loop
      vertex -26 -8.22315 62.461
      vertex 26 -16.3056 60.8533
      vertex 26 -8.22315 62.461
    endloop
  endfacet
  facet normal 0 -0.19509 0.980785
    outer loop
      vertex 26 -16.3056 60.8533
      vertex -26 -8.22315 62.461
      vertex -26 -16.3056 60.8533
    endloop
  endfacet
  facet normal 0 -0.321436 -0.946931
    outer loop
      vertex -26 -24.1091 -58.2044
      vertex 26 -16.3056 -60.8533
      vertex 26 -24.1091 -58.2044
    endloop
  endfacet
  facet normal -0 -0.321436 -0.946931
    outer loop
      vertex 26 -16.3056 -60.8533
      vertex -26 -24.1091 -58.2044
      vertex -26 -16.3056 -60.8533
    endloop
  endfacet
  facet normal 0 -0.831471 0.555568
    outer loop
      vertex -26 38.8743 -29.8293
      vertex 26 42.4352 -24.5
      vertex -26 42.4352 -24.5
    endloop
  endfacet
  facet normal 0 -0.831471 0.555568
    outer loop
      vertex 26 42.4352 -24.5
      vertex -26 38.8743 -29.8293
      vertex 26 38.8743 -29.8293
    endloop
  endfacet
  facet normal 0 -0.946929 -0.321442
    outer loop
      vertex -26 47.3304 12.6821
      vertex 26 45.2701 18.7515
      vertex -26 45.2701 18.7515
    endloop
  endfacet
  facet normal 0 -0.946929 -0.321442
    outer loop
      vertex 26 45.2701 18.7515
      vertex -26 47.3304 12.6821
      vertex 26 47.3304 12.6821
    endloop
  endfacet
  facet normal 0 -0.442295 -0.896869
    outer loop
      vertex -26 18.7515 45.2701
      vertex 26 24.5 42.4352
      vertex 26 18.7515 45.2701
    endloop
  endfacet
  facet normal -0 -0.442295 -0.896869
    outer loop
      vertex 26 24.5 42.4352
      vertex -26 18.7515 45.2701
      vertex -26 24.5 42.4352
    endloop
  endfacet
  facet normal 0 0.442295 -0.896869
    outer loop
      vertex -26 -24.5 42.4352
      vertex 26 -18.7515 45.2701
      vertex 26 -24.5 42.4352
    endloop
  endfacet
  facet normal 0 0.442295 -0.896869
    outer loop
      vertex 26 -18.7515 45.2701
      vertex -26 -24.5 42.4352
      vertex -26 -18.7515 45.2701
    endloop
  endfacet
  facet normal 0 -0.195086 0.980786
    outer loop
      vertex -26 12.6821 -47.3304
      vertex 26 6.39578 -48.5808
      vertex 26 12.6821 -47.3304
    endloop
  endfacet
  facet normal 0 -0.195086 0.980786
    outer loop
      vertex 26 6.39578 -48.5808
      vertex -26 12.6821 -47.3304
      vertex -26 6.39578 -48.5808
    endloop
  endfacet
  facet normal 0 -0.321442 0.946929
    outer loop
      vertex -26 18.7515 -45.2701
      vertex 26 12.6821 -47.3304
      vertex 26 18.7515 -45.2701
    endloop
  endfacet
  facet normal 0 -0.321442 0.946929
    outer loop
      vertex 26 12.6821 -47.3304
      vertex -26 18.7515 -45.2701
      vertex -26 12.6821 -47.3304
    endloop
  endfacet
  facet normal 0 -0.555568 0.831471
    outer loop
      vertex -26 29.8293 -38.8743
      vertex 26 24.5 -42.4352
      vertex 26 29.8293 -38.8743
    endloop
  endfacet
  facet normal 0 -0.555568 0.831471
    outer loop
      vertex 26 24.5 -42.4352
      vertex -26 29.8293 -38.8743
      vertex -26 24.5 -42.4352
    endloop
  endfacet
  facet normal 0 -0.659349 0.751837
    outer loop
      vertex -26 34.6482 -34.6482
      vertex 26 29.8293 -38.8743
      vertex 26 34.6482 -34.6482
    endloop
  endfacet
  facet normal 0 -0.659349 0.751837
    outer loop
      vertex 26 29.8293 -38.8743
      vertex -26 34.6482 -34.6482
      vertex -26 29.8293 -38.8743
    endloop
  endfacet
  facet normal 0 -0.896869 0.442295
    outer loop
      vertex -26 42.4352 -24.5
      vertex 26 45.2701 -18.7515
      vertex -26 45.2701 -18.7515
    endloop
  endfacet
  facet normal 0 -0.896869 0.442295
    outer loop
      vertex 26 45.2701 -18.7515
      vertex -26 42.4352 -24.5
      vertex 26 42.4352 -24.5
    endloop
  endfacet
  facet normal 0 -0.997859 0.0654029
    outer loop
      vertex -26 48.5808 -6.39578
      vertex 26 49 0
      vertex -26 49 0
    endloop
  endfacet
  facet normal 0 -0.997859 0.0654029
    outer loop
      vertex 26 49 0
      vertex -26 48.5808 -6.39578
      vertex 26 48.5808 -6.39578
    endloop
  endfacet
  facet normal 0 -0.980786 0.195086
    outer loop
      vertex -26 47.3304 -12.6821
      vertex 26 48.5808 -6.39578
      vertex -26 48.5808 -6.39578
    endloop
  endfacet
  facet normal 0 -0.980786 0.195086
    outer loop
      vertex 26 48.5808 -6.39578
      vertex -26 47.3304 -12.6821
      vertex 26 47.3304 -12.6821
    endloop
  endfacet
  facet normal 0 -0.0654029 -0.997859
    outer loop
      vertex -26 0 49
      vertex 26 6.39578 48.5808
      vertex 26 0 49
    endloop
  endfacet
  facet normal -0 -0.0654029 -0.997859
    outer loop
      vertex 26 6.39578 48.5808
      vertex -26 0 49
      vertex -26 6.39578 48.5808
    endloop
  endfacet
  facet normal 0 -0.195086 -0.980786
    outer loop
      vertex -26 6.39578 48.5808
      vertex 26 12.6821 47.3304
      vertex 26 6.39578 48.5808
    endloop
  endfacet
  facet normal -0 -0.195086 -0.980786
    outer loop
      vertex 26 12.6821 47.3304
      vertex -26 6.39578 48.5808
      vertex -26 12.6821 47.3304
    endloop
  endfacet
  facet normal 0 -0.659349 -0.751837
    outer loop
      vertex -26 29.8293 38.8743
      vertex 26 34.6482 34.6482
      vertex 26 29.8293 38.8743
    endloop
  endfacet
  facet normal -0 -0.659349 -0.751837
    outer loop
      vertex 26 34.6482 34.6482
      vertex -26 29.8293 38.8743
      vertex -26 34.6482 34.6482
    endloop
  endfacet
  facet normal 0 -0.896869 -0.442295
    outer loop
      vertex -26 45.2701 18.7515
      vertex 26 42.4352 24.5
      vertex -26 42.4352 24.5
    endloop
  endfacet
  facet normal 0 -0.896869 -0.442295
    outer loop
      vertex 26 42.4352 24.5
      vertex -26 45.2701 18.7515
      vertex 26 45.2701 18.7515
    endloop
  endfacet
  facet normal 0 -0.997859 -0.0654029
    outer loop
      vertex -26 49 0
      vertex 26 48.5808 6.39578
      vertex -26 48.5808 6.39578
    endloop
  endfacet
  facet normal 0 -0.997859 -0.0654029
    outer loop
      vertex 26 48.5808 6.39578
      vertex -26 49 0
      vertex 26 49 0
    endloop
  endfacet
  facet normal 0 -0.831471 -0.555568
    outer loop
      vertex -26 42.4352 24.5
      vertex 26 38.8743 29.8293
      vertex -26 38.8743 29.8293
    endloop
  endfacet
  facet normal 0 -0.831471 -0.555568
    outer loop
      vertex 26 38.8743 29.8293
      vertex -26 42.4352 24.5
      vertex 26 42.4352 24.5
    endloop
  endfacet
  facet normal 0 -0.0654029 0.997859
    outer loop
      vertex -26 6.39578 -48.5808
      vertex 26 0 -49
      vertex 26 6.39578 -48.5808
    endloop
  endfacet
  facet normal 0 -0.0654029 0.997859
    outer loop
      vertex 26 0 -49
      vertex -26 6.39578 -48.5808
      vertex -26 0 -49
    endloop
  endfacet
  facet normal 0 0.946929 0.321442
    outer loop
      vertex 26 -45.2701 -18.7515
      vertex -26 -47.3304 -12.6821
      vertex 26 -47.3304 -12.6821
    endloop
  endfacet
  facet normal 0 0.946929 0.321442
    outer loop
      vertex -26 -47.3304 -12.6821
      vertex 26 -45.2701 -18.7515
      vertex -26 -45.2701 -18.7515
    endloop
  endfacet
  facet normal -0 0.659349 0.751837
    outer loop
      vertex -26 -29.8293 -38.8743
      vertex 26 -34.6482 -34.6482
      vertex 26 -29.8293 -38.8743
    endloop
  endfacet
  facet normal 0 0.659349 0.751837
    outer loop
      vertex 26 -34.6482 -34.6482
      vertex -26 -29.8293 -38.8743
      vertex -26 -34.6482 -34.6482
    endloop
  endfacet
  facet normal 0 0.831471 0.555568
    outer loop
      vertex 26 -38.8743 -29.8293
      vertex -26 -42.4352 -24.5
      vertex 26 -42.4352 -24.5
    endloop
  endfacet
  facet normal 0 0.831471 0.555568
    outer loop
      vertex -26 -42.4352 -24.5
      vertex 26 -38.8743 -29.8293
      vertex -26 -38.8743 -29.8293
    endloop
  endfacet
  facet normal 0 0.896869 -0.442295
    outer loop
      vertex 26 -45.2701 18.7515
      vertex -26 -42.4352 24.5
      vertex 26 -42.4352 24.5
    endloop
  endfacet
  facet normal 0 0.896869 -0.442295
    outer loop
      vertex -26 -42.4352 24.5
      vertex 26 -45.2701 18.7515
      vertex -26 -45.2701 18.7515
    endloop
  endfacet
  facet normal 0 0.831471 -0.555568
    outer loop
      vertex 26 -42.4352 24.5
      vertex -26 -38.8743 29.8293
      vertex 26 -38.8743 29.8293
    endloop
  endfacet
  facet normal 0 0.831471 -0.555568
    outer loop
      vertex -26 -38.8743 29.8293
      vertex 26 -42.4352 24.5
      vertex -26 -42.4352 24.5
    endloop
  endfacet
  facet normal 0 0.0654029 -0.997859
    outer loop
      vertex -26 -6.39578 48.5808
      vertex 26 0 49
      vertex 26 -6.39578 48.5808
    endloop
  endfacet
  facet normal 0 0.0654029 -0.997859
    outer loop
      vertex 26 0 49
      vertex -26 -6.39578 48.5808
      vertex -26 0 49
    endloop
  endfacet
  facet normal 0 -0.442295 0.896869
    outer loop
      vertex -26 24.5 -42.4352
      vertex 26 18.7515 -45.2701
      vertex 26 24.5 -42.4352
    endloop
  endfacet
  facet normal 0 -0.442295 0.896869
    outer loop
      vertex 26 18.7515 -45.2701
      vertex -26 24.5 -42.4352
      vertex -26 18.7515 -45.2701
    endloop
  endfacet
  facet normal 0 -0.751837 0.659349
    outer loop
      vertex -26 34.6482 -34.6482
      vertex 26 38.8743 -29.8293
      vertex -26 38.8743 -29.8293
    endloop
  endfacet
  facet normal 0 -0.751837 0.659349
    outer loop
      vertex 26 38.8743 -29.8293
      vertex -26 34.6482 -34.6482
      vertex 26 34.6482 -34.6482
    endloop
  endfacet
  facet normal 0 -0.555568 -0.831471
    outer loop
      vertex -26 24.5 42.4352
      vertex 26 29.8293 38.8743
      vertex 26 24.5 42.4352
    endloop
  endfacet
  facet normal -0 -0.555568 -0.831471
    outer loop
      vertex 26 29.8293 38.8743
      vertex -26 24.5 42.4352
      vertex -26 29.8293 38.8743
    endloop
  endfacet
  facet normal 0 -0.751837 -0.659349
    outer loop
      vertex -26 38.8743 29.8293
      vertex 26 34.6482 34.6482
      vertex -26 34.6482 34.6482
    endloop
  endfacet
  facet normal 0 -0.751837 -0.659349
    outer loop
      vertex 26 34.6482 34.6482
      vertex -26 38.8743 29.8293
      vertex 26 38.8743 29.8293
    endloop
  endfacet
  facet normal -0 0.0654029 0.997859
    outer loop
      vertex -26 0 -49
      vertex 26 -6.39578 -48.5808
      vertex 26 0 -49
    endloop
  endfacet
  facet normal 0 0.0654029 0.997859
    outer loop
      vertex 26 -6.39578 -48.5808
      vertex -26 0 -49
      vertex -26 -6.39578 -48.5808
    endloop
  endfacet
  facet normal 0 0.997859 0.0654029
    outer loop
      vertex 26 -48.5808 -6.39578
      vertex -26 -49 0
      vertex 26 -49 0
    endloop
  endfacet
  facet normal 0 0.997859 0.0654029
    outer loop
      vertex -26 -49 0
      vertex 26 -48.5808 -6.39578
      vertex -26 -48.5808 -6.39578
    endloop
  endfacet
  facet normal -0 0.555568 0.831471
    outer loop
      vertex -26 -24.5 -42.4352
      vertex 26 -29.8293 -38.8743
      vertex 26 -24.5 -42.4352
    endloop
  endfacet
  facet normal 0 0.555568 0.831471
    outer loop
      vertex 26 -29.8293 -38.8743
      vertex -26 -24.5 -42.4352
      vertex -26 -29.8293 -38.8743
    endloop
  endfacet
  facet normal 0 0.980786 0.195086
    outer loop
      vertex 26 -47.3304 -12.6821
      vertex -26 -48.5808 -6.39578
      vertex 26 -48.5808 -6.39578
    endloop
  endfacet
  facet normal 0 0.980786 0.195086
    outer loop
      vertex -26 -48.5808 -6.39578
      vertex 26 -47.3304 -12.6821
      vertex -26 -47.3304 -12.6821
    endloop
  endfacet
  facet normal 0 0.751837 0.659349
    outer loop
      vertex 26 -34.6482 -34.6482
      vertex -26 -38.8743 -29.8293
      vertex 26 -38.8743 -29.8293
    endloop
  endfacet
  facet normal 0 0.751837 0.659349
    outer loop
      vertex -26 -38.8743 -29.8293
      vertex 26 -34.6482 -34.6482
      vertex -26 -34.6482 -34.6482
    endloop
  endfacet
  facet normal 0 0.997859 -0.0654029
    outer loop
      vertex 26 -49 0
      vertex -26 -48.5808 6.39578
      vertex 26 -48.5808 6.39578
    endloop
  endfacet
  facet normal 0 0.997859 -0.0654029
    outer loop
      vertex -26 -48.5808 6.39578
      vertex 26 -49 0
      vertex -26 -49 0
    endloop
  endfacet
  facet normal 0 0.946929 -0.321442
    outer loop
      vertex 26 -47.3304 12.6821
      vertex -26 -45.2701 18.7515
      vertex 26 -45.2701 18.7515
    endloop
  endfacet
  facet normal 0 0.946929 -0.321442
    outer loop
      vertex -26 -45.2701 18.7515
      vertex 26 -47.3304 12.6821
      vertex -26 -47.3304 12.6821
    endloop
  endfacet
  facet normal 0 0.980786 -0.195086
    outer loop
      vertex 26 -48.5808 6.39578
      vertex -26 -47.3304 12.6821
      vertex 26 -47.3304 12.6821
    endloop
  endfacet
  facet normal 0 0.980786 -0.195086
    outer loop
      vertex -26 -47.3304 12.6821
      vertex 26 -48.5808 6.39578
      vertex -26 -48.5808 6.39578
    endloop
  endfacet
  facet normal 0 0.751837 -0.659349
    outer loop
      vertex 26 -38.8743 29.8293
      vertex -26 -34.6482 34.6482
      vertex 26 -34.6482 34.6482
    endloop
  endfacet
  facet normal 0 0.751837 -0.659349
    outer loop
      vertex -26 -34.6482 34.6482
      vertex 26 -38.8743 29.8293
      vertex -26 -38.8743 29.8293
    endloop
  endfacet
  facet normal 0 0.195086 -0.980786
    outer loop
      vertex -26 -12.6821 47.3304
      vertex 26 -6.39578 48.5808
      vertex 26 -12.6821 47.3304
    endloop
  endfacet
  facet normal 0 0.195086 -0.980786
    outer loop
      vertex 26 -6.39578 48.5808
      vertex -26 -12.6821 47.3304
      vertex -26 -6.39578 48.5808
    endloop
  endfacet
  facet normal 0 0.555568 -0.831471
    outer loop
      vertex -26 -29.8293 38.8743
      vertex 26 -24.5 42.4352
      vertex 26 -29.8293 38.8743
    endloop
  endfacet
  facet normal 0 0.555568 -0.831471
    outer loop
      vertex 26 -24.5 42.4352
      vertex -26 -29.8293 38.8743
      vertex -26 -24.5 42.4352
    endloop
  endfacet
  facet normal 0 0.659349 -0.751837
    outer loop
      vertex -26 -34.6482 34.6482
      vertex 26 -29.8293 38.8743
      vertex 26 -34.6482 34.6482
    endloop
  endfacet
  facet normal 0 0.659349 -0.751837
    outer loop
      vertex 26 -29.8293 38.8743
      vertex -26 -34.6482 34.6482
      vertex -26 -29.8293 38.8743
    endloop
  endfacet
  facet normal 0 -0.946929 0.321442
    outer loop
      vertex -26 45.2701 -18.7515
      vertex 26 47.3304 -12.6821
      vertex -26 47.3304 -12.6821
    endloop
  endfacet
  facet normal 0 -0.946929 0.321442
    outer loop
      vertex 26 47.3304 -12.6821
      vertex -26 45.2701 -18.7515
      vertex 26 45.2701 -18.7515
    endloop
  endfacet
  facet normal 0 -0.321442 -0.946929
    outer loop
      vertex -26 12.6821 47.3304
      vertex 26 18.7515 45.2701
      vertex 26 12.6821 47.3304
    endloop
  endfacet
  facet normal -0 -0.321442 -0.946929
    outer loop
      vertex 26 18.7515 45.2701
      vertex -26 12.6821 47.3304
      vertex -26 18.7515 45.2701
    endloop
  endfacet
  facet normal 0 -0.980786 -0.195086
    outer loop
      vertex -26 48.5808 6.39578
      vertex 26 47.3304 12.6821
      vertex -26 47.3304 12.6821
    endloop
  endfacet
  facet normal 0 -0.980786 -0.195086
    outer loop
      vertex 26 47.3304 12.6821
      vertex -26 48.5808 6.39578
      vertex 26 48.5808 6.39578
    endloop
  endfacet
  facet normal -0 0.442295 0.896869
    outer loop
      vertex -26 -18.7515 -45.2701
      vertex 26 -24.5 -42.4352
      vertex 26 -18.7515 -45.2701
    endloop
  endfacet
  facet normal 0 0.442295 0.896869
    outer loop
      vertex 26 -24.5 -42.4352
      vertex -26 -18.7515 -45.2701
      vertex -26 -24.5 -42.4352
    endloop
  endfacet
  facet normal 0 0.896869 0.442295
    outer loop
      vertex 26 -42.4352 -24.5
      vertex -26 -45.2701 -18.7515
      vertex 26 -45.2701 -18.7515
    endloop
  endfacet
  facet normal 0 0.896869 0.442295
    outer loop
      vertex -26 -45.2701 -18.7515
      vertex 26 -42.4352 -24.5
      vertex -26 -42.4352 -24.5
    endloop
  endfacet
  facet normal 0 0.321442 -0.946929
    outer loop
      vertex -26 -18.7515 45.2701
      vertex 26 -12.6821 47.3304
      vertex 26 -18.7515 45.2701
    endloop
  endfacet
  facet normal 0 0.321442 -0.946929
    outer loop
      vertex 26 -12.6821 47.3304
      vertex -26 -18.7515 45.2701
      vertex -26 -12.6821 47.3304
    endloop
  endfacet
  facet normal -0 0.195086 0.980786
    outer loop
      vertex -26 -6.39578 -48.5808
      vertex 26 -12.6821 -47.3304
      vertex 26 -6.39578 -48.5808
    endloop
  endfacet
  facet normal 0 0.195086 0.980786
    outer loop
      vertex 26 -12.6821 -47.3304
      vertex -26 -6.39578 -48.5808
      vertex -26 -12.6821 -47.3304
    endloop
  endfacet
  facet normal -0 0.321442 0.946929
    outer loop
      vertex -26 -12.6821 -47.3304
      vertex 26 -18.7515 -45.2701
      vertex 26 -12.6821 -47.3304
    endloop
  endfacet
  facet normal 0 0.321442 0.946929
    outer loop
      vertex 26 -18.7515 -45.2701
      vertex -26 -12.6821 -47.3304
      vertex -26 -18.7515 -45.2701
    endloop
  endfacet
endsolid OpenSCAD_Model
